# carrier.obj — gray-box hull for Missile Rider.
# GENERATED by tools/gen_carrier_obj.py. Do not hand-edit; edit the generator.
o carrier
v 0.0000 1.6000 -19.0000
v 3.2000 0.4000 -19.0000
v 2.3040 -1.4000 -19.0000
v 0.0000 -1.5680 -19.0000
v -2.3040 -1.4000 -19.0000
v -3.2000 0.4000 -19.0000
v 0.0000 3.4000 -11.0000
v 6.0000 0.8500 -11.0000
v 4.3200 -3.0000 -11.0000
v 0.0000 -3.3600 -11.0000
v -4.3200 -3.0000 -11.0000
v -6.0000 0.8500 -11.0000
v 0.0000 3.4000 -11.0000
v 6.0000 0.8500 -11.0000
v 4.3200 -3.0000 -11.0000
v 0.0000 -3.3600 -11.0000
v -4.3200 -3.0000 -11.0000
v -6.0000 0.8500 -11.0000
v 0.0000 5.2000 -1.0000
v 8.4000 1.3000 -1.0000
v 6.0480 -4.4000 -1.0000
v 0.0000 -4.9280 -1.0000
v -6.0480 -4.4000 -1.0000
v -8.4000 1.3000 -1.0000
v 0.0000 5.2000 -1.0000
v 8.4000 1.3000 -1.0000
v 6.0480 -4.4000 -1.0000
v 0.0000 -4.9280 -1.0000
v -6.0480 -4.4000 -1.0000
v -8.4000 1.3000 -1.0000
v 0.0000 4.6000 9.0000
v 7.6000 1.1500 9.0000
v 5.4720 -4.0000 9.0000
v 0.0000 -4.4800 9.0000
v -5.4720 -4.0000 9.0000
v -7.6000 1.1500 9.0000
v 0.0000 4.6000 9.0000
v 7.6000 1.1500 9.0000
v 5.4720 -4.0000 9.0000
v 0.0000 -4.4800 9.0000
v -5.4720 -4.0000 9.0000
v -7.6000 1.1500 9.0000
v 0.0000 3.0000 17.0000
v 5.4000 0.7500 17.0000
v 3.8880 -2.6000 17.0000
v 0.0000 -2.9120 17.0000
v -3.8880 -2.6000 17.0000
v -5.4000 0.7500 17.0000
v 0.0000 1.6000 -19.0000
v 3.2000 0.4000 -19.0000
v 2.3040 -1.4000 -19.0000
v 0.0000 -1.5680 -19.0000
v -2.3040 -1.4000 -19.0000
v -3.2000 0.4000 -19.0000
v 0.0000 0.4000 -25.0000
v 0.0000 3.0000 17.0000
v 5.4000 0.7500 17.0000
v 3.8880 -2.6000 17.0000
v 0.0000 -2.9120 17.0000
v -3.8880 -2.6000 17.0000
v -5.4000 0.7500 17.0000
v 0.0000 2.6000 20.0000
v 5.0000 0.6500 20.0000
v 3.6000 -2.4000 20.0000
v 0.0000 -2.6880 20.0000
v -3.6000 -2.4000 20.0000
v -5.0000 0.6500 20.0000
v 4.6000 -1.7000 -16.0000
v 18.5000 -1.7000 -27.0000
v 21.8000 -1.7000 -21.0000
v 16.0000 -1.7000 -1.0000
v 9.5000 -1.7000 7.0000
v 4.6000 -1.7000 7.0000
v 4.6000 1.7000 -16.0000
v 18.5000 1.7000 -27.0000
v 21.8000 1.7000 -21.0000
v 16.0000 1.7000 -1.0000
v 9.5000 1.7000 7.0000
v 4.6000 1.7000 7.0000
v -4.6000 -1.7000 -16.0000
v -18.5000 -1.7000 -27.0000
v -21.8000 -1.7000 -21.0000
v -16.0000 -1.7000 -1.0000
v -9.5000 -1.7000 7.0000
v -4.6000 -1.7000 7.0000
v -4.6000 1.7000 -16.0000
v -18.5000 1.7000 -27.0000
v -21.8000 1.7000 -21.0000
v -16.0000 1.7000 -1.0000
v -9.5000 1.7000 7.0000
v -4.6000 1.7000 7.0000
v 17.4000 -2.4000 -27.0000
v 17.4000 -2.4000 -19.0000
v 17.4000 2.4000 -27.0000
v 17.4000 2.4000 -19.0000
v 21.8000 -2.4000 -27.0000
v 21.8000 -2.4000 -19.0000
v 21.8000 2.4000 -27.0000
v 21.8000 2.4000 -19.0000
v -17.4000 -2.4000 -27.0000
v -17.4000 -2.4000 -19.0000
v -17.4000 2.4000 -27.0000
v -17.4000 2.4000 -19.0000
v -21.8000 -2.4000 -27.0000
v -21.8000 -2.4000 -19.0000
v -21.8000 2.4000 -27.0000
v -21.8000 2.4000 -19.0000
v 18.3000 -1.3000 -29.1000
v 18.3000 -1.3000 -26.1000
v 18.3000 1.3000 -29.1000
v 18.3000 1.3000 -26.1000
v 20.9000 -1.3000 -29.1000
v 20.9000 -1.3000 -26.1000
v 20.9000 1.3000 -29.1000
v 20.9000 1.3000 -26.1000
v -18.3000 -1.3000 -29.1000
v -18.3000 -1.3000 -26.1000
v -18.3000 1.3000 -29.1000
v -18.3000 1.3000 -26.1000
v -20.9000 -1.3000 -29.1000
v -20.9000 -1.3000 -26.1000
v -20.9000 1.3000 -29.1000
v -20.9000 1.3000 -26.1000
v 2.6000 4.4000 -9.0000
v 3.8000 4.4000 1.0000
v 2.4000 4.4000 12.0000
v -2.4000 4.4000 12.0000
v -3.8000 4.4000 1.0000
v -2.6000 4.4000 -9.0000
v 2.6000 8.6000 -9.0000
v 3.8000 8.6000 1.0000
v 2.4000 8.6000 12.0000
v -2.4000 8.6000 12.0000
v -3.8000 8.6000 1.0000
v -2.6000 8.6000 -9.0000
v -1.5000 8.8000 -0.5000
v -1.5000 8.8000 8.5000
v -1.5000 10.8000 -0.5000
v -1.5000 10.8000 8.5000
v 1.5000 8.8000 -0.5000
v 1.5000 8.8000 8.5000
v 1.5000 10.8000 -0.5000
v 1.5000 10.8000 8.5000
v -0.3000 10.8000 5.7000
v -0.3000 10.8000 6.3000
v -0.3000 16.0000 5.7000
v -0.3000 16.0000 6.3000
v 0.3000 10.8000 5.7000
v 0.3000 10.8000 6.3000
v 0.3000 16.0000 5.7000
v 0.3000 16.0000 6.3000
v 2.9000 -7.8000 -6.5000
v 2.9000 -7.8000 8.5000
v 2.9000 -4.6000 -6.5000
v 2.9000 -4.6000 8.5000
v 7.1000 -7.8000 -6.5000
v 7.1000 -7.8000 8.5000
v 7.1000 -4.6000 -6.5000
v 7.1000 -4.6000 8.5000
v -2.9000 -7.8000 -6.5000
v -2.9000 -7.8000 8.5000
v -2.9000 -4.6000 -6.5000
v -2.9000 -4.6000 8.5000
v -7.1000 -7.8000 -6.5000
v -7.1000 -7.8000 8.5000
v -7.1000 -4.6000 -6.5000
v -7.1000 -4.6000 8.5000
v -2.5000 -8.1000 -7.5000
v -2.5000 -8.1000 3.5000
v -2.5000 -5.5000 -7.5000
v -2.5000 -5.5000 3.5000
v 2.5000 -8.1000 -7.5000
v 2.5000 -8.1000 3.5000
v 2.5000 -5.5000 -7.5000
v 2.5000 -5.5000 3.5000
v 6.1000 0.9000 -13.5000
v 6.1000 0.9000 -10.5000
v 6.1000 3.1000 -13.5000
v 6.1000 3.1000 -10.5000
v 8.7000 0.9000 -13.5000
v 8.7000 0.9000 -10.5000
v 8.7000 3.1000 -13.5000
v 8.7000 3.1000 -10.5000
v -6.1000 0.9000 -13.5000
v -6.1000 0.9000 -10.5000
v -6.1000 3.1000 -13.5000
v -6.1000 3.1000 -10.5000
v -8.7000 0.9000 -13.5000
v -8.7000 0.9000 -10.5000
v -8.7000 3.1000 -13.5000
v -8.7000 3.1000 -10.5000
v 8.5000 1.8000 -16.2000
v 8.5000 1.8000 -12.6000
v 8.5000 2.4000 -16.2000
v 8.5000 2.4000 -12.6000
v 9.1000 1.8000 -16.2000
v 9.1000 1.8000 -12.6000
v 9.1000 2.4000 -16.2000
v 9.1000 2.4000 -12.6000
v -8.5000 1.8000 -16.2000
v -8.5000 1.8000 -12.6000
v -8.5000 2.4000 -16.2000
v -8.5000 2.4000 -12.6000
v -9.1000 1.8000 -16.2000
v -9.1000 1.8000 -12.6000
v -9.1000 2.4000 -16.2000
v -9.1000 2.4000 -12.6000
v 6.1000 0.9000 -4.5000
v 6.1000 0.9000 -1.5000
v 6.1000 3.1000 -4.5000
v 6.1000 3.1000 -1.5000
v 8.7000 0.9000 -4.5000
v 8.7000 0.9000 -1.5000
v 8.7000 3.1000 -4.5000
v 8.7000 3.1000 -1.5000
v -6.1000 0.9000 -4.5000
v -6.1000 0.9000 -1.5000
v -6.1000 3.1000 -4.5000
v -6.1000 3.1000 -1.5000
v -8.7000 0.9000 -4.5000
v -8.7000 0.9000 -1.5000
v -8.7000 3.1000 -4.5000
v -8.7000 3.1000 -1.5000
v 8.5000 1.8000 -7.2000
v 8.5000 1.8000 -3.6000
v 8.5000 2.4000 -7.2000
v 8.5000 2.4000 -3.6000
v 9.1000 1.8000 -7.2000
v 9.1000 1.8000 -3.6000
v 9.1000 2.4000 -7.2000
v 9.1000 2.4000 -3.6000
v -8.5000 1.8000 -7.2000
v -8.5000 1.8000 -3.6000
v -8.5000 2.4000 -7.2000
v -8.5000 2.4000 -3.6000
v -9.1000 1.8000 -7.2000
v -9.1000 1.8000 -3.6000
v -9.1000 2.4000 -7.2000
v -9.1000 2.4000 -3.6000
v 6.1000 0.9000 4.5000
v 6.1000 0.9000 7.5000
v 6.1000 3.1000 4.5000
v 6.1000 3.1000 7.5000
v 8.7000 0.9000 4.5000
v 8.7000 0.9000 7.5000
v 8.7000 3.1000 4.5000
v 8.7000 3.1000 7.5000
v -6.1000 0.9000 4.5000
v -6.1000 0.9000 7.5000
v -6.1000 3.1000 4.5000
v -6.1000 3.1000 7.5000
v -8.7000 0.9000 4.5000
v -8.7000 0.9000 7.5000
v -8.7000 3.1000 4.5000
v -8.7000 3.1000 7.5000
v 8.5000 1.8000 1.8000
v 8.5000 1.8000 5.4000
v 8.5000 2.4000 1.8000
v 8.5000 2.4000 5.4000
v 9.1000 1.8000 1.8000
v 9.1000 1.8000 5.4000
v 9.1000 2.4000 1.8000
v 9.1000 2.4000 5.4000
v -8.5000 1.8000 1.8000
v -8.5000 1.8000 5.4000
v -8.5000 2.4000 1.8000
v -8.5000 2.4000 5.4000
v -9.1000 1.8000 1.8000
v -9.1000 1.8000 5.4000
v -9.1000 2.4000 1.8000
v -9.1000 2.4000 5.4000
v 6.1000 0.9000 11.5000
v 6.1000 0.9000 14.5000
v 6.1000 3.1000 11.5000
v 6.1000 3.1000 14.5000
v 8.7000 0.9000 11.5000
v 8.7000 0.9000 14.5000
v 8.7000 3.1000 11.5000
v 8.7000 3.1000 14.5000
v -6.1000 0.9000 11.5000
v -6.1000 0.9000 14.5000
v -6.1000 3.1000 11.5000
v -6.1000 3.1000 14.5000
v -8.7000 0.9000 11.5000
v -8.7000 0.9000 14.5000
v -8.7000 3.1000 11.5000
v -8.7000 3.1000 14.5000
v 8.5000 1.8000 8.8000
v 8.5000 1.8000 12.4000
v 8.5000 2.4000 8.8000
v 8.5000 2.4000 12.4000
v 9.1000 1.8000 8.8000
v 9.1000 1.8000 12.4000
v 9.1000 2.4000 8.8000
v 9.1000 2.4000 12.4000
v -8.5000 1.8000 8.8000
v -8.5000 1.8000 12.4000
v -8.5000 2.4000 8.8000
v -8.5000 2.4000 12.4000
v -9.1000 1.8000 8.8000
v -9.1000 1.8000 12.4000
v -9.1000 2.4000 8.8000
v -9.1000 2.4000 12.4000
v -6.3000 -1.5000 20.3000
v -6.3000 -1.5000 22.9000
v -6.3000 1.9000 20.3000
v -6.3000 1.9000 22.9000
v -2.9000 -1.5000 20.3000
v -2.9000 -1.5000 22.9000
v -2.9000 1.9000 20.3000
v -2.9000 1.9000 22.9000
v -1.7000 -1.5000 20.3000
v -1.7000 -1.5000 22.9000
v -1.7000 1.9000 20.3000
v -1.7000 1.9000 22.9000
v 1.7000 -1.5000 20.3000
v 1.7000 -1.5000 22.9000
v 1.7000 1.9000 20.3000
v 1.7000 1.9000 22.9000
v 2.9000 -1.5000 20.3000
v 2.9000 -1.5000 22.9000
v 2.9000 1.9000 20.3000
v 2.9000 1.9000 22.9000
v 6.3000 -1.5000 20.3000
v 6.3000 -1.5000 22.9000
v 6.3000 1.9000 20.3000
v 6.3000 1.9000 22.9000
vt 0.5000 0.3720
vt 0.7560 0.4680
vt 0.6843 0.6120
vt 0.5000 0.6254
vt 0.3157 0.6120
vt 0.2440 0.4680
vt 0.0200 0.4320
vt 0.1544 0.7400
vt 0.5000 0.7688
vt 0.8456 0.7400
vt 0.9800 0.4320
vt 0.5000 0.2280
vt 0.5000 1.3800
vt 0.9800 1.3800
vt 0.7560 2.0200
vt 0.5000 2.0200
vt -0.3800 0.4320
vt -0.3800 0.7400
vt -1.0200 0.6120
vt -1.0200 0.4680
vt 0.8456 1.3800
vt 0.5000 1.3800
vt 0.5000 2.0200
vt 0.6843 2.0200
vt 0.5000 1.3800
vt 0.1544 1.3800
vt 0.3157 2.0200
vt 0.5000 2.0200
vt -0.3800 0.7400
vt -0.3800 0.4320
vt -1.0200 0.4680
vt -1.0200 0.6120
vt 0.0200 1.3800
vt 0.5000 1.3800
vt 0.5000 2.0200
vt 0.2440 2.0200
vt 0.5000 0.2280
vt 0.9800 0.4320
vt 0.8456 0.7400
vt 0.5000 0.7688
vt 0.1544 0.7400
vt 0.0200 0.4320
vt -0.1720 0.3960
vt 0.0162 0.8520
vt 0.5000 0.8942
vt 0.9838 0.8520
vt 1.1720 0.3960
vt 0.5000 0.0840
vt 0.5000 0.5800
vt 1.1720 0.5800
vt 0.9800 1.3800
vt 0.5000 1.3800
vt 0.4200 0.3960
vt 0.4200 0.8520
vt -0.3800 0.7400
vt -0.3800 0.4320
vt 0.9838 0.5800
vt 0.5000 0.5800
vt 0.5000 1.3800
vt 0.8456 1.3800
vt 0.5000 0.5800
vt 0.0162 0.5800
vt 0.1544 1.3800
vt 0.5000 1.3800
vt 0.4200 0.8520
vt 0.4200 0.3960
vt -0.3800 0.4320
vt -0.3800 0.7400
vt -0.1720 0.5800
vt 0.5000 0.5800
vt 0.5000 1.3800
vt 0.0200 1.3800
vt 0.5000 0.0840
vt 1.1720 0.3960
vt 0.9838 0.8520
vt 0.5000 0.8942
vt 0.0162 0.8520
vt -0.1720 0.3960
vt -0.1080 0.4080
vt 0.0622 0.8200
vt 0.5000 0.8584
vt 0.9378 0.8200
vt 1.1080 0.4080
vt 0.5000 0.1320
vt 0.5000 -0.2200
vt 1.1080 -0.2200
vt 1.1720 0.5800
vt 0.5000 0.5800
vt 1.2200 0.4080
vt 1.2200 0.8200
vt 0.4200 0.8520
vt 0.4200 0.3960
vt 0.9378 -0.2200
vt 0.5000 -0.2200
vt 0.5000 0.5800
vt 0.9838 0.5800
vt 0.5000 -0.2200
vt 0.0622 -0.2200
vt 0.0162 0.5800
vt 0.5000 0.5800
vt 1.2200 0.8200
vt 1.2200 0.4080
vt 0.4200 0.3960
vt 0.4200 0.8520
vt -0.1080 -0.2200
vt 0.5000 -0.2200
vt 0.5000 0.5800
vt -0.1720 0.5800
vt 0.5000 0.1320
vt 1.1080 0.4080
vt 0.9378 0.8200
vt 0.5000 0.8584
vt 0.0622 0.8200
vt -0.1080 0.4080
vt 0.0680 0.4400
vt 0.1890 0.7080
vt 0.5000 0.7330
vt 0.8110 0.7080
vt 0.9320 0.4400
vt 0.5000 0.2600
vt 0.5000 -0.8600
vt 0.9320 -0.8600
vt 1.1080 -0.2200
vt 0.5000 -0.2200
vt 1.8600 0.4400
vt 1.8600 0.7080
vt 1.2200 0.8200
vt 1.2200 0.4080
vt 0.8110 -0.8600
vt 0.5000 -0.8600
vt 0.5000 -0.2200
vt 0.9378 -0.2200
vt 0.5000 -0.8600
vt 0.1890 -0.8600
vt 0.0622 -0.2200
vt 0.5000 -0.2200
vt 1.8600 0.7080
vt 1.8600 0.4400
vt 1.2200 0.4080
vt 1.2200 0.8200
vt 0.0680 -0.8600
vt 0.5000 -0.8600
vt 0.5000 -0.2200
vt -0.1080 -0.2200
vt 0.2440 0.4680
vt 0.3157 0.6120
vt 0.5000 0.6254
vt 0.6843 0.6120
vt 0.7560 0.4680
vt 0.5000 0.3720
vt 0.5000 2.0200
vt 0.7560 2.0200
vt 0.5000 2.5000
vt -1.0200 0.4680
vt -1.0200 0.6120
vt -1.5000 0.4680
vt 0.6843 2.0200
vt 0.5000 2.0200
vt 0.5000 2.5000
vt 0.5000 2.0200
vt 0.3157 2.0200
vt 0.5000 2.5000
vt -1.0200 0.6120
vt -1.0200 0.4680
vt -1.5000 0.4680
vt 0.2440 2.0200
vt 0.5000 2.0200
vt 0.5000 2.5000
vt 0.5000 0.2600
vt 0.9320 0.4400
vt 0.8110 0.7080
vt 0.5000 0.7330
vt 0.1890 0.7080
vt 0.0680 0.4400
vt 0.1000 0.4480
vt 0.2120 0.6920
vt 0.5000 0.7150
vt 0.7880 0.6920
vt 0.9000 0.4480
vt 0.5000 0.2920
vt 0.5000 -1.1000
vt 0.9000 -1.1000
vt 0.9320 -0.8600
vt 0.5000 -0.8600
vt 2.1000 0.4480
vt 2.1000 0.6920
vt 1.8600 0.7080
vt 1.8600 0.4400
vt 0.7880 -1.1000
vt 0.5000 -1.1000
vt 0.5000 -0.8600
vt 0.8110 -0.8600
vt 0.5000 -1.1000
vt 0.2120 -1.1000
vt 0.1890 -0.8600
vt 0.5000 -0.8600
vt 2.1000 0.6920
vt 2.1000 0.4480
vt 1.8600 0.4400
vt 1.8600 0.7080
vt 0.1000 -1.1000
vt 0.5000 -1.1000
vt 0.5000 -0.8600
vt 0.0680 -0.8600
vt 0.8680 1.7800
vt 1.9800 2.6600
vt 2.2440 2.1800
vt 1.7800 0.5800
vt 1.2600 -0.0600
vt 0.8680 -0.0600
vt 0.8680 -0.0600
vt 1.2600 -0.0600
vt 1.7800 0.5800
vt 2.2440 2.1800
vt 1.9800 2.6600
vt 0.8680 1.7800
vt 0.8680 0.3640
vt 1.9800 0.3640
vt 1.9800 0.6360
vt 0.8680 0.6360
vt -1.6600 0.3640
vt -1.1800 0.3640
vt -1.1800 0.6360
vt -1.6600 0.6360
vt -1.1800 0.3640
vt 0.4200 0.3640
vt 0.4200 0.6360
vt -1.1800 0.6360
vt 0.4200 0.3640
vt 1.0600 0.3640
vt 1.0600 0.6360
vt 0.4200 0.6360
vt 1.2600 0.3640
vt 0.8680 0.3640
vt 0.8680 0.6360
vt 1.2600 0.6360
vt 1.0600 0.3640
vt -0.7800 0.3640
vt -0.7800 0.6360
vt 1.0600 0.6360
vt 0.1320 -0.0600
vt -0.2600 -0.0600
vt -0.7800 0.5800
vt -1.2440 2.1800
vt -0.9800 2.6600
vt 0.1320 1.7800
vt 0.1320 1.7800
vt -0.9800 2.6600
vt -1.2440 2.1800
vt -0.7800 0.5800
vt -0.2600 -0.0600
vt 0.1320 -0.0600
vt 0.1320 0.6360
vt -0.9800 0.6360
vt -0.9800 0.3640
vt 0.1320 0.3640
vt -1.6600 0.6360
vt -1.1800 0.6360
vt -1.1800 0.3640
vt -1.6600 0.3640
vt -1.1800 0.6360
vt 0.4200 0.6360
vt 0.4200 0.3640
vt -1.1800 0.3640
vt 0.4200 0.6360
vt 1.0600 0.6360
vt 1.0600 0.3640
vt 0.4200 0.3640
vt -0.2600 0.6360
vt 0.1320 0.6360
vt 0.1320 0.3640
vt -0.2600 0.3640
vt 1.0600 0.6360
vt -0.7800 0.6360
vt -0.7800 0.3640
vt 1.0600 0.3640
vt -1.6600 0.6920
vt -1.0200 0.6920
vt -1.0200 0.3080
vt -1.6600 0.3080
vt -1.6600 0.3080
vt -1.0200 0.3080
vt -1.0200 0.6920
vt -1.6600 0.6920
vt 2.2440 2.6600
vt 2.2440 2.0200
vt 1.8920 2.0200
vt 1.8920 2.6600
vt 1.8920 2.6600
vt 1.8920 2.0200
vt 2.2440 2.0200
vt 2.2440 2.6600
vt 1.8920 0.6920
vt 1.8920 0.3080
vt 2.2440 0.3080
vt 2.2440 0.6920
vt 2.2440 0.6920
vt 2.2440 0.3080
vt 1.8920 0.3080
vt 1.8920 0.6920
vt -1.6600 0.3080
vt -1.0200 0.3080
vt -1.0200 0.6920
vt -1.6600 0.6920
vt -1.6600 0.6920
vt -1.0200 0.6920
vt -1.0200 0.3080
vt -1.6600 0.3080
vt -0.8920 2.6600
vt -0.8920 2.0200
vt -1.2440 2.0200
vt -1.2440 2.6600
vt -1.2440 2.6600
vt -1.2440 2.0200
vt -0.8920 2.0200
vt -0.8920 2.6600
vt -1.2440 0.6920
vt -1.2440 0.3080
vt -0.8920 0.3080
vt -0.8920 0.6920
vt -0.8920 0.6920
vt -0.8920 0.3080
vt -1.2440 0.3080
vt -1.2440 0.6920
vt -1.8280 0.6040
vt -1.5880 0.6040
vt -1.5880 0.3960
vt -1.8280 0.3960
vt -1.8280 0.3960
vt -1.5880 0.3960
vt -1.5880 0.6040
vt -1.8280 0.6040
vt 2.1720 2.8280
vt 2.1720 2.5880
vt 1.9640 2.5880
vt 1.9640 2.8280
vt 1.9640 2.8280
vt 1.9640 2.5880
vt 2.1720 2.5880
vt 2.1720 2.8280
vt 1.9640 0.6040
vt 1.9640 0.3960
vt 2.1720 0.3960
vt 2.1720 0.6040
vt 2.1720 0.6040
vt 2.1720 0.3960
vt 1.9640 0.3960
vt 1.9640 0.6040
vt -1.8280 0.3960
vt -1.5880 0.3960
vt -1.5880 0.6040
vt -1.8280 0.6040
vt -1.8280 0.6040
vt -1.5880 0.6040
vt -1.5880 0.3960
vt -1.8280 0.3960
vt -0.9640 2.8280
vt -0.9640 2.5880
vt -1.1720 2.5880
vt -1.1720 2.8280
vt -1.1720 2.8280
vt -1.1720 2.5880
vt -0.9640 2.5880
vt -0.9640 2.8280
vt -1.1720 0.6040
vt -1.1720 0.3960
vt -0.9640 0.3960
vt -0.9640 0.6040
vt -0.9640 0.6040
vt -0.9640 0.3960
vt -1.1720 0.3960
vt -1.1720 0.6040
vt 0.7080 1.2200
vt 0.8040 0.4200
vt 0.6920 -0.4600
vt 0.3080 -0.4600
vt 0.1960 0.4200
vt 0.2920 1.2200
vt 0.2920 1.2200
vt 0.1960 0.4200
vt 0.3080 -0.4600
vt 0.6920 -0.4600
vt 0.8040 0.4200
vt 0.7080 1.2200
vt -0.2200 -0.1880
vt 0.5800 -0.1880
vt 0.5800 0.1480
vt -0.2200 0.1480
vt 0.5800 -0.1880
vt 1.4600 -0.1880
vt 1.4600 0.1480
vt 0.5800 0.1480
vt 0.6920 -0.1880
vt 0.3080 -0.1880
vt 0.3080 0.1480
vt 0.6920 0.1480
vt 1.4600 -0.1880
vt 0.5800 -0.1880
vt 0.5800 0.1480
vt 1.4600 0.1480
vt 0.5800 -0.1880
vt -0.2200 -0.1880
vt -0.2200 0.1480
vt 0.5800 0.1480
vt 0.2920 -0.1880
vt 0.7080 -0.1880
vt 0.7080 0.1480
vt 0.2920 0.1480
vt 0.4600 -0.2040
vt 1.1800 -0.2040
vt 1.1800 -0.3640
vt 0.4600 -0.3640
vt 0.4600 -0.3640
vt 1.1800 -0.3640
vt 1.1800 -0.2040
vt 0.4600 -0.2040
vt 0.6200 0.5400
vt 0.6200 -0.1800
vt 0.3800 -0.1800
vt 0.3800 0.5400
vt 0.3800 0.5400
vt 0.3800 -0.1800
vt 0.6200 -0.1800
vt 0.6200 0.5400
vt 0.3800 -0.2040
vt 0.3800 -0.3640
vt 0.6200 -0.3640
vt 0.6200 -0.2040
vt 0.6200 -0.2040
vt 0.6200 -0.3640
vt 0.3800 -0.3640
vt 0.3800 -0.2040
vt 0.9560 -0.3640
vt 1.0040 -0.3640
vt 1.0040 -0.7800
vt 0.9560 -0.7800
vt 0.9560 -0.7800
vt 1.0040 -0.7800
vt 1.0040 -0.3640
vt 0.9560 -0.3640
vt 0.5240 0.0440
vt 0.5240 -0.0040
vt 0.4760 -0.0040
vt 0.4760 0.0440
vt 0.4760 0.0440
vt 0.4760 -0.0040
vt 0.5240 -0.0040
vt 0.5240 0.0440
vt 0.4760 -0.3640
vt 0.4760 -0.7800
vt 0.5240 -0.7800
vt 0.5240 -0.3640
vt 0.5240 -0.3640
vt 0.5240 -0.7800
vt 0.4760 -0.7800
vt 0.4760 -0.3640
vt -0.0200 1.1240
vt 1.1800 1.1240
vt 1.1800 0.8680
vt -0.0200 0.8680
vt -0.0200 0.8680
vt 1.1800 0.8680
vt 1.1800 1.1240
vt -0.0200 1.1240
vt 1.0680 1.0200
vt 1.0680 -0.1800
vt 0.7320 -0.1800
vt 0.7320 1.0200
vt 0.7320 1.0200
vt 0.7320 -0.1800
vt 1.0680 -0.1800
vt 1.0680 1.0200
vt 0.7320 1.1240
vt 0.7320 0.8680
vt 1.0680 0.8680
vt 1.0680 1.1240
vt 1.0680 1.1240
vt 1.0680 0.8680
vt 0.7320 0.8680
vt 0.7320 1.1240
vt -0.0200 0.8680
vt 1.1800 0.8680
vt 1.1800 1.1240
vt -0.0200 1.1240
vt -0.0200 1.1240
vt 1.1800 1.1240
vt 1.1800 0.8680
vt -0.0200 0.8680
vt 0.2680 1.0200
vt 0.2680 -0.1800
vt -0.0680 -0.1800
vt -0.0680 1.0200
vt -0.0680 1.0200
vt -0.0680 -0.1800
vt 0.2680 -0.1800
vt 0.2680 1.0200
vt -0.0680 1.1240
vt -0.0680 0.8680
vt 0.2680 0.8680
vt 0.2680 1.1240
vt 0.2680 1.1240
vt 0.2680 0.8680
vt -0.0680 0.8680
vt -0.0680 1.1240
vt -0.1000 1.1480
vt 0.7800 1.1480
vt 0.7800 0.9400
vt -0.1000 0.9400
vt -0.1000 0.9400
vt 0.7800 0.9400
vt 0.7800 1.1480
vt -0.1000 1.1480
vt 0.7000 1.1000
vt 0.7000 0.2200
vt 0.3000 0.2200
vt 0.3000 1.1000
vt 0.3000 1.1000
vt 0.3000 0.2200
vt 0.7000 0.2200
vt 0.7000 1.1000
vt 0.3000 1.1480
vt 0.3000 0.9400
vt 0.7000 0.9400
vt 0.7000 1.1480
vt 0.7000 1.1480
vt 0.7000 0.9400
vt 0.3000 0.9400
vt 0.3000 1.1480
vt -0.5800 0.4280
vt -0.3400 0.4280
vt -0.3400 0.2520
vt -0.5800 0.2520
vt -0.5800 0.2520
vt -0.3400 0.2520
vt -0.3400 0.4280
vt -0.5800 0.4280
vt 1.1960 1.5800
vt 1.1960 1.3400
vt 0.9880 1.3400
vt 0.9880 1.5800
vt 0.9880 1.5800
vt 0.9880 1.3400
vt 1.1960 1.3400
vt 1.1960 1.5800
vt 0.9880 0.4280
vt 0.9880 0.2520
vt 1.1960 0.2520
vt 1.1960 0.4280
vt 1.1960 0.4280
vt 1.1960 0.2520
vt 0.9880 0.2520
vt 0.9880 0.4280
vt -0.5800 0.2520
vt -0.3400 0.2520
vt -0.3400 0.4280
vt -0.5800 0.4280
vt -0.5800 0.4280
vt -0.3400 0.4280
vt -0.3400 0.2520
vt -0.5800 0.2520
vt 0.0120 1.5800
vt 0.0120 1.3400
vt -0.1960 1.3400
vt -0.1960 1.5800
vt -0.1960 1.5800
vt -0.1960 1.3400
vt 0.0120 1.3400
vt 0.0120 1.5800
vt -0.1960 0.4280
vt -0.1960 0.2520
vt 0.0120 0.2520
vt 0.0120 0.4280
vt 0.0120 0.4280
vt 0.0120 0.2520
vt -0.1960 0.2520
vt -0.1960 0.4280
vt -0.7960 0.3560
vt -0.5080 0.3560
vt -0.5080 0.3080
vt -0.7960 0.3080
vt -0.7960 0.3080
vt -0.5080 0.3080
vt -0.5080 0.3560
vt -0.7960 0.3560
vt 1.2280 1.7960
vt 1.2280 1.5080
vt 1.1800 1.5080
vt 1.1800 1.7960
vt 1.1800 1.7960
vt 1.1800 1.5080
vt 1.2280 1.5080
vt 1.2280 1.7960
vt 1.1800 0.3560
vt 1.1800 0.3080
vt 1.2280 0.3080
vt 1.2280 0.3560
vt 1.2280 0.3560
vt 1.2280 0.3080
vt 1.1800 0.3080
vt 1.1800 0.3560
vt -0.7960 0.3080
vt -0.5080 0.3080
vt -0.5080 0.3560
vt -0.7960 0.3560
vt -0.7960 0.3560
vt -0.5080 0.3560
vt -0.5080 0.3080
vt -0.7960 0.3080
vt -0.1800 1.7960
vt -0.1800 1.5080
vt -0.2280 1.5080
vt -0.2280 1.7960
vt -0.2280 1.7960
vt -0.2280 1.5080
vt -0.1800 1.5080
vt -0.1800 1.7960
vt -0.2280 0.3560
vt -0.2280 0.3080
vt -0.1800 0.3080
vt -0.1800 0.3560
vt -0.1800 0.3560
vt -0.1800 0.3080
vt -0.2280 0.3080
vt -0.2280 0.3560
vt 0.1400 0.4280
vt 0.3800 0.4280
vt 0.3800 0.2520
vt 0.1400 0.2520
vt 0.1400 0.2520
vt 0.3800 0.2520
vt 0.3800 0.4280
vt 0.1400 0.4280
vt 1.1960 0.8600
vt 1.1960 0.6200
vt 0.9880 0.6200
vt 0.9880 0.8600
vt 0.9880 0.8600
vt 0.9880 0.6200
vt 1.1960 0.6200
vt 1.1960 0.8600
vt 0.9880 0.4280
vt 0.9880 0.2520
vt 1.1960 0.2520
vt 1.1960 0.4280
vt 1.1960 0.4280
vt 1.1960 0.2520
vt 0.9880 0.2520
vt 0.9880 0.4280
vt 0.1400 0.2520
vt 0.3800 0.2520
vt 0.3800 0.4280
vt 0.1400 0.4280
vt 0.1400 0.4280
vt 0.3800 0.4280
vt 0.3800 0.2520
vt 0.1400 0.2520
vt 0.0120 0.8600
vt 0.0120 0.6200
vt -0.1960 0.6200
vt -0.1960 0.8600
vt -0.1960 0.8600
vt -0.1960 0.6200
vt 0.0120 0.6200
vt 0.0120 0.8600
vt -0.1960 0.4280
vt -0.1960 0.2520
vt 0.0120 0.2520
vt 0.0120 0.4280
vt 0.0120 0.4280
vt 0.0120 0.2520
vt -0.1960 0.2520
vt -0.1960 0.4280
vt -0.0760 0.3560
vt 0.2120 0.3560
vt 0.2120 0.3080
vt -0.0760 0.3080
vt -0.0760 0.3080
vt 0.2120 0.3080
vt 0.2120 0.3560
vt -0.0760 0.3560
vt 1.2280 1.0760
vt 1.2280 0.7880
vt 1.1800 0.7880
vt 1.1800 1.0760
vt 1.1800 1.0760
vt 1.1800 0.7880
vt 1.2280 0.7880
vt 1.2280 1.0760
vt 1.1800 0.3560
vt 1.1800 0.3080
vt 1.2280 0.3080
vt 1.2280 0.3560
vt 1.2280 0.3560
vt 1.2280 0.3080
vt 1.1800 0.3080
vt 1.1800 0.3560
vt -0.0760 0.3080
vt 0.2120 0.3080
vt 0.2120 0.3560
vt -0.0760 0.3560
vt -0.0760 0.3560
vt 0.2120 0.3560
vt 0.2120 0.3080
vt -0.0760 0.3080
vt -0.1800 1.0760
vt -0.1800 0.7880
vt -0.2280 0.7880
vt -0.2280 1.0760
vt -0.2280 1.0760
vt -0.2280 0.7880
vt -0.1800 0.7880
vt -0.1800 1.0760
vt -0.2280 0.3560
vt -0.2280 0.3080
vt -0.1800 0.3080
vt -0.1800 0.3560
vt -0.1800 0.3560
vt -0.1800 0.3080
vt -0.2280 0.3080
vt -0.2280 0.3560
vt 0.8600 0.4280
vt 1.1000 0.4280
vt 1.1000 0.2520
vt 0.8600 0.2520
vt 0.8600 0.2520
vt 1.1000 0.2520
vt 1.1000 0.4280
vt 0.8600 0.4280
vt 1.1960 0.1400
vt 1.1960 -0.1000
vt 0.9880 -0.1000
vt 0.9880 0.1400
vt 0.9880 0.1400
vt 0.9880 -0.1000
vt 1.1960 -0.1000
vt 1.1960 0.1400
vt 0.9880 0.4280
vt 0.9880 0.2520
vt 1.1960 0.2520
vt 1.1960 0.4280
vt 1.1960 0.4280
vt 1.1960 0.2520
vt 0.9880 0.2520
vt 0.9880 0.4280
vt 0.8600 0.2520
vt 1.1000 0.2520
vt 1.1000 0.4280
vt 0.8600 0.4280
vt 0.8600 0.4280
vt 1.1000 0.4280
vt 1.1000 0.2520
vt 0.8600 0.2520
vt 0.0120 0.1400
vt 0.0120 -0.1000
vt -0.1960 -0.1000
vt -0.1960 0.1400
vt -0.1960 0.1400
vt -0.1960 -0.1000
vt 0.0120 -0.1000
vt 0.0120 0.1400
vt -0.1960 0.4280
vt -0.1960 0.2520
vt 0.0120 0.2520
vt 0.0120 0.4280
vt 0.0120 0.4280
vt 0.0120 0.2520
vt -0.1960 0.2520
vt -0.1960 0.4280
vt 0.6440 0.3560
vt 0.9320 0.3560
vt 0.9320 0.3080
vt 0.6440 0.3080
vt 0.6440 0.3080
vt 0.9320 0.3080
vt 0.9320 0.3560
vt 0.6440 0.3560
vt 1.2280 0.3560
vt 1.2280 0.0680
vt 1.1800 0.0680
vt 1.1800 0.3560
vt 1.1800 0.3560
vt 1.1800 0.0680
vt 1.2280 0.0680
vt 1.2280 0.3560
vt 1.1800 0.3560
vt 1.1800 0.3080
vt 1.2280 0.3080
vt 1.2280 0.3560
vt 1.2280 0.3560
vt 1.2280 0.3080
vt 1.1800 0.3080
vt 1.1800 0.3560
vt 0.6440 0.3080
vt 0.9320 0.3080
vt 0.9320 0.3560
vt 0.6440 0.3560
vt 0.6440 0.3560
vt 0.9320 0.3560
vt 0.9320 0.3080
vt 0.6440 0.3080
vt -0.1800 0.3560
vt -0.1800 0.0680
vt -0.2280 0.0680
vt -0.2280 0.3560
vt -0.2280 0.3560
vt -0.2280 0.0680
vt -0.1800 0.0680
vt -0.1800 0.3560
vt -0.2280 0.3560
vt -0.2280 0.3080
vt -0.1800 0.3080
vt -0.1800 0.3560
vt -0.1800 0.3560
vt -0.1800 0.3080
vt -0.2280 0.3080
vt -0.2280 0.3560
vt 1.4200 0.4280
vt 1.6600 0.4280
vt 1.6600 0.2520
vt 1.4200 0.2520
vt 1.4200 0.2520
vt 1.6600 0.2520
vt 1.6600 0.4280
vt 1.4200 0.4280
vt 1.1960 -0.4200
vt 1.1960 -0.6600
vt 0.9880 -0.6600
vt 0.9880 -0.4200
vt 0.9880 -0.4200
vt 0.9880 -0.6600
vt 1.1960 -0.6600
vt 1.1960 -0.4200
vt 0.9880 0.4280
vt 0.9880 0.2520
vt 1.1960 0.2520
vt 1.1960 0.4280
vt 1.1960 0.4280
vt 1.1960 0.2520
vt 0.9880 0.2520
vt 0.9880 0.4280
vt 1.4200 0.2520
vt 1.6600 0.2520
vt 1.6600 0.4280
vt 1.4200 0.4280
vt 1.4200 0.4280
vt 1.6600 0.4280
vt 1.6600 0.2520
vt 1.4200 0.2520
vt 0.0120 -0.4200
vt 0.0120 -0.6600
vt -0.1960 -0.6600
vt -0.1960 -0.4200
vt -0.1960 -0.4200
vt -0.1960 -0.6600
vt 0.0120 -0.6600
vt 0.0120 -0.4200
vt -0.1960 0.4280
vt -0.1960 0.2520
vt 0.0120 0.2520
vt 0.0120 0.4280
vt 0.0120 0.4280
vt 0.0120 0.2520
vt -0.1960 0.2520
vt -0.1960 0.4280
vt 1.2040 0.3560
vt 1.4920 0.3560
vt 1.4920 0.3080
vt 1.2040 0.3080
vt 1.2040 0.3080
vt 1.4920 0.3080
vt 1.4920 0.3560
vt 1.2040 0.3560
vt 1.2280 -0.2040
vt 1.2280 -0.4920
vt 1.1800 -0.4920
vt 1.1800 -0.2040
vt 1.1800 -0.2040
vt 1.1800 -0.4920
vt 1.2280 -0.4920
vt 1.2280 -0.2040
vt 1.1800 0.3560
vt 1.1800 0.3080
vt 1.2280 0.3080
vt 1.2280 0.3560
vt 1.2280 0.3560
vt 1.2280 0.3080
vt 1.1800 0.3080
vt 1.1800 0.3560
vt 1.2040 0.3080
vt 1.4920 0.3080
vt 1.4920 0.3560
vt 1.2040 0.3560
vt 1.2040 0.3560
vt 1.4920 0.3560
vt 1.4920 0.3080
vt 1.2040 0.3080
vt -0.1800 -0.2040
vt -0.1800 -0.4920
vt -0.2280 -0.4920
vt -0.2280 -0.2040
vt -0.2280 -0.2040
vt -0.2280 -0.4920
vt -0.1800 -0.4920
vt -0.1800 -0.2040
vt -0.2280 0.3560
vt -0.2280 0.3080
vt -0.1800 0.3080
vt -0.1800 0.3560
vt -0.1800 0.3560
vt -0.1800 0.3080
vt -0.2280 0.3080
vt -0.2280 0.3560
vt 2.1240 0.6200
vt 2.3320 0.6200
vt 2.3320 0.3480
vt 2.1240 0.3480
vt 2.1240 0.3480
vt 2.3320 0.3480
vt 2.3320 0.6200
vt 2.1240 0.6200
vt 0.2680 -1.1240
vt 0.2680 -1.3320
vt -0.0040 -1.3320
vt -0.0040 -1.1240
vt -0.0040 -1.1240
vt -0.0040 -1.3320
vt 0.2680 -1.3320
vt 0.2680 -1.1240
vt -0.0040 0.6200
vt -0.0040 0.3480
vt 0.2680 0.3480
vt 0.2680 0.6200
vt 0.2680 0.6200
vt 0.2680 0.3480
vt -0.0040 0.3480
vt -0.0040 0.6200
vt 2.1240 0.6200
vt 2.3320 0.6200
vt 2.3320 0.3480
vt 2.1240 0.3480
vt 2.1240 0.3480
vt 2.3320 0.3480
vt 2.3320 0.6200
vt 2.1240 0.6200
vt 0.6360 -1.1240
vt 0.6360 -1.3320
vt 0.3640 -1.3320
vt 0.3640 -1.1240
vt 0.3640 -1.1240
vt 0.3640 -1.3320
vt 0.6360 -1.3320
vt 0.6360 -1.1240
vt 0.3640 0.6200
vt 0.3640 0.3480
vt 0.6360 0.3480
vt 0.6360 0.6200
vt 0.6360 0.6200
vt 0.6360 0.3480
vt 0.3640 0.3480
vt 0.3640 0.6200
vt 2.1240 0.6200
vt 2.3320 0.6200
vt 2.3320 0.3480
vt 2.1240 0.3480
vt 2.1240 0.3480
vt 2.3320 0.3480
vt 2.3320 0.6200
vt 2.1240 0.6200
vt 1.0040 -1.1240
vt 1.0040 -1.3320
vt 0.7320 -1.3320
vt 0.7320 -1.1240
vt 0.7320 -1.1240
vt 0.7320 -1.3320
vt 1.0040 -1.3320
vt 1.0040 -1.1240
vt 0.7320 0.6200
vt 0.7320 0.3480
vt 1.0040 0.3480
vt 1.0040 0.6200
vt 1.0040 0.6200
vt 1.0040 0.3480
vt 0.7320 0.3480
vt 0.7320 0.6200
vn 0.0000 0.0000 -1.0000
vn 0.0000 0.0000 1.0000
vn 0.3844 0.9044 -0.1854
vn 0.8752 -0.3819 -0.2969
vn 0.0811 -0.9726 -0.2179
vn -0.0811 -0.9732 -0.2151
vn -0.8783 -0.3833 -0.2858
vn -0.3830 0.9012 -0.2028
vn 0.0000 0.0000 -1.0000
vn 0.0000 0.0000 1.0000
vn 0.4169 0.8980 -0.1405
vn 0.9041 -0.3731 -0.2085
vn 0.0859 -0.9843 -0.1543
vn -0.0860 -0.9845 -0.1527
vn -0.9056 -0.3737 -0.2005
vn -0.4156 0.8952 -0.1611
vn 0.0000 0.0000 -1.0000
vn 0.0000 0.0000 1.0000
vn 0.4129 0.9096 0.0467
vn 0.9220 -0.3810 0.0683
vn 0.0873 -0.9952 0.0446
vn -0.0873 -0.9952 0.0448
vn -0.9221 -0.3810 0.0681
vn -0.4127 0.9092 0.0546
vn 0.0000 0.0000 -1.0000
vn 0.0000 0.0000 1.0000
vn 0.3803 0.9126 0.1502
vn 0.8837 -0.3989 0.2448
vn 0.0785 -0.9783 0.1917
vn -0.0786 -0.9792 0.1869
vn -0.8883 -0.4009 0.2242
vn -0.3782 0.9077 0.1815
vn 0.0000 0.0000 1.0000
vn 0.3451 0.9203 -0.1841
vn 0.8079 -0.4021 -0.4309
vn 0.0691 -0.9479 -0.3109
vn -0.0691 -0.9479 -0.3109
vn -0.8079 -0.4021 -0.4309
vn -0.3451 0.9203 -0.1841
vn 0.0000 0.0000 -1.0000
vn 0.0000 0.0000 1.0000
vn 0.3622 0.9287 0.0793
vn 0.9029 -0.4144 0.1143
vn 0.0795 -0.9941 0.0742
vn -0.0795 -0.9941 0.0739
vn -0.9036 -0.4148 0.1067
vn -0.3606 0.9245 0.1233
vn 0.0000 -1.0000 0.0000
vn -0.0000 1.0000 0.0000
vn -0.6206 0.0000 -0.7842
vn 0.8762 0.0000 -0.4819
vn 0.9604 0.0000 0.2785
vn 0.7761 0.0000 0.6306
vn 0.0000 0.0000 1.0000
vn -1.0000 0.0000 -0.0000
vn -0.0000 -1.0000 0.0000
vn 0.0000 1.0000 0.0000
vn 0.6206 0.0000 -0.7842
vn -0.8762 0.0000 -0.4819
vn -0.9604 0.0000 0.2785
vn -0.7761 0.0000 0.6306
vn 0.0000 0.0000 1.0000
vn 1.0000 0.0000 0.0000
vn -1.0000 0.0000 0.0000
vn 1.0000 0.0000 -0.0000
vn 0.0000 -1.0000 0.0000
vn 0.0000 1.0000 0.0000
vn 0.0000 0.0000 -1.0000
vn 0.0000 -0.0000 1.0000
vn 1.0000 0.0000 -0.0000
vn -1.0000 0.0000 0.0000
vn 0.0000 -1.0000 0.0000
vn 0.0000 1.0000 0.0000
vn 0.0000 0.0000 -1.0000
vn 0.0000 -0.0000 1.0000
vn -1.0000 0.0000 0.0000
vn 1.0000 0.0000 -0.0000
vn 0.0000 -1.0000 0.0000
vn 0.0000 1.0000 0.0000
vn 0.0000 0.0000 -1.0000
vn 0.0000 -0.0000 1.0000
vn 1.0000 0.0000 -0.0000
vn -1.0000 0.0000 0.0000
vn 0.0000 -1.0000 0.0000
vn 0.0000 1.0000 0.0000
vn 0.0000 0.0000 -1.0000
vn 0.0000 -0.0000 1.0000
vn 0.0000 -1.0000 0.0000
vn 0.0000 1.0000 -0.0000
vn 0.9929 0.0000 -0.1191
vn 0.9920 0.0000 0.1263
vn 0.0000 0.0000 1.0000
vn -0.9920 0.0000 0.1263
vn -0.9929 0.0000 -0.1191
vn 0.0000 0.0000 -1.0000
vn -1.0000 0.0000 0.0000
vn 1.0000 0.0000 -0.0000
vn 0.0000 -1.0000 0.0000
vn 0.0000 1.0000 0.0000
vn 0.0000 0.0000 -1.0000
vn 0.0000 -0.0000 1.0000
vn -1.0000 0.0000 0.0000
vn 1.0000 0.0000 -0.0000
vn 0.0000 -1.0000 0.0000
vn 0.0000 1.0000 0.0000
vn 0.0000 0.0000 -1.0000
vn 0.0000 -0.0000 1.0000
vn -1.0000 0.0000 0.0000
vn 1.0000 0.0000 -0.0000
vn 0.0000 -1.0000 0.0000
vn 0.0000 1.0000 0.0000
vn 0.0000 0.0000 -1.0000
vn 0.0000 -0.0000 1.0000
vn 1.0000 0.0000 -0.0000
vn -1.0000 0.0000 0.0000
vn 0.0000 -1.0000 0.0000
vn 0.0000 1.0000 0.0000
vn 0.0000 0.0000 -1.0000
vn 0.0000 -0.0000 1.0000
vn -1.0000 0.0000 0.0000
vn 1.0000 0.0000 -0.0000
vn 0.0000 -1.0000 0.0000
vn 0.0000 1.0000 0.0000
vn 0.0000 0.0000 -1.0000
vn 0.0000 -0.0000 1.0000
vn -1.0000 0.0000 0.0000
vn 1.0000 0.0000 -0.0000
vn 0.0000 -1.0000 0.0000
vn 0.0000 1.0000 0.0000
vn 0.0000 0.0000 -1.0000
vn 0.0000 -0.0000 1.0000
vn 1.0000 0.0000 -0.0000
vn -1.0000 0.0000 0.0000
vn 0.0000 -1.0000 0.0000
vn 0.0000 1.0000 0.0000
vn 0.0000 0.0000 -1.0000
vn 0.0000 -0.0000 1.0000
vn -1.0000 0.0000 0.0000
vn 1.0000 0.0000 -0.0000
vn 0.0000 -1.0000 0.0000
vn 0.0000 1.0000 0.0000
vn 0.0000 0.0000 -1.0000
vn 0.0000 -0.0000 1.0000
vn 1.0000 0.0000 -0.0000
vn -1.0000 0.0000 0.0000
vn 0.0000 -1.0000 0.0000
vn 0.0000 1.0000 0.0000
vn 0.0000 0.0000 -1.0000
vn 0.0000 -0.0000 1.0000
vn -1.0000 0.0000 0.0000
vn 1.0000 0.0000 -0.0000
vn 0.0000 -1.0000 0.0000
vn 0.0000 1.0000 0.0000
vn 0.0000 0.0000 -1.0000
vn 0.0000 -0.0000 1.0000
vn 1.0000 0.0000 -0.0000
vn -1.0000 0.0000 0.0000
vn 0.0000 -1.0000 0.0000
vn 0.0000 1.0000 0.0000
vn 0.0000 0.0000 -1.0000
vn 0.0000 -0.0000 1.0000
vn -1.0000 0.0000 0.0000
vn 1.0000 0.0000 -0.0000
vn 0.0000 -1.0000 0.0000
vn 0.0000 1.0000 0.0000
vn 0.0000 0.0000 -1.0000
vn 0.0000 -0.0000 1.0000
vn 1.0000 0.0000 -0.0000
vn -1.0000 0.0000 0.0000
vn 0.0000 -1.0000 0.0000
vn 0.0000 1.0000 0.0000
vn 0.0000 0.0000 -1.0000
vn 0.0000 -0.0000 1.0000
vn -1.0000 0.0000 0.0000
vn 1.0000 0.0000 -0.0000
vn 0.0000 -1.0000 0.0000
vn 0.0000 1.0000 0.0000
vn 0.0000 0.0000 -1.0000
vn 0.0000 -0.0000 1.0000
vn 1.0000 0.0000 -0.0000
vn -1.0000 0.0000 0.0000
vn 0.0000 -1.0000 0.0000
vn 0.0000 1.0000 0.0000
vn 0.0000 0.0000 -1.0000
vn 0.0000 -0.0000 1.0000
vn -1.0000 0.0000 0.0000
vn 1.0000 0.0000 -0.0000
vn 0.0000 -1.0000 0.0000
vn 0.0000 1.0000 0.0000
vn 0.0000 0.0000 -1.0000
vn 0.0000 -0.0000 1.0000
vn 1.0000 0.0000 -0.0000
vn -1.0000 0.0000 0.0000
vn 0.0000 -1.0000 0.0000
vn 0.0000 1.0000 0.0000
vn 0.0000 0.0000 -1.0000
vn 0.0000 -0.0000 1.0000
vn -1.0000 0.0000 0.0000
vn 1.0000 0.0000 -0.0000
vn 0.0000 -1.0000 0.0000
vn 0.0000 1.0000 0.0000
vn 0.0000 0.0000 -1.0000
vn 0.0000 -0.0000 1.0000
vn 1.0000 0.0000 -0.0000
vn -1.0000 0.0000 0.0000
vn 0.0000 -1.0000 0.0000
vn 0.0000 1.0000 0.0000
vn 0.0000 0.0000 -1.0000
vn 0.0000 -0.0000 1.0000
vn -1.0000 0.0000 0.0000
vn 1.0000 0.0000 -0.0000
vn 0.0000 -1.0000 0.0000
vn 0.0000 1.0000 0.0000
vn 0.0000 0.0000 -1.0000
vn 0.0000 -0.0000 1.0000
vn 1.0000 0.0000 -0.0000
vn -1.0000 0.0000 0.0000
vn 0.0000 -1.0000 0.0000
vn 0.0000 1.0000 0.0000
vn 0.0000 0.0000 -1.0000
vn 0.0000 -0.0000 1.0000
vn -1.0000 0.0000 0.0000
vn 1.0000 0.0000 -0.0000
vn 0.0000 -1.0000 0.0000
vn 0.0000 1.0000 0.0000
vn 0.0000 0.0000 -1.0000
vn 0.0000 -0.0000 1.0000
vn -1.0000 0.0000 0.0000
vn 1.0000 0.0000 -0.0000
vn 0.0000 -1.0000 0.0000
vn 0.0000 1.0000 0.0000
vn 0.0000 0.0000 -1.0000
vn 0.0000 -0.0000 1.0000
vn -1.0000 0.0000 0.0000
vn 1.0000 0.0000 -0.0000
vn 0.0000 -1.0000 0.0000
vn 0.0000 1.0000 0.0000
vn 0.0000 0.0000 -1.0000
vn 0.0000 -0.0000 1.0000
f 1/1/1 2/2/1 3/3/1 4/4/1 5/5/1 6/6/1
f 12/7/2 11/8/2 10/9/2 9/10/2 8/11/2 7/12/2
f 7/13/3 8/14/3 2/15/3 1/16/3
f 8/17/4 9/18/4 3/19/4 2/20/4
f 9/21/5 10/22/5 4/23/5 3/24/5
f 10/25/6 11/26/6 5/27/6 4/28/6
f 11/29/7 12/30/7 6/31/7 5/32/7
f 12/33/8 7/34/8 1/35/8 6/36/8
f 13/37/9 14/38/9 15/39/9 16/40/9 17/41/9 18/42/9
f 24/43/10 23/44/10 22/45/10 21/46/10 20/47/10 19/48/10
f 19/49/11 20/50/11 14/51/11 13/52/11
f 20/53/12 21/54/12 15/55/12 14/56/12
f 21/57/13 22/58/13 16/59/13 15/60/13
f 22/61/14 23/62/14 17/63/14 16/64/14
f 23/65/15 24/66/15 18/67/15 17/68/15
f 24/69/16 19/70/16 13/71/16 18/72/16
f 25/73/17 26/74/17 27/75/17 28/76/17 29/77/17 30/78/17
f 36/79/18 35/80/18 34/81/18 33/82/18 32/83/18 31/84/18
f 31/85/19 32/86/19 26/87/19 25/88/19
f 32/89/20 33/90/20 27/91/20 26/92/20
f 33/93/21 34/94/21 28/95/21 27/96/21
f 34/97/22 35/98/22 29/99/22 28/100/22
f 35/101/23 36/102/23 30/103/23 29/104/23
f 36/105/24 31/106/24 25/107/24 30/108/24
f 37/109/25 38/110/25 39/111/25 40/112/25 41/113/25 42/114/25
f 48/115/26 47/116/26 46/117/26 45/118/26 44/119/26 43/120/26
f 43/121/27 44/122/27 38/123/27 37/124/27
f 44/125/28 45/126/28 39/127/28 38/128/28
f 45/129/29 46/130/29 40/131/29 39/132/29
f 46/133/30 47/134/30 41/135/30 40/136/30
f 47/137/31 48/138/31 42/139/31 41/140/31
f 48/141/32 43/142/32 37/143/32 42/144/32
f 54/145/33 53/146/33 52/147/33 51/148/33 50/149/33 49/150/33
f 49/151/34 50/152/34 55/153/34
f 50/154/35 51/155/35 55/156/35
f 51/157/36 52/158/36 55/159/36
f 52/160/37 53/161/37 55/162/37
f 53/163/38 54/164/38 55/165/38
f 54/166/39 49/167/39 55/168/39
f 56/169/40 57/170/40 58/171/40 59/172/40 60/173/40 61/174/40
f 67/175/41 66/176/41 65/177/41 64/178/41 63/179/41 62/180/41
f 62/181/42 63/182/42 57/183/42 56/184/42
f 63/185/43 64/186/43 58/187/43 57/188/43
f 64/189/44 65/190/44 59/191/44 58/192/44
f 65/193/45 66/194/45 60/195/45 59/196/45
f 66/197/46 67/198/46 61/199/46 60/200/46
f 67/201/47 62/202/47 56/203/47 61/204/47
f 68/205/48 69/206/48 70/207/48 71/208/48 72/209/48 73/210/48
f 79/211/49 78/212/49 77/213/49 76/214/49 75/215/49 74/216/49
f 74/217/50 75/218/50 69/219/50 68/220/50
f 75/221/51 76/222/51 70/223/51 69/224/51
f 76/225/52 77/226/52 71/227/52 70/228/52
f 77/229/53 78/230/53 72/231/53 71/232/53
f 78/233/54 79/234/54 73/235/54 72/236/54
f 79/237/55 74/238/55 68/239/55 73/240/55
f 85/241/56 84/242/56 83/243/56 82/244/56 81/245/56 80/246/56
f 86/247/57 87/248/57 88/249/57 89/250/57 90/251/57 91/252/57
f 80/253/58 81/254/58 87/255/58 86/256/58
f 81/257/59 82/258/59 88/259/59 87/260/59
f 82/261/60 83/262/60 89/263/60 88/264/60
f 83/265/61 84/266/61 90/267/61 89/268/61
f 84/269/62 85/270/62 91/271/62 90/272/62
f 85/273/63 80/274/63 86/275/63 91/276/63
f 92/277/64 93/278/64 95/279/64 94/280/64
f 98/281/65 99/282/65 97/283/65 96/284/65
f 96/285/66 97/286/66 93/287/66 92/288/66
f 94/289/67 95/290/67 99/291/67 98/292/67
f 92/293/68 94/294/68 98/295/68 96/296/68
f 97/297/69 99/298/69 95/299/69 93/300/69
f 102/301/70 103/302/70 101/303/70 100/304/70
f 104/305/71 105/306/71 107/307/71 106/308/71
f 100/309/72 101/310/72 105/311/72 104/312/72
f 106/313/73 107/314/73 103/315/73 102/316/73
f 104/317/74 106/318/74 102/319/74 100/320/74
f 101/321/75 103/322/75 107/323/75 105/324/75
f 108/325/76 109/326/76 111/327/76 110/328/76
f 114/329/77 115/330/77 113/331/77 112/332/77
f 112/333/78 113/334/78 109/335/78 108/336/78
f 110/337/79 111/338/79 115/339/79 114/340/79
f 108/341/80 110/342/80 114/343/80 112/344/80
f 113/345/81 115/346/81 111/347/81 109/348/81
f 118/349/82 119/350/82 117/351/82 116/352/82
f 120/353/83 121/354/83 123/355/83 122/356/83
f 116/357/84 117/358/84 121/359/84 120/360/84
f 122/361/85 123/362/85 119/363/85 118/364/85
f 120/365/86 122/366/86 118/367/86 116/368/86
f 117/369/87 119/370/87 123/371/87 121/372/87
f 124/373/88 125/374/88 126/375/88 127/376/88 128/377/88 129/378/88
f 135/379/89 134/380/89 133/381/89 132/382/89 131/383/89 130/384/89
f 130/385/90 131/386/90 125/387/90 124/388/90
f 131/389/91 132/390/91 126/391/91 125/392/91
f 132/393/92 133/394/92 127/395/92 126/396/92
f 133/397/93 134/398/93 128/399/93 127/400/93
f 134/401/94 135/402/94 129/403/94 128/404/94
f 135/405/95 130/406/95 124/407/95 129/408/95
f 136/409/96 137/410/96 139/411/96 138/412/96
f 142/413/97 143/414/97 141/415/97 140/416/97
f 140/417/98 141/418/98 137/419/98 136/420/98
f 138/421/99 139/422/99 143/423/99 142/424/99
f 136/425/100 138/426/100 142/427/100 140/428/100
f 141/429/101 143/430/101 139/431/101 137/432/101
f 144/433/102 145/434/102 147/435/102 146/436/102
f 150/437/103 151/438/103 149/439/103 148/440/103
f 148/441/104 149/442/104 145/443/104 144/444/104
f 146/445/105 147/446/105 151/447/105 150/448/105
f 144/449/106 146/450/106 150/451/106 148/452/106
f 149/453/107 151/454/107 147/455/107 145/456/107
f 152/457/108 153/458/108 155/459/108 154/460/108
f 158/461/109 159/462/109 157/463/109 156/464/109
f 156/465/110 157/466/110 153/467/110 152/468/110
f 154/469/111 155/470/111 159/471/111 158/472/111
f 152/473/112 154/474/112 158/475/112 156/476/112
f 157/477/113 159/478/113 155/479/113 153/480/113
f 162/481/114 163/482/114 161/483/114 160/484/114
f 164/485/115 165/486/115 167/487/115 166/488/115
f 160/489/116 161/490/116 165/491/116 164/492/116
f 166/493/117 167/494/117 163/495/117 162/496/117
f 164/497/118 166/498/118 162/499/118 160/500/118
f 161/501/119 163/502/119 167/503/119 165/504/119
f 168/505/120 169/506/120 171/507/120 170/508/120
f 174/509/121 175/510/121 173/511/121 172/512/121
f 172/513/122 173/514/122 169/515/122 168/516/122
f 170/517/123 171/518/123 175/519/123 174/520/123
f 168/521/124 170/522/124 174/523/124 172/524/124
f 173/525/125 175/526/125 171/527/125 169/528/125
f 176/529/126 177/530/126 179/531/126 178/532/126
f 182/533/127 183/534/127 181/535/127 180/536/127
f 180/537/128 181/538/128 177/539/128 176/540/128
f 178/541/129 179/542/129 183/543/129 182/544/129
f 176/545/130 178/546/130 182/547/130 180/548/130
f 181/549/131 183/550/131 179/551/131 177/552/131
f 186/553/132 187/554/132 185/555/132 184/556/132
f 188/557/133 189/558/133 191/559/133 190/560/133
f 184/561/134 185/562/134 189/563/134 188/564/134
f 190/565/135 191/566/135 187/567/135 186/568/135
f 188/569/136 190/570/136 186/571/136 184/572/136
f 185/573/137 187/574/137 191/575/137 189/576/137
f 192/577/138 193/578/138 195/579/138 194/580/138
f 198/581/139 199/582/139 197/583/139 196/584/139
f 196/585/140 197/586/140 193/587/140 192/588/140
f 194/589/141 195/590/141 199/591/141 198/592/141
f 192/593/142 194/594/142 198/595/142 196/596/142
f 197/597/143 199/598/143 195/599/143 193/600/143
f 202/601/144 203/602/144 201/603/144 200/604/144
f 204/605/145 205/606/145 207/607/145 206/608/145
f 200/609/146 201/610/146 205/611/146 204/612/146
f 206/613/147 207/614/147 203/615/147 202/616/147
f 204/617/148 206/618/148 202/619/148 200/620/148
f 201/621/149 203/622/149 207/623/149 205/624/149
f 208/625/150 209/626/150 211/627/150 210/628/150
f 214/629/151 215/630/151 213/631/151 212/632/151
f 212/633/152 213/634/152 209/635/152 208/636/152
f 210/637/153 211/638/153 215/639/153 214/640/153
f 208/641/154 210/642/154 214/643/154 212/644/154
f 213/645/155 215/646/155 211/647/155 209/648/155
f 218/649/156 219/650/156 217/651/156 216/652/156
f 220/653/157 221/654/157 223/655/157 222/656/157
f 216/657/158 217/658/158 221/659/158 220/660/158
f 222/661/159 223/662/159 219/663/159 218/664/159
f 220/665/160 222/666/160 218/667/160 216/668/160
f 217/669/161 219/670/161 223/671/161 221/672/161
f 224/673/162 225/674/162 227/675/162 226/676/162
f 230/677/163 231/678/163 229/679/163 228/680/163
f 228/681/164 229/682/164 225/683/164 224/684/164
f 226/685/165 227/686/165 231/687/165 230/688/165
f 224/689/166 226/690/166 230/691/166 228/692/166
f 229/693/167 231/694/167 227/695/167 225/696/167
f 234/697/168 235/698/168 233/699/168 232/700/168
f 236/701/169 237/702/169 239/703/169 238/704/169
f 232/705/170 233/706/170 237/707/170 236/708/170
f 238/709/171 239/710/171 235/711/171 234/712/171
f 236/713/172 238/714/172 234/715/172 232/716/172
f 233/717/173 235/718/173 239/719/173 237/720/173
f 240/721/174 241/722/174 243/723/174 242/724/174
f 246/725/175 247/726/175 245/727/175 244/728/175
f 244/729/176 245/730/176 241/731/176 240/732/176
f 242/733/177 243/734/177 247/735/177 246/736/177
f 240/737/178 242/738/178 246/739/178 244/740/178
f 245/741/179 247/742/179 243/743/179 241/744/179
f 250/745/180 251/746/180 249/747/180 248/748/180
f 252/749/181 253/750/181 255/751/181 254/752/181
f 248/753/182 249/754/182 253/755/182 252/756/182
f 254/757/183 255/758/183 251/759/183 250/760/183
f 252/761/184 254/762/184 250/763/184 248/764/184
f 249/765/185 251/766/185 255/767/185 253/768/185
f 256/769/186 257/770/186 259/771/186 258/772/186
f 262/773/187 263/774/187 261/775/187 260/776/187
f 260/777/188 261/778/188 257/779/188 256/780/188
f 258/781/189 259/782/189 263/783/189 262/784/189
f 256/785/190 258/786/190 262/787/190 260/788/190
f 261/789/191 263/790/191 259/791/191 257/792/191
f 266/793/192 267/794/192 265/795/192 264/796/192
f 268/797/193 269/798/193 271/799/193 270/800/193
f 264/801/194 265/802/194 269/803/194 268/804/194
f 270/805/195 271/806/195 267/807/195 266/808/195
f 268/809/196 270/810/196 266/811/196 264/812/196
f 265/813/197 267/814/197 271/815/197 269/816/197
f 272/817/198 273/818/198 275/819/198 274/820/198
f 278/821/199 279/822/199 277/823/199 276/824/199
f 276/825/200 277/826/200 273/827/200 272/828/200
f 274/829/201 275/830/201 279/831/201 278/832/201
f 272/833/202 274/834/202 278/835/202 276/836/202
f 277/837/203 279/838/203 275/839/203 273/840/203
f 282/841/204 283/842/204 281/843/204 280/844/204
f 284/845/205 285/846/205 287/847/205 286/848/205
f 280/849/206 281/850/206 285/851/206 284/852/206
f 286/853/207 287/854/207 283/855/207 282/856/207
f 284/857/208 286/858/208 282/859/208 280/860/208
f 281/861/209 283/862/209 287/863/209 285/864/209
f 288/865/210 289/866/210 291/867/210 290/868/210
f 294/869/211 295/870/211 293/871/211 292/872/211
f 292/873/212 293/874/212 289/875/212 288/876/212
f 290/877/213 291/878/213 295/879/213 294/880/213
f 288/881/214 290/882/214 294/883/214 292/884/214
f 293/885/215 295/886/215 291/887/215 289/888/215
f 298/889/216 299/890/216 297/891/216 296/892/216
f 300/893/217 301/894/217 303/895/217 302/896/217
f 296/897/218 297/898/218 301/899/218 300/900/218
f 302/901/219 303/902/219 299/903/219 298/904/219
f 300/905/220 302/906/220 298/907/220 296/908/220
f 297/909/221 299/910/221 303/911/221 301/912/221
f 304/913/222 305/914/222 307/915/222 306/916/222
f 310/917/223 311/918/223 309/919/223 308/920/223
f 308/921/224 309/922/224 305/923/224 304/924/224
f 306/925/225 307/926/225 311/927/225 310/928/225
f 304/929/226 306/930/226 310/931/226 308/932/226
f 309/933/227 311/934/227 307/935/227 305/936/227
f 312/937/228 313/938/228 315/939/228 314/940/228
f 318/941/229 319/942/229 317/943/229 316/944/229
f 316/945/230 317/946/230 313/947/230 312/948/230
f 314/949/231 315/950/231 319/951/231 318/952/231
f 312/953/232 314/954/232 318/955/232 316/956/232
f 317/957/233 319/958/233 315/959/233 313/960/233
f 320/961/234 321/962/234 323/963/234 322/964/234
f 326/965/235 327/966/235 325/967/235 324/968/235
f 324/969/236 325/970/236 321/971/236 320/972/236
f 322/973/237 323/974/237 327/975/237 326/976/237
f 320/977/238 322/978/238 326/979/238 324/980/238
f 325/981/239 327/982/239 323/983/239 321/984/239
