# probe.obj — gray-box hull for the Missile Rider sandbox.
# GENERATED by tools/gen_probe_obj.py. Do not hand-edit; edit the generator.
o probe
v 0.0000 0.0000 -2.6000
v 0.0000 0.5800 -0.7000
v 0.5200 0.0600 -0.7000
v 0.0000 -0.4600 -0.7000
v -0.5200 0.0600 -0.7000
v 0.0000 0.4400 1.3000
v 0.4000 0.0400 1.3000
v 0.0000 -0.3400 1.3000
v -0.4000 0.0400 1.3000
v 0.0000 0.0000 1.6200
v 0.4000 -0.0600 -0.4000
v 1.3200 -0.0600 1.0200
v 1.1400 -0.0600 1.3200
v 0.3600 -0.0600 1.2400
v 0.4000 0.0700 -0.4000
v 1.3200 0.0700 1.0200
v 1.1400 0.0700 1.3200
v 0.3600 0.0700 1.2400
v -0.4000 -0.0600 -0.4000
v -1.3200 -0.0600 1.0200
v -1.1400 -0.0600 1.3200
v -0.3600 -0.0600 1.2400
v -0.4000 0.0700 -0.4000
v -1.3200 0.0700 1.0200
v -1.1400 0.0700 1.3200
v -0.3600 0.0700 1.2400
v -0.0500 0.4000 0.2600
v -0.0500 1.0800 1.1600
v -0.0500 0.9800 1.4000
v -0.0500 0.3600 1.3800
v 0.0500 0.4000 0.2600
v 0.0500 1.0800 1.1600
v 0.0500 0.9800 1.4000
v 0.0500 0.3600 1.3800
v -0.7500 -0.1600 0.3950
v -0.7500 -0.1600 1.4450
v -0.7500 0.1200 0.3950
v -0.7500 0.1200 1.4450
v -0.4500 -0.1600 0.3950
v -0.4500 -0.1600 1.4450
v -0.4500 0.1200 0.3950
v -0.4500 0.1200 1.4450
v 0.4500 -0.1600 0.3950
v 0.4500 -0.1600 1.4450
v 0.4500 0.1200 0.3950
v 0.4500 0.1200 1.4450
v 0.7500 -0.1600 0.3950
v 0.7500 -0.1600 1.4450
v 0.7500 0.1200 0.3950
v 0.7500 0.1200 1.4450
vt -0.4100 0.5000
vt 0.2550 0.2970
vt 0.2550 0.4790
vt -0.4100 0.5000
vt 0.2550 0.4790
vt 0.2550 0.6610
vt -0.4100 0.5000
vt 0.2550 0.6610
vt 0.2550 0.4790
vt -0.4100 0.5000
vt 0.2550 0.4790
vt 0.2550 0.2970
vt 0.5000 0.7450
vt 0.5000 0.0450
vt 0.6400 0.0450
vt 0.6820 0.7450
vt 0.6820 0.7450
vt 0.6400 0.0450
vt 0.5000 0.0450
vt 0.5000 0.7450
vt 0.5000 0.7450
vt 0.5000 0.0450
vt 0.3600 0.0450
vt 0.3180 0.7450
vt 0.2550 0.4790
vt 0.9550 0.4860
vt 0.9550 0.3460
vt 0.2550 0.2970
vt 0.5000 0.3460
vt 0.5000 0.5000
vt 0.6400 0.4860
vt 0.6400 0.4860
vt 0.5000 0.5000
vt 0.5000 0.6190
vt 0.5000 0.6190
vt 0.5000 0.5000
vt 0.3600 0.4860
vt 0.3600 0.4860
vt 0.5000 0.5000
vt 0.5000 0.3460
vt 0.6400 0.6400
vt 0.9620 0.1430
vt 0.8990 0.0380
vt 0.6260 0.0660
vt 0.6260 0.0660
vt 0.8990 0.0380
vt 0.9620 0.1430
vt 0.6400 0.6400
vt 0.3600 0.4755
vt 0.8570 0.4755
vt 0.8570 0.5210
vt 0.3600 0.5210
vt 0.8570 0.4755
vt 0.9620 0.4755
vt 0.9620 0.5210
vt 0.8570 0.5210
vt 0.8990 0.4755
vt 0.6260 0.4755
vt 0.6260 0.5210
vt 0.8990 0.5210
vt 0.9340 0.4755
vt 0.3600 0.4755
vt 0.3600 0.5210
vt 0.9340 0.5210
vt 0.3740 0.0660
vt 0.1010 0.0380
vt 0.0380 0.1430
vt 0.3600 0.6400
vt 0.3600 0.6400
vt 0.0380 0.1430
vt 0.1010 0.0380
vt 0.3740 0.0660
vt 0.3600 0.5210
vt 0.8570 0.5210
vt 0.8570 0.4755
vt 0.3600 0.4755
vt 0.8570 0.5210
vt 0.9620 0.5210
vt 0.9620 0.4755
vt 0.8570 0.4755
vt 0.1010 0.5210
vt 0.3740 0.5210
vt 0.3740 0.4755
vt 0.1010 0.4755
vt 0.9340 0.5210
vt 0.3600 0.5210
vt 0.3600 0.4755
vt 0.9340 0.4755
vt 0.9830 0.3740
vt 0.9900 0.1570
vt 0.9060 0.1220
vt 0.5910 0.3600
vt 0.5910 0.3600
vt 0.9060 0.1220
vt 0.9900 0.1570
vt 0.9830 0.3740
vt 0.4825 0.4090
vt 0.4825 0.0940
vt 0.5175 0.0940
vt 0.5175 0.4090
vt 0.4825 0.0940
vt 0.4825 0.0100
vt 0.5175 0.0100
vt 0.5175 0.0940
vt 0.4825 0.1570
vt 0.4825 0.3740
vt 0.5175 0.3740
vt 0.5175 0.1570
vt 0.4825 0.0170
vt 0.4825 0.4090
vt 0.5175 0.4090
vt 0.5175 0.0170
vt 0.6382 0.5560
vt 1.0057 0.5560
vt 1.0057 0.4580
vt 0.6382 0.4580
vt 0.6382 0.4580
vt 1.0057 0.4580
vt 1.0057 0.5560
vt 0.6382 0.5560
vt 0.3425 0.3618
vt 0.3425 -0.0057
vt 0.2375 -0.0057
vt 0.2375 0.3618
vt 0.2375 0.3618
vt 0.2375 -0.0057
vt 0.3425 -0.0057
vt 0.3425 0.3618
vt 0.2375 0.5560
vt 0.2375 0.4580
vt 0.3425 0.4580
vt 0.3425 0.5560
vt 0.3425 0.5560
vt 0.3425 0.4580
vt 0.2375 0.4580
vt 0.2375 0.5560
vt 0.6382 0.5560
vt 1.0057 0.5560
vt 1.0057 0.4580
vt 0.6382 0.4580
vt 0.6382 0.4580
vt 1.0057 0.4580
vt 1.0057 0.5560
vt 0.6382 0.5560
vt 0.7625 0.3618
vt 0.7625 -0.0057
vt 0.6575 -0.0057
vt 0.6575 0.3618
vt 0.6575 0.3618
vt 0.6575 -0.0057
vt 0.7625 -0.0057
vt 0.7625 0.3618
vt 0.6575 0.5560
vt 0.6575 0.4580
vt 0.7625 0.4580
vt 0.7625 0.5560
vt 0.7625 0.5560
vt 0.7625 0.4580
vt 0.6575 0.4580
vt 0.6575 0.5560
vn 0.6912 0.6912 -0.2110
vn 0.6970 -0.6970 -0.1687
vn -0.6970 -0.6970 -0.1687
vn -0.6912 0.6912 -0.2110
vn 0.7062 0.7062 0.0494
vn 0.6883 -0.7246 0.0341
vn -0.6881 -0.7243 0.0435
vn -0.7062 0.7062 0.0494
vn 0.5070 0.5070 0.6971
vn 0.5456 -0.5744 0.6102
vn -0.5456 -0.5744 0.6102
vn -0.5070 0.5070 0.6971
vn 0.0000 -1.0000 0.0000
vn -0.0000 1.0000 0.0000
vn 0.8393 0.0000 -0.5437
vn 0.8575 0.0000 0.5145
vn -0.1020 0.0000 0.9948
vn -0.9997 0.0000 -0.0244
vn -0.0000 -1.0000 0.0000
vn 0.0000 1.0000 0.0000
vn -0.8393 0.0000 -0.5437
vn -0.8575 0.0000 0.5145
vn 0.1020 0.0000 0.9948
vn 0.9997 0.0000 -0.0244
vn -1.0000 0.0000 0.0000
vn 1.0000 0.0000 0.0000
vn 0.0000 0.7979 -0.6028
vn 0.0000 0.9231 0.3846
vn 0.0000 -0.0322 0.9995
vn 0.0000 -0.9994 -0.0357
vn -1.0000 0.0000 0.0000
vn 1.0000 0.0000 -0.0000
vn 0.0000 -1.0000 0.0000
vn 0.0000 1.0000 0.0000
vn 0.0000 0.0000 -1.0000
vn 0.0000 -0.0000 1.0000
vn -1.0000 0.0000 0.0000
vn 1.0000 0.0000 -0.0000
vn 0.0000 -1.0000 0.0000
vn 0.0000 1.0000 0.0000
vn 0.0000 0.0000 -1.0000
vn 0.0000 -0.0000 1.0000
f 1/1/1 2/2/1 3/3/1
f 1/4/2 3/5/2 4/6/2
f 1/7/3 4/8/3 5/9/3
f 1/10/4 5/11/4 2/12/4
f 2/13/5 6/14/5 7/15/5 3/16/5
f 3/17/6 7/18/6 8/19/6 4/20/6
f 4/21/7 8/22/7 9/23/7 5/24/7
f 5/25/8 9/26/8 6/27/8 2/28/8
f 6/29/9 10/30/9 7/31/9
f 7/32/10 10/33/10 8/34/10
f 8/35/11 10/36/11 9/37/11
f 9/38/12 10/39/12 6/40/12
f 11/41/13 12/42/13 13/43/13 14/44/13
f 18/45/14 17/46/14 16/47/14 15/48/14
f 15/49/15 16/50/15 12/51/15 11/52/15
f 16/53/16 17/54/16 13/55/16 12/56/16
f 17/57/17 18/58/17 14/59/17 13/60/17
f 18/61/18 15/62/18 11/63/18 14/64/18
f 22/65/19 21/66/19 20/67/19 19/68/19
f 23/69/20 24/70/20 25/71/20 26/72/20
f 19/73/21 20/74/21 24/75/21 23/76/21
f 20/77/22 21/78/22 25/79/22 24/80/22
f 21/81/23 22/82/23 26/83/23 25/84/23
f 22/85/24 19/86/24 23/87/24 26/88/24
f 30/89/25 29/90/25 28/91/25 27/92/25
f 31/93/26 32/94/26 33/95/26 34/96/26
f 27/97/27 28/98/27 32/99/27 31/100/27
f 28/101/28 29/102/28 33/103/28 32/104/28
f 29/105/29 30/106/29 34/107/29 33/108/29
f 30/109/30 27/110/30 31/111/30 34/112/30
f 35/113/31 36/114/31 38/115/31 37/116/31
f 41/117/32 42/118/32 40/119/32 39/120/32
f 39/121/33 40/122/33 36/123/33 35/124/33
f 37/125/34 38/126/34 42/127/34 41/128/34
f 35/129/35 37/130/35 41/131/35 39/132/35
f 40/133/36 42/134/36 38/135/36 36/136/36
f 43/137/37 44/138/37 46/139/37 45/140/37
f 49/141/38 50/142/38 48/143/38 47/144/38
f 47/145/39 48/146/39 44/147/39 43/148/39
f 45/149/40 46/150/40 50/151/40 49/152/40
f 43/153/41 45/154/41 49/155/41 47/156/41
f 48/157/42 50/158/42 46/159/42 44/160/42
