# road_junction_merge_below_main_metal.obj — gray-box hull for Missile Rider.
# GENERATED by tools/gen_road_junctions.py. Do not hand-edit; edit the generator.
o road_junction_merge_below_main_metal
v 3570.0000 -80.2500 -256.8000
v 3570.0000 -80.2500 256.8000
v 3570.0000 80.2500 256.8000
v 3570.0000 80.2500 -256.8000
v 3630.0000 -80.2500 -256.8000
v 3630.0000 -80.2500 256.8000
v 3630.0000 80.2500 256.8000
v 3630.0000 80.2500 -256.8000
v 3570.0000 -80.2500 -256.8000
v 3570.0000 -80.2500 256.8000
v 3570.0000 80.2500 256.8000
v 3570.0000 80.2500 -256.8000
v 3630.0000 -80.2500 -256.8000
v 3630.0000 -80.2500 256.8000
v 3630.0000 80.2500 256.8000
v 3630.0000 80.2500 -256.8000
v 3570.0000 -80.2500 -256.8000
v 3570.0000 -80.2500 256.8000
v 3570.0000 80.2500 256.8000
v 3570.0000 80.2500 -256.8000
v 3630.0000 -80.2500 -256.8000
v 3630.0000 -80.2500 256.8000
v 3630.0000 80.2500 256.8000
v 3630.0000 80.2500 -256.8000
v 3570.0000 -80.2500 -256.8000
v 3570.0000 -80.2500 256.8000
v 3570.0000 80.2500 256.8000
v 3570.0000 80.2500 -256.8000
v 3630.0000 -80.2500 -256.8000
v 3630.0000 -80.2500 256.8000
v 3630.0000 80.2500 256.8000
v 3630.0000 80.2500 -256.8000
v 3570.0000 -80.2500 -256.8000
v 3570.0000 -80.2500 256.8000
v 3570.0000 80.2500 256.8000
v 3570.0000 80.2500 -256.8000
v 3630.0000 -80.2500 -256.8000
v 3630.0000 -80.2500 256.8000
v 3630.0000 80.2500 256.8000
v 3630.0000 80.2500 -256.8000
vt -0.1420 0.7006
vt 1.1420 0.7006
vt 1.1420 0.2994
vt -0.1420 0.2994
vt -0.1420 0.2994
vt 1.1420 0.2994
vt 1.1420 0.7006
vt -0.1420 0.7006
vt 9.5750 1.1420
vt 9.5750 -0.1420
vt 9.4250 -0.1420
vt 9.4250 1.1420
vt 9.5750 0.7006
vt 9.5750 0.2994
vt 9.4250 0.2994
vt 9.4250 0.7006
vt 9.5750 -0.1420
vt 9.5750 1.1420
vt 9.4250 1.1420
vt 9.4250 -0.1420
vt 9.5750 0.2994
vt 9.5750 0.7006
vt 9.4250 0.7006
vt 9.4250 0.2994
vt -0.1420 0.7006
vt 1.1420 0.7006
vt 1.1420 0.2994
vt -0.1420 0.2994
vt -0.1420 0.2994
vt 1.1420 0.2994
vt 1.1420 0.7006
vt -0.1420 0.7006
vt 9.5750 1.1420
vt 9.5750 -0.1420
vt 9.4250 -0.1420
vt 9.4250 1.1420
vt 9.5750 0.7006
vt 9.5750 0.2994
vt 9.4250 0.2994
vt 9.4250 0.7006
vt 9.5750 -0.1420
vt 9.5750 1.1420
vt 9.4250 1.1420
vt 9.4250 -0.1420
vt 9.5750 0.2994
vt 9.5750 0.7006
vt 9.4250 0.7006
vt 9.4250 0.2994
vt -0.1420 0.7006
vt 1.1420 0.7006
vt 1.1420 0.2994
vt -0.1420 0.2994
vt -0.1420 0.2994
vt 1.1420 0.2994
vt 1.1420 0.7006
vt -0.1420 0.7006
vt 9.5750 1.1420
vt 9.5750 -0.1420
vt 9.4250 -0.1420
vt 9.4250 1.1420
vt 9.5750 0.7006
vt 9.5750 0.2994
vt 9.4250 0.2994
vt 9.4250 0.7006
vt 9.5750 -0.1420
vt 9.5750 1.1420
vt 9.4250 1.1420
vt 9.4250 -0.1420
vt 9.5750 0.2994
vt 9.5750 0.7006
vt 9.4250 0.7006
vt 9.4250 0.2994
vt -0.1420 0.7006
vt 1.1420 0.7006
vt 1.1420 0.2994
vt -0.1420 0.2994
vt -0.1420 0.2994
vt 1.1420 0.2994
vt 1.1420 0.7006
vt -0.1420 0.7006
vt 9.5750 1.1420
vt 9.5750 -0.1420
vt 9.4250 -0.1420
vt 9.4250 1.1420
vt 9.5750 0.7006
vt 9.5750 0.2994
vt 9.4250 0.2994
vt 9.4250 0.7006
vt 9.5750 -0.1420
vt 9.5750 1.1420
vt 9.4250 1.1420
vt 9.4250 -0.1420
vt 9.5750 0.2994
vt 9.5750 0.7006
vt 9.4250 0.7006
vt 9.4250 0.2994
vt -0.1420 0.7006
vt 1.1420 0.7006
vt 1.1420 0.2994
vt -0.1420 0.2994
vt -0.1420 0.2994
vt 1.1420 0.2994
vt 1.1420 0.7006
vt -0.1420 0.7006
vt 9.5750 1.1420
vt 9.5750 -0.1420
vt 9.4250 -0.1420
vt 9.4250 1.1420
vt 9.5750 0.7006
vt 9.5750 0.2994
vt 9.4250 0.2994
vt 9.4250 0.7006
vt 9.5750 -0.1420
vt 9.5750 1.1420
vt 9.4250 1.1420
vt 9.4250 -0.1420
vt 9.5750 0.2994
vt 9.5750 0.7006
vt 9.4250 0.7006
vt 9.4250 0.2994
vn -1.0000 0.0000 0.0000
vn 1.0000 0.0000 -0.0000
vn 0.0000 -1.0000 0.0000
vn 0.0000 -0.0000 1.0000
vn 0.0000 1.0000 0.0000
vn 0.0000 -0.0000 -1.0000
vn -1.0000 0.0000 0.0000
vn 1.0000 0.0000 -0.0000
vn 0.0000 -1.0000 0.0000
vn 0.0000 -0.0000 1.0000
vn 0.0000 1.0000 0.0000
vn 0.0000 -0.0000 -1.0000
vn -1.0000 0.0000 0.0000
vn 1.0000 0.0000 -0.0000
vn 0.0000 -1.0000 0.0000
vn 0.0000 -0.0000 1.0000
vn 0.0000 1.0000 0.0000
vn 0.0000 -0.0000 -1.0000
vn -1.0000 0.0000 0.0000
vn 1.0000 0.0000 -0.0000
vn 0.0000 -1.0000 0.0000
vn 0.0000 -0.0000 1.0000
vn 0.0000 1.0000 0.0000
vn 0.0000 -0.0000 -1.0000
vn -1.0000 0.0000 0.0000
vn 1.0000 0.0000 -0.0000
vn 0.0000 -1.0000 0.0000
vn 0.0000 -0.0000 1.0000
vn 0.0000 1.0000 0.0000
vn 0.0000 -0.0000 -1.0000
f 1/1/1 2/2/1 3/3/1 4/4/1
f 8/5/2 7/6/2 6/7/2 5/8/2
f 5/9/3 6/10/3 2/11/3 1/12/3
f 6/13/4 7/14/4 3/15/4 2/16/4
f 7/17/5 8/18/5 4/19/5 3/20/5
f 8/21/6 5/22/6 1/23/6 4/24/6
f 9/25/7 10/26/7 11/27/7 12/28/7
f 16/29/8 15/30/8 14/31/8 13/32/8
f 13/33/9 14/34/9 10/35/9 9/36/9
f 14/37/10 15/38/10 11/39/10 10/40/10
f 15/41/11 16/42/11 12/43/11 11/44/11
f 16/45/12 13/46/12 9/47/12 12/48/12
f 17/49/13 18/50/13 19/51/13 20/52/13
f 24/53/14 23/54/14 22/55/14 21/56/14
f 21/57/15 22/58/15 18/59/15 17/60/15
f 22/61/16 23/62/16 19/63/16 18/64/16
f 23/65/17 24/66/17 20/67/17 19/68/17
f 24/69/18 21/70/18 17/71/18 20/72/18
f 25/73/19 26/74/19 27/75/19 28/76/19
f 32/77/20 31/78/20 30/79/20 29/80/20
f 29/81/21 30/82/21 26/83/21 25/84/21
f 30/85/22 31/86/22 27/87/22 26/88/22
f 31/89/23 32/90/23 28/91/23 27/92/23
f 32/93/24 29/94/24 25/95/24 28/96/24
f 33/97/25 34/98/25 35/99/25 36/100/25
f 40/101/26 39/102/26 38/103/26 37/104/26
f 37/105/27 38/106/27 34/107/27 33/108/27
f 38/109/28 39/110/28 35/111/28 34/112/28
f 39/113/29 40/114/29 36/115/29 35/116/29
f 40/117/30 37/118/30 33/119/30 36/120/30
