# road_junction_diverge_right_glass.obj — gray-box hull for Missile Rider.
# GENERATED by tools/gen_road_junctions.py. Do not hand-edit; edit the generator.
o road_junction_diverge_right_glass
v 0.0000 -75.0000 -243.0000
v 0.0000 -75.0000 -240.0000
v 0.0000 75.0000 -240.0000
v 0.0000 75.0000 -243.0000
v 1800.0000 -75.0000 -243.0000
v 1800.0000 -75.0000 -240.0000
v 1800.0000 75.0000 -240.0000
v 1800.0000 75.0000 -243.0000
v 0.0000 75.0000 -240.0000
v 0.0000 75.0000 240.0000
v 0.0000 78.0000 240.0000
v 0.0000 78.0000 -240.0000
v 1800.0000 75.0000 -240.0000
v 1800.0000 75.0000 240.0000
v 1800.0000 78.0000 240.0000
v 1800.0000 78.0000 -240.0000
v 922.0341 -75.0000 459.2082
v 920.3464 -75.0000 461.6884
v 920.3464 75.0000 461.6884
v 922.0341 75.0000 459.2082
v 961.2300 -75.0000 485.7090
v 959.6649 -75.0000 488.2684
v 959.6649 75.0000 488.2684
v 961.2300 75.0000 485.7090
v 961.2300 -75.0000 485.7090
v 959.6649 -75.0000 488.2684
v 959.6649 75.0000 488.2684
v 961.2300 75.0000 485.7090
v 1027.6467 -75.0000 523.6517
v 1026.2540 -75.0000 526.3088
v 1026.2540 75.0000 526.3088
v 1027.6467 75.0000 523.6517
v 1027.6467 -75.0000 523.6517
v 1026.2540 -75.0000 526.3088
v 1026.2540 75.0000 526.3088
v 1027.6467 75.0000 523.6517
v 1095.1348 -75.0000 555.8224
v 1093.9413 -75.0000 558.5748
v 1093.9413 75.0000 558.5748
v 1095.1348 75.0000 555.8224
v 1095.1348 -75.0000 555.8224
v 1093.9413 -75.0000 558.5748
v 1093.9413 75.0000 558.5748
v 1095.1348 75.0000 555.8224
v 1162.6180 -75.0000 582.2020
v 1161.6235 -75.0000 585.0323
v 1161.6235 75.0000 585.0323
v 1162.6180 75.0000 582.2020
v 1162.6180 -75.0000 582.2020
v 1161.6235 -75.0000 585.0323
v 1161.6235 75.0000 585.0323
v 1162.6180 75.0000 582.2020
v 1230.0977 -75.0000 603.2578
v 1229.3023 -75.0000 606.1504
v 1229.3023 75.0000 606.1504
v 1230.0977 75.0000 603.2578
v 1230.0977 -75.0000 603.2578
v 1229.3023 -75.0000 606.1504
v 1229.3023 75.0000 606.1504
v 1230.0977 75.0000 603.2578
v 1297.5751 -75.0000 619.3272
v 1296.9785 -75.0000 622.2673
v 1296.9785 75.0000 622.2673
v 1297.5751 75.0000 619.3272
v 1297.5751 -75.0000 619.3272
v 1296.9785 -75.0000 622.2673
v 1296.9785 75.0000 622.2673
v 1297.5751 75.0000 619.3272
v 1365.0509 -75.0000 630.6487
v 1364.6532 -75.0000 633.6223
v 1364.6532 75.0000 633.6223
v 1365.0509 75.0000 630.6487
v 1365.0509 -75.0000 630.6487
v 1364.6532 -75.0000 633.6223
v 1364.6532 75.0000 633.6223
v 1365.0509 75.0000 630.6487
v 1432.5257 -75.0000 637.3810
v 1432.3268 -75.0000 640.3744
v 1432.3268 75.0000 640.3744
v 1432.5257 75.0000 637.3810
v 1432.5257 -75.0000 637.3810
v 1432.3268 -75.0000 640.3744
v 1432.3268 75.0000 640.3744
v 1432.5257 75.0000 637.3810
v 1496.0298 -75.0000 639.5495
v 1495.9305 -75.0000 642.5479
v 1495.9305 75.0000 642.5479
v 1496.0298 75.0000 639.5495
v 1058.7438 -75.0000 258.3116
v 1057.0560 -75.0000 260.7918
v 1057.0560 75.0000 260.7918
v 1058.7438 75.0000 258.3116
v 1088.0035 -75.0000 278.3989
v 1086.4384 -75.0000 280.9583
v 1086.4384 75.0000 280.9583
v 1088.0035 75.0000 278.3989
v 1088.0035 -75.0000 278.3989
v 1086.4384 -75.0000 280.9583
v 1086.4384 75.0000 280.9583
v 1088.0035 75.0000 278.3989
v 1140.4559 -75.0000 308.4237
v 1139.0632 -75.0000 311.0808
v 1139.0632 75.0000 311.0808
v 1140.4559 75.0000 308.4237
v 1140.4559 -75.0000 308.4237
v 1139.0632 -75.0000 311.0808
v 1139.0632 75.0000 311.0808
v 1140.4559 75.0000 308.4237
v 1191.8100 -75.0000 332.8809
v 1190.6165 -75.0000 335.6333
v 1190.6165 75.0000 335.6333
v 1191.8100 75.0000 332.8809
v 1191.8100 -75.0000 332.8809
v 1190.6165 -75.0000 335.6333
v 1190.6165 75.0000 335.6333
v 1191.8100 75.0000 332.8809
v 1243.1692 -75.0000 352.9412
v 1242.1748 -75.0000 355.7716
v 1242.1748 75.0000 355.7716
v 1243.1692 75.0000 352.9412
v 1243.1692 -75.0000 352.9412
v 1242.1748 -75.0000 355.7716
v 1242.1748 75.0000 355.7716
v 1243.1692 75.0000 352.9412
v 1294.5320 -75.0000 368.9562
v 1293.7365 -75.0000 371.8488
v 1293.7365 75.0000 371.8488
v 1294.5320 75.0000 368.9562
v 1294.5320 -75.0000 368.9562
v 1293.7365 -75.0000 371.8488
v 1293.7365 75.0000 371.8488
v 1294.5320 75.0000 368.9562
v 1345.8971 -75.0000 381.1803
v 1345.3005 -75.0000 384.1204
v 1345.3005 75.0000 384.1204
v 1345.8971 75.0000 381.1803
v 1345.8971 -75.0000 381.1803
v 1345.3005 -75.0000 384.1204
v 1345.3005 75.0000 384.1204
v 1345.8971 75.0000 381.1803
v 1397.2639 -75.0000 389.7933
v 1396.8662 -75.0000 392.7669
v 1396.8662 75.0000 392.7669
v 1397.2639 75.0000 389.7933
v 1397.2639 -75.0000 389.7933
v 1396.8662 -75.0000 392.7669
v 1396.8662 75.0000 392.7669
v 1397.2639 75.0000 389.7933
v 1448.6317 -75.0000 394.9154
v 1448.4329 -75.0000 397.9088
v 1448.4329 75.0000 397.9088
v 1448.6317 75.0000 394.9154
v 1448.6317 -75.0000 394.9154
v 1448.4329 -75.0000 397.9088
v 1448.4329 75.0000 397.9088
v 1448.6317 75.0000 394.9154
v 1504.0695 -75.0000 396.6826
v 1503.9702 -75.0000 399.6809
v 1503.9702 75.0000 399.6809
v 1504.0695 75.0000 396.6826
v 1057.0560 75.0000 260.7918
v 922.0341 75.0000 459.2082
v 922.0341 78.0000 459.2082
v 1057.0560 78.0000 260.7918
v 1086.4384 75.0000 280.9583
v 961.2300 75.0000 485.7090
v 961.2300 78.0000 485.7090
v 1086.4384 78.0000 280.9583
v 1086.4384 75.0000 280.9583
v 961.2300 75.0000 485.7090
v 961.2300 78.0000 485.7090
v 1086.4384 78.0000 280.9583
v 1139.0632 75.0000 311.0808
v 1027.6467 75.0000 523.6517
v 1027.6467 78.0000 523.6517
v 1139.0632 78.0000 311.0808
v 1139.0632 75.0000 311.0808
v 1027.6467 75.0000 523.6517
v 1027.6467 78.0000 523.6517
v 1139.0632 78.0000 311.0808
v 1190.6165 75.0000 335.6333
v 1095.1348 75.0000 555.8224
v 1095.1348 78.0000 555.8224
v 1190.6165 78.0000 335.6333
v 1190.6165 75.0000 335.6333
v 1095.1348 75.0000 555.8224
v 1095.1348 78.0000 555.8224
v 1190.6165 78.0000 335.6333
v 1242.1748 75.0000 355.7716
v 1162.6180 75.0000 582.2020
v 1162.6180 78.0000 582.2020
v 1242.1748 78.0000 355.7716
v 1242.1748 75.0000 355.7716
v 1162.6180 75.0000 582.2020
v 1162.6180 78.0000 582.2020
v 1242.1748 78.0000 355.7716
v 1293.7365 75.0000 371.8488
v 1230.0977 75.0000 603.2578
v 1230.0977 78.0000 603.2578
v 1293.7365 78.0000 371.8488
v 1293.7365 75.0000 371.8488
v 1230.0977 75.0000 603.2578
v 1230.0977 78.0000 603.2578
v 1293.7365 78.0000 371.8488
v 1345.3005 75.0000 384.1204
v 1297.5751 75.0000 619.3272
v 1297.5751 78.0000 619.3272
v 1345.3005 78.0000 384.1204
v 1345.3005 75.0000 384.1204
v 1297.5751 75.0000 619.3272
v 1297.5751 78.0000 619.3272
v 1345.3005 78.0000 384.1204
v 1396.8662 75.0000 392.7669
v 1365.0509 75.0000 630.6487
v 1365.0509 78.0000 630.6487
v 1396.8662 78.0000 392.7669
v 1396.8662 75.0000 392.7669
v 1365.0509 75.0000 630.6487
v 1365.0509 78.0000 630.6487
v 1396.8662 78.0000 392.7669
v 1448.4329 75.0000 397.9088
v 1432.5257 75.0000 637.3810
v 1432.5257 78.0000 637.3810
v 1448.4329 78.0000 397.9088
v 1448.4329 75.0000 397.9088
v 1432.5257 75.0000 637.3810
v 1432.5257 78.0000 637.3810
v 1448.4329 78.0000 397.9088
v 1503.9702 75.0000 399.6809
v 1496.0298 75.0000 639.5495
v 1496.0298 78.0000 639.5495
v 1503.9702 78.0000 399.6809
vt -0.1075 0.6875
vt -0.1000 0.6875
vt -0.1000 0.3125
vt -0.1075 0.3125
vt -0.1075 0.3125
vt -0.1000 0.3125
vt -0.1000 0.6875
vt -0.1075 0.6875
vt 5.0000 1.1075
vt 5.0000 1.1000
vt 0.5000 1.1000
vt 0.5000 1.1075
vt 5.0000 0.6875
vt 5.0000 0.3125
vt 0.5000 0.3125
vt 0.5000 0.6875
vt 5.0000 1.1000
vt 5.0000 1.1075
vt 0.5000 1.1075
vt 0.5000 1.1000
vt 5.0000 0.3125
vt 5.0000 0.6875
vt 0.5000 0.6875
vt 0.5000 0.3125
vt -0.1000 0.3125
vt 1.1000 0.3125
vt 1.1000 0.3050
vt -0.1000 0.3050
vt -0.1000 0.3050
vt 1.1000 0.3050
vt 1.1000 0.3125
vt -0.1000 0.3125
vt 5.0000 1.1000
vt 5.0000 -0.1000
vt 0.5000 -0.1000
vt 0.5000 1.1000
vt 5.0000 0.3125
vt 5.0000 0.3050
vt 0.5000 0.3050
vt 0.5000 0.3125
vt 5.0000 -0.1000
vt 5.0000 1.1000
vt 0.5000 1.1000
vt 0.5000 -0.1000
vt 5.0000 0.3050
vt 5.0000 0.3125
vt 0.5000 0.3125
vt 0.5000 0.3050
vt 1.6480 0.6875
vt 1.6542 0.6875
vt 1.6542 0.3125
vt 1.6480 0.3125
vt 1.7143 0.3125
vt 1.7207 0.3125
vt 1.7207 0.6875
vt 1.7143 0.6875
vt 2.9031 -0.7143
vt 2.8992 -0.7207
vt 2.8009 -0.6542
vt 2.8051 -0.6480
vt 2.8992 0.6875
vt 2.8992 0.3125
vt 2.8009 0.3125
vt 2.8009 0.6875
vt 2.8992 -0.7207
vt 2.9031 -0.7143
vt 2.8051 -0.6480
vt 2.8009 -0.6542
vt 2.9031 0.3125
vt 2.9031 0.6875
vt 2.8051 0.6875
vt 2.8051 0.3125
vt 1.7143 0.6875
vt 1.7207 0.6875
vt 1.7207 0.3125
vt 1.7143 0.3125
vt 1.8091 0.3125
vt 1.8158 0.3125
vt 1.8158 0.6875
vt 1.8091 0.6875
vt 3.0691 -0.8091
vt 3.0656 -0.8158
vt 2.8992 -0.7207
vt 2.9031 -0.7143
vt 3.0656 0.6875
vt 3.0656 0.3125
vt 2.8992 0.3125
vt 2.8992 0.6875
vt 3.0656 -0.8158
vt 3.0691 -0.8091
vt 2.9031 -0.7143
vt 2.8992 -0.7207
vt 3.0691 0.3125
vt 3.0691 0.6875
vt 2.9031 0.6875
vt 2.9031 0.3125
vt 1.8091 0.6875
vt 1.8158 0.6875
vt 1.8158 0.3125
vt 1.8091 0.3125
vt 1.8896 0.3125
vt 1.8964 0.3125
vt 1.8964 0.6875
vt 1.8896 0.6875
vt 3.2378 -0.8896
vt 3.2349 -0.8964
vt 3.0656 -0.8158
vt 3.0691 -0.8091
vt 3.2349 0.6875
vt 3.2349 0.3125
vt 3.0656 0.3125
vt 3.0656 0.6875
vt 3.2349 -0.8964
vt 3.2378 -0.8896
vt 3.0691 -0.8091
vt 3.0656 -0.8158
vt 3.2378 0.3125
vt 3.2378 0.6875
vt 3.0691 0.6875
vt 3.0691 0.3125
vt 1.8896 0.6875
vt 1.8964 0.6875
vt 1.8964 0.3125
vt 1.8896 0.3125
vt 1.9555 0.3125
vt 1.9626 0.3125
vt 1.9626 0.6875
vt 1.9555 0.6875
vt 3.4065 -0.9555
vt 3.4041 -0.9626
vt 3.2349 -0.8964
vt 3.2378 -0.8896
vt 3.4041 0.6875
vt 3.4041 0.3125
vt 3.2349 0.3125
vt 3.2349 0.6875
vt 3.4041 -0.9626
vt 3.4065 -0.9555
vt 3.2378 -0.8896
vt 3.2349 -0.8964
vt 3.4065 0.3125
vt 3.4065 0.6875
vt 3.2378 0.6875
vt 3.2378 0.3125
vt 1.9555 0.6875
vt 1.9626 0.6875
vt 1.9626 0.3125
vt 1.9555 0.3125
vt 2.0081 0.3125
vt 2.0154 0.3125
vt 2.0154 0.6875
vt 2.0081 0.6875
vt 3.5752 -1.0081
vt 3.5733 -1.0154
vt 3.4041 -0.9626
vt 3.4065 -0.9555
vt 3.5733 0.6875
vt 3.5733 0.3125
vt 3.4041 0.3125
vt 3.4041 0.6875
vt 3.5733 -1.0154
vt 3.5752 -1.0081
vt 3.4065 -0.9555
vt 3.4041 -0.9626
vt 3.5752 0.3125
vt 3.5752 0.6875
vt 3.4065 0.6875
vt 3.4065 0.3125
vt 2.0081 0.6875
vt 2.0154 0.6875
vt 2.0154 0.3125
vt 2.0081 0.3125
vt 2.0483 0.3125
vt 2.0557 0.3125
vt 2.0557 0.6875
vt 2.0483 0.6875
vt 3.7439 -1.0483
vt 3.7424 -1.0557
vt 3.5733 -1.0154
vt 3.5752 -1.0081
vt 3.7424 0.6875
vt 3.7424 0.3125
vt 3.5733 0.3125
vt 3.5733 0.6875
vt 3.7424 -1.0557
vt 3.7439 -1.0483
vt 3.5752 -1.0081
vt 3.5733 -1.0154
vt 3.7439 0.3125
vt 3.7439 0.6875
vt 3.5752 0.6875
vt 3.5752 0.3125
vt 2.0483 0.6875
vt 2.0557 0.6875
vt 2.0557 0.3125
vt 2.0483 0.3125
vt 2.0766 0.3125
vt 2.0841 0.3125
vt 2.0841 0.6875
vt 2.0766 0.6875
vt 3.9126 -1.0766
vt 3.9116 -1.0841
vt 3.7424 -1.0557
vt 3.7439 -1.0483
vt 3.9116 0.6875
vt 3.9116 0.3125
vt 3.7424 0.3125
vt 3.7424 0.6875
vt 3.9116 -1.0841
vt 3.9126 -1.0766
vt 3.7439 -1.0483
vt 3.7424 -1.0557
vt 3.9126 0.3125
vt 3.9126 0.6875
vt 3.7439 0.6875
vt 3.7439 0.3125
vt 2.0766 0.6875
vt 2.0841 0.6875
vt 2.0841 0.3125
vt 2.0766 0.3125
vt 2.0935 0.3125
vt 2.1009 0.3125
vt 2.1009 0.6875
vt 2.0935 0.6875
vt 4.0813 -1.0935
vt 4.0808 -1.1009
vt 3.9116 -1.0841
vt 3.9126 -1.0766
vt 4.0808 0.6875
vt 4.0808 0.3125
vt 3.9116 0.3125
vt 3.9116 0.6875
vt 4.0808 -1.1009
vt 4.0813 -1.0935
vt 3.9126 -1.0766
vt 3.9116 -1.0841
vt 4.0813 0.3125
vt 4.0813 0.6875
vt 3.9126 0.6875
vt 3.9126 0.3125
vt 2.0935 0.6875
vt 2.1009 0.6875
vt 2.1009 0.3125
vt 2.0935 0.3125
vt 2.0989 0.3125
vt 2.1064 0.3125
vt 2.1064 0.6875
vt 2.0989 0.6875
vt 4.2401 -1.0989
vt 4.2398 -1.1064
vt 4.0808 -1.1009
vt 4.0813 -1.0935
vt 4.2398 0.6875
vt 4.2398 0.3125
vt 4.0808 0.3125
vt 4.0808 0.6875
vt 4.2398 -1.1064
vt 4.2401 -1.0989
vt 4.0813 -1.0935
vt 4.0808 -1.1009
vt 4.2401 0.3125
vt 4.2401 0.6875
vt 4.0813 0.6875
vt 4.0813 0.3125
vt 1.1458 0.6875
vt 1.1520 0.6875
vt 1.1520 0.3125
vt 1.1458 0.3125
vt 1.1960 0.3125
vt 1.2024 0.3125
vt 1.2024 0.6875
vt 1.1960 0.6875
vt 3.2200 -0.1960
vt 3.2161 -0.2024
vt 3.1426 -0.1520
vt 3.1469 -0.1458
vt 3.2161 0.6875
vt 3.2161 0.3125
vt 3.1426 0.3125
vt 3.1426 0.6875
vt 3.2161 -0.2024
vt 3.2200 -0.1960
vt 3.1469 -0.1458
vt 3.1426 -0.1520
vt 3.2200 0.3125
vt 3.2200 0.6875
vt 3.1469 0.6875
vt 3.1469 0.3125
vt 1.1960 0.6875
vt 1.2024 0.6875
vt 1.2024 0.3125
vt 1.1960 0.3125
vt 1.2711 0.3125
vt 1.2777 0.3125
vt 1.2777 0.6875
vt 1.2711 0.6875
vt 3.3511 -0.2711
vt 3.3477 -0.2777
vt 3.2161 -0.2024
vt 3.2200 -0.1960
vt 3.3477 0.6875
vt 3.3477 0.3125
vt 3.2161 0.3125
vt 3.2161 0.6875
vt 3.3477 -0.2777
vt 3.3511 -0.2711
vt 3.2200 -0.1960
vt 3.2161 -0.2024
vt 3.3511 0.3125
vt 3.3511 0.6875
vt 3.2200 0.6875
vt 3.2200 0.3125
vt 1.2711 0.6875
vt 1.2777 0.6875
vt 1.2777 0.3125
vt 1.2711 0.3125
vt 1.3322 0.3125
vt 1.3391 0.3125
vt 1.3391 0.6875
vt 1.3322 0.6875
vt 3.4795 -0.3322
vt 3.4765 -0.3391
vt 3.3477 -0.2777
vt 3.3511 -0.2711
vt 3.4765 0.6875
vt 3.4765 0.3125
vt 3.3477 0.3125
vt 3.3477 0.6875
vt 3.4765 -0.3391
vt 3.4795 -0.3322
vt 3.3511 -0.2711
vt 3.3477 -0.2777
vt 3.4795 0.3125
vt 3.4795 0.6875
vt 3.3511 0.6875
vt 3.3511 0.3125
vt 1.3322 0.6875
vt 1.3391 0.6875
vt 1.3391 0.3125
vt 1.3322 0.3125
vt 1.3824 0.3125
vt 1.3894 0.3125
vt 1.3894 0.6875
vt 1.3824 0.6875
vt 3.6079 -0.3824
vt 3.6054 -0.3894
vt 3.4765 -0.3391
vt 3.4795 -0.3322
vt 3.6054 0.6875
vt 3.6054 0.3125
vt 3.4765 0.3125
vt 3.4765 0.6875
vt 3.6054 -0.3894
vt 3.6079 -0.3824
vt 3.4795 -0.3322
vt 3.4765 -0.3391
vt 3.6079 0.3125
vt 3.6079 0.6875
vt 3.4795 0.6875
vt 3.4795 0.3125
vt 1.3824 0.6875
vt 1.3894 0.6875
vt 1.3894 0.3125
vt 1.3824 0.3125
vt 1.4224 0.3125
vt 1.4296 0.3125
vt 1.4296 0.6875
vt 1.4224 0.6875
vt 3.7363 -0.4224
vt 3.7343 -0.4296
vt 3.6054 -0.3894
vt 3.6079 -0.3824
vt 3.7343 0.6875
vt 3.7343 0.3125
vt 3.6054 0.3125
vt 3.6054 0.6875
vt 3.7343 -0.4296
vt 3.7363 -0.4224
vt 3.6079 -0.3824
vt 3.6054 -0.3894
vt 3.7363 0.3125
vt 3.7363 0.6875
vt 3.6079 0.6875
vt 3.6079 0.3125
vt 1.4224 0.6875
vt 1.4296 0.6875
vt 1.4296 0.3125
vt 1.4224 0.3125
vt 1.4530 0.3125
vt 1.4603 0.3125
vt 1.4603 0.6875
vt 1.4530 0.6875
vt 3.8647 -0.4530
vt 3.8633 -0.4603
vt 3.7343 -0.4296
vt 3.7363 -0.4224
vt 3.8633 0.6875
vt 3.8633 0.3125
vt 3.7343 0.3125
vt 3.7343 0.6875
vt 3.8633 -0.4603
vt 3.8647 -0.4530
vt 3.7363 -0.4224
vt 3.7343 -0.4296
vt 3.8647 0.3125
vt 3.8647 0.6875
vt 3.7363 0.6875
vt 3.7363 0.3125
vt 1.4530 0.6875
vt 1.4603 0.6875
vt 1.4603 0.3125
vt 1.4530 0.3125
vt 1.4745 0.3125
vt 1.4819 0.3125
vt 1.4819 0.6875
vt 1.4745 0.6875
vt 3.9932 -0.4745
vt 3.9922 -0.4819
vt 3.8633 -0.4603
vt 3.8647 -0.4530
vt 3.9922 0.6875
vt 3.9922 0.3125
vt 3.8633 0.3125
vt 3.8633 0.6875
vt 3.9922 -0.4819
vt 3.9932 -0.4745
vt 3.8647 -0.4530
vt 3.8633 -0.4603
vt 3.9932 0.3125
vt 3.9932 0.6875
vt 3.8647 0.6875
vt 3.8647 0.3125
vt 1.4745 0.6875
vt 1.4819 0.6875
vt 1.4819 0.3125
vt 1.4745 0.3125
vt 1.4873 0.3125
vt 1.4948 0.3125
vt 1.4948 0.6875
vt 1.4873 0.6875
vt 4.1216 -0.4873
vt 4.1211 -0.4948
vt 3.9922 -0.4819
vt 3.9932 -0.4745
vt 4.1211 0.6875
vt 4.1211 0.3125
vt 3.9922 0.3125
vt 3.9922 0.6875
vt 4.1211 -0.4948
vt 4.1216 -0.4873
vt 3.9932 -0.4745
vt 3.9922 -0.4819
vt 4.1216 0.3125
vt 4.1216 0.6875
vt 3.9932 0.6875
vt 3.9932 0.3125
vt 1.4873 0.6875
vt 1.4948 0.6875
vt 1.4948 0.3125
vt 1.4873 0.3125
vt 1.4917 0.3125
vt 1.4992 0.3125
vt 1.4992 0.6875
vt 1.4917 0.6875
vt 4.2602 -0.4917
vt 4.2599 -0.4992
vt 4.1211 -0.4948
vt 4.1216 -0.4873
vt 4.2599 0.6875
vt 4.2599 0.3125
vt 4.1211 0.3125
vt 4.1211 0.6875
vt 4.2599 -0.4992
vt 4.2602 -0.4917
vt 4.1216 -0.4873
vt 4.1211 -0.4948
vt 4.2602 0.3125
vt 4.2602 0.6875
vt 4.1216 0.6875
vt 4.1216 0.3125
vt 1.1520 0.3125
vt 1.6480 0.3125
vt 1.6480 0.3050
vt 1.1520 0.3050
vt 1.2024 0.3050
vt 1.7143 0.3050
vt 1.7143 0.3125
vt 1.2024 0.3125
vt 3.2161 -0.2024
vt 2.9031 -0.7143
vt 2.8051 -0.6480
vt 3.1426 -0.1520
vt 2.9031 0.3125
vt 2.9031 0.3050
vt 2.8051 0.3050
vt 2.8051 0.3125
vt 2.9031 -0.7143
vt 3.2161 -0.2024
vt 3.1426 -0.1520
vt 2.8051 -0.6480
vt 3.2161 0.3050
vt 3.2161 0.3125
vt 3.1426 0.3125
vt 3.1426 0.3050
vt 1.2024 0.3125
vt 1.7143 0.3125
vt 1.7143 0.3050
vt 1.2024 0.3050
vt 1.2777 0.3050
vt 1.8091 0.3050
vt 1.8091 0.3125
vt 1.2777 0.3125
vt 3.3477 -0.2777
vt 3.0691 -0.8091
vt 2.9031 -0.7143
vt 3.2161 -0.2024
vt 3.0691 0.3125
vt 3.0691 0.3050
vt 2.9031 0.3050
vt 2.9031 0.3125
vt 3.0691 -0.8091
vt 3.3477 -0.2777
vt 3.2161 -0.2024
vt 2.9031 -0.7143
vt 3.3477 0.3050
vt 3.3477 0.3125
vt 3.2161 0.3125
vt 3.2161 0.3050
vt 1.2777 0.3125
vt 1.8091 0.3125
vt 1.8091 0.3050
vt 1.2777 0.3050
vt 1.3391 0.3050
vt 1.8896 0.3050
vt 1.8896 0.3125
vt 1.3391 0.3125
vt 3.4765 -0.3391
vt 3.2378 -0.8896
vt 3.0691 -0.8091
vt 3.3477 -0.2777
vt 3.2378 0.3125
vt 3.2378 0.3050
vt 3.0691 0.3050
vt 3.0691 0.3125
vt 3.2378 -0.8896
vt 3.4765 -0.3391
vt 3.3477 -0.2777
vt 3.0691 -0.8091
vt 3.4765 0.3050
vt 3.4765 0.3125
vt 3.3477 0.3125
vt 3.3477 0.3050
vt 1.3391 0.3125
vt 1.8896 0.3125
vt 1.8896 0.3050
vt 1.3391 0.3050
vt 1.3894 0.3050
vt 1.9555 0.3050
vt 1.9555 0.3125
vt 1.3894 0.3125
vt 3.6054 -0.3894
vt 3.4065 -0.9555
vt 3.2378 -0.8896
vt 3.4765 -0.3391
vt 3.4065 0.3125
vt 3.4065 0.3050
vt 3.2378 0.3050
vt 3.2378 0.3125
vt 3.4065 -0.9555
vt 3.6054 -0.3894
vt 3.4765 -0.3391
vt 3.2378 -0.8896
vt 3.6054 0.3050
vt 3.6054 0.3125
vt 3.4765 0.3125
vt 3.4765 0.3050
vt 1.3894 0.3125
vt 1.9555 0.3125
vt 1.9555 0.3050
vt 1.3894 0.3050
vt 1.4296 0.3050
vt 2.0081 0.3050
vt 2.0081 0.3125
vt 1.4296 0.3125
vt 3.7343 -0.4296
vt 3.5752 -1.0081
vt 3.4065 -0.9555
vt 3.6054 -0.3894
vt 3.5752 0.3125
vt 3.5752 0.3050
vt 3.4065 0.3050
vt 3.4065 0.3125
vt 3.5752 -1.0081
vt 3.7343 -0.4296
vt 3.6054 -0.3894
vt 3.4065 -0.9555
vt 3.7343 0.3050
vt 3.7343 0.3125
vt 3.6054 0.3125
vt 3.6054 0.3050
vt 1.4296 0.3125
vt 2.0081 0.3125
vt 2.0081 0.3050
vt 1.4296 0.3050
vt 1.4603 0.3050
vt 2.0483 0.3050
vt 2.0483 0.3125
vt 1.4603 0.3125
vt 3.8633 -0.4603
vt 3.7439 -1.0483
vt 3.5752 -1.0081
vt 3.7343 -0.4296
vt 3.7439 0.3125
vt 3.7439 0.3050
vt 3.5752 0.3050
vt 3.5752 0.3125
vt 3.7439 -1.0483
vt 3.8633 -0.4603
vt 3.7343 -0.4296
vt 3.5752 -1.0081
vt 3.8633 0.3050
vt 3.8633 0.3125
vt 3.7343 0.3125
vt 3.7343 0.3050
vt 1.4603 0.3125
vt 2.0483 0.3125
vt 2.0483 0.3050
vt 1.4603 0.3050
vt 1.4819 0.3050
vt 2.0766 0.3050
vt 2.0766 0.3125
vt 1.4819 0.3125
vt 3.9922 -0.4819
vt 3.9126 -1.0766
vt 3.7439 -1.0483
vt 3.8633 -0.4603
vt 3.9126 0.3125
vt 3.9126 0.3050
vt 3.7439 0.3050
vt 3.7439 0.3125
vt 3.9126 -1.0766
vt 3.9922 -0.4819
vt 3.8633 -0.4603
vt 3.7439 -1.0483
vt 3.9922 0.3050
vt 3.9922 0.3125
vt 3.8633 0.3125
vt 3.8633 0.3050
vt 1.4819 0.3125
vt 2.0766 0.3125
vt 2.0766 0.3050
vt 1.4819 0.3050
vt 1.4948 0.3050
vt 2.0935 0.3050
vt 2.0935 0.3125
vt 1.4948 0.3125
vt 4.1211 -0.4948
vt 4.0813 -1.0935
vt 3.9126 -1.0766
vt 3.9922 -0.4819
vt 4.0813 0.3125
vt 4.0813 0.3050
vt 3.9126 0.3050
vt 3.9126 0.3125
vt 4.0813 -1.0935
vt 4.1211 -0.4948
vt 3.9922 -0.4819
vt 3.9126 -1.0766
vt 4.1211 0.3050
vt 4.1211 0.3125
vt 3.9922 0.3125
vt 3.9922 0.3050
vt 1.4948 0.3125
vt 2.0935 0.3125
vt 2.0935 0.3050
vt 1.4948 0.3050
vt 1.4992 0.3050
vt 2.0989 0.3050
vt 2.0989 0.3125
vt 1.4992 0.3125
vt 4.2599 -0.4992
vt 4.2401 -1.0989
vt 4.0813 -1.0935
vt 4.1211 -0.4948
vt 4.2401 0.3125
vt 4.2401 0.3050
vt 4.0813 0.3050
vt 4.0813 0.3125
vt 4.2401 -1.0989
vt 4.2599 -0.4992
vt 4.1211 -0.4948
vt 4.0813 -1.0935
vt 4.2599 0.3050
vt 4.2599 0.3125
vt 4.1211 0.3125
vt 4.1211 0.3050
vn -1.0000 0.0000 0.0000
vn 1.0000 0.0000 -0.0000
vn 0.0000 -1.0000 0.0000
vn 0.0000 -0.0000 1.0000
vn 0.0000 1.0000 0.0000
vn 0.0000 -0.0000 -1.0000
vn -1.0000 0.0000 0.0000
vn 1.0000 0.0000 -0.0000
vn 0.0000 -1.0000 0.0000
vn 0.0000 -0.0000 1.0000
vn 0.0000 1.0000 0.0000
vn 0.0000 -0.0000 -1.0000
vn -0.8267 0.0000 -0.5626
vn 0.8531 0.0000 0.5217
vn -0.0000 -1.0000 -0.0000
vn -0.5601 0.0000 0.8285
vn -0.0000 1.0000 -0.0000
vn 0.5601 0.0000 -0.8284
vn -0.8531 0.0000 -0.5217
vn 0.8857 0.0000 0.4642
vn 0.0000 -1.0000 0.0000
vn -0.4960 0.0000 0.8683
vn 0.0000 1.0000 0.0000
vn 0.4960 0.0000 -0.8683
vn -0.8857 0.0000 -0.4642
vn 0.9175 0.0000 0.3978
vn -0.0000 -1.0000 0.0000
vn -0.4303 0.0000 0.9027
vn 0.0000 1.0000 0.0000
vn 0.4303 0.0000 -0.9027
vn -0.9175 0.0000 -0.3978
vn 0.9435 0.0000 0.3315
vn 0.0000 -1.0000 0.0000
vn -0.3641 0.0000 0.9314
vn 0.0000 1.0000 0.0000
vn 0.3641 0.0000 -0.9314
vn -0.9435 0.0000 -0.3315
vn 0.9642 0.0000 0.2652
vn -0.0000 -1.0000 0.0000
vn -0.2979 0.0000 0.9546
vn 0.0000 1.0000 0.0000
vn 0.2979 0.0000 -0.9546
vn -0.9642 0.0000 -0.2652
vn 0.9800 0.0000 0.1989
vn -0.0000 -1.0000 0.0000
vn -0.2317 0.0000 0.9728
vn 0.0000 1.0000 0.0000
vn 0.2317 0.0000 -0.9728
vn -0.9800 0.0000 -0.1989
vn 0.9912 0.0000 0.1326
vn -0.0000 -1.0000 0.0000
vn -0.1655 0.0000 0.9862
vn 0.0000 1.0000 0.0000
vn 0.1655 0.0000 -0.9862
vn -0.9912 0.0000 -0.1326
vn 0.9978 0.0000 0.0663
vn -0.0000 -1.0000 -0.0000
vn -0.0993 0.0000 0.9951
vn -0.0000 1.0000 -0.0000
vn 0.0993 0.0000 -0.9951
vn -0.9978 0.0000 -0.0663
vn 0.9995 0.0000 0.0331
vn 0.0000 -1.0000 0.0000
vn -0.0342 0.0000 0.9994
vn 0.0000 1.0000 0.0000
vn 0.0341 0.0000 -0.9994
vn -0.8267 0.0000 -0.5626
vn 0.8531 0.0000 0.5217
vn -0.0000 -1.0000 -0.0000
vn -0.5659 0.0000 0.8245
vn -0.0000 1.0000 -0.0000
vn 0.5660 0.0000 -0.8244
vn -0.8531 0.0000 -0.5217
vn 0.8857 0.0000 0.4642
vn 0.0000 -1.0000 0.0000
vn -0.4968 0.0000 0.8679
vn 0.0000 1.0000 0.0000
vn 0.4968 0.0000 -0.8679
vn -0.8857 0.0000 -0.4642
vn 0.9175 0.0000 0.3978
vn -0.0000 -1.0000 0.0000
vn -0.4300 0.0000 0.9028
vn 0.0000 1.0000 0.0000
vn 0.4300 0.0000 -0.9028
vn -0.9175 0.0000 -0.3978
vn 0.9435 0.0000 0.3315
vn 0.0000 -1.0000 0.0000
vn -0.3638 0.0000 0.9315
vn 0.0000 1.0000 0.0000
vn 0.3638 0.0000 -0.9315
vn -0.9435 0.0000 -0.3315
vn 0.9642 0.0000 0.2652
vn -0.0000 -1.0000 0.0000
vn -0.2977 0.0000 0.9547
vn 0.0000 1.0000 0.0000
vn 0.2977 0.0000 -0.9547
vn -0.9642 0.0000 -0.2652
vn 0.9800 0.0000 0.1989
vn -0.0000 -1.0000 0.0000
vn -0.2315 0.0000 0.9728
vn 0.0000 1.0000 0.0000
vn 0.2315 0.0000 -0.9728
vn -0.9800 0.0000 -0.1989
vn 0.9912 0.0000 0.1326
vn -0.0000 -1.0000 0.0000
vn -0.1654 0.0000 0.9862
vn 0.0000 1.0000 0.0000
vn 0.1654 0.0000 -0.9862
vn -0.9912 0.0000 -0.1326
vn 0.9978 0.0000 0.0663
vn -0.0000 -1.0000 -0.0000
vn -0.0992 0.0000 0.9951
vn -0.0000 1.0000 -0.0000
vn 0.0992 0.0000 -0.9951
vn -0.9978 0.0000 -0.0663
vn 0.9995 0.0000 0.0331
vn 0.0000 -1.0000 0.0000
vn -0.0319 0.0000 0.9995
vn 0.0000 1.0000 0.0000
vn 0.0319 0.0000 -0.9995
vn -0.8267 0.0000 -0.5626
vn 0.8531 0.0000 0.5217
vn 0.0000 -1.0000 0.0000
vn -0.5601 0.0000 0.8284
vn -0.0000 1.0000 -0.0000
vn 0.5659 0.0000 -0.8245
vn -0.8531 0.0000 -0.5217
vn 0.8857 0.0000 0.4642
vn -0.0000 -1.0000 -0.0000
vn -0.4960 0.0000 0.8683
vn 0.0000 1.0000 0.0000
vn 0.4968 0.0000 -0.8679
vn -0.8857 0.0000 -0.4642
vn 0.9175 0.0000 0.3978
vn 0.0000 -1.0000 0.0000
vn -0.4303 0.0000 0.9027
vn 0.0000 1.0000 0.0000
vn 0.4300 0.0000 -0.9028
vn -0.9175 0.0000 -0.3978
vn 0.9435 0.0000 0.3315
vn -0.0000 -1.0000 -0.0000
vn -0.3641 0.0000 0.9314
vn 0.0000 1.0000 0.0000
vn 0.3638 0.0000 -0.9315
vn -0.9435 0.0000 -0.3315
vn 0.9642 0.0000 0.2652
vn 0.0000 -1.0000 0.0000
vn -0.2979 0.0000 0.9546
vn 0.0000 1.0000 0.0000
vn 0.2977 0.0000 -0.9547
vn -0.9642 0.0000 -0.2652
vn 0.9800 0.0000 0.1989
vn 0.0000 -1.0000 0.0000
vn -0.2317 0.0000 0.9728
vn 0.0000 1.0000 0.0000
vn 0.2315 0.0000 -0.9728
vn -0.9800 0.0000 -0.1989
vn 0.9912 0.0000 0.1326
vn 0.0000 -1.0000 0.0000
vn -0.1655 0.0000 0.9862
vn 0.0000 1.0000 0.0000
vn 0.1654 0.0000 -0.9862
vn -0.9912 0.0000 -0.1326
vn 0.9978 0.0000 0.0663
vn 0.0000 -1.0000 0.0000
vn -0.0993 0.0000 0.9951
vn -0.0000 1.0000 -0.0000
vn 0.0992 0.0000 -0.9951
vn -0.9978 0.0000 -0.0663
vn 0.9995 0.0000 0.0331
vn 0.0000 -1.0000 0.0000
vn -0.0341 0.0000 0.9994
vn 0.0000 1.0000 0.0000
vn 0.0319 0.0000 -0.9995
f 1/1/1 2/2/1 3/3/1 4/4/1
f 8/5/2 7/6/2 6/7/2 5/8/2
f 5/9/3 6/10/3 2/11/3 1/12/3
f 6/13/4 7/14/4 3/15/4 2/16/4
f 7/17/5 8/18/5 4/19/5 3/20/5
f 8/21/6 5/22/6 1/23/6 4/24/6
f 9/25/7 10/26/7 11/27/7 12/28/7
f 16/29/8 15/30/8 14/31/8 13/32/8
f 13/33/9 14/34/9 10/35/9 9/36/9
f 14/37/10 15/38/10 11/39/10 10/40/10
f 15/41/11 16/42/11 12/43/11 11/44/11
f 16/45/12 13/46/12 9/47/12 12/48/12
f 17/49/13 18/50/13 19/51/13 20/52/13
f 24/53/14 23/54/14 22/55/14 21/56/14
f 21/57/15 22/58/15 18/59/15 17/60/15
f 22/61/16 23/62/16 19/63/16 18/64/16
f 23/65/17 24/66/17 20/67/17 19/68/17
f 24/69/18 21/70/18 17/71/18 20/72/18
f 25/73/19 26/74/19 27/75/19 28/76/19
f 32/77/20 31/78/20 30/79/20 29/80/20
f 29/81/21 30/82/21 26/83/21 25/84/21
f 30/85/22 31/86/22 27/87/22 26/88/22
f 31/89/23 32/90/23 28/91/23 27/92/23
f 32/93/24 29/94/24 25/95/24 28/96/24
f 33/97/25 34/98/25 35/99/25 36/100/25
f 40/101/26 39/102/26 38/103/26 37/104/26
f 37/105/27 38/106/27 34/107/27 33/108/27
f 38/109/28 39/110/28 35/111/28 34/112/28
f 39/113/29 40/114/29 36/115/29 35/116/29
f 40/117/30 37/118/30 33/119/30 36/120/30
f 41/121/31 42/122/31 43/123/31 44/124/31
f 48/125/32 47/126/32 46/127/32 45/128/32
f 45/129/33 46/130/33 42/131/33 41/132/33
f 46/133/34 47/134/34 43/135/34 42/136/34
f 47/137/35 48/138/35 44/139/35 43/140/35
f 48/141/36 45/142/36 41/143/36 44/144/36
f 49/145/37 50/146/37 51/147/37 52/148/37
f 56/149/38 55/150/38 54/151/38 53/152/38
f 53/153/39 54/154/39 50/155/39 49/156/39
f 54/157/40 55/158/40 51/159/40 50/160/40
f 55/161/41 56/162/41 52/163/41 51/164/41
f 56/165/42 53/166/42 49/167/42 52/168/42
f 57/169/43 58/170/43 59/171/43 60/172/43
f 64/173/44 63/174/44 62/175/44 61/176/44
f 61/177/45 62/178/45 58/179/45 57/180/45
f 62/181/46 63/182/46 59/183/46 58/184/46
f 63/185/47 64/186/47 60/187/47 59/188/47
f 64/189/48 61/190/48 57/191/48 60/192/48
f 65/193/49 66/194/49 67/195/49 68/196/49
f 72/197/50 71/198/50 70/199/50 69/200/50
f 69/201/51 70/202/51 66/203/51 65/204/51
f 70/205/52 71/206/52 67/207/52 66/208/52
f 71/209/53 72/210/53 68/211/53 67/212/53
f 72/213/54 69/214/54 65/215/54 68/216/54
f 73/217/55 74/218/55 75/219/55 76/220/55
f 80/221/56 79/222/56 78/223/56 77/224/56
f 77/225/57 78/226/57 74/227/57 73/228/57
f 78/229/58 79/230/58 75/231/58 74/232/58
f 79/233/59 80/234/59 76/235/59 75/236/59
f 80/237/60 77/238/60 73/239/60 76/240/60
f 81/241/61 82/242/61 83/243/61 84/244/61
f 88/245/62 87/246/62 86/247/62 85/248/62
f 85/249/63 86/250/63 82/251/63 81/252/63
f 86/253/64 87/254/64 83/255/64 82/256/64
f 87/257/65 88/258/65 84/259/65 83/260/65
f 88/261/66 85/262/66 81/263/66 84/264/66
f 89/265/67 90/266/67 91/267/67 92/268/67
f 96/269/68 95/270/68 94/271/68 93/272/68
f 93/273/69 94/274/69 90/275/69 89/276/69
f 94/277/70 95/278/70 91/279/70 90/280/70
f 95/281/71 96/282/71 92/283/71 91/284/71
f 96/285/72 93/286/72 89/287/72 92/288/72
f 97/289/73 98/290/73 99/291/73 100/292/73
f 104/293/74 103/294/74 102/295/74 101/296/74
f 101/297/75 102/298/75 98/299/75 97/300/75
f 102/301/76 103/302/76 99/303/76 98/304/76
f 103/305/77 104/306/77 100/307/77 99/308/77
f 104/309/78 101/310/78 97/311/78 100/312/78
f 105/313/79 106/314/79 107/315/79 108/316/79
f 112/317/80 111/318/80 110/319/80 109/320/80
f 109/321/81 110/322/81 106/323/81 105/324/81
f 110/325/82 111/326/82 107/327/82 106/328/82
f 111/329/83 112/330/83 108/331/83 107/332/83
f 112/333/84 109/334/84 105/335/84 108/336/84
f 113/337/85 114/338/85 115/339/85 116/340/85
f 120/341/86 119/342/86 118/343/86 117/344/86
f 117/345/87 118/346/87 114/347/87 113/348/87
f 118/349/88 119/350/88 115/351/88 114/352/88
f 119/353/89 120/354/89 116/355/89 115/356/89
f 120/357/90 117/358/90 113/359/90 116/360/90
f 121/361/91 122/362/91 123/363/91 124/364/91
f 128/365/92 127/366/92 126/367/92 125/368/92
f 125/369/93 126/370/93 122/371/93 121/372/93
f 126/373/94 127/374/94 123/375/94 122/376/94
f 127/377/95 128/378/95 124/379/95 123/380/95
f 128/381/96 125/382/96 121/383/96 124/384/96
f 129/385/97 130/386/97 131/387/97 132/388/97
f 136/389/98 135/390/98 134/391/98 133/392/98
f 133/393/99 134/394/99 130/395/99 129/396/99
f 134/397/100 135/398/100 131/399/100 130/400/100
f 135/401/101 136/402/101 132/403/101 131/404/101
f 136/405/102 133/406/102 129/407/102 132/408/102
f 137/409/103 138/410/103 139/411/103 140/412/103
f 144/413/104 143/414/104 142/415/104 141/416/104
f 141/417/105 142/418/105 138/419/105 137/420/105
f 142/421/106 143/422/106 139/423/106 138/424/106
f 143/425/107 144/426/107 140/427/107 139/428/107
f 144/429/108 141/430/108 137/431/108 140/432/108
f 145/433/109 146/434/109 147/435/109 148/436/109
f 152/437/110 151/438/110 150/439/110 149/440/110
f 149/441/111 150/442/111 146/443/111 145/444/111
f 150/445/112 151/446/112 147/447/112 146/448/112
f 151/449/113 152/450/113 148/451/113 147/452/113
f 152/453/114 149/454/114 145/455/114 148/456/114
f 153/457/115 154/458/115 155/459/115 156/460/115
f 160/461/116 159/462/116 158/463/116 157/464/116
f 157/465/117 158/466/117 154/467/117 153/468/117
f 158/469/118 159/470/118 155/471/118 154/472/118
f 159/473/119 160/474/119 156/475/119 155/476/119
f 160/477/120 157/478/120 153/479/120 156/480/120
f 161/481/121 162/482/121 163/483/121 164/484/121
f 168/485/122 167/486/122 166/487/122 165/488/122
f 165/489/123 166/490/123 162/491/123 161/492/123
f 166/493/124 167/494/124 163/495/124 162/496/124
f 167/497/125 168/498/125 164/499/125 163/500/125
f 168/501/126 165/502/126 161/503/126 164/504/126
f 169/505/127 170/506/127 171/507/127 172/508/127
f 176/509/128 175/510/128 174/511/128 173/512/128
f 173/513/129 174/514/129 170/515/129 169/516/129
f 174/517/130 175/518/130 171/519/130 170/520/130
f 175/521/131 176/522/131 172/523/131 171/524/131
f 176/525/132 173/526/132 169/527/132 172/528/132
f 177/529/133 178/530/133 179/531/133 180/532/133
f 184/533/134 183/534/134 182/535/134 181/536/134
f 181/537/135 182/538/135 178/539/135 177/540/135
f 182/541/136 183/542/136 179/543/136 178/544/136
f 183/545/137 184/546/137 180/547/137 179/548/137
f 184/549/138 181/550/138 177/551/138 180/552/138
f 185/553/139 186/554/139 187/555/139 188/556/139
f 192/557/140 191/558/140 190/559/140 189/560/140
f 189/561/141 190/562/141 186/563/141 185/564/141
f 190/565/142 191/566/142 187/567/142 186/568/142
f 191/569/143 192/570/143 188/571/143 187/572/143
f 192/573/144 189/574/144 185/575/144 188/576/144
f 193/577/145 194/578/145 195/579/145 196/580/145
f 200/581/146 199/582/146 198/583/146 197/584/146
f 197/585/147 198/586/147 194/587/147 193/588/147
f 198/589/148 199/590/148 195/591/148 194/592/148
f 199/593/149 200/594/149 196/595/149 195/596/149
f 200/597/150 197/598/150 193/599/150 196/600/150
f 201/601/151 202/602/151 203/603/151 204/604/151
f 208/605/152 207/606/152 206/607/152 205/608/152
f 205/609/153 206/610/153 202/611/153 201/612/153
f 206/613/154 207/614/154 203/615/154 202/616/154
f 207/617/155 208/618/155 204/619/155 203/620/155
f 208/621/156 205/622/156 201/623/156 204/624/156
f 209/625/157 210/626/157 211/627/157 212/628/157
f 216/629/158 215/630/158 214/631/158 213/632/158
f 213/633/159 214/634/159 210/635/159 209/636/159
f 214/637/160 215/638/160 211/639/160 210/640/160
f 215/641/161 216/642/161 212/643/161 211/644/161
f 216/645/162 213/646/162 209/647/162 212/648/162
f 217/649/163 218/650/163 219/651/163 220/652/163
f 224/653/164 223/654/164 222/655/164 221/656/164
f 221/657/165 222/658/165 218/659/165 217/660/165
f 222/661/166 223/662/166 219/663/166 218/664/166
f 223/665/167 224/666/167 220/667/167 219/668/167
f 224/669/168 221/670/168 217/671/168 220/672/168
f 225/673/169 226/674/169 227/675/169 228/676/169
f 232/677/170 231/678/170 230/679/170 229/680/170
f 229/681/171 230/682/171 226/683/171 225/684/171
f 230/685/172 231/686/172 227/687/172 226/688/172
f 231/689/173 232/690/173 228/691/173 227/692/173
f 232/693/174 229/694/174 225/695/174 228/696/174
