# road_junction_merge_below_main_glass.obj — gray-box hull for Missile Rider.
# GENERATED by tools/gen_road_junctions.py. Do not hand-edit; edit the generator.
o road_junction_merge_below_main_glass
v 0.0000 -75.0000 240.0000
v 0.0000 -75.0000 243.0000
v 0.0000 75.0000 243.0000
v 0.0000 75.0000 240.0000
v 4200.0000 -75.0000 240.0000
v 4200.0000 -75.0000 243.0000
v 4200.0000 75.0000 243.0000
v 4200.0000 75.0000 240.0000
v 0.0000 -75.0000 -243.0000
v 0.0000 -75.0000 -240.0000
v 0.0000 75.0000 -240.0000
v 0.0000 75.0000 -243.0000
v 4200.0000 -75.0000 -243.0000
v 4200.0000 -75.0000 -240.0000
v 4200.0000 75.0000 -240.0000
v 4200.0000 75.0000 -243.0000
v 0.0000 75.0000 -240.0000
v 0.0000 75.0000 240.0000
v 0.0000 78.0000 240.0000
v 0.0000 78.0000 -240.0000
v 4200.0000 75.0000 -240.0000
v 4200.0000 75.0000 240.0000
v 4200.0000 78.0000 240.0000
v 4200.0000 78.0000 -240.0000
vt 1.1000 0.6875
vt 1.1075 0.6875
vt 1.1075 0.3125
vt 1.1000 0.3125
vt 1.1000 0.3125
vt 1.1075 0.3125
vt 1.1075 0.6875
vt 1.1000 0.6875
vt 11.0000 -0.1000
vt 11.0000 -0.1075
vt 0.5000 -0.1075
vt 0.5000 -0.1000
vt 11.0000 0.6875
vt 11.0000 0.3125
vt 0.5000 0.3125
vt 0.5000 0.6875
vt 11.0000 -0.1075
vt 11.0000 -0.1000
vt 0.5000 -0.1000
vt 0.5000 -0.1075
vt 11.0000 0.3125
vt 11.0000 0.6875
vt 0.5000 0.6875
vt 0.5000 0.3125
vt -0.1075 0.6875
vt -0.1000 0.6875
vt -0.1000 0.3125
vt -0.1075 0.3125
vt -0.1075 0.3125
vt -0.1000 0.3125
vt -0.1000 0.6875
vt -0.1075 0.6875
vt 11.0000 1.1075
vt 11.0000 1.1000
vt 0.5000 1.1000
vt 0.5000 1.1075
vt 11.0000 0.6875
vt 11.0000 0.3125
vt 0.5000 0.3125
vt 0.5000 0.6875
vt 11.0000 1.1000
vt 11.0000 1.1075
vt 0.5000 1.1075
vt 0.5000 1.1000
vt 11.0000 0.3125
vt 11.0000 0.6875
vt 0.5000 0.6875
vt 0.5000 0.3125
vt -0.1000 0.3125
vt 1.1000 0.3125
vt 1.1000 0.3050
vt -0.1000 0.3050
vt -0.1000 0.3050
vt 1.1000 0.3050
vt 1.1000 0.3125
vt -0.1000 0.3125
vt 11.0000 1.1000
vt 11.0000 -0.1000
vt 0.5000 -0.1000
vt 0.5000 1.1000
vt 11.0000 0.3125
vt 11.0000 0.3050
vt 0.5000 0.3050
vt 0.5000 0.3125
vt 11.0000 -0.1000
vt 11.0000 1.1000
vt 0.5000 1.1000
vt 0.5000 -0.1000
vt 11.0000 0.3050
vt 11.0000 0.3125
vt 0.5000 0.3125
vt 0.5000 0.3050
vn -1.0000 0.0000 0.0000
vn 1.0000 0.0000 -0.0000
vn 0.0000 -1.0000 0.0000
vn 0.0000 -0.0000 1.0000
vn 0.0000 1.0000 0.0000
vn 0.0000 -0.0000 -1.0000
vn -1.0000 0.0000 0.0000
vn 1.0000 0.0000 -0.0000
vn 0.0000 -1.0000 0.0000
vn 0.0000 -0.0000 1.0000
vn 0.0000 1.0000 0.0000
vn 0.0000 -0.0000 -1.0000
vn -1.0000 0.0000 0.0000
vn 1.0000 0.0000 -0.0000
vn 0.0000 -1.0000 0.0000
vn 0.0000 -0.0000 1.0000
vn 0.0000 1.0000 0.0000
vn 0.0000 -0.0000 -1.0000
f 1/1/1 2/2/1 3/3/1 4/4/1
f 8/5/2 7/6/2 6/7/2 5/8/2
f 5/9/3 6/10/3 2/11/3 1/12/3
f 6/13/4 7/14/4 3/15/4 2/16/4
f 7/17/5 8/18/5 4/19/5 3/20/5
f 8/21/6 5/22/6 1/23/6 4/24/6
f 9/25/7 10/26/7 11/27/7 12/28/7
f 16/29/8 15/30/8 14/31/8 13/32/8
f 13/33/9 14/34/9 10/35/9 9/36/9
f 14/37/10 15/38/10 11/39/10 10/40/10
f 15/41/11 16/42/11 12/43/11 11/44/11
f 16/45/12 13/46/12 9/47/12 12/48/12
f 17/49/13 18/50/13 19/51/13 20/52/13
f 24/53/14 23/54/14 22/55/14 21/56/14
f 21/57/15 22/58/15 18/59/15 17/60/15
f 22/61/16 23/62/16 19/63/16 18/64/16
f 23/65/17 24/66/17 20/67/17 19/68/17
f 24/69/18 21/70/18 17/71/18 20/72/18
