# road_ring.obj — gray-box hull for Missile Rider.
# GENERATED by tools/gen_road_modules.py. Do not hand-edit; edit the generator.
o road_ring
v 0.5000 0.0000 -0.5000
v 0.5800 0.0000 -0.5000
v 0.5602 0.1501 -0.5000
v 0.4830 0.1294 -0.5000
v 0.5000 0.0000 0.5000
v 0.5800 0.0000 0.5000
v 0.5602 0.1501 0.5000
v 0.4830 0.1294 0.5000
v 0.4830 0.1294 -0.5000
v 0.5602 0.1501 -0.5000
v 0.5023 0.2900 -0.5000
v 0.4330 0.2500 -0.5000
v 0.4830 0.1294 0.5000
v 0.5602 0.1501 0.5000
v 0.5023 0.2900 0.5000
v 0.4330 0.2500 0.5000
v 0.4330 0.2500 -0.5000
v 0.5023 0.2900 -0.5000
v 0.4101 0.4101 -0.5000
v 0.3536 0.3536 -0.5000
v 0.4330 0.2500 0.5000
v 0.5023 0.2900 0.5000
v 0.4101 0.4101 0.5000
v 0.3536 0.3536 0.5000
v 0.3536 0.3536 -0.5000
v 0.4101 0.4101 -0.5000
v 0.2900 0.5023 -0.5000
v 0.2500 0.4330 -0.5000
v 0.3536 0.3536 0.5000
v 0.4101 0.4101 0.5000
v 0.2900 0.5023 0.5000
v 0.2500 0.4330 0.5000
v 0.2500 0.4330 -0.5000
v 0.2900 0.5023 -0.5000
v 0.1501 0.5602 -0.5000
v 0.1294 0.4830 -0.5000
v 0.2500 0.4330 0.5000
v 0.2900 0.5023 0.5000
v 0.1501 0.5602 0.5000
v 0.1294 0.4830 0.5000
v 0.1294 0.4830 -0.5000
v 0.1501 0.5602 -0.5000
v 0.0000 0.5800 -0.5000
v 0.0000 0.5000 -0.5000
v 0.1294 0.4830 0.5000
v 0.1501 0.5602 0.5000
v 0.0000 0.5800 0.5000
v 0.0000 0.5000 0.5000
v 0.0000 0.5000 -0.5000
v 0.0000 0.5800 -0.5000
v -0.1501 0.5602 -0.5000
v -0.1294 0.4830 -0.5000
v 0.0000 0.5000 0.5000
v 0.0000 0.5800 0.5000
v -0.1501 0.5602 0.5000
v -0.1294 0.4830 0.5000
v -0.1294 0.4830 -0.5000
v -0.1501 0.5602 -0.5000
v -0.2900 0.5023 -0.5000
v -0.2500 0.4330 -0.5000
v -0.1294 0.4830 0.5000
v -0.1501 0.5602 0.5000
v -0.2900 0.5023 0.5000
v -0.2500 0.4330 0.5000
v -0.2500 0.4330 -0.5000
v -0.2900 0.5023 -0.5000
v -0.4101 0.4101 -0.5000
v -0.3536 0.3536 -0.5000
v -0.2500 0.4330 0.5000
v -0.2900 0.5023 0.5000
v -0.4101 0.4101 0.5000
v -0.3536 0.3536 0.5000
v -0.3536 0.3536 -0.5000
v -0.4101 0.4101 -0.5000
v -0.5023 0.2900 -0.5000
v -0.4330 0.2500 -0.5000
v -0.3536 0.3536 0.5000
v -0.4101 0.4101 0.5000
v -0.5023 0.2900 0.5000
v -0.4330 0.2500 0.5000
v -0.4330 0.2500 -0.5000
v -0.5023 0.2900 -0.5000
v -0.5602 0.1501 -0.5000
v -0.4830 0.1294 -0.5000
v -0.4330 0.2500 0.5000
v -0.5023 0.2900 0.5000
v -0.5602 0.1501 0.5000
v -0.4830 0.1294 0.5000
v -0.4830 0.1294 -0.5000
v -0.5602 0.1501 -0.5000
v -0.5800 0.0000 -0.5000
v -0.5000 0.0000 -0.5000
v -0.4830 0.1294 0.5000
v -0.5602 0.1501 0.5000
v -0.5800 0.0000 0.5000
v -0.5000 0.0000 0.5000
v -0.5000 0.0000 -0.5000
v -0.5800 0.0000 -0.5000
v -0.5602 -0.1501 -0.5000
v -0.4830 -0.1294 -0.5000
v -0.5000 0.0000 0.5000
v -0.5800 0.0000 0.5000
v -0.5602 -0.1501 0.5000
v -0.4830 -0.1294 0.5000
v -0.4830 -0.1294 -0.5000
v -0.5602 -0.1501 -0.5000
v -0.5023 -0.2900 -0.5000
v -0.4330 -0.2500 -0.5000
v -0.4830 -0.1294 0.5000
v -0.5602 -0.1501 0.5000
v -0.5023 -0.2900 0.5000
v -0.4330 -0.2500 0.5000
v -0.4330 -0.2500 -0.5000
v -0.5023 -0.2900 -0.5000
v -0.4101 -0.4101 -0.5000
v -0.3536 -0.3536 -0.5000
v -0.4330 -0.2500 0.5000
v -0.5023 -0.2900 0.5000
v -0.4101 -0.4101 0.5000
v -0.3536 -0.3536 0.5000
v -0.3536 -0.3536 -0.5000
v -0.4101 -0.4101 -0.5000
v -0.2900 -0.5023 -0.5000
v -0.2500 -0.4330 -0.5000
v -0.3536 -0.3536 0.5000
v -0.4101 -0.4101 0.5000
v -0.2900 -0.5023 0.5000
v -0.2500 -0.4330 0.5000
v -0.2500 -0.4330 -0.5000
v -0.2900 -0.5023 -0.5000
v -0.1501 -0.5602 -0.5000
v -0.1294 -0.4830 -0.5000
v -0.2500 -0.4330 0.5000
v -0.2900 -0.5023 0.5000
v -0.1501 -0.5602 0.5000
v -0.1294 -0.4830 0.5000
v -0.1294 -0.4830 -0.5000
v -0.1501 -0.5602 -0.5000
v -0.0000 -0.5800 -0.5000
v -0.0000 -0.5000 -0.5000
v -0.1294 -0.4830 0.5000
v -0.1501 -0.5602 0.5000
v -0.0000 -0.5800 0.5000
v -0.0000 -0.5000 0.5000
v -0.0000 -0.5000 -0.5000
v -0.0000 -0.5800 -0.5000
v 0.1501 -0.5602 -0.5000
v 0.1294 -0.4830 -0.5000
v -0.0000 -0.5000 0.5000
v -0.0000 -0.5800 0.5000
v 0.1501 -0.5602 0.5000
v 0.1294 -0.4830 0.5000
v 0.1294 -0.4830 -0.5000
v 0.1501 -0.5602 -0.5000
v 0.2900 -0.5023 -0.5000
v 0.2500 -0.4330 -0.5000
v 0.1294 -0.4830 0.5000
v 0.1501 -0.5602 0.5000
v 0.2900 -0.5023 0.5000
v 0.2500 -0.4330 0.5000
v 0.2500 -0.4330 -0.5000
v 0.2900 -0.5023 -0.5000
v 0.4101 -0.4101 -0.5000
v 0.3536 -0.3536 -0.5000
v 0.2500 -0.4330 0.5000
v 0.2900 -0.5023 0.5000
v 0.4101 -0.4101 0.5000
v 0.3536 -0.3536 0.5000
v 0.3536 -0.3536 -0.5000
v 0.4101 -0.4101 -0.5000
v 0.5023 -0.2900 -0.5000
v 0.4330 -0.2500 -0.5000
v 0.3536 -0.3536 0.5000
v 0.4101 -0.4101 0.5000
v 0.5023 -0.2900 0.5000
v 0.4330 -0.2500 0.5000
v 0.4330 -0.2500 -0.5000
v 0.5023 -0.2900 -0.5000
v 0.5602 -0.1501 -0.5000
v 0.4830 -0.1294 -0.5000
v 0.4330 -0.2500 0.5000
v 0.5023 -0.2900 0.5000
v 0.5602 -0.1501 0.5000
v 0.4830 -0.1294 0.5000
v 0.4830 -0.1294 -0.5000
v 0.5602 -0.1501 -0.5000
v 0.5800 -0.0000 -0.5000
v 0.5000 -0.0000 -0.5000
v 0.4830 -0.1294 0.5000
v 0.5602 -0.1501 0.5000
v 0.5800 -0.0000 0.5000
v 0.5000 -0.0000 0.5000
vt 0.9830 0.3706
vt 1.0602 0.3499
vt 1.0800 0.5000
vt 1.0000 0.5000
vt 1.0000 0.5000
vt 1.0800 0.5000
vt 1.0602 0.3499
vt 0.9830 0.3706
vt 1.0000 1.0000
vt 1.0800 1.0000
vt 1.0800 0.0000
vt 1.0000 0.0000
vt 0.0000 0.5000
vt 0.0000 0.3499
vt 1.0000 0.3499
vt 1.0000 0.5000
vt 1.0602 1.0000
vt 0.9830 1.0000
vt 0.9830 0.0000
vt 1.0602 0.0000
vt 0.0000 0.3706
vt 0.0000 0.5000
vt 1.0000 0.5000
vt 1.0000 0.3706
vt 0.9330 0.2500
vt 1.0023 0.2100
vt 1.0602 0.3499
vt 0.9830 0.3706
vt 0.9830 0.3706
vt 1.0602 0.3499
vt 1.0023 0.2100
vt 0.9330 0.2500
vt 0.9830 1.0000
vt 1.0602 1.0000
vt 1.0602 0.0000
vt 0.9830 0.0000
vt 0.0000 0.3499
vt 0.0000 0.2100
vt 1.0000 0.2100
vt 1.0000 0.3499
vt 1.0023 1.0000
vt 0.9330 1.0000
vt 0.9330 0.0000
vt 1.0023 0.0000
vt 0.0000 0.2500
vt 0.0000 0.3706
vt 1.0000 0.3706
vt 1.0000 0.2500
vt 0.8536 0.1464
vt 0.9101 0.0899
vt 1.0023 0.2100
vt 0.9330 0.2500
vt 0.9330 0.2500
vt 1.0023 0.2100
vt 0.9101 0.0899
vt 0.8536 0.1464
vt 0.9330 1.0000
vt 1.0023 1.0000
vt 1.0023 0.0000
vt 0.9330 0.0000
vt 0.0000 0.2100
vt 0.0000 0.0899
vt 1.0000 0.0899
vt 1.0000 0.2100
vt 0.0000 0.0899
vt 0.0000 0.1464
vt 1.0000 0.1464
vt 1.0000 0.0899
vt 0.0000 0.1464
vt 0.0000 0.2500
vt 1.0000 0.2500
vt 1.0000 0.1464
vt 0.7500 0.0670
vt 0.7900 -0.0023
vt 0.9101 0.0899
vt 0.8536 0.1464
vt 0.8536 0.1464
vt 0.9101 0.0899
vt 0.7900 -0.0023
vt 0.7500 0.0670
vt 0.0000 0.1464
vt 0.0000 0.0899
vt 1.0000 0.0899
vt 1.0000 0.1464
vt 0.9101 1.0000
vt 0.7900 1.0000
vt 0.7900 0.0000
vt 0.9101 0.0000
vt 0.0000 -0.0023
vt 0.0000 0.0670
vt 1.0000 0.0670
vt 1.0000 -0.0023
vt 0.7500 1.0000
vt 0.8536 1.0000
vt 0.8536 0.0000
vt 0.7500 0.0000
vt 0.6294 0.0170
vt 0.6501 -0.0602
vt 0.7900 -0.0023
vt 0.7500 0.0670
vt 0.7500 0.0670
vt 0.7900 -0.0023
vt 0.6501 -0.0602
vt 0.6294 0.0170
vt 0.0000 0.0670
vt 0.0000 -0.0023
vt 1.0000 -0.0023
vt 1.0000 0.0670
vt 0.7900 1.0000
vt 0.6501 1.0000
vt 0.6501 0.0000
vt 0.7900 0.0000
vt 0.0000 -0.0602
vt 0.0000 0.0170
vt 1.0000 0.0170
vt 1.0000 -0.0602
vt 0.6294 1.0000
vt 0.7500 1.0000
vt 0.7500 0.0000
vt 0.6294 0.0000
vt 0.5000 0.0000
vt 0.5000 -0.0800
vt 0.6501 -0.0602
vt 0.6294 0.0170
vt 0.6294 0.0170
vt 0.6501 -0.0602
vt 0.5000 -0.0800
vt 0.5000 0.0000
vt 0.0000 0.0170
vt 0.0000 -0.0602
vt 1.0000 -0.0602
vt 1.0000 0.0170
vt 0.6501 1.0000
vt 0.5000 1.0000
vt 0.5000 0.0000
vt 0.6501 0.0000
vt 0.0000 -0.0800
vt 0.0000 0.0000
vt 1.0000 0.0000
vt 1.0000 -0.0800
vt 0.5000 1.0000
vt 0.6294 1.0000
vt 0.6294 0.0000
vt 0.5000 0.0000
vt 0.3706 0.0170
vt 0.3499 -0.0602
vt 0.5000 -0.0800
vt 0.5000 0.0000
vt 0.5000 0.0000
vt 0.5000 -0.0800
vt 0.3499 -0.0602
vt 0.3706 0.0170
vt 0.0000 0.0000
vt 0.0000 -0.0800
vt 1.0000 -0.0800
vt 1.0000 0.0000
vt 0.5000 1.0000
vt 0.3499 1.0000
vt 0.3499 0.0000
vt 0.5000 0.0000
vt 0.0000 -0.0602
vt 0.0000 0.0170
vt 1.0000 0.0170
vt 1.0000 -0.0602
vt 0.3706 1.0000
vt 0.5000 1.0000
vt 0.5000 0.0000
vt 0.3706 0.0000
vt 0.2500 0.0670
vt 0.2100 -0.0023
vt 0.3499 -0.0602
vt 0.3706 0.0170
vt 0.3706 0.0170
vt 0.3499 -0.0602
vt 0.2100 -0.0023
vt 0.2500 0.0670
vt 0.0000 0.0170
vt 0.0000 -0.0602
vt 1.0000 -0.0602
vt 1.0000 0.0170
vt 0.3499 1.0000
vt 0.2100 1.0000
vt 0.2100 0.0000
vt 0.3499 0.0000
vt 0.0000 -0.0023
vt 0.0000 0.0670
vt 1.0000 0.0670
vt 1.0000 -0.0023
vt 0.2500 1.0000
vt 0.3706 1.0000
vt 0.3706 0.0000
vt 0.2500 0.0000
vt 0.1464 0.1464
vt 0.0899 0.0899
vt 0.2100 -0.0023
vt 0.2500 0.0670
vt 0.2500 0.0670
vt 0.2100 -0.0023
vt 0.0899 0.0899
vt 0.1464 0.1464
vt 0.0000 0.0670
vt 0.0000 -0.0023
vt 1.0000 -0.0023
vt 1.0000 0.0670
vt 0.2100 1.0000
vt 0.0899 1.0000
vt 0.0899 0.0000
vt 0.2100 0.0000
vt 0.0000 0.0899
vt 0.0000 0.1464
vt 1.0000 0.1464
vt 1.0000 0.0899
vt 0.1464 1.0000
vt 0.2500 1.0000
vt 0.2500 0.0000
vt 0.1464 0.0000
vt 0.0670 0.2500
vt -0.0023 0.2100
vt 0.0899 0.0899
vt 0.1464 0.1464
vt 0.1464 0.1464
vt 0.0899 0.0899
vt -0.0023 0.2100
vt 0.0670 0.2500
vt 0.0000 0.1464
vt 0.0000 0.0899
vt 1.0000 0.0899
vt 1.0000 0.1464
vt 0.0000 0.0899
vt 0.0000 0.2100
vt 1.0000 0.2100
vt 1.0000 0.0899
vt -0.0023 1.0000
vt 0.0670 1.0000
vt 0.0670 0.0000
vt -0.0023 0.0000
vt 0.0000 0.2500
vt 0.0000 0.1464
vt 1.0000 0.1464
vt 1.0000 0.2500
vt 0.0170 0.3706
vt -0.0602 0.3499
vt -0.0023 0.2100
vt 0.0670 0.2500
vt 0.0670 0.2500
vt -0.0023 0.2100
vt -0.0602 0.3499
vt 0.0170 0.3706
vt 0.0670 1.0000
vt -0.0023 1.0000
vt -0.0023 0.0000
vt 0.0670 0.0000
vt 0.0000 0.2100
vt 0.0000 0.3499
vt 1.0000 0.3499
vt 1.0000 0.2100
vt -0.0602 1.0000
vt 0.0170 1.0000
vt 0.0170 0.0000
vt -0.0602 0.0000
vt 0.0000 0.3706
vt 0.0000 0.2500
vt 1.0000 0.2500
vt 1.0000 0.3706
vt 0.0000 0.5000
vt -0.0800 0.5000
vt -0.0602 0.3499
vt 0.0170 0.3706
vt 0.0170 0.3706
vt -0.0602 0.3499
vt -0.0800 0.5000
vt 0.0000 0.5000
vt 0.0170 1.0000
vt -0.0602 1.0000
vt -0.0602 0.0000
vt 0.0170 0.0000
vt 0.0000 0.3499
vt 0.0000 0.5000
vt 1.0000 0.5000
vt 1.0000 0.3499
vt -0.0800 1.0000
vt 0.0000 1.0000
vt 0.0000 0.0000
vt -0.0800 0.0000
vt 0.0000 0.5000
vt 0.0000 0.3706
vt 1.0000 0.3706
vt 1.0000 0.5000
vt 0.0170 0.6294
vt -0.0602 0.6501
vt -0.0800 0.5000
vt 0.0000 0.5000
vt 0.0000 0.5000
vt -0.0800 0.5000
vt -0.0602 0.6501
vt 0.0170 0.6294
vt 0.0000 1.0000
vt -0.0800 1.0000
vt -0.0800 0.0000
vt 0.0000 0.0000
vt 0.0000 0.5000
vt 0.0000 0.6501
vt 1.0000 0.6501
vt 1.0000 0.5000
vt -0.0602 1.0000
vt 0.0170 1.0000
vt 0.0170 0.0000
vt -0.0602 0.0000
vt 0.0000 0.6294
vt 0.0000 0.5000
vt 1.0000 0.5000
vt 1.0000 0.6294
vt 0.0670 0.7500
vt -0.0023 0.7900
vt -0.0602 0.6501
vt 0.0170 0.6294
vt 0.0170 0.6294
vt -0.0602 0.6501
vt -0.0023 0.7900
vt 0.0670 0.7500
vt 0.0170 1.0000
vt -0.0602 1.0000
vt -0.0602 0.0000
vt 0.0170 0.0000
vt 0.0000 0.6501
vt 0.0000 0.7900
vt 1.0000 0.7900
vt 1.0000 0.6501
vt -0.0023 1.0000
vt 0.0670 1.0000
vt 0.0670 0.0000
vt -0.0023 0.0000
vt 0.0000 0.7500
vt 0.0000 0.6294
vt 1.0000 0.6294
vt 1.0000 0.7500
vt 0.1464 0.8536
vt 0.0899 0.9101
vt -0.0023 0.7900
vt 0.0670 0.7500
vt 0.0670 0.7500
vt -0.0023 0.7900
vt 0.0899 0.9101
vt 0.1464 0.8536
vt 0.0670 1.0000
vt -0.0023 1.0000
vt -0.0023 0.0000
vt 0.0670 0.0000
vt 0.0000 0.7900
vt 0.0000 0.9101
vt 1.0000 0.9101
vt 1.0000 0.7900
vt 0.0899 1.0000
vt 0.1464 1.0000
vt 0.1464 0.0000
vt 0.0899 0.0000
vt 0.0000 0.8536
vt 0.0000 0.7500
vt 1.0000 0.7500
vt 1.0000 0.8536
vt 0.2500 0.9330
vt 0.2100 1.0023
vt 0.0899 0.9101
vt 0.1464 0.8536
vt 0.1464 0.8536
vt 0.0899 0.9101
vt 0.2100 1.0023
vt 0.2500 0.9330
vt 0.1464 1.0000
vt 0.0899 1.0000
vt 0.0899 0.0000
vt 0.1464 0.0000
vt 0.0899 1.0000
vt 0.2100 1.0000
vt 0.2100 0.0000
vt 0.0899 0.0000
vt 0.0000 1.0023
vt 0.0000 0.9330
vt 1.0000 0.9330
vt 1.0000 1.0023
vt 0.2500 1.0000
vt 0.1464 1.0000
vt 0.1464 0.0000
vt 0.2500 0.0000
vt 0.3706 0.9830
vt 0.3499 1.0602
vt 0.2100 1.0023
vt 0.2500 0.9330
vt 0.2500 0.9330
vt 0.2100 1.0023
vt 0.3499 1.0602
vt 0.3706 0.9830
vt 0.0000 0.9330
vt 0.0000 1.0023
vt 1.0000 1.0023
vt 1.0000 0.9330
vt 0.2100 1.0000
vt 0.3499 1.0000
vt 0.3499 0.0000
vt 0.2100 0.0000
vt 0.0000 1.0602
vt 0.0000 0.9830
vt 1.0000 0.9830
vt 1.0000 1.0602
vt 0.3706 1.0000
vt 0.2500 1.0000
vt 0.2500 0.0000
vt 0.3706 0.0000
vt 0.5000 1.0000
vt 0.5000 1.0800
vt 0.3499 1.0602
vt 0.3706 0.9830
vt 0.3706 0.9830
vt 0.3499 1.0602
vt 0.5000 1.0800
vt 0.5000 1.0000
vt 0.0000 0.9830
vt 0.0000 1.0602
vt 1.0000 1.0602
vt 1.0000 0.9830
vt 0.3499 1.0000
vt 0.5000 1.0000
vt 0.5000 0.0000
vt 0.3499 0.0000
vt 0.0000 1.0800
vt 0.0000 1.0000
vt 1.0000 1.0000
vt 1.0000 1.0800
vt 0.5000 1.0000
vt 0.3706 1.0000
vt 0.3706 0.0000
vt 0.5000 0.0000
vt 0.6294 0.9830
vt 0.6501 1.0602
vt 0.5000 1.0800
vt 0.5000 1.0000
vt 0.5000 1.0000
vt 0.5000 1.0800
vt 0.6501 1.0602
vt 0.6294 0.9830
vt 0.0000 1.0000
vt 0.0000 1.0800
vt 1.0000 1.0800
vt 1.0000 1.0000
vt 0.5000 1.0000
vt 0.6501 1.0000
vt 0.6501 0.0000
vt 0.5000 0.0000
vt 0.0000 1.0602
vt 0.0000 0.9830
vt 1.0000 0.9830
vt 1.0000 1.0602
vt 0.6294 1.0000
vt 0.5000 1.0000
vt 0.5000 0.0000
vt 0.6294 0.0000
vt 0.7500 0.9330
vt 0.7900 1.0023
vt 0.6501 1.0602
vt 0.6294 0.9830
vt 0.6294 0.9830
vt 0.6501 1.0602
vt 0.7900 1.0023
vt 0.7500 0.9330
vt 0.0000 0.9830
vt 0.0000 1.0602
vt 1.0000 1.0602
vt 1.0000 0.9830
vt 0.6501 1.0000
vt 0.7900 1.0000
vt 0.7900 0.0000
vt 0.6501 0.0000
vt 0.0000 1.0023
vt 0.0000 0.9330
vt 1.0000 0.9330
vt 1.0000 1.0023
vt 0.7500 1.0000
vt 0.6294 1.0000
vt 0.6294 0.0000
vt 0.7500 0.0000
vt 0.8536 0.8536
vt 0.9101 0.9101
vt 0.7900 1.0023
vt 0.7500 0.9330
vt 0.7500 0.9330
vt 0.7900 1.0023
vt 0.9101 0.9101
vt 0.8536 0.8536
vt 0.0000 0.9330
vt 0.0000 1.0023
vt 1.0000 1.0023
vt 1.0000 0.9330
vt 0.7900 1.0000
vt 0.9101 1.0000
vt 0.9101 0.0000
vt 0.7900 0.0000
vt 0.0000 0.9101
vt 0.0000 0.8536
vt 1.0000 0.8536
vt 1.0000 0.9101
vt 0.8536 1.0000
vt 0.7500 1.0000
vt 0.7500 0.0000
vt 0.8536 0.0000
vt 0.9330 0.7500
vt 1.0023 0.7900
vt 0.9101 0.9101
vt 0.8536 0.8536
vt 0.8536 0.8536
vt 0.9101 0.9101
vt 1.0023 0.7900
vt 0.9330 0.7500
vt 0.0000 0.8536
vt 0.0000 0.9101
vt 1.0000 0.9101
vt 1.0000 0.8536
vt 0.0000 0.9101
vt 0.0000 0.7900
vt 1.0000 0.7900
vt 1.0000 0.9101
vt 1.0023 1.0000
vt 0.9330 1.0000
vt 0.9330 0.0000
vt 1.0023 0.0000
vt 0.0000 0.7500
vt 0.0000 0.8536
vt 1.0000 0.8536
vt 1.0000 0.7500
vt 0.9830 0.6294
vt 1.0602 0.6501
vt 1.0023 0.7900
vt 0.9330 0.7500
vt 0.9330 0.7500
vt 1.0023 0.7900
vt 1.0602 0.6501
vt 0.9830 0.6294
vt 0.9330 1.0000
vt 1.0023 1.0000
vt 1.0023 0.0000
vt 0.9330 0.0000
vt 0.0000 0.7900
vt 0.0000 0.6501
vt 1.0000 0.6501
vt 1.0000 0.7900
vt 1.0602 1.0000
vt 0.9830 1.0000
vt 0.9830 0.0000
vt 1.0602 0.0000
vt 0.0000 0.6294
vt 0.0000 0.7500
vt 1.0000 0.7500
vt 1.0000 0.6294
vt 1.0000 0.5000
vt 1.0800 0.5000
vt 1.0602 0.6501
vt 0.9830 0.6294
vt 0.9830 0.6294
vt 1.0602 0.6501
vt 1.0800 0.5000
vt 1.0000 0.5000
vt 0.9830 1.0000
vt 1.0602 1.0000
vt 1.0602 0.0000
vt 0.9830 0.0000
vt 0.0000 0.6501
vt 0.0000 0.5000
vt 1.0000 0.5000
vt 1.0000 0.6501
vt 1.0800 1.0000
vt 1.0000 1.0000
vt 1.0000 0.0000
vt 1.0800 0.0000
vt 0.0000 0.5000
vt 0.0000 0.6294
vt 1.0000 0.6294
vt 1.0000 0.5000
vn 0.0000 0.0000 -1.0000
vn 0.0000 0.0000 1.0000
vn 0.0000 -1.0000 0.0000
vn 0.9914 0.1305 0.0000
vn -0.2588 0.9659 0.0000
vn -0.9914 -0.1305 0.0000
vn 0.0000 0.0000 -1.0000
vn 0.0000 0.0000 1.0000
vn 0.2588 -0.9659 0.0000
vn 0.9239 0.3827 0.0000
vn -0.5000 0.8660 0.0000
vn -0.9239 -0.3827 0.0000
vn 0.0000 0.0000 -1.0000
vn 0.0000 -0.0000 1.0000
vn 0.5000 -0.8660 0.0000
vn 0.7934 0.6088 0.0000
vn -0.7071 0.7071 0.0000
vn -0.7934 -0.6088 0.0000
vn 0.0000 0.0000 -1.0000
vn 0.0000 -0.0000 1.0000
vn 0.7071 -0.7071 0.0000
vn 0.6088 0.7934 0.0000
vn -0.8660 0.5000 0.0000
vn -0.6088 -0.7934 0.0000
vn 0.0000 0.0000 -1.0000
vn 0.0000 -0.0000 1.0000
vn 0.8660 -0.5000 0.0000
vn 0.3827 0.9239 0.0000
vn -0.9659 0.2588 0.0000
vn -0.3827 -0.9239 0.0000
vn 0.0000 0.0000 -1.0000
vn 0.0000 -0.0000 1.0000
vn 0.9659 -0.2588 0.0000
vn 0.1305 0.9914 0.0000
vn -1.0000 0.0000 0.0000
vn -0.1305 -0.9914 0.0000
vn 0.0000 0.0000 -1.0000
vn 0.0000 -0.0000 1.0000
vn 1.0000 -0.0000 0.0000
vn -0.1305 0.9914 0.0000
vn -0.9659 -0.2588 0.0000
vn 0.1305 -0.9914 0.0000
vn 0.0000 0.0000 -1.0000
vn 0.0000 0.0000 1.0000
vn 0.9659 0.2588 0.0000
vn -0.3827 0.9239 0.0000
vn -0.8660 -0.5000 0.0000
vn 0.3827 -0.9239 0.0000
vn 0.0000 0.0000 -1.0000
vn 0.0000 0.0000 1.0000
vn 0.8660 0.5000 0.0000
vn -0.6088 0.7934 0.0000
vn -0.7071 -0.7071 0.0000
vn 0.6088 -0.7934 0.0000
vn 0.0000 0.0000 -1.0000
vn 0.0000 0.0000 1.0000
vn 0.7071 0.7071 0.0000
vn -0.7934 0.6088 0.0000
vn -0.5000 -0.8660 0.0000
vn 0.7934 -0.6088 0.0000
vn 0.0000 0.0000 -1.0000
vn 0.0000 0.0000 1.0000
vn 0.5000 0.8660 0.0000
vn -0.9239 0.3827 0.0000
vn -0.2588 -0.9659 0.0000
vn 0.9239 -0.3827 0.0000
vn 0.0000 0.0000 -1.0000
vn 0.0000 0.0000 1.0000
vn 0.2588 0.9659 0.0000
vn -0.9914 0.1305 0.0000
vn -0.0000 -1.0000 0.0000
vn 0.9914 -0.1305 0.0000
vn -0.0000 0.0000 -1.0000
vn 0.0000 0.0000 1.0000
vn 0.0000 1.0000 0.0000
vn -0.9914 -0.1305 0.0000
vn 0.2588 -0.9659 0.0000
vn 0.9914 0.1305 0.0000
vn -0.0000 0.0000 -1.0000
vn 0.0000 0.0000 1.0000
vn -0.2588 0.9659 0.0000
vn -0.9239 -0.3827 0.0000
vn 0.5000 -0.8660 0.0000
vn 0.9239 0.3827 0.0000
vn -0.0000 0.0000 -1.0000
vn 0.0000 0.0000 1.0000
vn -0.5000 0.8660 0.0000
vn -0.7934 -0.6088 0.0000
vn 0.7071 -0.7071 0.0000
vn 0.7934 0.6088 0.0000
vn -0.0000 0.0000 -1.0000
vn 0.0000 0.0000 1.0000
vn -0.7071 0.7071 0.0000
vn -0.6088 -0.7934 0.0000
vn 0.8660 -0.5000 0.0000
vn 0.6088 0.7934 0.0000
vn 0.0000 0.0000 -1.0000
vn 0.0000 0.0000 1.0000
vn -0.8660 0.5000 0.0000
vn -0.3827 -0.9239 0.0000
vn 0.9659 -0.2588 0.0000
vn 0.3827 0.9239 0.0000
vn 0.0000 0.0000 -1.0000
vn 0.0000 0.0000 1.0000
vn -0.9659 0.2588 0.0000
vn -0.1305 -0.9914 0.0000
vn 1.0000 -0.0000 0.0000
vn 0.1305 0.9914 0.0000
vn 0.0000 -0.0000 -1.0000
vn 0.0000 0.0000 1.0000
vn -1.0000 0.0000 0.0000
vn 0.1305 -0.9914 0.0000
vn 0.9659 0.2588 0.0000
vn -0.1305 0.9914 0.0000
vn 0.0000 -0.0000 -1.0000
vn 0.0000 0.0000 1.0000
vn -0.9659 -0.2588 0.0000
vn 0.3827 -0.9239 0.0000
vn 0.8660 0.5000 0.0000
vn -0.3827 0.9239 0.0000
vn 0.0000 -0.0000 -1.0000
vn -0.0000 0.0000 1.0000
vn -0.8660 -0.5000 0.0000
vn 0.6088 -0.7934 0.0000
vn 0.7071 0.7071 0.0000
vn -0.6088 0.7934 0.0000
vn 0.0000 -0.0000 -1.0000
vn -0.0000 0.0000 1.0000
vn -0.7071 -0.7071 0.0000
vn 0.7934 -0.6088 0.0000
vn 0.5000 0.8660 0.0000
vn -0.7934 0.6088 0.0000
vn 0.0000 0.0000 -1.0000
vn -0.0000 0.0000 1.0000
vn -0.5000 -0.8660 0.0000
vn 0.9239 -0.3827 0.0000
vn 0.2588 0.9659 0.0000
vn -0.9239 0.3827 0.0000
vn 0.0000 0.0000 -1.0000
vn -0.0000 0.0000 1.0000
vn -0.2588 -0.9659 0.0000
vn 0.9914 -0.1305 0.0000
vn 0.0000 1.0000 0.0000
vn -0.9914 0.1305 0.0000
f 4/1/1 3/2/1 2/3/1 1/4/1
f 5/5/2 6/6/2 7/7/2 8/8/2
f 1/9/3 2/10/3 6/11/3 5/12/3
f 2/13/4 3/14/4 7/15/4 6/16/4
f 3/17/5 4/18/5 8/19/5 7/20/5
f 4/21/6 1/22/6 5/23/6 8/24/6
f 12/25/7 11/26/7 10/27/7 9/28/7
f 13/29/8 14/30/8 15/31/8 16/32/8
f 9/33/9 10/34/9 14/35/9 13/36/9
f 10/37/10 11/38/10 15/39/10 14/40/10
f 11/41/11 12/42/11 16/43/11 15/44/11
f 12/45/12 9/46/12 13/47/12 16/48/12
f 20/49/13 19/50/13 18/51/13 17/52/13
f 21/53/14 22/54/14 23/55/14 24/56/14
f 17/57/15 18/58/15 22/59/15 21/60/15
f 18/61/16 19/62/16 23/63/16 22/64/16
f 19/65/17 20/66/17 24/67/17 23/68/17
f 20/69/18 17/70/18 21/71/18 24/72/18
f 28/73/19 27/74/19 26/75/19 25/76/19
f 29/77/20 30/78/20 31/79/20 32/80/20
f 25/81/21 26/82/21 30/83/21 29/84/21
f 26/85/22 27/86/22 31/87/22 30/88/22
f 27/89/23 28/90/23 32/91/23 31/92/23
f 28/93/24 25/94/24 29/95/24 32/96/24
f 36/97/25 35/98/25 34/99/25 33/100/25
f 37/101/26 38/102/26 39/103/26 40/104/26
f 33/105/27 34/106/27 38/107/27 37/108/27
f 34/109/28 35/110/28 39/111/28 38/112/28
f 35/113/29 36/114/29 40/115/29 39/116/29
f 36/117/30 33/118/30 37/119/30 40/120/30
f 44/121/31 43/122/31 42/123/31 41/124/31
f 45/125/32 46/126/32 47/127/32 48/128/32
f 41/129/33 42/130/33 46/131/33 45/132/33
f 42/133/34 43/134/34 47/135/34 46/136/34
f 43/137/35 44/138/35 48/139/35 47/140/35
f 44/141/36 41/142/36 45/143/36 48/144/36
f 52/145/37 51/146/37 50/147/37 49/148/37
f 53/149/38 54/150/38 55/151/38 56/152/38
f 49/153/39 50/154/39 54/155/39 53/156/39
f 50/157/40 51/158/40 55/159/40 54/160/40
f 51/161/41 52/162/41 56/163/41 55/164/41
f 52/165/42 49/166/42 53/167/42 56/168/42
f 60/169/43 59/170/43 58/171/43 57/172/43
f 61/173/44 62/174/44 63/175/44 64/176/44
f 57/177/45 58/178/45 62/179/45 61/180/45
f 58/181/46 59/182/46 63/183/46 62/184/46
f 59/185/47 60/186/47 64/187/47 63/188/47
f 60/189/48 57/190/48 61/191/48 64/192/48
f 68/193/49 67/194/49 66/195/49 65/196/49
f 69/197/50 70/198/50 71/199/50 72/200/50
f 65/201/51 66/202/51 70/203/51 69/204/51
f 66/205/52 67/206/52 71/207/52 70/208/52
f 67/209/53 68/210/53 72/211/53 71/212/53
f 68/213/54 65/214/54 69/215/54 72/216/54
f 76/217/55 75/218/55 74/219/55 73/220/55
f 77/221/56 78/222/56 79/223/56 80/224/56
f 73/225/57 74/226/57 78/227/57 77/228/57
f 74/229/58 75/230/58 79/231/58 78/232/58
f 75/233/59 76/234/59 80/235/59 79/236/59
f 76/237/60 73/238/60 77/239/60 80/240/60
f 84/241/61 83/242/61 82/243/61 81/244/61
f 85/245/62 86/246/62 87/247/62 88/248/62
f 81/249/63 82/250/63 86/251/63 85/252/63
f 82/253/64 83/254/64 87/255/64 86/256/64
f 83/257/65 84/258/65 88/259/65 87/260/65
f 84/261/66 81/262/66 85/263/66 88/264/66
f 92/265/67 91/266/67 90/267/67 89/268/67
f 93/269/68 94/270/68 95/271/68 96/272/68
f 89/273/69 90/274/69 94/275/69 93/276/69
f 90/277/70 91/278/70 95/279/70 94/280/70
f 91/281/71 92/282/71 96/283/71 95/284/71
f 92/285/72 89/286/72 93/287/72 96/288/72
f 100/289/73 99/290/73 98/291/73 97/292/73
f 101/293/74 102/294/74 103/295/74 104/296/74
f 97/297/75 98/298/75 102/299/75 101/300/75
f 98/301/76 99/302/76 103/303/76 102/304/76
f 99/305/77 100/306/77 104/307/77 103/308/77
f 100/309/78 97/310/78 101/311/78 104/312/78
f 108/313/79 107/314/79 106/315/79 105/316/79
f 109/317/80 110/318/80 111/319/80 112/320/80
f 105/321/81 106/322/81 110/323/81 109/324/81
f 106/325/82 107/326/82 111/327/82 110/328/82
f 107/329/83 108/330/83 112/331/83 111/332/83
f 108/333/84 105/334/84 109/335/84 112/336/84
f 116/337/85 115/338/85 114/339/85 113/340/85
f 117/341/86 118/342/86 119/343/86 120/344/86
f 113/345/87 114/346/87 118/347/87 117/348/87
f 114/349/88 115/350/88 119/351/88 118/352/88
f 115/353/89 116/354/89 120/355/89 119/356/89
f 116/357/90 113/358/90 117/359/90 120/360/90
f 124/361/91 123/362/91 122/363/91 121/364/91
f 125/365/92 126/366/92 127/367/92 128/368/92
f 121/369/93 122/370/93 126/371/93 125/372/93
f 122/373/94 123/374/94 127/375/94 126/376/94
f 123/377/95 124/378/95 128/379/95 127/380/95
f 124/381/96 121/382/96 125/383/96 128/384/96
f 132/385/97 131/386/97 130/387/97 129/388/97
f 133/389/98 134/390/98 135/391/98 136/392/98
f 129/393/99 130/394/99 134/395/99 133/396/99
f 130/397/100 131/398/100 135/399/100 134/400/100
f 131/401/101 132/402/101 136/403/101 135/404/101
f 132/405/102 129/406/102 133/407/102 136/408/102
f 140/409/103 139/410/103 138/411/103 137/412/103
f 141/413/104 142/414/104 143/415/104 144/416/104
f 137/417/105 138/418/105 142/419/105 141/420/105
f 138/421/106 139/422/106 143/423/106 142/424/106
f 139/425/107 140/426/107 144/427/107 143/428/107
f 140/429/108 137/430/108 141/431/108 144/432/108
f 148/433/109 147/434/109 146/435/109 145/436/109
f 149/437/110 150/438/110 151/439/110 152/440/110
f 145/441/111 146/442/111 150/443/111 149/444/111
f 146/445/112 147/446/112 151/447/112 150/448/112
f 147/449/113 148/450/113 152/451/113 151/452/113
f 148/453/114 145/454/114 149/455/114 152/456/114
f 156/457/115 155/458/115 154/459/115 153/460/115
f 157/461/116 158/462/116 159/463/116 160/464/116
f 153/465/117 154/466/117 158/467/117 157/468/117
f 154/469/118 155/470/118 159/471/118 158/472/118
f 155/473/119 156/474/119 160/475/119 159/476/119
f 156/477/120 153/478/120 157/479/120 160/480/120
f 164/481/121 163/482/121 162/483/121 161/484/121
f 165/485/122 166/486/122 167/487/122 168/488/122
f 161/489/123 162/490/123 166/491/123 165/492/123
f 162/493/124 163/494/124 167/495/124 166/496/124
f 163/497/125 164/498/125 168/499/125 167/500/125
f 164/501/126 161/502/126 165/503/126 168/504/126
f 172/505/127 171/506/127 170/507/127 169/508/127
f 173/509/128 174/510/128 175/511/128 176/512/128
f 169/513/129 170/514/129 174/515/129 173/516/129
f 170/517/130 171/518/130 175/519/130 174/520/130
f 171/521/131 172/522/131 176/523/131 175/524/131
f 172/525/132 169/526/132 173/527/132 176/528/132
f 180/529/133 179/530/133 178/531/133 177/532/133
f 181/533/134 182/534/134 183/535/134 184/536/134
f 177/537/135 178/538/135 182/539/135 181/540/135
f 178/541/136 179/542/136 183/543/136 182/544/136
f 179/545/137 180/546/137 184/547/137 183/548/137
f 180/549/138 177/550/138 181/551/138 184/552/138
f 188/553/139 187/554/139 186/555/139 185/556/139
f 189/557/140 190/558/140 191/559/140 192/560/140
f 185/561/141 186/562/141 190/563/141 189/564/141
f 186/565/142 187/566/142 191/567/142 190/568/142
f 187/569/143 188/570/143 192/571/143 191/572/143
f 188/573/144 185/574/144 189/575/144 192/576/144
