# road_pane.obj — gray-box hull for Missile Rider.
# GENERATED by tools/gen_road_modules.py. Do not hand-edit; edit the generator.
o road_pane
v -0.0060 -0.5000 -0.5000
v -0.0060 -0.5000 0.5000
v -0.0060 0.5000 -0.5000
v -0.0060 0.5000 0.5000
v 0.0060 -0.5000 -0.5000
v 0.0060 -0.5000 0.5000
v 0.0060 0.5000 -0.5000
v 0.0060 0.5000 0.5000
vt 0.0000 1.0000
vt 1.0000 1.0000
vt 1.0000 0.0000
vt 0.0000 0.0000
vt 0.0000 0.0000
vt 1.0000 0.0000
vt 1.0000 1.0000
vt 0.0000 1.0000
vt 0.5060 1.0000
vt 0.5060 0.0000
vt 0.4940 0.0000
vt 0.4940 1.0000
vt 0.4940 1.0000
vt 0.4940 0.0000
vt 0.5060 0.0000
vt 0.5060 1.0000
vt 0.4940 1.0000
vt 0.4940 0.0000
vt 0.5060 0.0000
vt 0.5060 1.0000
vt 0.5060 1.0000
vt 0.5060 0.0000
vt 0.4940 0.0000
vt 0.4940 1.0000
vn -1.0000 0.0000 0.0000
vn 1.0000 0.0000 -0.0000
vn 0.0000 -1.0000 0.0000
vn 0.0000 1.0000 0.0000
vn 0.0000 0.0000 -1.0000
vn 0.0000 -0.0000 1.0000
f 1/1/1 2/2/1 4/3/1 3/4/1
f 7/5/2 8/6/2 6/7/2 5/8/2
f 5/9/3 6/10/3 2/11/3 1/12/3
f 3/13/4 4/14/4 8/15/4 7/16/4
f 1/17/5 3/18/5 7/19/5 5/20/5
f 6/21/6 8/22/6 4/23/6 2/24/6
