# road_junction_diverge_right_main_metal.obj — gray-box hull for Missile Rider.
# GENERATED by tools/gen_road_junctions.py. Do not hand-edit; edit the generator.
o road_junction_diverge_right_main_metal
v 0.0000 -84.0000 -240.0000
v 0.0000 -84.0000 240.0000
v 0.0000 -75.0000 240.0000
v 0.0000 -75.0000 -240.0000
v 1800.0000 -84.0000 -240.0000
v 1800.0000 -84.0000 240.0000
v 1800.0000 -75.0000 240.0000
v 1800.0000 -75.0000 -240.0000
vt -0.1000 0.7100
vt 1.1000 0.7100
vt 1.1000 0.6875
vt -0.1000 0.6875
vt -0.1000 0.6875
vt 1.1000 0.6875
vt 1.1000 0.7100
vt -0.1000 0.7100
vt 5.0000 1.1000
vt 5.0000 -0.1000
vt 0.5000 -0.1000
vt 0.5000 1.1000
vt 5.0000 0.7100
vt 5.0000 0.6875
vt 0.5000 0.6875
vt 0.5000 0.7100
vt 5.0000 -0.1000
vt 5.0000 1.1000
vt 0.5000 1.1000
vt 0.5000 -0.1000
vt 5.0000 0.6875
vt 5.0000 0.7100
vt 0.5000 0.7100
vt 0.5000 0.6875
vn -1.0000 0.0000 0.0000
vn 1.0000 0.0000 -0.0000
vn 0.0000 -1.0000 0.0000
vn 0.0000 -0.0000 1.0000
vn 0.0000 1.0000 0.0000
vn 0.0000 -0.0000 -1.0000
f 1/1/1 2/2/1 3/3/1 4/4/1
f 8/5/2 7/6/2 6/7/2 5/8/2
f 5/9/3 6/10/3 2/11/3 1/12/3
f 6/13/4 7/14/4 3/15/4 2/16/4
f 7/17/5 8/18/5 4/19/5 3/20/5
f 8/21/6 5/22/6 1/23/6 4/24/6
