# road_junction_merge_below_metal.obj — gray-box hull for Missile Rider.
# GENERATED by tools/gen_road_junctions.py. Do not hand-edit; edit the generator.
o road_junction_merge_below_metal
v 3570.0000 -80.2500 -256.8000
v 3570.0000 -80.2500 256.8000
v 3570.0000 80.2500 256.8000
v 3570.0000 80.2500 -256.8000
v 3630.0000 -80.2500 -256.8000
v 3630.0000 -80.2500 256.8000
v 3630.0000 80.2500 256.8000
v 3630.0000 80.2500 -256.8000
v 3570.0000 -80.2500 -256.8000
v 3570.0000 -80.2500 256.8000
v 3570.0000 80.2500 256.8000
v 3570.0000 80.2500 -256.8000
v 3630.0000 -80.2500 -256.8000
v 3630.0000 -80.2500 256.8000
v 3630.0000 80.2500 256.8000
v 3630.0000 80.2500 -256.8000
v 3570.0000 -80.2500 -256.8000
v 3570.0000 -80.2500 256.8000
v 3570.0000 80.2500 256.8000
v 3570.0000 80.2500 -256.8000
v 3630.0000 -80.2500 -256.8000
v 3630.0000 -80.2500 256.8000
v 3630.0000 80.2500 256.8000
v 3630.0000 80.2500 -256.8000
v 3570.0000 -80.2500 -256.8000
v 3570.0000 -80.2500 256.8000
v 3570.0000 80.2500 256.8000
v 3570.0000 80.2500 -256.8000
v 3630.0000 -80.2500 -256.8000
v 3630.0000 -80.2500 256.8000
v 3630.0000 80.2500 256.8000
v 3630.0000 80.2500 -256.8000
v 3570.0000 -80.2500 -256.8000
v 3570.0000 -80.2500 256.8000
v 3570.0000 80.2500 256.8000
v 3570.0000 80.2500 -256.8000
v 3630.0000 -80.2500 -256.8000
v 3630.0000 -80.2500 256.8000
v 3630.0000 80.2500 256.8000
v 3630.0000 80.2500 -256.8000
v 300.0675 -323.9958 399.6123
v 301.6125 -323.9958 639.6073
v 301.5225 -314.9962 639.6079
v 299.9775 -314.9962 399.6129
v 360.1350 -323.3831 399.2173
v 363.2251 -323.3831 639.1974
v 363.0451 -314.3849 639.1997
v 359.9550 -314.3849 399.2196
v 360.1350 -323.3831 399.2173
v 363.2251 -323.3831 639.1974
v 363.0451 -314.3849 639.1997
v 359.9550 -314.3849 399.2196
v 420.2684 -321.5318 398.0234
v 426.4485 -321.5318 637.9438
v 426.0886 -312.5390 637.9531
v 419.9086 -312.5390 398.0327
v 420.2684 -321.5318 398.0234
v 426.4485 -321.5318 637.9438
v 426.0886 -312.5390 637.9531
v 419.9086 -312.5390 398.0327
v 480.3985 -318.4440 396.0329
v 489.6685 -318.4440 635.8538
v 489.1292 -309.4602 635.8747
v 479.8592 -309.4602 396.0538
v 480.3985 -318.4440 396.0329
v 489.6685 -318.4440 635.8538
v 489.1292 -309.4602 635.8747
v 479.8592 -309.4602 396.0538
v 540.5232 -314.1160 393.2452
v 552.8833 -314.1160 632.9267
v 552.1651 -305.1448 632.9637
v 539.8050 -305.1448 393.2822
v 540.5232 -314.1160 393.2452
v 552.8833 -314.1160 632.9267
v 552.1651 -305.1448 632.9637
v 539.8050 -305.1448 393.2822
v 600.2000 -308.5865 389.6874
v 615.6501 -308.5865 629.1895
v 614.8010 -299.6268 629.2443
v 599.3508 -299.6268 389.7421
v 600.2000 -308.5865 389.6874
v 615.6501 -308.5865 629.1895
v 614.8010 -299.6268 629.2443
v 599.3508 -299.6268 389.7421
v 659.0357 -302.5508 385.4055
v 677.5758 -302.5508 624.6883
v 676.6859 -293.5951 624.7573
v 658.1458 -293.5951 385.4745
v 659.0357 -302.5508 385.4055
v 677.5758 -302.5508 624.6883
v 676.6859 -293.5951 624.7573
v 658.1458 -293.5951 385.4745
v 717.4727 -296.5538 380.3902
v 739.1029 -296.5538 619.4135
v 738.2150 -287.5980 619.4938
v 716.5848 -287.5980 380.4705
v 717.4727 -296.5538 380.3902
v 739.1029 -296.5538 619.4135
v 738.2150 -287.5980 619.4938
v 716.5848 -287.5980 380.4705
v 775.9070 -290.5569 374.6134
v 800.6273 -290.5569 613.3369
v 799.7415 -281.6011 613.4286
v 775.0213 -281.6011 374.7051
v 775.9070 -290.5569 374.6134
v 800.6273 -290.5569 613.3369
v 799.7415 -281.6011 613.4286
v 775.0213 -281.6011 374.7051
v 834.3386 -284.5602 368.0722
v 862.1489 -284.5602 606.4555
v 861.2656 -275.6043 606.5586
v 833.4553 -275.6043 368.1753
v 834.3386 -284.5602 368.0722
v 862.1489 -284.5602 606.4555
v 861.2656 -275.6043 606.5586
v 833.4553 -275.6043 368.1753
v 892.7674 -278.5637 360.7636
v 923.6677 -278.5637 598.7661
v 922.7872 -269.6076 598.8804
v 891.8869 -269.6076 360.8779
v 892.7674 -278.5637 360.7636
v 923.6677 -278.5637 598.7661
v 922.7872 -269.6076 598.8804
v 891.8869 -269.6076 360.8779
v 951.1934 -272.5672 352.6838
v 985.1838 -272.5672 590.2647
v 984.3064 -263.6110 590.3902
v 950.3161 -263.6110 352.8094
v 951.1934 -272.5672 352.6838
v 985.1838 -272.5672 590.2647
v 984.3064 -263.6110 590.3902
v 950.3161 -263.6110 352.8094
v 1009.6167 -266.5709 343.8288
v 1046.6971 -266.5709 580.9471
v 1045.8231 -257.6145 581.0837
v 1008.7427 -257.6145 343.9655
v 1009.6167 -266.5709 343.8288
v 1046.6971 -266.5709 580.9471
v 1045.8231 -257.6145 581.0837
v 1008.7427 -257.6145 343.9655
v 1068.0372 -260.5748 334.1941
v 1108.2076 -260.5748 570.8085
v 1107.3374 -251.6182 570.9562
v 1067.1669 -251.6182 334.3419
v 1068.0372 -260.5748 334.1941
v 1108.2076 -260.5748 570.8085
v 1107.3374 -251.6182 570.9562
v 1067.1669 -251.6182 334.3419
v 1126.4550 -254.5788 323.7748
v 1169.7154 -254.5788 559.8437
v 1168.8492 -245.6220 560.0025
v 1125.5887 -245.6220 323.9335
v 1126.4550 -254.5788 323.7748
v 1169.7154 -254.5788 559.8437
v 1168.8492 -245.6220 560.0025
v 1125.5887 -245.6220 323.9335
v 1184.8699 -248.5829 312.5654
v 1231.2205 -248.5829 548.0471
v 1230.3585 -239.6259 548.2168
v 1184.0080 -239.6259 312.7351
v 1184.8699 -248.5829 312.5654
v 1231.2205 -248.5829 548.0471
v 1230.3585 -239.6259 548.2168
v 1184.0080 -239.6259 312.7351
v 1243.2822 -242.5871 300.5601
v 1292.7228 -242.5871 535.4125
v 1291.8654 -233.6299 535.5930
v 1242.4248 -233.6299 300.7406
v 1243.2822 -242.5871 300.5601
v 1292.7228 -242.5871 535.4125
v 1291.8654 -233.6299 535.5930
v 1242.4248 -233.6299 300.7406
v 1301.6916 -236.5915 287.7525
v 1354.2223 -236.5915 521.9331
v 1353.3698 -227.6340 522.1243
v 1300.8391 -227.6340 287.9438
v 1301.6916 -236.5915 287.7525
v 1354.2223 -236.5915 521.9331
v 1353.3698 -227.6340 522.1243
v 1300.8391 -227.6340 287.9438
v 1360.0983 -230.5961 274.1358
v 1415.7191 -230.5961 507.6017
v 1414.8717 -221.6383 507.8036
v 1359.2510 -221.6383 274.3377
v 1360.0983 -230.5961 274.1358
v 1415.7191 -230.5961 507.6017
v 1414.8717 -221.6383 507.8036
v 1359.2510 -221.6383 274.3377
v 1418.5023 -224.6007 259.7025
v 1477.2131 -224.6007 492.4106
v 1476.3712 -215.6427 492.6230
v 1417.6604 -215.6427 259.9149
v 1418.5023 -224.6007 259.7025
v 1477.2131 -224.6007 492.4106
v 1476.3712 -215.6427 492.6230
v 1417.6604 -215.6427 259.9149
v 1476.9035 -218.6055 244.4447
v 1538.7044 -218.6055 476.3513
v 1537.8682 -209.6472 476.5741
v 1476.0673 -209.6472 244.6675
v 1476.9035 -218.6055 244.4447
v 1538.7044 -218.6055 476.3513
v 1537.8682 -209.6472 476.5741
v 1476.0673 -209.6472 244.6675
v 1535.3019 -212.6105 228.3539
v 1600.1928 -212.6105 459.4148
v 1599.3628 -203.6519 459.6480
v 1534.4718 -203.6519 228.5870
v 1535.3019 -212.6105 228.3539
v 1600.1928 -212.6105 459.4148
v 1599.3628 -203.6519 459.6480
v 1534.4718 -203.6519 228.5870
v 1593.8996 -206.6152 211.3755
v 1661.4918 -206.6152 441.6608
v 1660.6672 -197.6563 441.9028
v 1593.0750 -197.6563 211.6175
v 1593.8996 -206.6152 211.3755
v 1661.4918 -206.6152 441.6608
v 1660.6672 -197.6563 441.9028
v 1593.0750 -197.6563 211.6175
v 1653.8996 -200.6173 193.4369
v 1721.4918 -200.6173 423.7221
v 1720.6672 -191.6584 423.9641
v 1653.0750 -191.6584 193.6789
v 1653.8996 -200.6173 193.4369
v 1721.4918 -200.6173 423.7221
v 1720.6672 -191.6584 423.9641
v 1653.0750 -191.6584 193.6789
v 1715.3019 -194.6169 175.8489
v 1780.1928 -194.6169 406.9098
v 1779.3628 -185.6582 407.1429
v 1714.4718 -185.6582 176.0820
v 1715.3019 -194.6169 175.8489
v 1780.1928 -194.6169 406.9098
v 1779.3628 -185.6582 407.1429
v 1714.4718 -185.6582 176.0820
v 1776.9035 -188.6162 159.1046
v 1838.7044 -188.6162 391.0112
v 1837.8682 -179.6579 391.2340
v 1776.0673 -179.6579 159.3275
v 1776.9035 -188.6162 159.1046
v 1838.7044 -188.6162 391.0112
v 1837.8682 -179.6579 391.2340
v 1776.0673 -179.6579 159.3275
v 1838.5023 -182.6156 143.2398
v 1897.2131 -182.6156 375.9478
v 1896.3712 -173.6576 376.1602
v 1837.6604 -173.6576 143.4522
v 1838.5023 -182.6156 143.2398
v 1897.2131 -182.6156 375.9478
v 1896.3712 -173.6576 376.1602
v 1837.6604 -173.6576 143.4522
v 1900.0983 -176.6152 128.2452
v 1955.7191 -176.6152 361.7111
v 1954.8717 -167.6575 361.9130
v 1899.2510 -167.6575 128.4471
v 1900.0983 -176.6152 128.2452
v 1955.7191 -176.6152 361.7111
v 1954.8717 -167.6575 361.9130
v 1899.2510 -167.6575 128.4471
v 1961.6916 -170.6149 114.1124
v 2014.2223 -170.6149 348.2929
v 2013.3698 -161.6575 348.4842
v 1960.8391 -161.6575 114.3036
v 1961.6916 -170.6149 114.1124
v 2014.2223 -170.6149 348.2929
v 2013.3698 -161.6575 348.4842
v 1960.8391 -161.6575 114.3036
v 2023.2822 -164.6148 100.8335
v 2072.7228 -164.6148 335.6858
v 2071.8654 -155.6576 335.8663
v 2022.4248 -155.6576 101.0140
v 2023.2822 -164.6148 100.8335
v 2072.7228 -164.6148 335.6858
v 2071.8654 -155.6576 335.8663
v 2022.4248 -155.6576 101.0140
v 2084.8699 -158.6148 88.4010
v 2131.2205 -158.6148 323.8827
v 2130.3585 -149.6578 324.0524
v 2084.0080 -149.6578 88.5707
v 2084.8699 -158.6148 88.4010
v 2131.2205 -158.6148 323.8827
v 2130.3585 -149.6578 324.0524
v 2084.0080 -149.6578 88.5707
v 2146.4550 -152.6150 76.8082
v 2189.7154 -152.6150 312.8772
v 2188.8492 -143.6581 313.0359
v 2145.5887 -143.6581 76.9670
v 2146.4550 -152.6150 76.8082
v 2189.7154 -152.6150 312.8772
v 2188.8492 -143.6581 313.0359
v 2145.5887 -143.6581 76.9670
v 2208.0372 -146.6152 66.0489
v 2248.2076 -146.6152 302.6632
v 2247.3374 -137.6586 302.8109
v 2207.1669 -137.6586 66.1966
v 2208.0372 -146.6152 66.0489
v 2248.2076 -146.6152 302.6632
v 2247.3374 -137.6586 302.8109
v 2207.1669 -137.6586 66.1966
v 2269.6167 -140.6156 56.1171
v 2306.6971 -140.6156 293.2353
v 2305.8231 -131.6592 293.3719
v 2268.7427 -131.6592 56.2537
v 2269.6167 -140.6156 56.1171
v 2306.6971 -140.6156 293.2353
v 2305.8231 -131.6592 293.3719
v 2268.7427 -131.6592 56.2537
v 2331.1934 -134.6162 47.0075
v 2365.1838 -134.6162 284.5883
v 2364.3064 -125.6599 284.7139
v 2330.3161 -125.6599 47.1330
v 2331.1934 -134.6162 47.0075
v 2365.1838 -134.6162 284.5883
v 2364.3064 -125.6599 284.7139
v 2330.3161 -125.6599 47.1330
v 2392.7674 -128.6169 38.7154
v 2423.6677 -128.6169 276.7178
v 2422.7872 -119.6608 276.8321
v 2391.8869 -119.6608 38.8297
v 2392.7674 -128.6169 38.7154
v 2423.6677 -128.6169 276.7178
v 2422.7872 -119.6608 276.8321
v 2391.8869 -119.6608 38.8297
v 2454.3386 -122.6177 31.2363
v 2482.1489 -122.6177 269.6195
v 2481.2656 -113.6618 269.7226
v 2453.4553 -113.6618 31.3393
v 2454.3386 -122.6177 31.2363
v 2482.1489 -122.6177 269.6195
v 2481.2656 -113.6618 269.7226
v 2453.4553 -113.6618 31.3393
v 2515.9070 -116.6187 24.5662
v 2540.6273 -116.6187 263.2897
v 2539.7415 -107.6628 263.3815
v 2515.0213 -107.6628 24.6580
v 2515.9070 -116.6187 24.5662
v 2540.6273 -116.6187 263.2897
v 2539.7415 -107.6628 263.3815
v 2515.0213 -107.6628 24.6580
v 2577.4727 -110.6198 18.7018
v 2599.1029 -110.6198 257.7251
v 2598.2150 -101.6641 257.8054
v 2576.5848 -101.6641 18.7821
v 2577.4727 -110.6198 18.7018
v 2599.1029 -110.6198 257.7251
v 2598.2150 -101.6641 257.8054
v 2576.5848 -101.6641 18.7821
v 2639.0357 -104.6210 13.6398
v 2657.5758 -104.6210 252.9226
v 2656.6859 -95.6654 252.9916
v 2638.1458 -95.6654 13.7088
v 2639.0357 -104.6210 13.6398
v 2657.5758 -104.6210 252.9226
v 2656.6859 -95.6654 252.9916
v 2638.1458 -95.6654 13.7088
v 2700.2000 -98.6610 9.4032
v 2715.6501 -98.6610 248.9054
v 2714.8010 -89.7013 248.9602
v 2699.3508 -89.7013 9.4580
v 2700.2000 -98.6610 9.4032
v 2715.6501 -98.6610 248.9054
v 2714.8010 -89.7013 248.9602
v 2699.3508 -89.7013 9.4580
v 2760.5232 -93.3468 5.9972
v 2772.8833 -93.3468 245.6787
v 2772.1651 -84.3756 245.7158
v 2759.8050 -84.3756 6.0342
v 2760.5232 -93.3468 5.9972
v 2772.8833 -93.3468 245.6787
v 2772.1651 -84.3756 245.7158
v 2759.8050 -84.3756 6.0342
v 2820.3985 -89.2537 3.3723
v 2829.6685 -89.2537 243.1932
v 2829.1292 -80.2699 243.2140
v 2819.8592 -80.2699 3.3931
v 2820.3985 -89.2537 3.3723
v 2829.6685 -89.2537 243.1932
v 2829.1292 -80.2699 243.2140
v 2819.8592 -80.2699 3.3931
v 2880.2684 -86.3338 1.4984
v 2886.4485 -86.3338 241.4188
v 2886.0886 -77.3410 241.4281
v 2879.9086 -77.3410 1.5077
v 2880.2684 -86.3338 1.4984
v 2886.4485 -86.3338 241.4188
v 2886.0886 -77.3410 241.4281
v 2879.9086 -77.3410 1.5077
v 2940.1350 -84.5833 0.3746
v 2943.2251 -84.5833 240.3547
v 2943.0451 -75.5851 240.3570
v 2939.9550 -75.5851 0.3769
v 2940.1350 -84.5833 0.3746
v 2943.2251 -84.5833 240.3547
v 2943.0451 -75.5851 240.3570
v 2939.9550 -75.5851 0.3769
v 3000.0675 -83.9958 -0.0029
v 3001.6125 -83.9958 239.9921
v 3001.5225 -74.9962 239.9927
v 2999.9775 -74.9962 -0.0023
v 861.7138 -277.7914 356.3249
v 894.7772 -277.7914 610.9875
v 879.0758 -118.0743 613.0260
v 846.0125 -118.0743 358.3634
v 920.9242 -271.8725 348.6375
v 953.9875 -271.8725 603.3001
v 938.2862 -112.1554 605.3386
v 905.2228 -112.1554 350.6760
v 1445.5380 -217.7573 244.1101
v 1511.6650 -217.7573 492.2502
v 1496.7539 -58.0008 496.2238
v 1430.6270 -58.0008 248.0838
v 1503.2461 -211.9885 228.7315
v 1569.3730 -211.9885 476.8715
v 1554.4620 -52.2321 480.8452
v 1488.3350 -52.2321 232.7052
v 2053.5939 -157.8111 85.9960
v 2103.1890 -157.8111 337.9614
v 2087.8168 1.9224 340.9871
v 2038.2218 1.9224 89.0217
v 2112.1832 -151.9543 74.4637
v 2161.7782 -151.9543 326.4291
v 2146.4061 7.7792 329.4548
v 2096.8110 7.7792 77.4894
v 2669.5017 -97.7641 2.9661
v 2686.0334 -97.7641 259.2334
v 2670.8909 62.0170 260.2103
v 2654.3593 62.0170 3.9429
v 2729.1091 -92.0916 -0.8791
v 2745.6407 -92.0916 255.3882
v 2730.4983 67.6895 256.3650
v 2713.9666 67.6895 0.0977
vt -0.1420 0.7006
vt 1.1420 0.7006
vt 1.1420 0.2994
vt -0.1420 0.2994
vt -0.1420 0.2994
vt 1.1420 0.2994
vt 1.1420 0.7006
vt -0.1420 0.7006
vt 9.5750 1.1420
vt 9.5750 -0.1420
vt 9.4250 -0.1420
vt 9.4250 1.1420
vt 9.5750 0.7006
vt 9.5750 0.2994
vt 9.4250 0.2994
vt 9.4250 0.7006
vt 9.5750 -0.1420
vt 9.5750 1.1420
vt 9.4250 1.1420
vt 9.4250 -0.1420
vt 9.5750 0.2994
vt 9.5750 0.7006
vt 9.4250 0.7006
vt 9.4250 0.2994
vt -0.1420 0.7006
vt 1.1420 0.7006
vt 1.1420 0.2994
vt -0.1420 0.2994
vt -0.1420 0.2994
vt 1.1420 0.2994
vt 1.1420 0.7006
vt -0.1420 0.7006
vt 9.5750 1.1420
vt 9.5750 -0.1420
vt 9.4250 -0.1420
vt 9.4250 1.1420
vt 9.5750 0.7006
vt 9.5750 0.2994
vt 9.4250 0.2994
vt 9.4250 0.7006
vt 9.5750 -0.1420
vt 9.5750 1.1420
vt 9.4250 1.1420
vt 9.4250 -0.1420
vt 9.5750 0.2994
vt 9.5750 0.7006
vt 9.4250 0.7006
vt 9.4250 0.2994
vt -0.1420 0.7006
vt 1.1420 0.7006
vt 1.1420 0.2994
vt -0.1420 0.2994
vt -0.1420 0.2994
vt 1.1420 0.2994
vt 1.1420 0.7006
vt -0.1420 0.7006
vt 9.5750 1.1420
vt 9.5750 -0.1420
vt 9.4250 -0.1420
vt 9.4250 1.1420
vt 9.5750 0.7006
vt 9.5750 0.2994
vt 9.4250 0.2994
vt 9.4250 0.7006
vt 9.5750 -0.1420
vt 9.5750 1.1420
vt 9.4250 1.1420
vt 9.4250 -0.1420
vt 9.5750 0.2994
vt 9.5750 0.7006
vt 9.4250 0.7006
vt 9.4250 0.2994
vt -0.1420 0.7006
vt 1.1420 0.7006
vt 1.1420 0.2994
vt -0.1420 0.2994
vt -0.1420 0.2994
vt 1.1420 0.2994
vt 1.1420 0.7006
vt -0.1420 0.7006
vt 9.5750 1.1420
vt 9.5750 -0.1420
vt 9.4250 -0.1420
vt 9.4250 1.1420
vt 9.5750 0.7006
vt 9.5750 0.2994
vt 9.4250 0.2994
vt 9.4250 0.7006
vt 9.5750 -0.1420
vt 9.5750 1.1420
vt 9.4250 1.1420
vt 9.4250 -0.1420
vt 9.5750 0.2994
vt 9.5750 0.7006
vt 9.4250 0.7006
vt 9.4250 0.2994
vt -0.1420 0.7006
vt 1.1420 0.7006
vt 1.1420 0.2994
vt -0.1420 0.2994
vt -0.1420 0.2994
vt 1.1420 0.2994
vt 1.1420 0.7006
vt -0.1420 0.7006
vt 9.5750 1.1420
vt 9.5750 -0.1420
vt 9.4250 -0.1420
vt 9.4250 1.1420
vt 9.5750 0.7006
vt 9.5750 0.2994
vt 9.4250 0.2994
vt 9.4250 0.7006
vt 9.5750 -0.1420
vt 9.5750 1.1420
vt 9.4250 1.1420
vt 9.4250 -0.1420
vt 9.5750 0.2994
vt 9.5750 0.7006
vt 9.4250 0.7006
vt 9.4250 0.2994
vt 1.4990 1.3100
vt 2.0990 1.3100
vt 2.0990 1.2875
vt 1.4990 1.2875
vt 1.4980 1.2860
vt 2.0980 1.2860
vt 2.0980 1.3085
vt 1.4980 1.3085
vt 1.4003 -0.4980
vt 1.4081 -1.0980
vt 1.2540 -1.0990
vt 1.2502 -0.4990
vt 1.4081 1.3085
vt 1.4076 1.2860
vt 1.2538 1.2875
vt 1.2540 1.3100
vt 1.4076 -1.0980
vt 1.3999 -0.4980
vt 1.2499 -0.4990
vt 1.2538 -1.0990
vt 1.3999 1.2860
vt 1.4003 1.3085
vt 1.2502 1.3100
vt 1.2499 1.2875
vt 1.4980 1.3085
vt 2.0980 1.3085
vt 2.0980 1.2860
vt 1.4980 1.2860
vt 1.4951 1.2813
vt 2.0949 1.2813
vt 2.0949 1.3038
vt 1.4951 1.3038
vt 1.5507 -0.4951
vt 1.5661 -1.0949
vt 1.4081 -1.0980
vt 1.4003 -0.4980
vt 1.5661 1.3038
vt 1.5652 1.2813
vt 1.4076 1.2860
vt 1.4081 1.3085
vt 1.5652 -1.0949
vt 1.5498 -0.4951
vt 1.3999 -0.4980
vt 1.4076 -1.0980
vt 1.5498 1.2813
vt 1.5507 1.3038
vt 1.4003 1.3085
vt 1.3999 1.2860
vt 1.4951 1.3038
vt 2.0949 1.3038
vt 2.0949 1.2813
vt 1.4951 1.2813
vt 1.4901 1.2737
vt 2.0897 1.2737
vt 2.0896 1.2961
vt 1.4901 1.2961
vt 1.7010 -0.4901
vt 1.7242 -1.0896
vt 1.5661 -1.0949
vt 1.5507 -0.4951
vt 1.7242 1.2961
vt 1.7228 1.2737
vt 1.5652 1.2813
vt 1.5661 1.3038
vt 1.7228 -1.0897
vt 1.6996 -0.4901
vt 1.5498 -0.4951
vt 1.5652 -1.0949
vt 1.6996 1.2737
vt 1.7010 1.2961
vt 1.5507 1.3038
vt 1.5498 1.2813
vt 1.4901 1.2961
vt 2.0896 1.2961
vt 2.0897 1.2737
vt 1.4901 1.2737
vt 1.4832 1.2629
vt 2.0824 1.2629
vt 2.0823 1.2853
vt 1.4831 1.2853
vt 1.8513 -0.4831
vt 1.8822 -1.0823
vt 1.7242 -1.0896
vt 1.7010 -0.4901
vt 1.8822 1.2853
vt 1.8804 1.2629
vt 1.7228 1.2737
vt 1.7242 1.2961
vt 1.8804 -1.0824
vt 1.8495 -0.4832
vt 1.6996 -0.4901
vt 1.7228 -1.0897
vt 1.8495 1.2629
vt 1.8513 1.2853
vt 1.7010 1.2961
vt 1.6996 1.2737
vt 1.4831 1.2853
vt 2.0823 1.2853
vt 2.0824 1.2629
vt 1.4832 1.2629
vt 1.4744 1.2491
vt 2.0731 1.2491
vt 2.0730 1.2715
vt 1.4742 1.2715
vt 2.0005 -0.4742
vt 2.0391 -1.0730
vt 1.8822 -1.0823
vt 1.8513 -0.4831
vt 2.0391 1.2715
vt 2.0370 1.2491
vt 1.8804 1.2629
vt 1.8822 1.2853
vt 2.0370 -1.0731
vt 1.9984 -0.4744
vt 1.8495 -0.4832
vt 1.8804 -1.0824
vt 1.9984 1.2491
vt 2.0005 1.2715
vt 1.8513 1.2853
vt 1.8495 1.2629
vt 1.4742 1.2715
vt 2.0730 1.2715
vt 2.0731 1.2491
vt 1.4744 1.2491
vt 1.4637 1.2340
vt 2.0619 1.2340
vt 2.0617 1.2564
vt 1.4635 1.2564
vt 2.1476 -0.4635
vt 2.1939 -1.0617
vt 2.0391 -1.0730
vt 2.0005 -0.4742
vt 2.1939 1.2564
vt 2.1917 1.2340
vt 2.0370 1.2491
vt 2.0391 1.2715
vt 2.1917 -1.0619
vt 2.1454 -0.4637
vt 1.9984 -0.4744
vt 2.0370 -1.0731
vt 2.1454 1.2340
vt 2.1476 1.2564
vt 2.0005 1.2715
vt 1.9984 1.2491
vt 1.4635 1.2564
vt 2.0617 1.2564
vt 2.0619 1.2340
vt 1.4637 1.2340
vt 1.4512 1.2190
vt 2.0487 1.2190
vt 2.0485 1.2414
vt 1.4510 1.2414
vt 2.2937 -0.4510
vt 2.3478 -1.0485
vt 2.1939 -1.0617
vt 2.1476 -0.4635
vt 2.3478 1.2414
vt 2.3455 1.2190
vt 2.1917 1.2340
vt 2.1939 1.2564
vt 2.3455 -1.0487
vt 2.2915 -0.4512
vt 2.1454 -0.4637
vt 2.1917 -1.0619
vt 2.2915 1.2190
vt 2.2937 1.2414
vt 2.1476 1.2564
vt 2.1454 1.2340
vt 1.4510 1.2414
vt 2.0485 1.2414
vt 2.0487 1.2190
vt 1.4512 1.2190
vt 1.4368 1.2040
vt 2.0336 1.2040
vt 2.0333 1.2264
vt 1.4365 1.2264
vt 2.4398 -0.4365
vt 2.5016 -1.0333
vt 2.3478 -1.0485
vt 2.2937 -0.4510
vt 2.5016 1.2264
vt 2.4994 1.2040
vt 2.3455 1.2190
vt 2.3478 1.2414
vt 2.4994 -1.0336
vt 2.4376 -0.4368
vt 2.2915 -0.4512
vt 2.3455 -1.0487
vt 2.4376 1.2040
vt 2.4398 1.2264
vt 2.2937 1.2414
vt 2.2915 1.2190
vt 1.4365 1.2264
vt 2.0333 1.2264
vt 2.0336 1.2040
vt 1.4368 1.2040
vt 1.4204 1.1890
vt 2.0164 1.1890
vt 2.0161 1.2114
vt 1.4202 1.2114
vt 2.5858 -0.4202
vt 2.6554 -1.0161
vt 2.5016 -1.0333
vt 2.4398 -0.4365
vt 2.6554 1.2114
vt 2.6532 1.1890
vt 2.4994 1.2040
vt 2.5016 1.2264
vt 2.6532 -1.0164
vt 2.5836 -0.4204
vt 2.4376 -0.4368
vt 2.4994 -1.0336
vt 2.5836 1.1890
vt 2.5858 1.2114
vt 2.4398 1.2264
vt 2.4376 1.2040
vt 1.4202 1.2114
vt 2.0161 1.2114
vt 2.0164 1.1890
vt 1.4204 1.1890
vt 1.4022 1.1740
vt 1.9972 1.1740
vt 1.9969 1.1964
vt 1.4019 1.1964
vt 2.7319 -0.4019
vt 2.8092 -0.9969
vt 2.6554 -1.0161
vt 2.5858 -0.4202
vt 2.8092 1.1964
vt 2.8070 1.1740
vt 2.6532 1.1890
vt 2.6554 1.2114
vt 2.8070 -0.9972
vt 2.7297 -0.4022
vt 2.5836 -0.4204
vt 2.6532 -1.0164
vt 2.7297 1.1740
vt 2.7319 1.1964
vt 2.5858 1.2114
vt 2.5836 1.1890
vt 1.4019 1.1964
vt 1.9969 1.1964
vt 1.9972 1.1740
vt 1.4022 1.1740
vt 1.3820 1.1590
vt 1.9760 1.1590
vt 1.9757 1.1814
vt 1.3817 1.1814
vt 2.8780 -0.3817
vt 2.9630 -0.9757
vt 2.8092 -0.9969
vt 2.7319 -0.4019
vt 2.9630 1.1814
vt 2.9608 1.1590
vt 2.8070 1.1740
vt 2.8092 1.1964
vt 2.9608 -0.9760
vt 2.8758 -0.3820
vt 2.7297 -0.4022
vt 2.8070 -0.9972
vt 2.8758 1.1590
vt 2.8780 1.1814
vt 2.7319 1.1964
vt 2.7297 1.1740
vt 1.3817 1.1814
vt 1.9757 1.1814
vt 1.9760 1.1590
vt 1.3820 1.1590
vt 1.3599 1.1440
vt 1.9527 1.1440
vt 1.9524 1.1664
vt 1.3596 1.1664
vt 3.0240 -0.3596
vt 3.1167 -0.9524
vt 2.9630 -0.9757
vt 2.8780 -0.3817
vt 3.1167 1.1664
vt 3.1146 1.1440
vt 2.9608 1.1590
vt 2.9630 1.1814
vt 3.1146 -0.9527
vt 3.0219 -0.3599
vt 2.8758 -0.3820
vt 2.9608 -0.9760
vt 3.0219 1.1440
vt 3.0240 1.1664
vt 2.8780 1.1814
vt 2.8758 1.1590
vt 1.3596 1.1664
vt 1.9524 1.1664
vt 1.9527 1.1440
vt 1.3599 1.1440
vt 1.3359 1.1290
vt 1.9274 1.1290
vt 1.9270 1.1514
vt 1.3355 1.1514
vt 3.1701 -0.3355
vt 3.2705 -0.9270
vt 3.1167 -0.9524
vt 3.0240 -0.3596
vt 3.2705 1.1514
vt 3.2683 1.1290
vt 3.1146 1.1440
vt 3.1167 1.1664
vt 3.2683 -0.9274
vt 3.1679 -0.3359
vt 3.0219 -0.3599
vt 3.1146 -0.9527
vt 3.1679 1.1290
vt 3.1701 1.1514
vt 3.0240 1.1664
vt 3.0219 1.1440
vt 1.3355 1.1514
vt 1.9270 1.1514
vt 1.9274 1.1290
vt 1.3359 1.1290
vt 1.3098 1.1141
vt 1.9000 1.1141
vt 1.8996 1.1364
vt 1.3094 1.1364
vt 3.3161 -0.3094
vt 3.4243 -0.8996
vt 3.2705 -0.9270
vt 3.1701 -0.3355
vt 3.4243 1.1364
vt 3.4221 1.1141
vt 3.2683 1.1290
vt 3.2705 1.1514
vt 3.4221 -0.9000
vt 3.3140 -0.3098
vt 3.1679 -0.3359
vt 3.2683 -0.9274
vt 3.3140 1.1141
vt 3.3161 1.1364
vt 3.1701 1.1514
vt 3.1679 1.1290
vt 1.3094 1.1364
vt 1.8996 1.1364
vt 1.9000 1.1141
vt 1.3098 1.1141
vt 1.2818 1.0991
vt 1.8705 1.0991
vt 1.8701 1.1215
vt 1.2814 1.1215
vt 3.4622 -0.2814
vt 3.5781 -0.8701
vt 3.4243 -0.8996
vt 3.3161 -0.3094
vt 3.5781 1.1215
vt 3.5759 1.0991
vt 3.4221 1.1141
vt 3.4243 1.1364
vt 3.5759 -0.8705
vt 3.4600 -0.2818
vt 3.3140 -0.3098
vt 3.4221 -0.9000
vt 3.4600 1.0991
vt 3.4622 1.1215
vt 3.3161 1.1364
vt 3.3140 1.1141
vt 1.2814 1.1215
vt 1.8701 1.1215
vt 1.8705 1.0991
vt 1.2818 1.0991
vt 1.2519 1.0841
vt 1.8390 1.0841
vt 1.8385 1.1065
vt 1.2514 1.1065
vt 3.6082 -0.2514
vt 3.7318 -0.8385
vt 3.5781 -0.8701
vt 3.4622 -0.2814
vt 3.7318 1.1065
vt 3.7297 1.0841
vt 3.5759 1.0991
vt 3.5781 1.1215
vt 3.7297 -0.8390
vt 3.6061 -0.2519
vt 3.4600 -0.2818
vt 3.5759 -0.8705
vt 3.6061 1.0841
vt 3.6082 1.1065
vt 3.4622 1.1215
vt 3.4600 1.0991
vt 1.2514 1.1065
vt 1.8385 1.1065
vt 1.8390 1.0841
vt 1.2519 1.0841
vt 1.2199 1.0691
vt 1.8053 1.0691
vt 1.8048 1.0915
vt 1.2194 1.0915
vt 3.7542 -0.2194
vt 3.8856 -0.8048
vt 3.7318 -0.8385
vt 3.6082 -0.2514
vt 3.8856 1.0915
vt 3.8834 1.0691
vt 3.7297 1.0841
vt 3.7318 1.1065
vt 3.8834 -0.8053
vt 3.7521 -0.2199
vt 3.6061 -0.2519
vt 3.7297 -0.8390
vt 3.7521 1.0691
vt 3.7542 1.0915
vt 3.6082 1.1065
vt 3.6061 1.0841
vt 1.2194 1.0915
vt 1.8048 1.0915
vt 1.8053 1.0691
vt 1.2199 1.0691
vt 1.1858 1.0541
vt 1.7695 1.0541
vt 1.7690 1.0765
vt 1.1853 1.0765
vt 3.9002 -0.1853
vt 4.0393 -0.7690
vt 3.8856 -0.8048
vt 3.7542 -0.2194
vt 4.0393 1.0765
vt 4.0372 1.0541
vt 3.8834 1.0691
vt 3.8856 1.0915
vt 4.0372 -0.7695
vt 3.8981 -0.1858
vt 3.7521 -0.2199
vt 3.8834 -0.8053
vt 3.8981 1.0541
vt 3.9002 1.0765
vt 3.7542 1.0915
vt 3.7521 1.0691
vt 1.1853 1.0765
vt 1.7690 1.0765
vt 1.7695 1.0541
vt 1.1858 1.0541
vt 1.1498 1.0391
vt 1.7316 1.0391
vt 1.7310 1.0615
vt 1.1493 1.0615
vt 4.0463 -0.1493
vt 4.1930 -0.7310
vt 4.0393 -0.7690
vt 3.9002 -0.1853
vt 4.1930 1.0615
vt 4.1909 1.0391
vt 4.0372 1.0541
vt 4.0393 1.0765
vt 4.1909 -0.7316
vt 4.0442 -0.1498
vt 3.8981 -0.1858
vt 4.0372 -0.7695
vt 4.0442 1.0391
vt 4.0463 1.0615
vt 3.9002 1.0765
vt 3.8981 1.0541
vt 1.1493 1.0615
vt 1.7310 1.0615
vt 1.7316 1.0391
vt 1.1498 1.0391
vt 1.1117 1.0241
vt 1.6914 1.0241
vt 1.6909 1.0465
vt 1.1111 1.0465
vt 4.1923 -0.1111
vt 4.3468 -0.6909
vt 4.1930 -0.7310
vt 4.0463 -0.1493
vt 4.3468 1.0465
vt 4.3447 1.0241
vt 4.1909 1.0391
vt 4.1930 1.0615
vt 4.3447 -0.6914
vt 4.1902 -0.1117
vt 4.0442 -0.1498
vt 4.1909 -0.7316
vt 4.1902 1.0241
vt 4.1923 1.0465
vt 4.0463 1.0615
vt 4.0442 1.0391
vt 1.1111 1.0465
vt 1.6909 1.0465
vt 1.6914 1.0241
vt 1.1117 1.0241
vt 1.0715 1.0091
vt 1.6491 1.0091
vt 1.6485 1.0315
vt 1.0709 1.0315
vt 4.3383 -0.0709
vt 4.5005 -0.6485
vt 4.3468 -0.6909
vt 4.1923 -0.1111
vt 4.5005 1.0315
vt 4.4984 1.0091
vt 4.3447 1.0241
vt 4.3468 1.0465
vt 4.4984 -0.6491
vt 4.3362 -0.0715
vt 4.1902 -0.1117
vt 4.3447 -0.6914
vt 4.3362 1.0091
vt 4.3383 1.0315
vt 4.1923 1.0465
vt 4.1902 1.0241
vt 1.0709 1.0315
vt 1.6485 1.0315
vt 1.6491 1.0091
vt 1.0715 1.0091
vt 1.0290 0.9941
vt 1.6048 0.9941
vt 1.6042 1.0165
vt 1.0284 1.0165
vt 4.4847 -0.0284
vt 4.6537 -0.6042
vt 4.5005 -0.6485
vt 4.3383 -0.0709
vt 4.6537 1.0165
vt 4.6517 0.9941
vt 4.4984 1.0091
vt 4.5005 1.0315
vt 4.6517 -0.6048
vt 4.4827 -0.0290
vt 4.3362 -0.0715
vt 4.4984 -0.6491
vt 4.4827 0.9941
vt 4.4847 1.0165
vt 4.3383 1.0315
vt 4.3362 1.0091
vt 1.0284 1.0165
vt 1.6042 1.0165
vt 1.6048 0.9941
vt 1.0290 0.9941
vt 0.9842 0.9791
vt 1.5599 0.9791
vt 1.5593 1.0015
vt 0.9836 1.0015
vt 4.6347 0.0164
vt 4.8037 -0.5593
vt 4.6537 -0.6042
vt 4.4847 -0.0284
vt 4.8037 1.0015
vt 4.8017 0.9791
vt 4.6517 0.9941
vt 4.6537 1.0165
vt 4.8017 -0.5599
vt 4.6327 0.0158
vt 4.4827 -0.0290
vt 4.6517 -0.6048
vt 4.6327 0.9791
vt 4.6347 1.0015
vt 4.4847 1.0165
vt 4.4827 0.9941
vt 0.9836 1.0015
vt 1.5593 1.0015
vt 1.5599 0.9791
vt 0.9842 0.9791
vt 0.9402 0.9641
vt 1.5179 0.9641
vt 1.5173 0.9865
vt 0.9396 0.9865
vt 4.7883 0.0604
vt 4.9505 -0.5173
vt 4.8037 -0.5593
vt 4.6347 0.0164
vt 4.9505 0.9865
vt 4.9484 0.9641
vt 4.8017 0.9791
vt 4.8037 1.0015
vt 4.9484 -0.5179
vt 4.7862 0.0598
vt 4.6327 0.0158
vt 4.8017 -0.5599
vt 4.7862 0.9641
vt 4.7883 0.9865
vt 4.6347 1.0015
vt 4.6327 0.9791
vt 0.9396 0.9865
vt 1.5173 0.9865
vt 1.5179 0.9641
vt 0.9402 0.9641
vt 0.8983 0.9491
vt 1.4781 0.9491
vt 1.4775 0.9715
vt 0.8978 0.9715
vt 4.9423 0.1022
vt 5.0968 -0.4775
vt 4.9505 -0.5173
vt 4.7883 0.0604
vt 5.0968 0.9715
vt 5.0947 0.9491
vt 4.9484 0.9641
vt 4.9505 0.9865
vt 5.0947 -0.4781
vt 4.9402 0.1017
vt 4.7862 0.0598
vt 4.9484 -0.5179
vt 4.9402 0.9491
vt 4.9423 0.9715
vt 4.7883 0.9865
vt 4.7862 0.9641
vt 0.8978 0.9715
vt 1.4775 0.9715
vt 1.4781 0.9491
vt 0.8983 0.9491
vt 0.8586 0.9341
vt 1.4404 0.9341
vt 1.4399 0.9565
vt 0.8581 0.9565
vt 5.0963 0.1419
vt 5.2430 -0.4399
vt 5.0968 -0.4775
vt 4.9423 0.1022
vt 5.2430 0.9565
vt 5.2409 0.9341
vt 5.0947 0.9491
vt 5.0968 0.9715
vt 5.2409 -0.4404
vt 5.0942 0.1414
vt 4.9402 0.1017
vt 5.0947 -0.4781
vt 5.0942 0.9341
vt 5.0963 0.9565
vt 4.9423 0.9715
vt 4.9402 0.9491
vt 0.8581 0.9565
vt 1.4399 0.9565
vt 1.4404 0.9341
vt 0.8586 0.9341
vt 0.8211 0.9191
vt 1.4048 0.9191
vt 1.4043 0.9415
vt 0.8206 0.9415
vt 5.2502 0.1794
vt 5.3893 -0.4043
vt 5.2430 -0.4399
vt 5.0963 0.1419
vt 5.3893 0.9415
vt 5.3872 0.9191
vt 5.2409 0.9341
vt 5.2430 0.9565
vt 5.3872 -0.4048
vt 5.2481 0.1789
vt 5.0942 0.1414
vt 5.2409 -0.4404
vt 5.2481 0.9191
vt 5.2502 0.9415
vt 5.0963 0.9565
vt 5.0942 0.9341
vt 0.8206 0.9415
vt 1.4043 0.9415
vt 1.4048 0.9191
vt 0.8211 0.9191
vt 0.7858 0.9041
vt 1.3712 0.9041
vt 1.3707 0.9265
vt 0.7853 0.9265
vt 5.4042 0.2147
vt 5.5356 -0.3707
vt 5.3893 -0.4043
vt 5.2502 0.1794
vt 5.5356 0.9265
vt 5.5334 0.9041
vt 5.3872 0.9191
vt 5.3893 0.9415
vt 5.5334 -0.3712
vt 5.4021 0.2142
vt 5.2481 0.1789
vt 5.3872 -0.4048
vt 5.4021 0.9041
vt 5.4042 0.9265
vt 5.2502 0.9415
vt 5.2481 0.9191
vt 0.7853 0.9265
vt 1.3707 0.9265
vt 1.3712 0.9041
vt 0.7858 0.9041
vt 0.7525 0.8891
vt 1.3397 0.8891
vt 1.3392 0.9115
vt 0.7521 0.9115
vt 5.5582 0.2479
vt 5.6818 -0.3392
vt 5.5356 -0.3707
vt 5.4042 0.2147
vt 5.6818 0.9115
vt 5.6797 0.8891
vt 5.5334 0.9041
vt 5.5356 0.9265
vt 5.6797 -0.3397
vt 5.5561 0.2475
vt 5.4021 0.2142
vt 5.5334 -0.3712
vt 5.5561 0.8891
vt 5.5582 0.9115
vt 5.4042 0.9265
vt 5.4021 0.9041
vt 0.7521 0.9115
vt 1.3392 0.9115
vt 1.3397 0.8891
vt 0.7525 0.8891
vt 0.7214 0.8741
vt 1.3101 0.8741
vt 1.3097 0.8965
vt 0.7210 0.8965
vt 5.7122 0.2790
vt 5.8281 -0.3097
vt 5.6818 -0.3392
vt 5.5582 0.2479
vt 5.8281 0.8965
vt 5.8259 0.8741
vt 5.6797 0.8891
vt 5.6818 0.9115
vt 5.8259 -0.3101
vt 5.7100 0.2786
vt 5.5561 0.2475
vt 5.6797 -0.3397
vt 5.7100 0.8741
vt 5.7122 0.8965
vt 5.5582 0.9115
vt 5.5561 0.8891
vt 0.7210 0.8965
vt 1.3097 0.8965
vt 1.3101 0.8741
vt 0.7214 0.8741
vt 0.6924 0.8591
vt 1.2826 0.8591
vt 1.2822 0.8815
vt 0.6920 0.8815
vt 5.8661 0.3080
vt 5.9743 -0.2822
vt 5.8281 -0.3097
vt 5.7122 0.2790
vt 5.9743 0.8815
vt 5.9721 0.8591
vt 5.8259 0.8741
vt 5.8281 0.8965
vt 5.9721 -0.2826
vt 5.8640 0.3076
vt 5.7100 0.2786
vt 5.8259 -0.3101
vt 5.8640 0.8591
vt 5.8661 0.8815
vt 5.7122 0.8965
vt 5.7100 0.8741
vt 0.6920 0.8815
vt 1.2822 0.8815
vt 1.2826 0.8591
vt 0.6924 0.8591
vt 0.6655 0.8441
vt 1.2570 0.8441
vt 1.2567 0.8665
vt 0.6651 0.8665
vt 6.0201 0.3349
vt 6.1205 -0.2567
vt 5.9743 -0.2822
vt 5.8661 0.3080
vt 6.1205 0.8665
vt 6.1183 0.8441
vt 5.9721 0.8591
vt 5.9743 0.8815
vt 6.1183 -0.2570
vt 6.0179 0.3345
vt 5.8640 0.3076
vt 5.9721 -0.2826
vt 6.0179 0.8441
vt 6.0201 0.8665
vt 5.8661 0.8815
vt 5.8640 0.8591
vt 0.6651 0.8665
vt 1.2567 0.8665
vt 1.2570 0.8441
vt 0.6655 0.8441
vt 0.6406 0.8291
vt 1.2334 0.8291
vt 1.2331 0.8515
vt 0.6403 0.8515
vt 6.1740 0.3597
vt 6.2667 -0.2331
vt 6.1205 -0.2567
vt 6.0201 0.3349
vt 6.2667 0.8515
vt 6.2646 0.8291
vt 6.1183 0.8441
vt 6.1205 0.8665
vt 6.2646 -0.2334
vt 6.1719 0.3594
vt 6.0179 0.3345
vt 6.1183 -0.2570
vt 6.1719 0.8291
vt 6.1740 0.8515
vt 6.0201 0.8665
vt 6.0179 0.8441
vt 0.6403 0.8515
vt 1.2331 0.8515
vt 1.2334 0.8291
vt 0.6406 0.8291
vt 0.6178 0.8141
vt 1.2118 0.8141
vt 1.2115 0.8365
vt 0.6175 0.8365
vt 6.3280 0.3825
vt 6.4130 -0.2115
vt 6.2667 -0.2331
vt 6.1740 0.3597
vt 6.4130 0.8365
vt 6.4108 0.8141
vt 6.2646 0.8291
vt 6.2667 0.8515
vt 6.4108 -0.2118
vt 6.3258 0.3822
vt 6.1719 0.3594
vt 6.2646 -0.2334
vt 6.3258 0.8141
vt 6.3280 0.8365
vt 6.1740 0.8515
vt 6.1719 0.8291
vt 0.6175 0.8365
vt 1.2115 0.8365
vt 1.2118 0.8141
vt 0.6178 0.8141
vt 0.5971 0.7992
vt 1.1921 0.7992
vt 1.1918 0.8215
vt 0.5968 0.8215
vt 6.4819 0.4032
vt 6.5592 -0.1918
vt 6.4130 -0.2115
vt 6.3280 0.3825
vt 6.5592 0.8215
vt 6.5570 0.7992
vt 6.4108 0.8141
vt 6.4130 0.8365
vt 6.5570 -0.1921
vt 6.4797 0.4029
vt 6.3258 0.3822
vt 6.4108 -0.2118
vt 6.4797 0.7992
vt 6.4819 0.8215
vt 6.3280 0.8365
vt 6.3258 0.8141
vt 0.5968 0.8215
vt 1.1918 0.8215
vt 1.1921 0.7992
vt 0.5971 0.7992
vt 0.5783 0.7842
vt 1.1743 0.7842
vt 1.1740 0.8065
vt 0.5781 0.8065
vt 6.6358 0.4219
vt 6.7054 -0.1740
vt 6.5592 -0.1918
vt 6.4819 0.4032
vt 6.7054 0.8065
vt 6.7032 0.7842
vt 6.5570 0.7992
vt 6.5592 0.8215
vt 6.7032 -0.1743
vt 6.6336 0.4217
vt 6.4797 0.4029
vt 6.5570 -0.1921
vt 6.6336 0.7842
vt 6.6358 0.8065
vt 6.4819 0.8215
vt 6.4797 0.7992
vt 0.5781 0.8065
vt 1.1740 0.8065
vt 1.1743 0.7842
vt 0.5783 0.7842
vt 0.5616 0.7692
vt 1.1585 0.7692
vt 1.1582 0.7915
vt 0.5614 0.7915
vt 6.7898 0.4386
vt 6.8516 -0.1582
vt 6.7054 -0.1740
vt 6.6358 0.4219
vt 6.8516 0.7915
vt 6.8494 0.7692
vt 6.7032 0.7842
vt 6.7054 0.8065
vt 6.8494 -0.1585
vt 6.7876 0.4384
vt 6.6336 0.4217
vt 6.7032 -0.1743
vt 6.7876 0.7692
vt 6.7898 0.7915
vt 6.6358 0.8065
vt 6.6336 0.7842
vt 0.5614 0.7915
vt 1.1582 0.7915
vt 1.1585 0.7692
vt 0.5616 0.7692
vt 0.5470 0.7542
vt 1.1445 0.7542
vt 1.1443 0.7765
vt 0.5468 0.7765
vt 6.9437 0.4532
vt 6.9978 -0.1443
vt 6.8516 -0.1582
vt 6.7898 0.4386
vt 6.9978 0.7765
vt 6.9955 0.7542
vt 6.8494 0.7692
vt 6.8516 0.7915
vt 6.9955 -0.1445
vt 6.9415 0.4530
vt 6.7876 0.4384
vt 6.8494 -0.1585
vt 6.9415 0.7542
vt 6.9437 0.7765
vt 6.7898 0.7915
vt 6.7876 0.7692
vt 0.5468 0.7765
vt 1.1443 0.7765
vt 1.1445 0.7542
vt 0.5470 0.7542
vt 0.5343 0.7392
vt 1.1325 0.7392
vt 1.1323 0.7616
vt 0.5341 0.7616
vt 7.0976 0.4659
vt 7.1439 -0.1323
vt 6.9978 -0.1443
vt 6.9437 0.4532
vt 7.1439 0.7616
vt 7.1417 0.7392
vt 6.9955 0.7542
vt 6.9978 0.7765
vt 7.1417 -0.1325
vt 7.0954 0.4657
vt 6.9415 0.4530
vt 6.9955 -0.1445
vt 7.0954 0.7392
vt 7.0976 0.7616
vt 6.9437 0.7765
vt 6.9415 0.7542
vt 0.5341 0.7616
vt 1.1323 0.7616
vt 1.1325 0.7392
vt 0.5343 0.7392
vt 0.5236 0.7243
vt 1.1224 0.7243
vt 1.1223 0.7467
vt 0.5235 0.7467
vt 7.2505 0.4765
vt 7.2891 -0.1223
vt 7.1439 -0.1323
vt 7.0976 0.4659
vt 7.2891 0.7467
vt 7.2870 0.7243
vt 7.1417 0.7392
vt 7.1439 0.7616
vt 7.2870 -0.1224
vt 7.2484 0.4764
vt 7.0954 0.4657
vt 7.1417 -0.1325
vt 7.2484 0.7243
vt 7.2505 0.7467
vt 7.0976 0.7616
vt 7.0954 0.7392
vt 0.5235 0.7467
vt 1.1223 0.7467
vt 1.1224 0.7243
vt 0.5236 0.7243
vt 0.5151 0.7109
vt 1.1143 0.7109
vt 1.1142 0.7334
vt 0.5150 0.7334
vt 7.4013 0.4850
vt 7.4322 -0.1142
vt 7.2891 -0.1223
vt 7.2505 0.4765
vt 7.4322 0.7334
vt 7.4304 0.7109
vt 7.2870 0.7243
vt 7.2891 0.7467
vt 7.4304 -0.1143
vt 7.3995 0.4849
vt 7.2484 0.4764
vt 7.2870 -0.1224
vt 7.3995 0.7109
vt 7.4013 0.7334
vt 7.2505 0.7467
vt 7.2484 0.7243
vt 0.5150 0.7334
vt 1.1142 0.7334
vt 1.1143 0.7109
vt 0.5151 0.7109
vt 0.5085 0.7007
vt 1.1080 0.7007
vt 1.1080 0.7231
vt 0.5084 0.7231
vt 7.5510 0.4916
vt 7.5742 -0.1080
vt 7.4322 -0.1142
vt 7.4013 0.4850
vt 7.5742 0.7231
vt 7.5728 0.7007
vt 7.4304 0.7109
vt 7.4322 0.7334
vt 7.5728 -0.1080
vt 7.5496 0.4915
vt 7.3995 0.4849
vt 7.4304 -0.1143
vt 7.5496 0.7007
vt 7.5510 0.7231
vt 7.4013 0.7334
vt 7.3995 0.7109
vt 0.5084 0.7231
vt 1.1080 0.7231
vt 1.1080 0.7007
vt 0.5085 0.7007
vt 0.5038 0.6934
vt 1.1036 0.6934
vt 1.1035 0.7158
vt 0.5037 0.7158
vt 7.7007 0.4963
vt 7.7161 -0.1035
vt 7.5742 -0.1080
vt 7.5510 0.4916
vt 7.7161 0.7158
vt 7.7152 0.6934
vt 7.5728 0.7007
vt 7.5742 0.7231
vt 7.7152 -0.1036
vt 7.6998 0.4962
vt 7.5496 0.4915
vt 7.5728 -0.1080
vt 7.6998 0.6934
vt 7.7007 0.7158
vt 7.5510 0.7231
vt 7.5496 0.7007
vt 0.5037 0.7158
vt 1.1035 0.7158
vt 1.1036 0.6934
vt 0.5038 0.6934
vt 0.5009 0.6890
vt 1.1009 0.6890
vt 1.1009 0.7115
vt 0.5009 0.7115
vt 7.8503 0.4991
vt 7.8581 -0.1009
vt 7.7161 -0.1035
vt 7.7007 0.4963
vt 7.8581 0.7115
vt 7.8576 0.6890
vt 7.7152 0.6934
vt 7.7161 0.7158
vt 7.8576 -0.1009
vt 7.8499 0.4991
vt 7.6998 0.4962
vt 7.7152 -0.1036
vt 7.8499 0.6890
vt 7.8503 0.7115
vt 7.7007 0.7158
vt 7.6998 0.6934
vt 0.5009 0.7115
vt 1.1009 0.7115
vt 1.1009 0.6890
vt 0.5009 0.6890
vt 0.5000 0.6875
vt 1.1000 0.6875
vt 1.1000 0.7100
vt 0.5000 0.7100
vt 8.0002 0.5000
vt 8.0040 -0.1000
vt 7.8581 -0.1009
vt 7.8503 0.4991
vt 8.0040 0.7100
vt 8.0038 0.6875
vt 7.8576 0.6890
vt 7.8581 0.7115
vt 8.0038 -0.1000
vt 7.9999 0.5000
vt 7.8499 0.4991
vt 7.8576 -0.1009
vt 7.9999 0.6875
vt 8.0002 0.7100
vt 7.8503 0.7115
vt 7.8499 0.6890
vt 1.3908 1.1945
vt 2.0275 1.1945
vt 2.0326 0.7952
vt 1.3959 0.7952
vt 1.3767 0.7804
vt 2.0133 0.7804
vt 2.0083 1.1797
vt 1.3716 1.1797
vt 2.8023 -0.3716
vt 2.8850 -1.0083
vt 2.7369 -1.0275
vt 2.6543 -0.3908
vt 2.8850 1.1797
vt 2.8457 0.7804
vt 2.6977 0.7952
vt 2.7369 1.1945
vt 2.8457 -1.0133
vt 2.7631 -0.3767
vt 2.6150 -0.3959
vt 2.6977 -1.0326
vt 2.7631 0.7804
vt 2.8023 1.1797
vt 2.6543 1.1945
vt 2.6150 0.7952
vt 1.1103 1.0444
vt 1.7306 1.0444
vt 1.7406 0.6450
vt 1.1202 0.6450
vt 1.0818 0.6306
vt 1.7021 0.6306
vt 1.6922 1.0300
vt 1.0718 1.0300
vt 4.2581 -0.0718
vt 4.4234 -0.6922
vt 4.2792 -0.7306
vt 4.1138 -0.1103
vt 4.4234 1.0300
vt 4.3862 0.6306
vt 4.2419 0.6450
vt 4.2792 1.0444
vt 4.3862 -0.7021
vt 4.2208 -0.0818
vt 4.0766 -0.1202
vt 4.2419 -0.7406
vt 4.2208 0.6306
vt 4.2581 1.0300
vt 4.1138 1.0444
vt 4.0766 0.6450
vt 0.7150 0.8945
vt 1.3449 0.8945
vt 1.3525 0.4952
vt 0.7226 0.4952
vt 0.6937 0.4806
vt 1.3236 0.4806
vt 1.3161 0.8799
vt 0.6862 0.8799
vt 5.7805 0.3138
vt 5.9044 -0.3161
vt 5.7580 -0.3449
vt 5.6340 0.2850
vt 5.9044 0.8799
vt 5.8660 0.4806
vt 5.7195 0.4952
vt 5.7580 0.8945
vt 5.8660 -0.3236
vt 5.7420 0.3063
vt 5.5956 0.2774
vt 5.7195 -0.3525
vt 5.7420 0.4806
vt 5.7805 0.8799
vt 5.6340 0.8945
vt 5.5956 0.4952
vt 0.5074 0.7444
vt 1.1481 0.7444
vt 1.1505 0.3450
vt 0.5099 0.3450
vt 0.5002 0.3308
vt 1.1409 0.3308
vt 1.1385 0.7302
vt 0.4978 0.7302
vt 7.3228 0.5022
vt 7.3641 -0.1385
vt 7.2151 -0.1481
vt 7.1738 0.4926
vt 7.3641 0.7302
vt 7.3262 0.3308
vt 7.1772 0.3450
vt 7.2151 0.7444
vt 7.3262 -0.1409
vt 7.2849 0.4998
vt 7.1359 0.4901
vt 7.1772 -0.1505
vt 7.2849 0.3308
vt 7.3228 0.7302
vt 7.1738 0.7444
vt 7.1359 0.3450
vn -1.0000 0.0000 0.0000
vn 1.0000 0.0000 -0.0000
vn 0.0000 -1.0000 0.0000
vn 0.0000 -0.0000 1.0000
vn 0.0000 1.0000 0.0000
vn 0.0000 -0.0000 -1.0000
vn -1.0000 0.0000 0.0000
vn 1.0000 0.0000 -0.0000
vn 0.0000 -1.0000 0.0000
vn 0.0000 -0.0000 1.0000
vn 0.0000 1.0000 0.0000
vn 0.0000 -0.0000 -1.0000
vn -1.0000 0.0000 0.0000
vn 1.0000 0.0000 -0.0000
vn 0.0000 -1.0000 0.0000
vn 0.0000 -0.0000 1.0000
vn 0.0000 1.0000 0.0000
vn 0.0000 -0.0000 -1.0000
vn -1.0000 0.0000 0.0000
vn 1.0000 0.0000 -0.0000
vn 0.0000 -1.0000 0.0000
vn 0.0000 -0.0000 1.0000
vn 0.0000 1.0000 0.0000
vn 0.0000 -0.0000 -1.0000
vn -1.0000 0.0000 0.0000
vn 1.0000 0.0000 -0.0000
vn 0.0000 -1.0000 0.0000
vn 0.0000 -0.0000 1.0000
vn 0.0000 1.0000 0.0000
vn 0.0000 -0.0000 -1.0000
vn -0.9999 -0.0100 0.0064
vn 0.9997 0.0200 -0.0129
vn 0.0099 -1.0000 -0.0001
vn 0.0066 -0.0001 1.0000
vn -0.0102 0.9999 0.0001
vn -0.0066 0.0001 -1.0000
vn -0.9997 -0.0200 0.0129
vn 0.9989 0.0400 -0.0257
vn 0.0293 -0.9996 -0.0008
vn 0.0198 -0.0002 0.9998
vn -0.0308 0.9995 0.0008
vn -0.0199 0.0002 -0.9998
vn -0.9989 -0.0400 0.0257
vn 0.9975 0.0600 -0.0386
vn 0.0487 -0.9988 -0.0019
vn 0.0330 -0.0003 0.9995
vn -0.0512 0.9987 0.0020
vn -0.0331 0.0003 -0.9995
vn -0.9975 -0.0600 0.0386
vn 0.9955 0.0799 -0.0513
vn 0.0681 -0.9977 -0.0035
vn 0.0462 -0.0004 0.9989
vn -0.0716 0.9974 0.0037
vn -0.0463 0.0004 -0.9989
vn -0.9955 -0.0799 0.0513
vn 0.9935 0.0945 -0.0641
vn 0.0874 -0.9962 -0.0056
vn 0.0593 -0.0005 0.9982
vn -0.0919 0.9957 0.0059
vn -0.0596 0.0005 -0.9982
vn -0.9935 -0.0945 0.0641
vn 0.9921 0.0992 -0.0769
vn 0.0965 -0.9953 -0.0075
vn 0.0724 -0.0005 0.9974
vn -0.1015 0.9948 0.0079
vn -0.0726 0.0005 -0.9974
vn -0.9921 -0.0992 0.0769
vn 0.9910 0.0991 -0.0897
vn 0.0963 -0.9953 -0.0087
vn 0.0853 -0.0005 0.9964
vn -0.1013 0.9948 0.0092
vn -0.0856 0.0005 -0.9963
vn -0.9910 -0.0991 0.0897
vn 0.9898 0.0989 -0.1025
vn 0.0960 -0.9953 -0.0099
vn 0.0982 -0.0005 0.9952
vn -0.1011 0.9948 0.0105
vn -0.0984 0.0005 -0.9951
vn -0.9898 -0.0989 0.1025
vn 0.9884 0.0988 -0.1153
vn 0.0958 -0.9953 -0.0112
vn 0.1110 -0.0005 0.9938
vn -0.1008 0.9948 0.0118
vn -0.1113 0.0005 -0.9938
vn -0.9884 -0.0988 0.1153
vn 0.9868 0.0986 -0.1281
vn 0.0955 -0.9954 -0.0124
vn 0.1239 -0.0005 0.9923
vn -0.1005 0.9949 0.0130
vn -0.1242 0.0005 -0.9923
vn -0.9868 -0.0986 0.1281
vn 0.9851 0.0985 -0.1409
vn 0.0951 -0.9954 -0.0136
vn 0.1368 -0.0005 0.9906
vn -0.1001 0.9949 0.0143
vn -0.1370 0.0005 -0.9906
vn -0.9851 -0.0985 0.1409
vn 0.9832 0.0983 -0.1538
vn 0.0948 -0.9954 -0.0148
vn 0.1496 -0.0005 0.9887
vn -0.0997 0.9949 0.0156
vn -0.1499 0.0005 -0.9887
vn -0.9832 -0.0983 0.1538
vn 0.9811 0.0981 -0.1666
vn 0.0944 -0.9954 -0.0160
vn 0.1625 -0.0005 0.9867
vn -0.0993 0.9949 0.0169
vn -0.1628 0.0005 -0.9867
vn -0.9811 -0.0981 0.1666
vn 0.9789 0.0979 -0.1794
vn 0.0940 -0.9954 -0.0172
vn 0.1754 -0.0005 0.9845
vn -0.0989 0.9949 0.0181
vn -0.1756 0.0005 -0.9845
vn -0.9789 -0.0979 0.1794
vn 0.9765 0.0976 -0.1922
vn 0.0935 -0.9954 -0.0184
vn 0.1882 -0.0005 0.9821
vn -0.0984 0.9950 0.0194
vn -0.1885 0.0005 -0.9821
vn -0.9765 -0.0976 0.1922
vn 0.9739 0.0974 -0.2050
vn 0.0930 -0.9955 -0.0196
vn 0.2011 -0.0005 0.9796
vn -0.0979 0.9950 0.0206
vn -0.2014 0.0005 -0.9795
vn -0.9739 -0.0974 0.2050
vn 0.9711 0.0971 -0.2178
vn 0.0925 -0.9955 -0.0208
vn 0.2140 -0.0005 0.9768
vn -0.0973 0.9950 0.0218
vn -0.2142 0.0005 -0.9768
vn -0.9711 -0.0971 0.2178
vn 0.9682 0.0968 -0.2307
vn 0.0920 -0.9955 -0.0219
vn 0.2268 -0.0005 0.9739
vn -0.0968 0.9950 0.0231
vn -0.2271 0.0005 -0.9739
vn -0.9682 -0.0968 0.2307
vn 0.9651 0.0965 -0.2435
vn 0.0914 -0.9956 -0.0231
vn 0.2397 -0.0005 0.9708
vn -0.0962 0.9951 0.0243
vn -0.2400 0.0005 -0.9708
vn -0.9651 -0.0965 0.2435
vn 0.9618 0.0961 -0.2563
vn 0.0907 -0.9956 -0.0242
vn 0.2526 -0.0005 0.9676
vn -0.0955 0.9951 0.0255
vn -0.2528 0.0005 -0.9675
vn -0.9618 -0.0961 0.2563
vn 0.9583 0.0958 -0.2691
vn 0.0901 -0.9956 -0.0253
vn 0.2654 -0.0005 0.9641
vn -0.0948 0.9951 0.0266
vn -0.2657 0.0005 -0.9641
vn -0.9583 -0.0958 0.2691
vn 0.9551 0.0955 -0.2803
vn 0.0897 -0.9956 -0.0263
vn 0.2781 -0.0004 0.9606
vn -0.0938 0.9952 0.0275
vn -0.2783 0.0003 -0.9605
vn -0.9551 -0.0955 0.2803
vn 0.9551 0.0955 -0.2803
vn 0.0915 -0.9954 -0.0269
vn 0.2864 0.0005 0.9581
vn -0.0915 0.9954 0.0269
vn -0.2864 -0.0005 -0.9581
vn -0.9551 -0.0955 0.2803
vn 0.9583 0.0958 -0.2691
vn 0.0942 -0.9952 -0.0264
vn 0.2754 0.0005 0.9613
vn -0.0901 0.9956 0.0253
vn -0.2753 -0.0005 -0.9614
vn -0.9583 -0.0958 0.2691
vn 0.9618 0.0961 -0.2563
vn 0.0952 -0.9951 -0.0254
vn 0.2623 0.0005 0.9650
vn -0.0904 0.9956 0.0241
vn -0.2623 -0.0005 -0.9650
vn -0.9618 -0.0961 0.2563
vn 0.9651 0.0965 -0.2435
vn 0.0958 -0.9951 -0.0242
vn 0.2495 0.0005 0.9684
vn -0.0911 0.9956 0.0230
vn -0.2494 -0.0005 -0.9684
vn -0.9651 -0.0965 0.2435
vn 0.9682 0.0968 -0.2307
vn 0.0965 -0.9951 -0.0230
vn 0.2366 0.0005 0.9716
vn -0.0917 0.9956 0.0218
vn -0.2365 -0.0005 -0.9716
vn -0.9682 -0.0968 0.2307
vn 0.9711 0.0971 -0.2178
vn 0.0971 -0.9950 -0.0218
vn 0.2237 0.0005 0.9747
vn -0.0922 0.9955 0.0207
vn -0.2236 -0.0005 -0.9747
vn -0.9711 -0.0971 0.2178
vn 0.9739 0.0974 -0.2050
vn 0.0976 -0.9950 -0.0206
vn 0.2108 0.0005 0.9775
vn -0.0928 0.9955 0.0195
vn -0.2107 -0.0005 -0.9775
vn -0.9739 -0.0974 0.2050
vn 0.9765 0.0976 -0.1922
vn 0.0982 -0.9950 -0.0193
vn 0.1979 0.0005 0.9802
vn -0.0933 0.9955 0.0184
vn -0.1978 -0.0005 -0.9802
vn -0.9765 -0.0976 0.1922
vn 0.9789 0.0979 -0.1794
vn 0.0987 -0.9950 -0.0181
vn 0.1850 0.0005 0.9827
vn -0.0937 0.9954 0.0172
vn -0.1849 -0.0005 -0.9827
vn -0.9789 -0.0979 0.1794
vn 0.9811 0.0981 -0.1666
vn 0.0991 -0.9949 -0.0168
vn 0.1722 0.0005 0.9851
vn -0.0942 0.9954 0.0160
vn -0.1721 -0.0005 -0.9851
vn -0.9811 -0.0981 0.1666
vn 0.9832 0.0983 -0.1538
vn 0.0995 -0.9949 -0.0156
vn 0.1593 0.0005 0.9872
vn -0.0946 0.9954 0.0148
vn -0.1592 -0.0005 -0.9872
vn -0.9832 -0.0983 0.1538
vn 0.9851 0.0985 -0.1409
vn 0.0999 -0.9949 -0.0143
vn 0.1464 0.0005 0.9892
vn -0.0950 0.9954 0.0136
vn -0.1463 -0.0005 -0.9892
vn -0.9851 -0.0985 0.1409
vn 0.9868 0.0986 -0.1281
vn 0.1003 -0.9949 -0.0130
vn 0.1335 0.0005 0.9910
vn -0.0953 0.9954 0.0124
vn -0.1334 -0.0005 -0.9911
vn -0.9868 -0.0986 0.1281
vn 0.9884 0.0988 -0.1153
vn 0.1006 -0.9949 -0.0117
vn 0.1206 0.0005 0.9927
vn -0.0956 0.9954 0.0112
vn -0.1205 -0.0005 -0.9927
vn -0.9884 -0.0988 0.1153
vn 0.9898 0.0989 -0.1025
vn 0.1009 -0.9948 -0.0105
vn 0.1078 0.0005 0.9942
vn -0.0959 0.9953 0.0099
vn -0.1077 -0.0005 -0.9942
vn -0.9898 -0.0989 0.1025
vn 0.9910 0.0991 -0.0897
vn 0.1012 -0.9948 -0.0092
vn 0.0949 0.0005 0.9955
vn -0.0962 0.9953 0.0087
vn -0.0948 -0.0005 -0.9955
vn -0.9910 -0.0991 0.0897
vn 0.9921 0.0992 -0.0769
vn 0.1014 -0.9948 -0.0079
vn 0.0820 0.0005 0.9966
vn -0.0964 0.9953 0.0075
vn -0.0819 -0.0005 -0.9966
vn -0.9921 -0.0992 0.0769
vn 0.9935 0.0945 -0.0641
vn 0.1016 -0.9948 -0.0066
vn 0.0692 0.0005 0.9976
vn -0.0966 0.9953 0.0062
vn -0.0691 -0.0004 -0.9976
vn -0.9935 -0.0945 0.0641
vn 0.9955 0.0799 -0.0513
vn 0.0922 -0.9957 -0.0048
vn 0.0564 0.0004 0.9984
vn -0.0875 0.9962 0.0045
vn -0.0563 -0.0004 -0.9984
vn -0.9955 -0.0799 0.0513
vn 0.9975 0.0600 -0.0386
vn 0.0718 -0.9974 -0.0028
vn 0.0439 0.0003 0.9990
vn -0.0681 0.9977 0.0026
vn -0.0438 -0.0003 -0.9990
vn -0.9975 -0.0600 0.0386
vn 0.9989 0.0400 -0.0257
vn 0.0513 -0.9987 -0.0013
vn 0.0313 0.0002 0.9995
vn -0.0487 0.9988 0.0013
vn -0.0313 -0.0002 -0.9995
vn -0.9989 -0.0400 0.0257
vn 0.9997 0.0200 -0.0129
vn 0.0308 -0.9995 -0.0004
vn 0.0188 0.0001 0.9998
vn -0.0292 0.9996 0.0004
vn -0.0188 -0.0001 -0.9998
vn -0.9997 -0.0200 0.0129
vn 0.9999 0.0100 -0.0064
vn 0.0101 -0.9999 -0.0001
vn 0.0062 -0.0000 1.0000
vn -0.0098 1.0000 0.0001
vn -0.0063 0.0000 -1.0000
vn -0.9868 -0.0986 0.1281
vn 0.9868 0.0986 -0.1281
vn 0.0978 -0.9951 -0.0127
vn 0.1288 0.0000 0.9917
vn -0.0978 0.9951 0.0127
vn -0.1288 0.0000 -0.9917
vn -0.9618 -0.0961 0.2563
vn 0.9618 0.0961 -0.2563
vn 0.0929 -0.9954 -0.0248
vn 0.2575 -0.0000 0.9663
vn -0.0929 0.9954 0.0248
vn -0.2575 -0.0000 -0.9663
vn -0.9765 -0.0976 0.1922
vn 0.9765 0.0976 -0.1922
vn 0.0958 -0.9952 -0.0189
vn 0.1931 0.0000 0.9812
vn -0.0958 0.9952 0.0189
vn -0.1931 -0.0000 -0.9812
vn -0.9935 -0.0945 0.0641
vn 0.9935 0.0945 -0.0641
vn 0.0943 -0.9955 -0.0061
vn 0.0644 0.0000 0.9979
vn -0.0943 0.9955 0.0061
vn -0.0644 -0.0000 -0.9979
f 1/1/1 2/2/1 3/3/1 4/4/1
f 8/5/2 7/6/2 6/7/2 5/8/2
f 5/9/3 6/10/3 2/11/3 1/12/3
f 6/13/4 7/14/4 3/15/4 2/16/4
f 7/17/5 8/18/5 4/19/5 3/20/5
f 8/21/6 5/22/6 1/23/6 4/24/6
f 9/25/7 10/26/7 11/27/7 12/28/7
f 16/29/8 15/30/8 14/31/8 13/32/8
f 13/33/9 14/34/9 10/35/9 9/36/9
f 14/37/10 15/38/10 11/39/10 10/40/10
f 15/41/11 16/42/11 12/43/11 11/44/11
f 16/45/12 13/46/12 9/47/12 12/48/12
f 17/49/13 18/50/13 19/51/13 20/52/13
f 24/53/14 23/54/14 22/55/14 21/56/14
f 21/57/15 22/58/15 18/59/15 17/60/15
f 22/61/16 23/62/16 19/63/16 18/64/16
f 23/65/17 24/66/17 20/67/17 19/68/17
f 24/69/18 21/70/18 17/71/18 20/72/18
f 25/73/19 26/74/19 27/75/19 28/76/19
f 32/77/20 31/78/20 30/79/20 29/80/20
f 29/81/21 30/82/21 26/83/21 25/84/21
f 30/85/22 31/86/22 27/87/22 26/88/22
f 31/89/23 32/90/23 28/91/23 27/92/23
f 32/93/24 29/94/24 25/95/24 28/96/24
f 33/97/25 34/98/25 35/99/25 36/100/25
f 40/101/26 39/102/26 38/103/26 37/104/26
f 37/105/27 38/106/27 34/107/27 33/108/27
f 38/109/28 39/110/28 35/111/28 34/112/28
f 39/113/29 40/114/29 36/115/29 35/116/29
f 40/117/30 37/118/30 33/119/30 36/120/30
f 41/121/31 42/122/31 43/123/31 44/124/31
f 48/125/32 47/126/32 46/127/32 45/128/32
f 45/129/33 46/130/33 42/131/33 41/132/33
f 46/133/34 47/134/34 43/135/34 42/136/34
f 47/137/35 48/138/35 44/139/35 43/140/35
f 48/141/36 45/142/36 41/143/36 44/144/36
f 49/145/37 50/146/37 51/147/37 52/148/37
f 56/149/38 55/150/38 54/151/38 53/152/38
f 53/153/39 54/154/39 50/155/39 49/156/39
f 54/157/40 55/158/40 51/159/40 50/160/40
f 55/161/41 56/162/41 52/163/41 51/164/41
f 56/165/42 53/166/42 49/167/42 52/168/42
f 57/169/43 58/170/43 59/171/43 60/172/43
f 64/173/44 63/174/44 62/175/44 61/176/44
f 61/177/45 62/178/45 58/179/45 57/180/45
f 62/181/46 63/182/46 59/183/46 58/184/46
f 63/185/47 64/186/47 60/187/47 59/188/47
f 64/189/48 61/190/48 57/191/48 60/192/48
f 65/193/49 66/194/49 67/195/49 68/196/49
f 72/197/50 71/198/50 70/199/50 69/200/50
f 69/201/51 70/202/51 66/203/51 65/204/51
f 70/205/52 71/206/52 67/207/52 66/208/52
f 71/209/53 72/210/53 68/211/53 67/212/53
f 72/213/54 69/214/54 65/215/54 68/216/54
f 73/217/55 74/218/55 75/219/55 76/220/55
f 80/221/56 79/222/56 78/223/56 77/224/56
f 77/225/57 78/226/57 74/227/57 73/228/57
f 78/229/58 79/230/58 75/231/58 74/232/58
f 79/233/59 80/234/59 76/235/59 75/236/59
f 80/237/60 77/238/60 73/239/60 76/240/60
f 81/241/61 82/242/61 83/243/61 84/244/61
f 88/245/62 87/246/62 86/247/62 85/248/62
f 85/249/63 86/250/63 82/251/63 81/252/63
f 86/253/64 87/254/64 83/255/64 82/256/64
f 87/257/65 88/258/65 84/259/65 83/260/65
f 88/261/66 85/262/66 81/263/66 84/264/66
f 89/265/67 90/266/67 91/267/67 92/268/67
f 96/269/68 95/270/68 94/271/68 93/272/68
f 93/273/69 94/274/69 90/275/69 89/276/69
f 94/277/70 95/278/70 91/279/70 90/280/70
f 95/281/71 96/282/71 92/283/71 91/284/71
f 96/285/72 93/286/72 89/287/72 92/288/72
f 97/289/73 98/290/73 99/291/73 100/292/73
f 104/293/74 103/294/74 102/295/74 101/296/74
f 101/297/75 102/298/75 98/299/75 97/300/75
f 102/301/76 103/302/76 99/303/76 98/304/76
f 103/305/77 104/306/77 100/307/77 99/308/77
f 104/309/78 101/310/78 97/311/78 100/312/78
f 105/313/79 106/314/79 107/315/79 108/316/79
f 112/317/80 111/318/80 110/319/80 109/320/80
f 109/321/81 110/322/81 106/323/81 105/324/81
f 110/325/82 111/326/82 107/327/82 106/328/82
f 111/329/83 112/330/83 108/331/83 107/332/83
f 112/333/84 109/334/84 105/335/84 108/336/84
f 113/337/85 114/338/85 115/339/85 116/340/85
f 120/341/86 119/342/86 118/343/86 117/344/86
f 117/345/87 118/346/87 114/347/87 113/348/87
f 118/349/88 119/350/88 115/351/88 114/352/88
f 119/353/89 120/354/89 116/355/89 115/356/89
f 120/357/90 117/358/90 113/359/90 116/360/90
f 121/361/91 122/362/91 123/363/91 124/364/91
f 128/365/92 127/366/92 126/367/92 125/368/92
f 125/369/93 126/370/93 122/371/93 121/372/93
f 126/373/94 127/374/94 123/375/94 122/376/94
f 127/377/95 128/378/95 124/379/95 123/380/95
f 128/381/96 125/382/96 121/383/96 124/384/96
f 129/385/97 130/386/97 131/387/97 132/388/97
f 136/389/98 135/390/98 134/391/98 133/392/98
f 133/393/99 134/394/99 130/395/99 129/396/99
f 134/397/100 135/398/100 131/399/100 130/400/100
f 135/401/101 136/402/101 132/403/101 131/404/101
f 136/405/102 133/406/102 129/407/102 132/408/102
f 137/409/103 138/410/103 139/411/103 140/412/103
f 144/413/104 143/414/104 142/415/104 141/416/104
f 141/417/105 142/418/105 138/419/105 137/420/105
f 142/421/106 143/422/106 139/423/106 138/424/106
f 143/425/107 144/426/107 140/427/107 139/428/107
f 144/429/108 141/430/108 137/431/108 140/432/108
f 145/433/109 146/434/109 147/435/109 148/436/109
f 152/437/110 151/438/110 150/439/110 149/440/110
f 149/441/111 150/442/111 146/443/111 145/444/111
f 150/445/112 151/446/112 147/447/112 146/448/112
f 151/449/113 152/450/113 148/451/113 147/452/113
f 152/453/114 149/454/114 145/455/114 148/456/114
f 153/457/115 154/458/115 155/459/115 156/460/115
f 160/461/116 159/462/116 158/463/116 157/464/116
f 157/465/117 158/466/117 154/467/117 153/468/117
f 158/469/118 159/470/118 155/471/118 154/472/118
f 159/473/119 160/474/119 156/475/119 155/476/119
f 160/477/120 157/478/120 153/479/120 156/480/120
f 161/481/121 162/482/121 163/483/121 164/484/121
f 168/485/122 167/486/122 166/487/122 165/488/122
f 165/489/123 166/490/123 162/491/123 161/492/123
f 166/493/124 167/494/124 163/495/124 162/496/124
f 167/497/125 168/498/125 164/499/125 163/500/125
f 168/501/126 165/502/126 161/503/126 164/504/126
f 169/505/127 170/506/127 171/507/127 172/508/127
f 176/509/128 175/510/128 174/511/128 173/512/128
f 173/513/129 174/514/129 170/515/129 169/516/129
f 174/517/130 175/518/130 171/519/130 170/520/130
f 175/521/131 176/522/131 172/523/131 171/524/131
f 176/525/132 173/526/132 169/527/132 172/528/132
f 177/529/133 178/530/133 179/531/133 180/532/133
f 184/533/134 183/534/134 182/535/134 181/536/134
f 181/537/135 182/538/135 178/539/135 177/540/135
f 182/541/136 183/542/136 179/543/136 178/544/136
f 183/545/137 184/546/137 180/547/137 179/548/137
f 184/549/138 181/550/138 177/551/138 180/552/138
f 185/553/139 186/554/139 187/555/139 188/556/139
f 192/557/140 191/558/140 190/559/140 189/560/140
f 189/561/141 190/562/141 186/563/141 185/564/141
f 190/565/142 191/566/142 187/567/142 186/568/142
f 191/569/143 192/570/143 188/571/143 187/572/143
f 192/573/144 189/574/144 185/575/144 188/576/144
f 193/577/145 194/578/145 195/579/145 196/580/145
f 200/581/146 199/582/146 198/583/146 197/584/146
f 197/585/147 198/586/147 194/587/147 193/588/147
f 198/589/148 199/590/148 195/591/148 194/592/148
f 199/593/149 200/594/149 196/595/149 195/596/149
f 200/597/150 197/598/150 193/599/150 196/600/150
f 201/601/151 202/602/151 203/603/151 204/604/151
f 208/605/152 207/606/152 206/607/152 205/608/152
f 205/609/153 206/610/153 202/611/153 201/612/153
f 206/613/154 207/614/154 203/615/154 202/616/154
f 207/617/155 208/618/155 204/619/155 203/620/155
f 208/621/156 205/622/156 201/623/156 204/624/156
f 209/625/157 210/626/157 211/627/157 212/628/157
f 216/629/158 215/630/158 214/631/158 213/632/158
f 213/633/159 214/634/159 210/635/159 209/636/159
f 214/637/160 215/638/160 211/639/160 210/640/160
f 215/641/161 216/642/161 212/643/161 211/644/161
f 216/645/162 213/646/162 209/647/162 212/648/162
f 217/649/163 218/650/163 219/651/163 220/652/163
f 224/653/164 223/654/164 222/655/164 221/656/164
f 221/657/165 222/658/165 218/659/165 217/660/165
f 222/661/166 223/662/166 219/663/166 218/664/166
f 223/665/167 224/666/167 220/667/167 219/668/167
f 224/669/168 221/670/168 217/671/168 220/672/168
f 225/673/169 226/674/169 227/675/169 228/676/169
f 232/677/170 231/678/170 230/679/170 229/680/170
f 229/681/171 230/682/171 226/683/171 225/684/171
f 230/685/172 231/686/172 227/687/172 226/688/172
f 231/689/173 232/690/173 228/691/173 227/692/173
f 232/693/174 229/694/174 225/695/174 228/696/174
f 233/697/175 234/698/175 235/699/175 236/700/175
f 240/701/176 239/702/176 238/703/176 237/704/176
f 237/705/177 238/706/177 234/707/177 233/708/177
f 238/709/178 239/710/178 235/711/178 234/712/178
f 239/713/179 240/714/179 236/715/179 235/716/179
f 240/717/180 237/718/180 233/719/180 236/720/180
f 241/721/181 242/722/181 243/723/181 244/724/181
f 248/725/182 247/726/182 246/727/182 245/728/182
f 245/729/183 246/730/183 242/731/183 241/732/183
f 246/733/184 247/734/184 243/735/184 242/736/184
f 247/737/185 248/738/185 244/739/185 243/740/185
f 248/741/186 245/742/186 241/743/186 244/744/186
f 249/745/187 250/746/187 251/747/187 252/748/187
f 256/749/188 255/750/188 254/751/188 253/752/188
f 253/753/189 254/754/189 250/755/189 249/756/189
f 254/757/190 255/758/190 251/759/190 250/760/190
f 255/761/191 256/762/191 252/763/191 251/764/191
f 256/765/192 253/766/192 249/767/192 252/768/192
f 257/769/193 258/770/193 259/771/193 260/772/193
f 264/773/194 263/774/194 262/775/194 261/776/194
f 261/777/195 262/778/195 258/779/195 257/780/195
f 262/781/196 263/782/196 259/783/196 258/784/196
f 263/785/197 264/786/197 260/787/197 259/788/197
f 264/789/198 261/790/198 257/791/198 260/792/198
f 265/793/199 266/794/199 267/795/199 268/796/199
f 272/797/200 271/798/200 270/799/200 269/800/200
f 269/801/201 270/802/201 266/803/201 265/804/201
f 270/805/202 271/806/202 267/807/202 266/808/202
f 271/809/203 272/810/203 268/811/203 267/812/203
f 272/813/204 269/814/204 265/815/204 268/816/204
f 273/817/205 274/818/205 275/819/205 276/820/205
f 280/821/206 279/822/206 278/823/206 277/824/206
f 277/825/207 278/826/207 274/827/207 273/828/207
f 278/829/208 279/830/208 275/831/208 274/832/208
f 279/833/209 280/834/209 276/835/209 275/836/209
f 280/837/210 277/838/210 273/839/210 276/840/210
f 281/841/211 282/842/211 283/843/211 284/844/211
f 288/845/212 287/846/212 286/847/212 285/848/212
f 285/849/213 286/850/213 282/851/213 281/852/213
f 286/853/214 287/854/214 283/855/214 282/856/214
f 287/857/215 288/858/215 284/859/215 283/860/215
f 288/861/216 285/862/216 281/863/216 284/864/216
f 289/865/217 290/866/217 291/867/217 292/868/217
f 296/869/218 295/870/218 294/871/218 293/872/218
f 293/873/219 294/874/219 290/875/219 289/876/219
f 294/877/220 295/878/220 291/879/220 290/880/220
f 295/881/221 296/882/221 292/883/221 291/884/221
f 296/885/222 293/886/222 289/887/222 292/888/222
f 297/889/223 298/890/223 299/891/223 300/892/223
f 304/893/224 303/894/224 302/895/224 301/896/224
f 301/897/225 302/898/225 298/899/225 297/900/225
f 302/901/226 303/902/226 299/903/226 298/904/226
f 303/905/227 304/906/227 300/907/227 299/908/227
f 304/909/228 301/910/228 297/911/228 300/912/228
f 305/913/229 306/914/229 307/915/229 308/916/229
f 312/917/230 311/918/230 310/919/230 309/920/230
f 309/921/231 310/922/231 306/923/231 305/924/231
f 310/925/232 311/926/232 307/927/232 306/928/232
f 311/929/233 312/930/233 308/931/233 307/932/233
f 312/933/234 309/934/234 305/935/234 308/936/234
f 313/937/235 314/938/235 315/939/235 316/940/235
f 320/941/236 319/942/236 318/943/236 317/944/236
f 317/945/237 318/946/237 314/947/237 313/948/237
f 318/949/238 319/950/238 315/951/238 314/952/238
f 319/953/239 320/954/239 316/955/239 315/956/239
f 320/957/240 317/958/240 313/959/240 316/960/240
f 321/961/241 322/962/241 323/963/241 324/964/241
f 328/965/242 327/966/242 326/967/242 325/968/242
f 325/969/243 326/970/243 322/971/243 321/972/243
f 326/973/244 327/974/244 323/975/244 322/976/244
f 327/977/245 328/978/245 324/979/245 323/980/245
f 328/981/246 325/982/246 321/983/246 324/984/246
f 329/985/247 330/986/247 331/987/247 332/988/247
f 336/989/248 335/990/248 334/991/248 333/992/248
f 333/993/249 334/994/249 330/995/249 329/996/249
f 334/997/250 335/998/250 331/999/250 330/1000/250
f 335/1001/251 336/1002/251 332/1003/251 331/1004/251
f 336/1005/252 333/1006/252 329/1007/252 332/1008/252
f 337/1009/253 338/1010/253 339/1011/253 340/1012/253
f 344/1013/254 343/1014/254 342/1015/254 341/1016/254
f 341/1017/255 342/1018/255 338/1019/255 337/1020/255
f 342/1021/256 343/1022/256 339/1023/256 338/1024/256
f 343/1025/257 344/1026/257 340/1027/257 339/1028/257
f 344/1029/258 341/1030/258 337/1031/258 340/1032/258
f 345/1033/259 346/1034/259 347/1035/259 348/1036/259
f 352/1037/260 351/1038/260 350/1039/260 349/1040/260
f 349/1041/261 350/1042/261 346/1043/261 345/1044/261
f 350/1045/262 351/1046/262 347/1047/262 346/1048/262
f 351/1049/263 352/1050/263 348/1051/263 347/1052/263
f 352/1053/264 349/1054/264 345/1055/264 348/1056/264
f 353/1057/265 354/1058/265 355/1059/265 356/1060/265
f 360/1061/266 359/1062/266 358/1063/266 357/1064/266
f 357/1065/267 358/1066/267 354/1067/267 353/1068/267
f 358/1069/268 359/1070/268 355/1071/268 354/1072/268
f 359/1073/269 360/1074/269 356/1075/269 355/1076/269
f 360/1077/270 357/1078/270 353/1079/270 356/1080/270
f 361/1081/271 362/1082/271 363/1083/271 364/1084/271
f 368/1085/272 367/1086/272 366/1087/272 365/1088/272
f 365/1089/273 366/1090/273 362/1091/273 361/1092/273
f 366/1093/274 367/1094/274 363/1095/274 362/1096/274
f 367/1097/275 368/1098/275 364/1099/275 363/1100/275
f 368/1101/276 365/1102/276 361/1103/276 364/1104/276
f 369/1105/277 370/1106/277 371/1107/277 372/1108/277
f 376/1109/278 375/1110/278 374/1111/278 373/1112/278
f 373/1113/279 374/1114/279 370/1115/279 369/1116/279
f 374/1117/280 375/1118/280 371/1119/280 370/1120/280
f 375/1121/281 376/1122/281 372/1123/281 371/1124/281
f 376/1125/282 373/1126/282 369/1127/282 372/1128/282
f 377/1129/283 378/1130/283 379/1131/283 380/1132/283
f 384/1133/284 383/1134/284 382/1135/284 381/1136/284
f 381/1137/285 382/1138/285 378/1139/285 377/1140/285
f 382/1141/286 383/1142/286 379/1143/286 378/1144/286
f 383/1145/287 384/1146/287 380/1147/287 379/1148/287
f 384/1149/288 381/1150/288 377/1151/288 380/1152/288
f 385/1153/289 386/1154/289 387/1155/289 388/1156/289
f 392/1157/290 391/1158/290 390/1159/290 389/1160/290
f 389/1161/291 390/1162/291 386/1163/291 385/1164/291
f 390/1165/292 391/1166/292 387/1167/292 386/1168/292
f 391/1169/293 392/1170/293 388/1171/293 387/1172/293
f 392/1173/294 389/1174/294 385/1175/294 388/1176/294
f 393/1177/295 394/1178/295 395/1179/295 396/1180/295
f 400/1181/296 399/1182/296 398/1183/296 397/1184/296
f 397/1185/297 398/1186/297 394/1187/297 393/1188/297
f 398/1189/298 399/1190/298 395/1191/298 394/1192/298
f 399/1193/299 400/1194/299 396/1195/299 395/1196/299
f 400/1197/300 397/1198/300 393/1199/300 396/1200/300
f 401/1201/301 402/1202/301 403/1203/301 404/1204/301
f 408/1205/302 407/1206/302 406/1207/302 405/1208/302
f 405/1209/303 406/1210/303 402/1211/303 401/1212/303
f 406/1213/304 407/1214/304 403/1215/304 402/1216/304
f 407/1217/305 408/1218/305 404/1219/305 403/1220/305
f 408/1221/306 405/1222/306 401/1223/306 404/1224/306
f 409/1225/307 410/1226/307 411/1227/307 412/1228/307
f 416/1229/308 415/1230/308 414/1231/308 413/1232/308
f 413/1233/309 414/1234/309 410/1235/309 409/1236/309
f 414/1237/310 415/1238/310 411/1239/310 410/1240/310
f 415/1241/311 416/1242/311 412/1243/311 411/1244/311
f 416/1245/312 413/1246/312 409/1247/312 412/1248/312
f 417/1249/313 418/1250/313 419/1251/313 420/1252/313
f 424/1253/314 423/1254/314 422/1255/314 421/1256/314
f 421/1257/315 422/1258/315 418/1259/315 417/1260/315
f 422/1261/316 423/1262/316 419/1263/316 418/1264/316
f 423/1265/317 424/1266/317 420/1267/317 419/1268/317
f 424/1269/318 421/1270/318 417/1271/318 420/1272/318
f 425/1273/319 426/1274/319 427/1275/319 428/1276/319
f 432/1277/320 431/1278/320 430/1279/320 429/1280/320
f 429/1281/321 430/1282/321 426/1283/321 425/1284/321
f 430/1285/322 431/1286/322 427/1287/322 426/1288/322
f 431/1289/323 432/1290/323 428/1291/323 427/1292/323
f 432/1293/324 429/1294/324 425/1295/324 428/1296/324
