# road_junction_merge_below_ramp_metal.obj — gray-box hull for Missile Rider.
# GENERATED by tools/gen_road_junctions.py. Do not hand-edit; edit the generator.
o road_junction_merge_below_ramp_metal
v 300.0000 -324.0000 399.6152
v 300.0000 -324.0000 639.6152
v 300.0000 -315.0000 639.6152
v 300.0000 -315.0000 399.6152
v 355.5556 -324.0000 399.6152
v 355.5556 -324.0000 639.6152
v 355.5556 -315.0000 639.6152
v 355.5556 -315.0000 399.6152
v 355.5556 -324.0000 399.6152
v 355.5556 -324.0000 639.6152
v 355.5556 -315.0000 639.6152
v 355.5556 -315.0000 399.6152
v 411.1111 -324.0000 399.6152
v 411.1111 -324.0000 639.6152
v 411.1111 -315.0000 639.6152
v 411.1111 -315.0000 399.6152
v 411.1111 -324.0000 399.6152
v 411.1111 -324.0000 639.6152
v 411.1111 -315.0000 639.6152
v 411.1111 -315.0000 399.6152
v 466.6667 -324.0000 399.6152
v 466.6667 -324.0000 639.6152
v 466.6667 -315.0000 639.6152
v 466.6667 -315.0000 399.6152
v 466.6667 -324.0000 399.6152
v 466.6667 -324.0000 639.6152
v 466.6667 -315.0000 639.6152
v 466.6667 -315.0000 399.6152
v 522.2222 -324.0000 399.6152
v 522.2222 -324.0000 639.6152
v 522.2222 -315.0000 639.6152
v 522.2222 -315.0000 399.6152
v 522.2222 -324.0000 399.6152
v 522.2222 -324.0000 639.6152
v 522.2222 -315.0000 639.6152
v 522.2222 -315.0000 399.6152
v 577.7778 -324.0000 399.6152
v 577.7778 -324.0000 639.6152
v 577.7778 -315.0000 639.6152
v 577.7778 -315.0000 399.6152
v 577.7778 -324.0000 399.6152
v 577.7778 -324.0000 639.6152
v 577.7778 -315.0000 639.6152
v 577.7778 -315.0000 399.6152
v 633.3333 -324.0000 399.6152
v 633.3333 -324.0000 639.6152
v 633.3333 -315.0000 639.6152
v 633.3333 -315.0000 399.6152
v 633.3333 -324.0000 399.6152
v 633.3333 -324.0000 639.6152
v 633.3333 -315.0000 639.6152
v 633.3333 -315.0000 399.6152
v 688.8889 -324.0000 399.6152
v 688.8889 -324.0000 639.6152
v 688.8889 -315.0000 639.6152
v 688.8889 -315.0000 399.6152
v 688.8889 -324.0000 399.6152
v 688.8889 -324.0000 639.6152
v 688.8889 -315.0000 639.6152
v 688.8889 -315.0000 399.6152
v 744.4444 -324.0000 399.6152
v 744.4444 -324.0000 639.6152
v 744.4444 -315.0000 639.6152
v 744.4444 -315.0000 399.6152
v 744.4444 -324.0000 399.6152
v 744.4444 -324.0000 639.6152
v 744.4444 -315.0000 639.6152
v 744.4444 -315.0000 399.6152
v 800.0490 -323.9993 399.6148
v 800.6327 -323.9993 639.6141
v 800.5962 -314.9994 639.6141
v 800.0125 -314.9994 399.6149
v 800.0490 -323.9993 399.6148
v 800.6327 -323.9993 639.6141
v 800.5962 -314.9994 639.6141
v 800.0125 -314.9994 399.6149
v 851.1139 -323.5559 399.3480
v 853.5554 -323.5559 639.3356
v 853.4026 -314.5572 639.3371
v 850.9611 -314.5572 399.3496
v 851.1139 -323.5559 399.3480
v 853.5554 -323.5559 639.3356
v 853.4026 -314.5572 639.3371
v 850.9611 -314.5572 399.3496
v 902.2268 -322.2233 398.5462
v 907.1098 -322.2233 638.4966
v 906.8045 -313.2285 638.5028
v 901.9214 -313.2285 398.5525
v 902.2268 -322.2233 398.5462
v 907.1098 -322.2233 638.4966
v 906.8045 -313.2285 638.5028
v 901.9214 -313.2285 398.5525
v 953.3380 -320.0010 397.2097
v 960.6625 -320.0010 637.0979
v 960.2047 -311.0127 637.1119
v 952.8802 -311.0127 397.2237
v 953.3380 -320.0010 397.2097
v 960.6625 -320.0010 637.0979
v 960.2047 -311.0127 637.1119
v 952.8802 -311.0127 397.2237
v 1004.4466 -316.8872 395.3381
v 1014.2126 -316.8872 635.1393
v 1013.6026 -307.9080 635.1642
v 1003.8366 -307.9080 395.3630
v 1004.4466 -316.8872 395.3381
v 1014.2126 -316.8872 635.1393
v 1013.6026 -307.9080 635.1642
v 1003.8366 -307.9080 395.3630
v 1055.4944 -312.8842 392.9338
v 1067.7019 -312.8842 632.6232
v 1066.9463 -303.9161 632.6616
v 1054.7388 -303.9161 392.9723
v 1055.4944 -312.8842 392.9338
v 1067.7019 -312.8842 632.6232
v 1066.9463 -303.9161 632.6616
v 1054.7388 -303.9161 392.9723
v 1105.9548 -308.1127 390.0302
v 1120.6038 -308.1127 629.5827
v 1119.7655 -299.1520 629.6339
v 1105.1164 -299.1520 390.0814
v 1105.9548 -308.1127 390.0302
v 1120.6038 -308.1127 629.5827
v 1119.7655 -299.1520 629.6339
v 1105.1164 -299.1520 390.0814
v 1155.7600 -303.2417 386.6490
v 1172.8505 -303.2417 626.0397
v 1171.9996 -294.2822 626.1005
v 1154.9091 -294.2822 386.7098
v 1155.7600 -303.2417 386.6490
v 1172.8505 -303.2417 626.0397
v 1171.9996 -294.2822 626.1005
v 1154.9091 -294.2822 386.7098
v 1205.4360 -298.3827 382.7665
v 1224.9680 -298.3827 621.9704
v 1224.1185 -289.4232 622.0398
v 1204.5864 -289.4232 382.8359
v 1205.4360 -298.3827 382.7665
v 1224.9680 -298.3827 621.9704
v 1224.1185 -289.4232 622.0398
v 1204.5864 -289.4232 382.8359
v 1255.1103 -293.5239 378.3737
v 1277.0839 -293.5239 617.3657
v 1276.2358 -284.5643 617.4436
v 1254.2623 -284.5643 378.4517
v 1255.1103 -293.5239 378.3737
v 1277.0839 -293.5239 617.3657
v 1276.2358 -284.5643 617.4436
v 1254.2623 -284.5643 378.4517
v 1304.7830 -288.6651 373.4692
v 1329.1981 -288.6651 612.2241
v 1328.3517 -279.7054 612.3107
v 1303.9366 -279.7054 373.5558
v 1304.7830 -288.6651 373.4692
v 1329.1981 -288.6651 612.2241
v 1328.3517 -279.7054 612.3107
v 1303.9366 -279.7054 373.5558
v 1354.4541 -283.8065 368.0516
v 1381.3107 -283.8065 606.5442
v 1380.4661 -274.8467 606.6393
v 1353.6096 -274.8467 368.1467
v 1354.4541 -283.8065 368.0516
v 1381.3107 -283.8065 606.5442
v 1380.4661 -274.8467 606.6393
v 1353.6096 -274.8467 368.1467
v 1404.1235 -278.9478 362.1191
v 1433.4216 -278.9478 600.3241
v 1432.5791 -269.9880 600.4277
v 1403.2810 -269.9880 362.2227
v 1404.1235 -278.9478 362.1191
v 1433.4216 -278.9478 600.3241
v 1432.5791 -269.9880 600.4277
v 1403.2810 -269.9880 362.2227
v 1453.7913 -274.0893 355.6700
v 1485.5309 -274.0893 593.5619
v 1484.6906 -265.1293 593.6741
v 1452.9510 -265.1293 355.7821
v 1453.7913 -274.0893 355.6700
v 1485.5309 -274.0893 593.5619
v 1484.6906 -265.1293 593.6741
v 1452.9510 -265.1293 355.7821
v 1503.4574 -269.2309 348.7021
v 1537.6385 -269.2309 586.2556
v 1536.8006 -260.2708 586.3762
v 1502.6195 -260.2708 348.8227
v 1503.4574 -269.2309 348.7021
v 1537.6385 -269.2309 586.2556
v 1536.8006 -260.2708 586.3762
v 1502.6195 -260.2708 348.8227
v 1553.1219 -264.3725 341.2134
v 1589.7445 -264.3725 578.4027
v 1588.9092 -255.4123 578.5317
v 1552.2865 -255.4123 341.3424
v 1553.1219 -264.3725 341.2134
v 1589.7445 -264.3725 578.4027
v 1588.9092 -255.4123 578.5317
v 1552.2865 -255.4123 341.3424
v 1602.7847 -259.5142 333.2014
v 1641.8489 -259.5142 570.0009
v 1641.0162 -250.5539 570.1383
v 1601.9521 -250.5539 333.3388
v 1602.7847 -259.5142 333.2014
v 1641.8489 -259.5142 570.0009
v 1641.0162 -250.5539 570.1383
v 1601.9521 -250.5539 333.3388
v 1652.4459 -254.6560 324.6636
v 1693.9516 -254.6560 561.0474
v 1693.1219 -245.6955 561.1931
v 1651.6162 -245.6955 324.8093
v 1652.4459 -254.6560 324.6636
v 1693.9516 -254.6560 561.0474
v 1693.1219 -245.6955 561.1931
v 1651.6162 -245.6955 324.8093
v 1702.1055 -249.7979 315.5972
v 1746.0527 -249.7979 551.5393
v 1745.2260 -240.8372 551.6932
v 1701.2788 -240.8372 315.7512
v 1702.1055 -249.7979 315.5972
v 1746.0527 -249.7979 551.5393
v 1745.2260 -240.8372 551.6932
v 1701.2788 -240.8372 315.7512
v 1751.7634 -244.9398 305.9993
v 1798.1521 -244.9398 541.4735
v 1797.3287 -235.9790 541.6357
v 1750.9400 -235.9790 306.1615
v 1751.7634 -244.9398 305.9993
v 1798.1521 -244.9398 541.4735
v 1797.3287 -235.9790 541.6357
v 1750.9400 -235.9790 306.1615
v 1801.4196 -240.0818 295.8667
v 1850.2498 -240.0818 530.8467
v 1849.4299 -231.1209 531.0171
v 1800.5997 -231.1209 296.0371
v 1801.4196 -240.0818 295.8667
v 1850.2498 -240.0818 530.8467
v 1849.4299 -231.1209 531.0171
v 1800.5997 -231.1209 296.0371
v 1851.0742 -235.2239 285.1961
v 1902.3460 -235.2239 519.6555
v 1901.5296 -226.2628 519.8340
v 1850.2579 -226.2628 285.3746
v 1851.0742 -235.2239 285.1961
v 1902.3460 -235.2239 519.6555
v 1901.5296 -226.2628 519.8340
v 1850.2579 -226.2628 285.3746
v 1900.7272 -230.3661 273.9838
v 1954.4405 -230.3661 507.8959
v 1953.6279 -221.4048 508.0825
v 1899.9146 -221.4048 274.1704
v 1900.7272 -230.3661 273.9838
v 1954.4405 -230.3661 507.8959
v 1953.6279 -221.4048 508.0825
v 1899.9146 -221.4048 274.1704
v 1950.3785 -225.5084 262.2262
v 2006.5333 -225.5084 495.5642
v 2005.7247 -216.5469 495.7588
v 1949.5699 -216.5469 262.4208
v 1950.3785 -225.5084 262.2262
v 2006.5333 -225.5084 495.5642
v 2005.7247 -216.5469 495.7588
v 1949.5699 -216.5469 262.4208
v 2000.0281 -220.6507 249.9191
v 2058.6245 -220.6507 482.6561
v 2057.8200 -211.6890 482.8586
v 1999.2237 -211.6890 250.1217
v 2000.0281 -220.6507 249.9191
v 2058.6245 -220.6507 482.6561
v 2057.8200 -211.6890 482.8586
v 1999.2237 -211.6890 250.1217
v 2049.6761 -215.7931 237.0585
v 2110.7140 -215.7931 469.1670
v 2109.9139 -206.8312 469.3774
v 2048.8760 -206.8312 237.2689
v 2049.6761 -215.7931 237.0585
v 2110.7140 -215.7931 469.1670
v 2109.9139 -206.8312 469.3774
v 2048.8760 -206.8312 237.2689
v 2099.3225 -210.9356 223.6397
v 2162.8019 -210.9356 455.0924
v 2162.0063 -201.9735 455.3106
v 2098.5269 -201.9735 223.8579
v 2099.3225 -210.9356 223.6397
v 2162.8019 -210.9356 455.0924
v 2162.0063 -201.9735 455.3106
v 2098.5269 -201.9735 223.8579
v 2149.1262 -206.0779 209.6233
v 2214.7404 -206.0779 440.4799
v 2213.9488 -197.1156 440.7049
v 2148.3346 -197.1156 209.8483
v 2149.1262 -206.0779 209.6233
v 2214.7404 -206.0779 440.4799
v 2213.9488 -197.1156 440.7049
v 2148.3346 -197.1156 209.8483
v 2200.0352 -201.2184 194.9358
v 2265.6494 -201.2184 425.7924
v 2264.8579 -192.2561 426.0174
v 2199.2437 -192.2561 195.1608
v 2200.0352 -201.2184 194.9358
v 2265.6494 -201.2184 425.7924
v 2264.8579 -192.2561 426.0174
v 2199.2437 -192.2561 195.1608
v 2252.0498 -196.3571 180.4496
v 2315.5292 -196.3571 411.9023
v 2314.7336 -187.3950 412.1205
v 2251.2541 -187.3950 180.6678
v 2252.0498 -196.3571 180.4496
v 2315.5292 -196.3571 411.9023
v 2314.7336 -187.3950 412.1205
v 2251.2541 -187.3950 180.6678
v 2304.2216 -191.4956 166.5206
v 2365.2595 -191.4956 398.6291
v 2364.4593 -182.5337 398.8395
v 2303.4215 -182.5337 166.7310
v 2304.2216 -191.4956 166.5206
v 2365.2595 -191.4956 398.6291
v 2364.4593 -182.5337 398.8395
v 2303.4215 -182.5337 166.7310
v 2356.3918 -186.6342 153.1785
v 2414.9881 -186.6342 385.9154
v 2414.1837 -177.6725 386.1180
v 2355.5873 -177.6725 153.3811
v 2356.3918 -186.6342 153.1785
v 2414.9881 -186.6342 385.9154
v 2414.1837 -177.6725 386.1180
v 2355.5873 -177.6725 153.3811
v 2408.5603 -181.7728 140.4186
v 2464.7151 -181.7728 373.7567
v 2463.9065 -172.8113 373.9513
v 2407.7517 -172.8113 140.6132
v 2408.5603 -181.7728 140.4186
v 2464.7151 -181.7728 373.7567
v 2463.9065 -172.8113 373.9513
v 2407.7517 -172.8113 140.6132
v 2460.7272 -176.9116 128.2364
v 2514.4405 -176.9116 362.1485
v 2513.6279 -167.9502 362.3351
v 2459.9146 -167.9502 128.4229
v 2460.7272 -176.9116 128.2364
v 2514.4405 -176.9116 362.1485
v 2513.6279 -167.9502 362.3351
v 2459.9146 -167.9502 128.4229
v 2512.8924 -172.0504 116.6275
v 2564.1642 -172.0504 351.0868
v 2563.3478 -163.0892 351.2654
v 2512.0761 -163.0892 116.8060
v 2512.8924 -172.0504 116.6275
v 2564.1642 -172.0504 351.0868
v 2563.3478 -163.0892 351.2654
v 2512.0761 -163.0892 116.8060
v 2565.0560 -167.1893 105.5879
v 2613.8862 -167.1893 340.5679
v 2613.0663 -158.2283 340.7383
v 2564.2360 -158.2283 105.7583
v 2565.0560 -167.1893 105.5879
v 2613.8862 -167.1893 340.5679
v 2613.0663 -158.2283 340.7383
v 2564.2360 -158.2283 105.7583
v 2617.2179 -162.3282 95.1139
v 2663.6066 -162.3282 330.5880
v 2662.7832 -153.3674 330.7502
v 2616.3945 -153.3674 95.2761
v 2617.2179 -162.3282 95.1139
v 2663.6066 -162.3282 330.5880
v 2662.7832 -153.3674 330.7502
v 2616.3945 -153.3674 95.2761
v 2669.3782 -157.4673 85.2018
v 2713.3254 -157.4673 321.1438
v 2712.4987 -148.5066 321.2978
v 2668.5515 -148.5066 85.3558
v 2669.3782 -157.4673 85.2018
v 2713.3254 -157.4673 321.1438
v 2712.4987 -148.5066 321.2978
v 2668.5515 -148.5066 85.3558
v 2721.5368 -152.6064 75.8483
v 2763.0425 -152.6064 312.2321
v 2762.2128 -143.6459 312.3778
v 2720.7071 -143.6459 75.9940
v 2721.5368 -152.6064 75.8483
v 2763.0425 -152.6064 312.2321
v 2762.2128 -143.6459 312.3778
v 2720.7071 -143.6459 75.9940
v 2773.6938 -147.7456 67.0503
v 2812.7580 -147.7456 303.8498
v 2811.9253 -138.7853 303.9871
v 2772.8612 -138.7853 67.1877
v 2773.6938 -147.7456 67.0503
v 2812.7580 -147.7456 303.8498
v 2811.9253 -138.7853 303.9871
v 2772.8612 -138.7853 67.1877
v 2825.8492 -142.8849 58.8048
v 2862.4718 -142.8849 295.9941
v 2861.6364 -133.9247 296.1231
v 2825.0138 -133.9247 58.9338
v 2825.8492 -142.8849 58.8048
v 2862.4718 -142.8849 295.9941
v 2861.6364 -133.9247 296.1231
v 2825.0138 -133.9247 58.9338
v 2878.0029 -138.0243 51.1090
v 2912.1840 -138.0243 288.6625
v 2911.3461 -129.0642 288.7831
v 2877.1649 -129.0642 51.2296
v 2878.0029 -138.0243 51.1090
v 2912.1840 -138.0243 288.6625
v 2911.3461 -129.0642 288.7831
v 2877.1649 -129.0642 51.2296
v 2930.1549 -133.1637 43.9605
v 2961.8945 -133.1637 281.8525
v 2961.0542 -124.2037 281.9646
v 2929.3146 -124.2037 44.0726
v 2930.1549 -133.1637 43.9605
v 2961.8945 -133.1637 281.8525
v 2961.0542 -124.2037 281.9646
v 2929.3146 -124.2037 44.0726
v 2982.3053 -128.3032 37.3568
v 3011.6034 -128.3032 275.5618
v 3010.7609 -119.3433 275.6654
v 2981.4628 -119.3433 37.4604
v 2982.3053 -128.3032 37.3568
v 3011.6034 -128.3032 275.5618
v 3010.7609 -119.3433 275.6654
v 2981.4628 -119.3433 37.4604
v 3034.4541 -123.4428 31.2958
v 3061.3107 -123.4428 269.7884
v 3060.4661 -114.4830 269.8835
v 3033.6096 -114.4830 31.3909
v 3034.4541 -123.4428 31.2958
v 3061.3107 -123.4428 269.7884
v 3060.4661 -114.4830 269.8835
v 3033.6096 -114.4830 31.3909
v 3086.6012 -118.5825 25.7755
v 3111.0163 -118.5825 264.5304
v 3110.1699 -109.6228 264.6169
v 3085.7548 -109.6228 25.8620
v 3086.6012 -118.5825 25.7755
v 3111.0163 -118.5825 264.5304
v 3110.1699 -109.6228 264.6169
v 3085.7548 -109.6228 25.8620
v 3138.7467 -113.7222 20.7941
v 3160.7203 -113.7222 259.7860
v 3159.8722 -104.7626 259.8640
v 3137.8986 -104.7626 20.8720
v 3138.7467 -113.7222 20.7941
v 3160.7203 -113.7222 259.7860
v 3159.8722 -104.7626 259.8640
v 3137.8986 -104.7626 20.8720
v 3190.8905 -108.8621 16.3499
v 3210.4226 -108.8621 255.5538
v 3209.5730 -99.9025 255.6232
v 3190.0410 -99.9025 16.4193
v 3190.8905 -108.8621 16.3499
v 3210.4226 -108.8621 255.5538
v 3209.5730 -99.9025 255.6232
v 3190.0410 -99.9025 16.4193
v 3243.0327 -104.0020 12.4416
v 3260.1232 -104.0020 251.8323
v 3259.2724 -95.0425 251.8930
v 3242.1818 -95.0425 12.5023
v 3243.0327 -104.0020 12.4416
v 3260.1232 -104.0020 251.8323
v 3259.2724 -95.0425 251.8930
v 3242.1818 -95.0425 12.5023
v 3295.0457 -99.1541 9.0756
v 3309.6947 -99.1541 248.6281
v 3308.8564 -90.1933 248.6794
v 3294.2073 -90.1933 9.1268
v 3295.0457 -99.1541 9.0756
v 3309.6947 -99.1541 248.6281
v 3308.8564 -90.1933 248.6794
v 3294.2073 -90.1933 9.1268
v 3346.4035 -94.5210 6.2737
v 3358.6110 -94.5210 245.9630
v 3357.8554 -85.5529 246.0015
v 3345.6479 -85.5529 6.3122
v 3346.4035 -94.5210 6.2737
v 3358.6110 -94.5210 245.9630
v 3357.8554 -85.5529 246.0015
v 3345.6479 -85.5529 6.3122
v 3397.1738 -90.7258 4.0122
v 3406.9399 -90.7258 243.8134
v 3406.3299 -81.7465 243.8383
v 3396.5639 -81.7465 4.0370
v 3397.1738 -90.7258 4.0122
v 3406.9399 -90.7258 243.8134
v 3406.3299 -81.7465 243.8383
v 3396.5639 -81.7465 4.0370
v 3447.8835 -87.7813 2.2564
v 3455.2080 -87.7813 242.1446
v 3454.7502 -78.7929 242.1586
v 3447.4256 -78.7929 2.2704
v 3447.8835 -87.7813 2.2564
v 3455.2080 -87.7813 242.1446
v 3454.7502 -78.7929 242.1586
v 3447.4256 -78.7929 2.2704
v 3498.5905 -85.6799 1.0027
v 3503.4735 -85.6799 240.9530
v 3503.1681 -76.6851 240.9592
v 3498.2851 -76.6851 1.0089
v 3498.5905 -85.6799 1.0027
v 3503.4735 -85.6799 240.9530
v 3503.1681 -76.6851 240.9592
v 3498.2851 -76.6851 1.0089
v 3549.2957 -84.4199 0.2506
v 3551.7372 -84.4199 240.2382
v 3551.5844 -75.4212 240.2398
v 3549.1429 -75.4212 0.2522
v 3549.2957 -84.4199 0.2506
v 3551.7372 -84.4199 240.2382
v 3551.5844 -75.4212 240.2398
v 3549.1429 -75.4212 0.2522
v 3600.1024 -83.9970 -0.0021
v 3601.3231 -83.9970 239.9948
v 3601.2467 -74.9973 239.9952
v 3600.0260 -74.9973 -0.0017
vt 1.4990 1.3100
vt 2.0990 1.3100
vt 2.0990 1.2875
vt 1.4990 1.2875
vt 1.4990 1.2875
vt 2.0990 1.2875
vt 2.0990 1.3100
vt 1.4990 1.3100
vt 1.3889 -0.4990
vt 1.3889 -1.0990
vt 1.2500 -1.0990
vt 1.2500 -0.4990
vt 1.3889 1.3100
vt 1.3889 1.2875
vt 1.2500 1.2875
vt 1.2500 1.3100
vt 1.3889 -1.0990
vt 1.3889 -0.4990
vt 1.2500 -0.4990
vt 1.2500 -1.0990
vt 1.3889 1.2875
vt 1.3889 1.3100
vt 1.2500 1.3100
vt 1.2500 1.2875
vt 1.4990 1.3100
vt 2.0990 1.3100
vt 2.0990 1.2875
vt 1.4990 1.2875
vt 1.4990 1.2875
vt 2.0990 1.2875
vt 2.0990 1.3100
vt 1.4990 1.3100
vt 1.5278 -0.4990
vt 1.5278 -1.0990
vt 1.3889 -1.0990
vt 1.3889 -0.4990
vt 1.5278 1.3100
vt 1.5278 1.2875
vt 1.3889 1.2875
vt 1.3889 1.3100
vt 1.5278 -1.0990
vt 1.5278 -0.4990
vt 1.3889 -0.4990
vt 1.3889 -1.0990
vt 1.5278 1.2875
vt 1.5278 1.3100
vt 1.3889 1.3100
vt 1.3889 1.2875
vt 1.4990 1.3100
vt 2.0990 1.3100
vt 2.0990 1.2875
vt 1.4990 1.2875
vt 1.4990 1.2875
vt 2.0990 1.2875
vt 2.0990 1.3100
vt 1.4990 1.3100
vt 1.6667 -0.4990
vt 1.6667 -1.0990
vt 1.5278 -1.0990
vt 1.5278 -0.4990
vt 1.6667 1.3100
vt 1.6667 1.2875
vt 1.5278 1.2875
vt 1.5278 1.3100
vt 1.6667 -1.0990
vt 1.6667 -0.4990
vt 1.5278 -0.4990
vt 1.5278 -1.0990
vt 1.6667 1.2875
vt 1.6667 1.3100
vt 1.5278 1.3100
vt 1.5278 1.2875
vt 1.4990 1.3100
vt 2.0990 1.3100
vt 2.0990 1.2875
vt 1.4990 1.2875
vt 1.4990 1.2875
vt 2.0990 1.2875
vt 2.0990 1.3100
vt 1.4990 1.3100
vt 1.8056 -0.4990
vt 1.8056 -1.0990
vt 1.6667 -1.0990
vt 1.6667 -0.4990
vt 1.8056 1.3100
vt 1.8056 1.2875
vt 1.6667 1.2875
vt 1.6667 1.3100
vt 1.8056 -1.0990
vt 1.8056 -0.4990
vt 1.6667 -0.4990
vt 1.6667 -1.0990
vt 1.8056 1.2875
vt 1.8056 1.3100
vt 1.6667 1.3100
vt 1.6667 1.2875
vt 1.4990 1.3100
vt 2.0990 1.3100
vt 2.0990 1.2875
vt 1.4990 1.2875
vt 1.4990 1.2875
vt 2.0990 1.2875
vt 2.0990 1.3100
vt 1.4990 1.3100
vt 1.9444 -0.4990
vt 1.9444 -1.0990
vt 1.8056 -1.0990
vt 1.8056 -0.4990
vt 1.9444 1.3100
vt 1.9444 1.2875
vt 1.8056 1.2875
vt 1.8056 1.3100
vt 1.9444 -1.0990
vt 1.9444 -0.4990
vt 1.8056 -0.4990
vt 1.8056 -1.0990
vt 1.9444 1.2875
vt 1.9444 1.3100
vt 1.8056 1.3100
vt 1.8056 1.2875
vt 1.4990 1.3100
vt 2.0990 1.3100
vt 2.0990 1.2875
vt 1.4990 1.2875
vt 1.4990 1.2875
vt 2.0990 1.2875
vt 2.0990 1.3100
vt 1.4990 1.3100
vt 2.0833 -0.4990
vt 2.0833 -1.0990
vt 1.9444 -1.0990
vt 1.9444 -0.4990
vt 2.0833 1.3100
vt 2.0833 1.2875
vt 1.9444 1.2875
vt 1.9444 1.3100
vt 2.0833 -1.0990
vt 2.0833 -0.4990
vt 1.9444 -0.4990
vt 1.9444 -1.0990
vt 2.0833 1.2875
vt 2.0833 1.3100
vt 1.9444 1.3100
vt 1.9444 1.2875
vt 1.4990 1.3100
vt 2.0990 1.3100
vt 2.0990 1.2875
vt 1.4990 1.2875
vt 1.4990 1.2875
vt 2.0990 1.2875
vt 2.0990 1.3100
vt 1.4990 1.3100
vt 2.2222 -0.4990
vt 2.2222 -1.0990
vt 2.0833 -1.0990
vt 2.0833 -0.4990
vt 2.2222 1.3100
vt 2.2222 1.2875
vt 2.0833 1.2875
vt 2.0833 1.3100
vt 2.2222 -1.0990
vt 2.2222 -0.4990
vt 2.0833 -0.4990
vt 2.0833 -1.0990
vt 2.2222 1.2875
vt 2.2222 1.3100
vt 2.0833 1.3100
vt 2.0833 1.2875
vt 1.4990 1.3100
vt 2.0990 1.3100
vt 2.0990 1.2875
vt 1.4990 1.2875
vt 1.4990 1.2875
vt 2.0990 1.2875
vt 2.0990 1.3100
vt 1.4990 1.3100
vt 2.3611 -0.4990
vt 2.3611 -1.0990
vt 2.2222 -1.0990
vt 2.2222 -0.4990
vt 2.3611 1.3100
vt 2.3611 1.2875
vt 2.2222 1.2875
vt 2.2222 1.3100
vt 2.3611 -1.0990
vt 2.3611 -0.4990
vt 2.2222 -0.4990
vt 2.2222 -1.0990
vt 2.3611 1.2875
vt 2.3611 1.3100
vt 2.2222 1.3100
vt 2.2222 1.2875
vt 1.4990 1.3100
vt 2.0990 1.3100
vt 2.0990 1.2875
vt 1.4990 1.2875
vt 1.4990 1.2875
vt 2.0990 1.2875
vt 2.0990 1.3100
vt 1.4990 1.3100
vt 2.5001 -0.4990
vt 2.5016 -1.0990
vt 2.3611 -1.0990
vt 2.3611 -0.4990
vt 2.5016 1.3100
vt 2.5015 1.2875
vt 2.3611 1.2875
vt 2.3611 1.3100
vt 2.5015 -1.0990
vt 2.5000 -0.4990
vt 2.3611 -0.4990
vt 2.3611 -1.0990
vt 2.5000 1.2875
vt 2.5001 1.3100
vt 2.3611 1.3100
vt 2.3611 1.2875
vt 1.4990 1.3100
vt 2.0990 1.3100
vt 2.0990 1.2875
vt 1.4990 1.2875
vt 1.4984 1.2864
vt 2.0983 1.2864
vt 2.0983 1.3089
vt 1.4984 1.3089
vt 2.6278 -0.4984
vt 2.6339 -1.0983
vt 2.5016 -1.0990
vt 2.5001 -0.4990
vt 2.6339 1.3089
vt 2.6335 1.2864
vt 2.5015 1.2875
vt 2.5016 1.3100
vt 2.6335 -1.0983
vt 2.6274 -0.4984
vt 2.5000 -0.4990
vt 2.5015 -1.0990
vt 2.6274 1.2864
vt 2.6278 1.3089
vt 2.5001 1.3100
vt 2.5000 1.2875
vt 1.4984 1.3089
vt 2.0983 1.3089
vt 2.0983 1.2864
vt 1.4984 1.2864
vt 1.4964 1.2831
vt 2.0963 1.2831
vt 2.0962 1.3056
vt 1.4964 1.3056
vt 2.7556 -0.4964
vt 2.7678 -1.0962
vt 2.6339 -1.0983
vt 2.6278 -0.4984
vt 2.7678 1.3056
vt 2.7670 1.2831
vt 2.6335 1.2864
vt 2.6339 1.3089
vt 2.7670 -1.0963
vt 2.7548 -0.4964
vt 2.6274 -0.4984
vt 2.6335 -1.0983
vt 2.7548 1.2831
vt 2.7556 1.3056
vt 2.6278 1.3089
vt 2.6274 1.2864
vt 1.4964 1.3056
vt 2.0962 1.3056
vt 2.0963 1.2831
vt 1.4964 1.2831
vt 1.4931 1.2775
vt 2.0928 1.2775
vt 2.0927 1.3000
vt 1.4930 1.3000
vt 2.8833 -0.4930
vt 2.9017 -1.0927
vt 2.7678 -1.0962
vt 2.7556 -0.4964
vt 2.9017 1.3000
vt 2.9005 1.2775
vt 2.7670 1.2831
vt 2.7678 1.3056
vt 2.9005 -1.0928
vt 2.8822 -0.4931
vt 2.7548 -0.4964
vt 2.7670 -1.0963
vt 2.8822 1.2775
vt 2.8833 1.3000
vt 2.7556 1.3056
vt 2.7548 1.2831
vt 1.4930 1.3000
vt 2.0927 1.3000
vt 2.0928 1.2775
vt 1.4931 1.2775
vt 1.4884 1.2698
vt 2.0879 1.2698
vt 2.0878 1.2922
vt 1.4883 1.2922
vt 3.0111 -0.4883
vt 3.0355 -1.0878
vt 2.9017 -1.0927
vt 2.8833 -0.4930
vt 3.0355 1.2922
vt 3.0340 1.2698
vt 2.9005 1.2775
vt 2.9017 1.3000
vt 3.0340 -1.0879
vt 3.0096 -0.4884
vt 2.8822 -0.4931
vt 2.9005 -1.0928
vt 3.0096 1.2698
vt 3.0111 1.2922
vt 2.8833 1.3000
vt 2.8822 1.2775
vt 1.4883 1.2922
vt 2.0878 1.2922
vt 2.0879 1.2698
vt 1.4884 1.2698
vt 1.4824 1.2598
vt 2.0817 1.2598
vt 2.0816 1.2822
vt 1.4823 1.2822
vt 3.1387 -0.4823
vt 3.1693 -1.0816
vt 3.0355 -1.0878
vt 3.0111 -0.4883
vt 3.1693 1.2822
vt 3.1674 1.2598
vt 3.0340 1.2698
vt 3.0355 1.2922
vt 3.1674 -1.0817
vt 3.1368 -0.4824
vt 3.0096 -0.4884
vt 3.0340 -1.0879
vt 3.1368 1.2598
vt 3.1387 1.2822
vt 3.0111 1.2922
vt 3.0096 1.2698
vt 1.4823 1.2822
vt 2.0816 1.2822
vt 2.0817 1.2598
vt 1.4824 1.2598
vt 1.4752 1.2479
vt 2.0741 1.2479
vt 2.0740 1.2703
vt 1.4751 1.2703
vt 3.2649 -0.4751
vt 3.3015 -1.0740
vt 3.1693 -1.0816
vt 3.1387 -0.4823
vt 3.3015 1.2703
vt 3.2994 1.2479
vt 3.1674 1.2598
vt 3.1693 1.2822
vt 3.2994 -1.0741
vt 3.2628 -0.4752
vt 3.1368 -0.4824
vt 3.1674 -1.0817
vt 3.2628 1.2479
vt 3.2649 1.2703
vt 3.1387 1.2822
vt 3.1368 1.2598
vt 1.4751 1.2703
vt 2.0740 1.2703
vt 2.0741 1.2479
vt 1.4752 1.2479
vt 1.4668 1.2357
vt 2.0653 1.2357
vt 2.0651 1.2581
vt 1.4666 1.2581
vt 3.3894 -0.4666
vt 3.4321 -1.0651
vt 3.3015 -1.0740
vt 3.2649 -0.4751
vt 3.4321 1.2581
vt 3.4300 1.2357
vt 3.2994 1.2479
vt 3.3015 1.2703
vt 3.4300 -1.0653
vt 3.3873 -0.4668
vt 3.2628 -0.4752
vt 3.2994 -1.0741
vt 3.3873 1.2357
vt 3.3894 1.2581
vt 3.2649 1.2703
vt 3.2628 1.2479
vt 1.4666 1.2581
vt 2.0651 1.2581
vt 2.0653 1.2357
vt 1.4668 1.2357
vt 1.4571 1.2236
vt 2.0551 1.2236
vt 2.0549 1.2460
vt 1.4569 1.2460
vt 3.5136 -0.4569
vt 3.5624 -1.0549
vt 3.4321 -1.0651
vt 3.3894 -0.4666
vt 3.5624 1.2460
vt 3.5603 1.2236
vt 3.4300 1.2357
vt 3.4321 1.2581
vt 3.5603 -1.0551
vt 3.5115 -0.4571
vt 3.3873 -0.4668
vt 3.4300 -1.0653
vt 3.5115 1.2236
vt 3.5136 1.2460
vt 3.3894 1.2581
vt 3.3873 1.2357
vt 1.4569 1.2460
vt 2.0549 1.2460
vt 2.0551 1.2236
vt 1.4571 1.2236
vt 1.4461 1.2114
vt 2.0436 1.2114
vt 2.0434 1.2338
vt 1.4459 1.2338
vt 3.6378 -0.4459
vt 3.6927 -1.0434
vt 3.5624 -1.0549
vt 3.5136 -0.4569
vt 3.6927 1.2338
vt 3.6906 1.2114
vt 3.5603 1.2236
vt 3.5624 1.2460
vt 3.6906 -1.0436
vt 3.6357 -0.4461
vt 3.5115 -0.4571
vt 3.5603 -1.0551
vt 3.6357 1.2114
vt 3.6378 1.2338
vt 3.5136 1.2460
vt 3.5115 1.2236
vt 1.4459 1.2338
vt 2.0434 1.2338
vt 2.0436 1.2114
vt 1.4461 1.2114
vt 1.4339 1.1993
vt 2.0308 1.1993
vt 2.0306 1.2217
vt 1.4337 1.2217
vt 3.7620 -0.4337
vt 3.8230 -1.0306
vt 3.6927 -1.0434
vt 3.6378 -0.4459
vt 3.8230 1.2217
vt 3.8209 1.1993
vt 3.6906 1.2114
vt 3.6927 1.2338
vt 3.8209 -1.0308
vt 3.7598 -0.4339
vt 3.6357 -0.4461
vt 3.6906 -1.0436
vt 3.7598 1.1993
vt 3.7620 1.2217
vt 3.6378 1.2338
vt 3.6357 1.2114
vt 1.4337 1.2217
vt 2.0306 1.2217
vt 2.0308 1.1993
vt 1.4339 1.1993
vt 1.4204 1.1871
vt 2.0166 1.1871
vt 2.0164 1.2095
vt 1.4201 1.2095
vt 3.8861 -0.4201
vt 3.9533 -1.0164
vt 3.8230 -1.0306
vt 3.7620 -0.4337
vt 3.9533 1.2095
vt 3.9512 1.1871
vt 3.8209 1.1993
vt 3.8230 1.2217
vt 3.9512 -1.0166
vt 3.8840 -0.4204
vt 3.7598 -0.4339
vt 3.8209 -1.0308
vt 3.8840 1.1871
vt 3.8861 1.2095
vt 3.7620 1.2217
vt 3.7598 1.1993
vt 1.4201 1.2095
vt 2.0164 1.2095
vt 2.0166 1.1871
vt 1.4204 1.1871
vt 1.4056 1.1750
vt 2.0011 1.1750
vt 2.0008 1.1974
vt 1.4053 1.1974
vt 4.0103 -0.4053
vt 4.0836 -1.0008
vt 3.9533 -1.0164
vt 3.8861 -0.4201
vt 4.0836 1.1974
vt 4.0814 1.1750
vt 3.9512 1.1871
vt 3.9533 1.2095
vt 4.0814 -1.0011
vt 4.0082 -0.4056
vt 3.8840 -0.4204
vt 3.9512 -1.0166
vt 4.0082 1.1750
vt 4.0103 1.1974
vt 3.8861 1.2095
vt 3.8840 1.1871
vt 1.4053 1.1974
vt 2.0008 1.1974
vt 2.0011 1.1750
vt 1.4056 1.1750
vt 1.3895 1.1628
vt 1.9842 1.1628
vt 1.9839 1.1852
vt 1.3892 1.1852
vt 4.1345 -0.3892
vt 4.2138 -0.9839
vt 4.0836 -1.0008
vt 4.0103 -0.4053
vt 4.2138 1.1852
vt 4.2117 1.1628
vt 4.0814 1.1750
vt 4.0836 1.1974
vt 4.2117 -0.9842
vt 4.1324 -0.3895
vt 4.0082 -0.4056
vt 4.0814 -1.0011
vt 4.1324 1.1628
vt 4.1345 1.1852
vt 4.0103 1.1974
vt 4.0082 1.1750
vt 1.3892 1.1852
vt 1.9839 1.1852
vt 1.9842 1.1628
vt 1.3895 1.1628
vt 1.3721 1.1507
vt 1.9659 1.1507
vt 1.9656 1.1731
vt 1.3718 1.1731
vt 4.2586 -0.3718
vt 4.3441 -0.9656
vt 4.2138 -0.9839
vt 4.1345 -0.3892
vt 4.3441 1.1731
vt 4.3420 1.1507
vt 4.2117 1.1628
vt 4.2138 1.1852
vt 4.3420 -0.9659
vt 4.2565 -0.3721
vt 4.1324 -0.3895
vt 4.2117 -0.9842
vt 4.2565 1.1507
vt 4.2586 1.1731
vt 4.1345 1.1852
vt 4.1324 1.1628
vt 1.3718 1.1731
vt 1.9656 1.1731
vt 1.9659 1.1507
vt 1.3721 1.1507
vt 1.3534 1.1385
vt 1.9463 1.1385
vt 1.9460 1.1609
vt 1.3530 1.1609
vt 4.3828 -0.3530
vt 4.4744 -0.9460
vt 4.3441 -0.9656
vt 4.2586 -0.3718
vt 4.4744 1.1609
vt 4.4723 1.1385
vt 4.3420 1.1507
vt 4.3441 1.1731
vt 4.4723 -0.9463
vt 4.3807 -0.3534
vt 4.2565 -0.3721
vt 4.3420 -0.9659
vt 4.3807 1.1385
vt 4.3828 1.1609
vt 4.2586 1.1731
vt 4.2565 1.1507
vt 1.3530 1.1609
vt 1.9460 1.1609
vt 1.9463 1.1385
vt 1.3534 1.1385
vt 1.3333 1.1264
vt 1.9253 1.1264
vt 1.9250 1.1488
vt 1.3330 1.1488
vt 4.5070 -0.3330
vt 4.6046 -0.9250
vt 4.4744 -0.9460
vt 4.3828 -0.3530
vt 4.6046 1.1488
vt 4.6025 1.1264
vt 4.4723 1.1385
vt 4.4744 1.1609
vt 4.6025 -0.9253
vt 4.5049 -0.3333
vt 4.3807 -0.3534
vt 4.4723 -0.9463
vt 4.5049 1.1264
vt 4.5070 1.1488
vt 4.3828 1.1609
vt 4.3807 1.1385
vt 1.3330 1.1488
vt 1.9250 1.1488
vt 1.9253 1.1264
vt 1.3333 1.1264
vt 1.3120 1.1142
vt 1.9030 1.1142
vt 1.9026 1.1366
vt 1.3117 1.1366
vt 4.6311 -0.3117
vt 4.7349 -0.9026
vt 4.6046 -0.9250
vt 4.5070 -0.3330
vt 4.7349 1.1366
vt 4.7328 1.1142
vt 4.6025 1.1264
vt 4.6046 1.1488
vt 4.7328 -0.9030
vt 4.6290 -0.3120
vt 4.5049 -0.3333
vt 4.6025 -0.9253
vt 4.6290 1.1142
vt 4.6311 1.1366
vt 4.5070 1.1488
vt 4.5049 1.1264
vt 1.3117 1.1366
vt 1.9026 1.1366
vt 1.9030 1.1142
vt 1.3120 1.1142
vt 1.2894 1.1021
vt 1.8792 1.1021
vt 1.8788 1.1245
vt 1.2890 1.1245
vt 4.7553 -0.2890
vt 4.8651 -0.8788
vt 4.7349 -0.9026
vt 4.6311 -0.3117
vt 4.8651 1.1245
vt 4.8631 1.1021
vt 4.7328 1.1142
vt 4.7349 1.1366
vt 4.8631 -0.8792
vt 4.7532 -0.2894
vt 4.6290 -0.3120
vt 4.7328 -0.9030
vt 4.7532 1.1021
vt 4.7553 1.1245
vt 4.6311 1.1366
vt 4.6290 1.1142
vt 1.2890 1.1245
vt 1.8788 1.1245
vt 1.8792 1.1021
vt 1.2894 1.1021
vt 1.2654 1.0899
vt 1.8541 1.0899
vt 1.8537 1.1123
vt 1.2650 1.1123
vt 4.8794 -0.2650
vt 4.9954 -0.8537
vt 4.8651 -0.8788
vt 4.7553 -0.2890
vt 4.9954 1.1123
vt 4.9933 1.0899
vt 4.8631 1.1021
vt 4.8651 1.1245
vt 4.9933 -0.8541
vt 4.8773 -0.2654
vt 4.7532 -0.2894
vt 4.8631 -0.8792
vt 4.8773 1.0899
vt 4.8794 1.1123
vt 4.7553 1.1245
vt 4.7532 1.1021
vt 1.2650 1.1123
vt 1.8537 1.1123
vt 1.8541 1.0899
vt 1.2654 1.0899
vt 1.2401 1.0778
vt 1.8275 1.0778
vt 1.8271 1.1002
vt 1.2397 1.1002
vt 5.0035 -0.2397
vt 5.1256 -0.8271
vt 4.9954 -0.8537
vt 4.8794 -0.2650
vt 5.1256 1.1002
vt 5.1236 1.0778
vt 4.9933 1.0899
vt 4.9954 1.1123
vt 5.1236 -0.8275
vt 5.0015 -0.2401
vt 4.8773 -0.2654
vt 4.9933 -0.8541
vt 5.0015 1.0778
vt 5.0035 1.1002
vt 4.8794 1.1123
vt 4.8773 1.0899
vt 1.2397 1.1002
vt 1.8271 1.1002
vt 1.8275 1.0778
vt 1.2401 1.0778
vt 1.2134 1.0657
vt 1.7996 1.0657
vt 1.7991 1.0881
vt 1.2130 1.0881
vt 5.1277 -0.2130
vt 5.2559 -0.7991
vt 5.1256 -0.8271
vt 5.0035 -0.2397
vt 5.2559 1.0881
vt 5.2538 1.0657
vt 5.1236 1.0778
vt 5.1256 1.1002
vt 5.2538 -0.7996
vt 5.1256 -0.2134
vt 5.0015 -0.2401
vt 5.1236 -0.8275
vt 5.1256 1.0657
vt 5.1277 1.0881
vt 5.0035 1.1002
vt 5.0015 1.0778
vt 1.2130 1.0881
vt 1.7991 1.0881
vt 1.7996 1.0657
vt 1.2134 1.0657
vt 1.1854 1.0535
vt 1.7702 1.0535
vt 1.7697 1.0759
vt 1.1850 1.0759
vt 5.2518 -0.1850
vt 5.3861 -0.7697
vt 5.2559 -0.7991
vt 5.1277 -0.2130
vt 5.3861 1.0759
vt 5.3841 1.0535
vt 5.2538 1.0657
vt 5.2559 1.0881
vt 5.3841 -0.7702
vt 5.2498 -0.1854
vt 5.1256 -0.2134
vt 5.2538 -0.7996
vt 5.2498 1.0535
vt 5.2518 1.0759
vt 5.1277 1.0881
vt 5.1256 1.0657
vt 1.1850 1.0759
vt 1.7697 1.0759
vt 1.7702 1.0535
vt 1.1854 1.0535
vt 1.1561 1.0414
vt 1.7394 1.0414
vt 1.7389 1.0638
vt 1.1556 1.0638
vt 5.3759 -0.1556
vt 5.5163 -0.7389
vt 5.3861 -0.7697
vt 5.2518 -0.1850
vt 5.5163 1.0638
vt 5.5143 1.0414
vt 5.3841 1.0535
vt 5.3861 1.0759
vt 5.5143 -0.7394
vt 5.3739 -0.1561
vt 5.2498 -0.1854
vt 5.3841 -0.7702
vt 5.3739 1.0414
vt 5.3759 1.0638
vt 5.2518 1.0759
vt 5.2498 1.0535
vt 1.1556 1.0638
vt 1.7389 1.0638
vt 1.7394 1.0414
vt 1.1561 1.0414
vt 1.1253 1.0292
vt 1.7071 1.0292
vt 1.7066 1.0516
vt 1.1248 1.0516
vt 5.5001 -0.1248
vt 5.6466 -0.7066
vt 5.5163 -0.7389
vt 5.3759 -0.1556
vt 5.6466 1.0516
vt 5.6446 1.0292
vt 5.5143 1.0414
vt 5.5163 1.0638
vt 5.6446 -0.7071
vt 5.4981 -0.1253
vt 5.3739 -0.1561
vt 5.5143 -0.7394
vt 5.4981 1.0292
vt 5.5001 1.0516
vt 5.3759 1.0638
vt 5.3739 1.0414
vt 1.1248 1.0516
vt 1.7066 1.0516
vt 1.7071 1.0292
vt 1.1253 1.0292
vt 1.0932 1.0171
vt 1.6734 1.0171
vt 1.6729 1.0395
vt 1.0926 1.0395
vt 5.6242 -0.0926
vt 5.7768 -0.6729
vt 5.6466 -0.7066
vt 5.5001 -0.1248
vt 5.7768 1.0395
vt 5.7748 1.0171
vt 5.6446 1.0292
vt 5.6466 1.0516
vt 5.7748 -0.6734
vt 5.6222 -0.0932
vt 5.4981 -0.1253
vt 5.6446 -0.7071
vt 5.6222 1.0171
vt 5.6242 1.0395
vt 5.5001 1.0516
vt 5.4981 1.0292
vt 1.0926 1.0395
vt 1.6729 1.0395
vt 1.6734 1.0171
vt 1.0932 1.0171
vt 1.0596 1.0049
vt 1.6383 1.0049
vt 1.6377 1.0273
vt 1.0591 1.0273
vt 5.7483 -0.0591
vt 5.9070 -0.6377
vt 5.7768 -0.6729
vt 5.6242 -0.0926
vt 5.9070 1.0273
vt 5.9050 1.0049
vt 5.7748 1.0171
vt 5.7768 1.0395
vt 5.9050 -0.6383
vt 5.7463 -0.0596
vt 5.6222 -0.0932
vt 5.7748 -0.6734
vt 5.7463 1.0049
vt 5.7483 1.0273
vt 5.6242 1.0395
vt 5.6222 1.0171
vt 1.0591 1.0273
vt 1.6377 1.0273
vt 1.6383 1.0049
vt 1.0596 1.0049
vt 1.0246 0.9928
vt 1.6018 0.9928
vt 1.6012 1.0152
vt 1.0241 1.0152
vt 5.8728 -0.0241
vt 6.0369 -0.6012
vt 5.9070 -0.6377
vt 5.7483 -0.0591
vt 6.0369 1.0152
vt 6.0349 0.9928
vt 5.9050 1.0049
vt 5.9070 1.0273
vt 6.0349 -0.6018
vt 5.8708 -0.0246
vt 5.7463 -0.0596
vt 5.9050 -0.6383
vt 5.8708 0.9928
vt 5.8728 1.0152
vt 5.7483 1.0273
vt 5.7463 1.0049
vt 1.0241 1.0152
vt 1.6012 1.0152
vt 1.6018 0.9928
vt 1.0246 0.9928
vt 0.9879 0.9806
vt 1.5650 0.9806
vt 1.5645 1.0030
vt 0.9873 1.0030
vt 6.0001 0.0127
vt 6.1641 -0.5645
vt 6.0369 -0.6012
vt 5.8728 -0.0241
vt 6.1641 1.0030
vt 6.1621 0.9806
vt 6.0349 0.9928
vt 6.0369 1.0152
vt 6.1621 -0.5650
vt 5.9981 0.0121
vt 5.8708 -0.0246
vt 6.0349 -0.6018
vt 5.9981 0.9806
vt 6.0001 1.0030
vt 5.8728 1.0152
vt 5.8708 0.9928
vt 0.9873 1.0030
vt 1.5645 1.0030
vt 1.5650 0.9806
vt 0.9879 0.9806
vt 0.9517 0.9685
vt 1.5303 0.9685
vt 1.5298 0.9909
vt 0.9511 0.9909
vt 6.1301 0.0489
vt 6.2888 -0.5298
vt 6.1641 -0.5645
vt 6.0001 0.0127
vt 6.2888 0.9909
vt 6.2868 0.9685
vt 6.1621 0.9806
vt 6.1641 1.0030
vt 6.2868 -0.5303
vt 6.1281 0.0483
vt 5.9981 0.0121
vt 6.1621 -0.5650
vt 6.1281 0.9685
vt 6.1301 0.9909
vt 6.0001 1.0030
vt 5.9981 0.9806
vt 0.9511 0.9909
vt 1.5298 0.9909
vt 1.5303 0.9685
vt 0.9517 0.9685
vt 0.9168 0.9563
vt 1.4971 0.9563
vt 1.4966 0.9787
vt 0.9163 0.9787
vt 6.2606 0.0837
vt 6.4131 -0.4966
vt 6.2888 -0.5298
vt 6.1301 0.0489
vt 6.4131 0.9787
vt 6.4111 0.9563
vt 6.2868 0.9685
vt 6.2888 0.9909
vt 6.4111 -0.4971
vt 6.2586 0.0832
vt 6.1281 0.0483
vt 6.2868 -0.5303
vt 6.2586 0.9563
vt 6.2606 0.9787
vt 6.1301 0.9909
vt 6.1281 0.9685
vt 0.9163 0.9787
vt 1.4966 0.9787
vt 1.4971 0.9563
vt 0.9168 0.9563
vt 0.8835 0.9442
vt 1.4653 0.9442
vt 1.4648 0.9666
vt 0.8829 0.9666
vt 6.3910 0.1171
vt 6.5375 -0.4648
vt 6.4131 -0.4966
vt 6.2606 0.0837
vt 6.5375 0.9666
vt 6.5355 0.9442
vt 6.4111 0.9563
vt 6.4131 0.9787
vt 6.5355 -0.4653
vt 6.3890 0.1165
vt 6.2586 0.0832
vt 6.4111 -0.4971
vt 6.3890 0.9442
vt 6.3910 0.9666
vt 6.2606 0.9787
vt 6.2586 0.9563
vt 0.8829 0.9666
vt 1.4648 0.9666
vt 1.4653 0.9442
vt 0.8835 0.9442
vt 0.8515 0.9320
vt 1.4349 0.9320
vt 1.4344 0.9544
vt 0.8510 0.9544
vt 6.5214 0.1490
vt 6.6618 -0.4344
vt 6.5375 -0.4648
vt 6.3910 0.1171
vt 6.6618 0.9544
vt 6.6598 0.9320
vt 6.5355 0.9442
vt 6.5375 0.9666
vt 6.6598 -0.4349
vt 6.5194 0.1485
vt 6.3890 0.1165
vt 6.5355 -0.4653
vt 6.5194 0.9320
vt 6.5214 0.9544
vt 6.3910 0.9666
vt 6.3890 0.9442
vt 0.8510 0.9544
vt 1.4344 0.9544
vt 1.4349 0.9320
vt 0.8515 0.9320
vt 0.8211 0.9199
vt 1.4058 0.9199
vt 1.4054 0.9423
vt 0.8206 0.9423
vt 6.6518 0.1794
vt 6.7861 -0.4054
vt 6.6618 -0.4344
vt 6.5214 0.1490
vt 6.7861 0.9423
vt 6.7841 0.9199
vt 6.6598 0.9320
vt 6.6618 0.9544
vt 6.7841 -0.4058
vt 6.6498 0.1789
vt 6.5194 0.1485
vt 6.6598 -0.4349
vt 6.6498 0.9199
vt 6.6518 0.9423
vt 6.5214 0.9544
vt 6.5194 0.9320
vt 0.8206 0.9423
vt 1.4054 0.9423
vt 1.4058 0.9199
vt 0.8211 0.9199
vt 0.7920 0.9077
vt 1.3782 0.9077
vt 1.3777 0.9301
vt 0.7916 0.9301
vt 6.7822 0.2084
vt 6.9104 -0.3777
vt 6.7861 -0.4054
vt 6.6518 0.1794
vt 6.9104 0.9301
vt 6.9084 0.9077
vt 6.7841 0.9199
vt 6.7861 0.9423
vt 6.9084 -0.3782
vt 6.7802 0.2080
vt 6.6498 0.1789
vt 6.7841 -0.4058
vt 6.7802 0.9077
vt 6.7822 0.9301
vt 6.6518 0.9423
vt 6.6498 0.9199
vt 0.7916 0.9301
vt 1.3777 0.9301
vt 1.3782 0.9077
vt 0.7920 0.9077
vt 0.7644 0.8956
vt 1.3518 0.8956
vt 1.3514 0.9180
vt 0.7640 0.9180
vt 6.9126 0.2360
vt 7.0347 -0.3514
vt 6.9104 -0.3777
vt 6.7822 0.2084
vt 7.0347 0.9180
vt 7.0327 0.8956
vt 6.9084 0.9077
vt 6.9104 0.9301
vt 7.0327 -0.3518
vt 6.9106 0.2356
vt 6.7802 0.2080
vt 6.9084 -0.3782
vt 6.9106 0.8956
vt 6.9126 0.9180
vt 6.7822 0.9301
vt 6.7802 0.9077
vt 0.7640 0.9180
vt 1.3514 0.9180
vt 1.3518 0.8956
vt 0.7644 0.8956
vt 0.7382 0.8834
vt 1.3269 0.8834
vt 1.3265 0.9058
vt 0.7378 0.9058
vt 7.0430 0.2622
vt 7.1590 -0.3265
vt 7.0347 -0.3514
vt 6.9126 0.2360
vt 7.1590 0.9058
vt 7.1570 0.8834
vt 7.0327 0.8956
vt 7.0347 0.9180
vt 7.1570 -0.3269
vt 7.0410 0.2618
vt 6.9106 0.2356
vt 7.0327 -0.3518
vt 7.0410 0.8834
vt 7.0430 0.9058
vt 6.9126 0.9180
vt 6.9106 0.8956
vt 0.7378 0.9058
vt 1.3265 0.9058
vt 1.3269 0.8834
vt 0.7382 0.8834
vt 0.7134 0.8713
vt 1.3032 0.8713
vt 1.3029 0.8937
vt 0.7130 0.8937
vt 7.1734 0.2870
vt 7.2833 -0.3029
vt 7.1590 -0.3265
vt 7.0430 0.2622
vt 7.2833 0.8937
vt 7.2812 0.8713
vt 7.1570 0.8834
vt 7.1590 0.9058
vt 7.2812 -0.3032
vt 7.1714 0.2866
vt 7.0410 0.2618
vt 7.1570 -0.3269
vt 7.1714 0.8713
vt 7.1734 0.8937
vt 7.0430 0.9058
vt 7.0410 0.8834
vt 0.7130 0.8937
vt 1.3029 0.8937
vt 1.3032 0.8713
vt 0.7134 0.8713
vt 0.6900 0.8591
vt 1.2809 0.8591
vt 1.2806 0.8815
vt 0.6896 0.8815
vt 7.3038 0.3104
vt 7.4076 -0.2806
vt 7.2833 -0.3029
vt 7.1734 0.2870
vt 7.4076 0.8815
vt 7.4055 0.8591
vt 7.2812 0.8713
vt 7.2833 0.8937
vt 7.4055 -0.2809
vt 7.3018 0.3100
vt 7.1714 0.2866
vt 7.2812 -0.3032
vt 7.3018 0.8591
vt 7.3038 0.8815
vt 7.1734 0.8937
vt 7.1714 0.8713
vt 0.6896 0.8815
vt 1.2806 0.8815
vt 1.2809 0.8591
vt 0.6900 0.8591
vt 0.6680 0.8470
vt 1.2600 0.8470
vt 1.2596 0.8694
vt 0.6676 0.8694
vt 7.4342 0.3324
vt 7.5319 -0.2596
vt 7.4076 -0.2806
vt 7.3038 0.3104
vt 7.5319 0.8694
vt 7.5298 0.8470
vt 7.4055 0.8591
vt 7.4076 0.8815
vt 7.5298 -0.2600
vt 7.4322 0.3320
vt 7.3018 0.3100
vt 7.4055 -0.2809
vt 7.4322 0.8470
vt 7.4342 0.8694
vt 7.3038 0.8815
vt 7.3018 0.8591
vt 0.6676 0.8694
vt 1.2596 0.8694
vt 1.2600 0.8470
vt 0.6680 0.8470
vt 0.6473 0.8348
vt 1.2403 0.8348
vt 1.2400 0.8572
vt 0.6470 0.8572
vt 7.5646 0.3530
vt 7.6562 -0.2400
vt 7.5319 -0.2596
vt 7.4342 0.3324
vt 7.6562 0.8572
vt 7.6541 0.8348
vt 7.5298 0.8470
vt 7.5319 0.8694
vt 7.6541 -0.2403
vt 7.5625 0.3527
vt 7.4322 0.3320
vt 7.5298 -0.2600
vt 7.5625 0.8348
vt 7.5646 0.8572
vt 7.4342 0.8694
vt 7.4322 0.8470
vt 0.6470 0.8572
vt 1.2400 0.8572
vt 1.2403 0.8348
vt 0.6473 0.8348
vt 0.6281 0.8227
vt 1.2220 0.8227
vt 1.2217 0.8451
vt 0.6278 0.8451
vt 7.6950 0.3722
vt 7.7805 -0.2217
vt 7.6562 -0.2400
vt 7.5646 0.3530
vt 7.7805 0.8451
vt 7.7784 0.8227
vt 7.6541 0.8348
vt 7.6562 0.8572
vt 7.7784 -0.2220
vt 7.6929 0.3719
vt 7.5625 0.3527
vt 7.6541 -0.2403
vt 7.6929 0.8227
vt 7.6950 0.8451
vt 7.5646 0.8572
vt 7.5625 0.8348
vt 0.6278 0.8451
vt 1.2217 0.8451
vt 1.2220 0.8227
vt 0.6281 0.8227
vt 0.6102 0.8105
vt 1.2049 0.8105
vt 1.2046 0.8329
vt 0.6099 0.8329
vt 7.8254 0.3901
vt 7.9047 -0.2046
vt 7.7805 -0.2217
vt 7.6950 0.3722
vt 7.9047 0.8329
vt 7.9026 0.8105
vt 7.7784 0.8227
vt 7.7805 0.8451
vt 7.9026 -0.2049
vt 7.8233 0.3898
vt 7.6929 0.3719
vt 7.7784 -0.2220
vt 7.8233 0.8105
vt 7.8254 0.8329
vt 7.6950 0.8451
vt 7.6929 0.8227
vt 0.6099 0.8329
vt 1.2046 0.8329
vt 1.2049 0.8105
vt 0.6102 0.8105
vt 0.5937 0.7984
vt 1.1892 0.7984
vt 1.1889 0.8208
vt 0.5934 0.8208
vt 7.9558 0.4066
vt 8.0290 -0.1889
vt 7.9047 -0.2046
vt 7.8254 0.3901
vt 8.0290 0.8208
vt 8.0269 0.7984
vt 7.9026 0.8105
vt 7.9047 0.8329
vt 8.0269 -0.1892
vt 7.9537 0.4063
vt 7.8233 0.3898
vt 7.9026 -0.2049
vt 7.9537 0.7984
vt 7.9558 0.8208
vt 7.8254 0.8329
vt 7.8233 0.8105
vt 0.5934 0.8208
vt 1.1889 0.8208
vt 1.1892 0.7984
vt 0.5937 0.7984
vt 0.5785 0.7862
vt 1.1747 0.7862
vt 1.1745 0.8086
vt 0.5782 0.8086
vt 8.0861 0.4218
vt 8.1533 -0.1745
vt 8.0290 -0.1889
vt 7.9558 0.4066
vt 8.1533 0.8086
vt 8.1512 0.7862
vt 8.0269 0.7984
vt 8.0290 0.8208
vt 8.1512 -0.1747
vt 8.0840 0.4215
vt 7.9537 0.4063
vt 8.0269 -0.1892
vt 8.0840 0.7862
vt 8.0861 0.8086
vt 7.9558 0.8208
vt 7.9537 0.7984
vt 0.5782 0.8086
vt 1.1745 0.8086
vt 1.1747 0.7862
vt 0.5785 0.7862
vt 0.5647 0.7741
vt 1.1615 0.7741
vt 1.1613 0.7965
vt 0.5644 0.7965
vt 8.2165 0.4356
vt 8.2775 -0.1613
vt 8.1533 -0.1745
vt 8.0861 0.4218
vt 8.2775 0.7965
vt 8.2754 0.7741
vt 8.1512 0.7862
vt 8.1533 0.8086
vt 8.2754 -0.1615
vt 8.2144 0.4353
vt 8.0840 0.4215
vt 8.1512 -0.1747
vt 8.2144 0.7741
vt 8.2165 0.7965
vt 8.0861 0.8086
vt 8.0840 0.7862
vt 0.5644 0.7965
vt 1.1613 0.7965
vt 1.1615 0.7741
vt 0.5647 0.7741
vt 0.5522 0.7619
vt 1.1497 0.7619
vt 1.1495 0.7843
vt 0.5520 0.7843
vt 8.3469 0.4480
vt 8.4018 -0.1495
vt 8.2775 -0.1613
vt 8.2165 0.4356
vt 8.4018 0.7843
vt 8.3997 0.7619
vt 8.2754 0.7741
vt 8.2775 0.7965
vt 8.3997 -0.1497
vt 8.3447 0.4478
vt 8.2144 0.4353
vt 8.2754 -0.1615
vt 8.3447 0.7619
vt 8.3469 0.7843
vt 8.2165 0.7965
vt 8.2144 0.7741
vt 0.5520 0.7843
vt 1.1495 0.7843
vt 1.1497 0.7619
vt 0.5522 0.7619
vt 0.5410 0.7498
vt 1.1391 0.7498
vt 1.1389 0.7722
vt 0.5409 0.7722
vt 8.4772 0.4591
vt 8.5261 -0.1389
vt 8.4018 -0.1495
vt 8.3469 0.4480
vt 8.5261 0.7722
vt 8.5239 0.7498
vt 8.3997 0.7619
vt 8.4018 0.7843
vt 8.5239 -0.1391
vt 8.4751 0.4590
vt 8.3447 0.4478
vt 8.3997 -0.1497
vt 8.4751 0.7498
vt 8.4772 0.7722
vt 8.3469 0.7843
vt 8.3447 0.7619
vt 0.5409 0.7722
vt 1.1389 0.7722
vt 1.1391 0.7498
vt 0.5410 0.7498
vt 0.5313 0.7376
vt 1.1297 0.7376
vt 1.1296 0.7600
vt 0.5311 0.7600
vt 8.6076 0.4689
vt 8.6503 -0.1296
vt 8.5261 -0.1389
vt 8.4772 0.4591
vt 8.6503 0.7600
vt 8.6482 0.7376
vt 8.5239 0.7498
vt 8.5261 0.7722
vt 8.6482 -0.1297
vt 8.6055 0.4687
vt 8.4751 0.4590
vt 8.5239 -0.1391
vt 8.6055 0.7376
vt 8.6076 0.7600
vt 8.4772 0.7722
vt 8.4751 0.7498
vt 0.5311 0.7600
vt 1.1296 0.7600
vt 1.1297 0.7376
vt 0.5313 0.7376
vt 0.5228 0.7255
vt 1.1217 0.7255
vt 1.1216 0.7479
vt 0.5227 0.7479
vt 8.7376 0.4773
vt 8.7742 -0.1216
vt 8.6503 -0.1296
vt 8.6076 0.4689
vt 8.7742 0.7479
vt 8.7721 0.7255
vt 8.6482 0.7376
vt 8.6503 0.7600
vt 8.7721 -0.1217
vt 8.7355 0.4772
vt 8.6055 0.4687
vt 8.6482 -0.1297
vt 8.7355 0.7255
vt 8.7376 0.7479
vt 8.6076 0.7600
vt 8.6055 0.7376
vt 0.5227 0.7479
vt 1.1216 0.7479
vt 1.1217 0.7255
vt 0.5228 0.7255
vt 0.5158 0.7139
vt 1.1150 0.7139
vt 1.1149 0.7363
vt 0.5157 0.7363
vt 8.8660 0.4843
vt 8.8965 -0.1149
vt 8.7742 -0.1216
vt 8.7376 0.4773
vt 8.8965 0.7363
vt 8.8946 0.7139
vt 8.7721 0.7255
vt 8.7742 0.7479
vt 8.8946 -0.1150
vt 8.8641 0.4842
vt 8.7355 0.4772
vt 8.7721 -0.1217
vt 8.8641 0.7139
vt 8.8660 0.7363
vt 8.7376 0.7479
vt 8.7355 0.7255
vt 0.5157 0.7363
vt 1.1149 0.7363
vt 1.1150 0.7139
vt 0.5158 0.7139
vt 0.5101 0.7044
vt 1.1096 0.7044
vt 1.1095 0.7268
vt 0.5100 0.7268
vt 8.9929 0.4900
vt 9.0173 -0.1095
vt 8.8965 -0.1149
vt 8.8660 0.4843
vt 9.0173 0.7268
vt 9.0158 0.7044
vt 8.8946 0.7139
vt 8.8965 0.7363
vt 9.0158 -0.1096
vt 8.9914 0.4899
vt 8.8641 0.4842
vt 8.8946 -0.1150
vt 8.9914 0.7044
vt 8.9929 0.7268
vt 8.8660 0.7363
vt 8.8641 0.7139
vt 0.5100 0.7268
vt 1.1095 0.7268
vt 1.1096 0.7044
vt 0.5101 0.7044
vt 0.5057 0.6970
vt 1.1054 0.6970
vt 1.1054 0.7195
vt 0.5056 0.7195
vt 9.1197 0.4944
vt 9.1380 -0.1054
vt 9.0173 -0.1095
vt 8.9929 0.4900
vt 9.1380 0.7195
vt 9.1369 0.6970
vt 9.0158 0.7044
vt 9.0173 0.7268
vt 9.1369 -0.1054
vt 9.1186 0.4943
vt 8.9914 0.4899
vt 9.0158 -0.1096
vt 9.1186 0.6970
vt 9.1197 0.7195
vt 8.9929 0.7268
vt 8.9914 0.7044
vt 0.5056 0.7195
vt 1.1054 0.7195
vt 1.1054 0.6970
vt 0.5057 0.6970
vt 0.5025 0.6917
vt 1.1024 0.6917
vt 1.1024 0.7142
vt 0.5025 0.7142
vt 9.2465 0.4975
vt 9.2587 -0.1024
vt 9.1380 -0.1054
vt 9.1197 0.4944
vt 9.2587 0.7142
vt 9.2579 0.6917
vt 9.1369 0.6970
vt 9.1380 0.7195
vt 9.2579 -0.1024
vt 9.2457 0.4975
vt 9.1186 0.4943
vt 9.1369 -0.1054
vt 9.2457 0.6917
vt 9.2465 0.7142
vt 9.1197 0.7195
vt 9.1186 0.6970
vt 0.5025 0.7142
vt 1.1024 0.7142
vt 1.1024 0.6917
vt 0.5025 0.6917
vt 0.5006 0.6886
vt 1.1006 0.6886
vt 1.1006 0.7110
vt 0.5006 0.7110
vt 9.3732 0.4994
vt 9.3793 -0.1006
vt 9.2587 -0.1024
vt 9.2465 0.4975
vt 9.3793 0.7110
vt 9.3790 0.6886
vt 9.2579 0.6917
vt 9.2587 0.7142
vt 9.3790 -0.1006
vt 9.3729 0.4994
vt 9.2457 0.4975
vt 9.2579 -0.1024
vt 9.3729 0.6886
vt 9.3732 0.7110
vt 9.2465 0.7142
vt 9.2457 0.6917
vt 0.5006 0.7110
vt 1.1006 0.7110
vt 1.1006 0.6886
vt 0.5006 0.6886
vt 0.5000 0.6875
vt 1.1000 0.6875
vt 1.1000 0.7100
vt 0.5000 0.7100
vt 9.5003 0.5000
vt 9.5033 -0.1000
vt 9.3793 -0.1006
vt 9.3732 0.4994
vt 9.5033 0.7100
vt 9.5031 0.6875
vt 9.3790 0.6886
vt 9.3793 0.7110
vt 9.5031 -0.1000
vt 9.5001 0.5000
vt 9.3729 0.4994
vt 9.3790 -0.1006
vt 9.5001 0.6875
vt 9.5003 0.7100
vt 9.3732 0.7110
vt 9.3729 0.6886
vn -1.0000 0.0000 0.0000
vn 1.0000 0.0000 -0.0000
vn 0.0000 -1.0000 0.0000
vn 0.0000 -0.0000 1.0000
vn 0.0000 1.0000 0.0000
vn 0.0000 -0.0000 -1.0000
vn -1.0000 0.0000 0.0000
vn 1.0000 0.0000 -0.0000
vn 0.0000 -1.0000 0.0000
vn 0.0000 -0.0000 1.0000
vn 0.0000 1.0000 0.0000
vn 0.0000 -0.0000 -1.0000
vn -1.0000 0.0000 0.0000
vn 1.0000 0.0000 -0.0000
vn 0.0000 -1.0000 0.0000
vn 0.0000 -0.0000 1.0000
vn 0.0000 1.0000 0.0000
vn 0.0000 -0.0000 -1.0000
vn -1.0000 0.0000 0.0000
vn 1.0000 0.0000 -0.0000
vn 0.0000 -1.0000 0.0000
vn 0.0000 -0.0000 1.0000
vn 0.0000 1.0000 0.0000
vn 0.0000 -0.0000 -1.0000
vn -1.0000 0.0000 0.0000
vn 1.0000 0.0000 -0.0000
vn 0.0000 -1.0000 0.0000
vn 0.0000 -0.0000 1.0000
vn 0.0000 1.0000 0.0000
vn 0.0000 -0.0000 -1.0000
vn -1.0000 0.0000 0.0000
vn 1.0000 0.0000 -0.0000
vn 0.0000 -1.0000 0.0000
vn 0.0000 -0.0000 1.0000
vn 0.0000 1.0000 0.0000
vn 0.0000 -0.0000 -1.0000
vn -1.0000 0.0000 0.0000
vn 1.0000 0.0000 -0.0000
vn 0.0000 -1.0000 0.0000
vn 0.0000 -0.0000 1.0000
vn 0.0000 1.0000 0.0000
vn 0.0000 -0.0000 -1.0000
vn -1.0000 0.0000 0.0000
vn 1.0000 0.0000 -0.0000
vn 0.0000 -1.0000 0.0000
vn 0.0000 -0.0000 1.0000
vn 0.0000 1.0000 0.0000
vn 0.0000 -0.0000 -1.0000
vn -1.0000 0.0000 0.0000
vn 1.0000 0.0041 -0.0024
vn 0.0000 -1.0000 -0.0000
vn 0.0000 -0.0000 1.0000
vn -0.0000 1.0000 0.0000
vn -0.0000 0.0000 -1.0000
vn -1.0000 -0.0041 0.0024
vn 0.9998 0.0170 -0.0102
vn 0.0084 -1.0000 -0.0001
vn 0.0052 -0.0001 1.0000
vn -0.0087 1.0000 0.0001
vn -0.0052 0.0001 -1.0000
vn -0.9998 -0.0170 0.0102
vn 0.9992 0.0339 -0.0203
vn 0.0249 -0.9997 -0.0005
vn 0.0156 -0.0002 0.9999
vn -0.0261 0.9997 0.0005
vn -0.0157 0.0002 -0.9999
vn -0.9992 -0.0339 0.0203
vn 0.9982 0.0509 -0.0305
vn 0.0414 -0.9991 -0.0013
vn 0.0260 -0.0002 0.9997
vn -0.0434 0.9991 0.0013
vn -0.0261 0.0002 -0.9997
vn -0.9982 -0.0509 0.0305
vn 0.9969 0.0678 -0.0406
vn 0.0580 -0.9983 -0.0024
vn 0.0365 -0.0003 0.9993
vn -0.0607 0.9982 0.0025
vn -0.0366 0.0003 -0.9993
vn -0.9969 -0.0678 0.0406
vn 0.9952 0.0841 -0.0507
vn 0.0745 -0.9972 -0.0038
vn 0.0469 -0.0003 0.9989
vn -0.0780 0.9969 0.0040
vn -0.0471 0.0003 -0.9989
vn -0.9952 -0.0841 0.0507
vn 0.9938 0.0933 -0.0608
vn 0.0895 -0.9960 -0.0055
vn 0.0573 -0.0004 0.9984
vn -0.0938 0.9956 0.0057
vn -0.0575 0.0003 -0.9983
vn -0.9938 -0.0933 0.0608
vn 0.9930 0.0948 -0.0709
vn 0.0924 -0.9957 -0.0066
vn 0.0675 -0.0004 0.9977
vn -0.0969 0.9953 0.0069
vn -0.0678 0.0003 -0.9977
vn -0.9930 -0.0948 0.0709
vn 0.9922 0.0947 -0.0810
vn 0.0922 -0.9957 -0.0075
vn 0.0777 -0.0004 0.9970
vn -0.0967 0.9953 0.0079
vn -0.0780 0.0003 -0.9970
vn -0.9922 -0.0947 0.0810
vn 0.9913 0.0946 -0.0911
vn 0.0921 -0.9957 -0.0085
vn 0.0879 -0.0004 0.9961
vn -0.0966 0.9953 0.0089
vn -0.0881 0.0003 -0.9961
vn -0.9913 -0.0946 0.0911
vn 0.9904 0.0945 -0.1013
vn 0.0919 -0.9957 -0.0094
vn 0.0980 -0.0004 0.9952
vn -0.0964 0.9953 0.0099
vn -0.0983 0.0003 -0.9952
vn -0.9904 -0.0945 0.1013
vn 0.9893 0.0944 -0.1114
vn 0.0917 -0.9957 -0.0103
vn 0.1082 -0.0004 0.9941
vn -0.0962 0.9953 0.0108
vn -0.1085 0.0003 -0.9941
vn -0.9893 -0.0944 0.1114
vn 0.9881 0.0943 -0.1215
vn 0.0915 -0.9957 -0.0113
vn 0.1184 -0.0004 0.9930
vn -0.0960 0.9953 0.0118
vn -0.1186 0.0003 -0.9929
vn -0.9881 -0.0943 0.1215
vn 0.9868 0.0942 -0.1317
vn 0.0913 -0.9958 -0.0122
vn 0.1286 -0.0004 0.9917
vn -0.0957 0.9953 0.0128
vn -0.1288 0.0003 -0.9917
vn -0.9868 -0.0942 0.1317
vn 0.9854 0.0941 -0.1418
vn 0.0910 -0.9958 -0.0131
vn 0.1387 -0.0004 0.9903
vn -0.0954 0.9953 0.0137
vn -0.1390 0.0003 -0.9903
vn -0.9854 -0.0941 0.1418
vn 0.9839 0.0939 -0.1519
vn 0.0907 -0.9958 -0.0140
vn 0.1489 -0.0004 0.9889
vn -0.0952 0.9954 0.0147
vn -0.1491 0.0003 -0.9888
vn -0.9839 -0.0939 0.1519
vn 0.9823 0.0938 -0.1621
vn 0.0904 -0.9958 -0.0149
vn 0.1591 -0.0004 0.9873
vn -0.0948 0.9954 0.0156
vn -0.1593 0.0003 -0.9872
vn -0.9823 -0.0938 0.1621
vn 0.9806 0.0936 -0.1722
vn 0.0901 -0.9958 -0.0158
vn 0.1692 -0.0004 0.9856
vn -0.0945 0.9954 0.0166
vn -0.1695 0.0003 -0.9855
vn -0.9806 -0.0936 0.1722
vn 0.9788 0.0934 -0.1823
vn 0.0898 -0.9958 -0.0167
vn 0.1794 -0.0004 0.9838
vn -0.0942 0.9954 0.0175
vn -0.1796 0.0003 -0.9837
vn -0.9788 -0.0934 0.1823
vn 0.9769 0.0932 -0.1924
vn 0.0895 -0.9958 -0.0176
vn 0.1896 -0.0004 0.9819
vn -0.0938 0.9954 0.0185
vn -0.1898 0.0003 -0.9818
vn -0.9769 -0.0932 0.1924
vn 0.9748 0.0931 -0.2026
vn 0.0891 -0.9959 -0.0185
vn 0.1997 -0.0004 0.9799
vn -0.0934 0.9954 0.0194
vn -0.2000 0.0003 -0.9798
vn -0.9748 -0.0931 0.2026
vn 0.9727 0.0928 -0.2127
vn 0.0887 -0.9959 -0.0194
vn 0.2099 -0.0004 0.9777
vn -0.0930 0.9955 0.0203
vn -0.2101 0.0003 -0.9777
vn -0.9727 -0.0928 0.2127
vn 0.9704 0.0926 -0.2228
vn 0.0883 -0.9959 -0.0203
vn 0.2201 -0.0004 0.9755
vn -0.0926 0.9955 0.0213
vn -0.2203 0.0003 -0.9754
vn -0.9704 -0.0926 0.2228
vn 0.9681 0.0924 -0.2330
vn 0.0879 -0.9959 -0.0211
vn 0.2302 -0.0004 0.9731
vn -0.0921 0.9955 0.0222
vn -0.2305 0.0003 -0.9731
vn -0.9681 -0.0924 0.2330
vn 0.9656 0.0922 -0.2431
vn 0.0874 -0.9959 -0.0220
vn 0.2404 -0.0004 0.9707
vn -0.0917 0.9955 0.0231
vn -0.2406 0.0003 -0.9706
vn -0.9656 -0.0922 0.2431
vn 0.9630 0.0919 -0.2532
vn 0.0870 -0.9959 -0.0229
vn 0.2506 -0.0004 0.9681
vn -0.0912 0.9955 0.0240
vn -0.2508 0.0003 -0.9680
vn -0.9630 -0.0919 0.2532
vn 0.9603 0.0917 -0.2634
vn 0.0865 -0.9960 -0.0237
vn 0.2607 -0.0004 0.9654
vn -0.0907 0.9956 0.0249
vn -0.2610 0.0003 -0.9654
vn -0.9603 -0.0917 0.2634
vn 0.9579 0.0914 -0.2722
vn 0.0863 -0.9960 -0.0245
vn 0.2707 -0.0003 0.9627
vn -0.0899 0.9956 0.0256
vn -0.2709 0.0002 -0.9626
vn -0.9579 -0.0914 0.2722
vn 0.9579 0.0914 -0.2722
vn 0.0879 -0.9958 -0.0250
vn 0.2772 0.0004 0.9608
vn -0.0879 0.9958 0.0250
vn -0.2772 -0.0004 -0.9608
vn -0.9579 -0.0914 0.2722
vn 0.9603 0.0917 -0.2634
vn 0.0901 -0.9956 -0.0247
vn 0.2684 0.0004 0.9633
vn -0.0865 0.9960 0.0237
vn -0.2683 -0.0004 -0.9633
vn -0.9603 -0.0917 0.2634
vn 0.9630 0.0919 -0.2532
vn 0.0909 -0.9956 -0.0239
vn 0.2580 0.0004 0.9661
vn -0.0867 0.9960 0.0228
vn -0.2579 -0.0003 -0.9662
vn -0.9630 -0.0919 0.2532
vn 0.9656 0.0922 -0.2431
vn 0.0914 -0.9955 -0.0230
vn 0.2478 0.0004 0.9688
vn -0.0872 0.9959 0.0220
vn -0.2477 -0.0003 -0.9688
vn -0.9656 -0.0922 0.2431
vn 0.9681 0.0924 -0.2330
vn 0.0919 -0.9955 -0.0221
vn 0.2376 0.0004 0.9714
vn -0.0876 0.9959 0.0211
vn -0.2376 -0.0003 -0.9714
vn -0.9681 -0.0924 0.2330
vn 0.9704 0.0926 -0.2228
vn 0.0924 -0.9955 -0.0212
vn 0.2275 0.0003 0.9738
vn -0.0881 0.9959 0.0202
vn -0.2274 -0.0003 -0.9738
vn -0.9704 -0.0926 0.2228
vn 0.9727 0.0928 -0.2127
vn 0.0928 -0.9955 -0.0203
vn 0.2173 0.0003 0.9761
vn -0.0885 0.9959 0.0194
vn -0.2172 -0.0003 -0.9761
vn -0.9727 -0.0928 0.2127
vn 0.9748 0.0931 -0.2026
vn 0.0932 -0.9955 -0.0194
vn 0.2071 0.0003 0.9783
vn -0.0889 0.9959 0.0185
vn -0.2070 -0.0003 -0.9783
vn -0.9748 -0.0931 0.2026
vn 0.9769 0.0932 -0.1924
vn 0.0936 -0.9954 -0.0184
vn 0.1969 0.0003 0.9804
vn -0.0893 0.9959 0.0176
vn -0.1968 -0.0003 -0.9804
vn -0.9769 -0.0932 0.1924
vn 0.9788 0.0934 -0.1823
vn 0.0940 -0.9954 -0.0175
vn 0.1868 0.0003 0.9824
vn -0.0896 0.9958 0.0167
vn -0.1867 -0.0003 -0.9824
vn -0.9788 -0.0934 0.1823
vn 0.9806 0.0936 -0.1722
vn 0.0944 -0.9954 -0.0166
vn 0.1766 0.0003 0.9843
vn -0.0900 0.9958 0.0158
vn -0.1765 -0.0003 -0.9843
vn -0.9806 -0.0936 0.1722
vn 0.9823 0.0938 -0.1621
vn 0.0947 -0.9954 -0.0156
vn 0.1664 0.0003 0.9861
vn -0.0903 0.9958 0.0149
vn -0.1663 -0.0003 -0.9861
vn -0.9823 -0.0938 0.1621
vn 0.9839 0.0939 -0.1519
vn 0.0950 -0.9954 -0.0147
vn 0.1562 0.0003 0.9877
vn -0.0906 0.9958 0.0140
vn -0.1561 -0.0003 -0.9877
vn -0.9839 -0.0939 0.1519
vn 0.9854 0.0941 -0.1418
vn 0.0953 -0.9954 -0.0137
vn 0.1460 0.0003 0.9893
vn -0.0909 0.9958 0.0131
vn -0.1459 -0.0003 -0.9893
vn -0.9854 -0.0941 0.1418
vn 0.9868 0.0942 -0.1317
vn 0.0956 -0.9953 -0.0128
vn 0.1359 0.0003 0.9907
vn -0.0911 0.9958 0.0122
vn -0.1358 -0.0003 -0.9907
vn -0.9868 -0.0942 0.1317
vn 0.9881 0.0943 -0.1215
vn 0.0958 -0.9953 -0.0118
vn 0.1257 0.0003 0.9921
vn -0.0914 0.9958 0.0112
vn -0.1256 -0.0003 -0.9921
vn -0.9881 -0.0943 0.1215
vn 0.9893 0.0944 -0.1114
vn 0.0961 -0.9953 -0.0108
vn 0.1155 0.0003 0.9933
vn -0.0916 0.9957 0.0103
vn -0.1154 -0.0003 -0.9933
vn -0.9893 -0.0944 0.1114
vn 0.9904 0.0945 -0.1013
vn 0.0963 -0.9953 -0.0098
vn 0.1053 0.0003 0.9944
vn -0.0918 0.9957 0.0094
vn -0.1052 -0.0003 -0.9944
vn -0.9904 -0.0945 0.1013
vn 0.9913 0.0946 -0.0911
vn 0.0965 -0.9953 -0.0089
vn 0.0952 0.0003 0.9955
vn -0.0920 0.9957 0.0085
vn -0.0951 -0.0003 -0.9955
vn -0.9913 -0.0946 0.0911
vn 0.9922 0.0947 -0.0810
vn 0.0967 -0.9953 -0.0079
vn 0.0850 0.0003 0.9964
vn -0.0922 0.9957 0.0075
vn -0.0849 -0.0003 -0.9964
vn -0.9922 -0.0947 0.0810
vn 0.9930 0.0948 -0.0709
vn 0.0968 -0.9953 -0.0069
vn 0.0748 0.0003 0.9972
vn -0.0923 0.9957 0.0066
vn -0.0747 -0.0003 -0.9972
vn -0.9930 -0.0948 0.0709
vn 0.9938 0.0933 -0.0608
vn 0.0970 -0.9953 -0.0059
vn 0.0646 0.0003 0.9979
vn -0.0924 0.9957 0.0057
vn -0.0645 -0.0003 -0.9979
vn -0.9938 -0.0933 0.0608
vn 0.9952 0.0841 -0.0507
vn 0.0940 -0.9956 -0.0048
vn 0.0545 0.0003 0.9985
vn -0.0896 0.9960 0.0046
vn -0.0544 -0.0003 -0.9985
vn -0.9952 -0.0841 0.0507
vn 0.9969 0.0678 -0.0406
vn 0.0781 -0.9969 -0.0032
vn 0.0446 0.0003 0.9990
vn -0.0744 0.9972 0.0030
vn -0.0445 -0.0003 -0.9990
vn -0.9969 -0.0678 0.0406
vn 0.9982 0.0509 -0.0305
vn 0.0608 -0.9981 -0.0019
vn 0.0347 0.0002 0.9994
vn -0.0579 0.9983 0.0018
vn -0.0346 -0.0002 -0.9994
vn -0.9982 -0.0509 0.0305
vn 0.9992 0.0339 -0.0203
vn 0.0435 -0.9991 -0.0009
vn 0.0248 0.0001 0.9997
vn -0.0414 0.9991 0.0008
vn -0.0247 -0.0001 -0.9997
vn -0.9992 -0.0339 0.0203
vn 0.9998 0.0170 -0.0102
vn 0.0261 -0.9997 -0.0003
vn 0.0149 0.0001 0.9999
vn -0.0248 0.9997 0.0003
vn -0.0148 -0.0001 -0.9999
vn -0.9998 -0.0170 0.0102
vn 1.0000 0.0085 -0.0051
vn 0.0085 -1.0000 -0.0000
vn 0.0049 -0.0000 1.0000
vn -0.0083 1.0000 0.0000
vn -0.0050 0.0000 -1.0000
f 1/1/1 2/2/1 3/3/1 4/4/1
f 8/5/2 7/6/2 6/7/2 5/8/2
f 5/9/3 6/10/3 2/11/3 1/12/3
f 6/13/4 7/14/4 3/15/4 2/16/4
f 7/17/5 8/18/5 4/19/5 3/20/5
f 8/21/6 5/22/6 1/23/6 4/24/6
f 9/25/7 10/26/7 11/27/7 12/28/7
f 16/29/8 15/30/8 14/31/8 13/32/8
f 13/33/9 14/34/9 10/35/9 9/36/9
f 14/37/10 15/38/10 11/39/10 10/40/10
f 15/41/11 16/42/11 12/43/11 11/44/11
f 16/45/12 13/46/12 9/47/12 12/48/12
f 17/49/13 18/50/13 19/51/13 20/52/13
f 24/53/14 23/54/14 22/55/14 21/56/14
f 21/57/15 22/58/15 18/59/15 17/60/15
f 22/61/16 23/62/16 19/63/16 18/64/16
f 23/65/17 24/66/17 20/67/17 19/68/17
f 24/69/18 21/70/18 17/71/18 20/72/18
f 25/73/19 26/74/19 27/75/19 28/76/19
f 32/77/20 31/78/20 30/79/20 29/80/20
f 29/81/21 30/82/21 26/83/21 25/84/21
f 30/85/22 31/86/22 27/87/22 26/88/22
f 31/89/23 32/90/23 28/91/23 27/92/23
f 32/93/24 29/94/24 25/95/24 28/96/24
f 33/97/25 34/98/25 35/99/25 36/100/25
f 40/101/26 39/102/26 38/103/26 37/104/26
f 37/105/27 38/106/27 34/107/27 33/108/27
f 38/109/28 39/110/28 35/111/28 34/112/28
f 39/113/29 40/114/29 36/115/29 35/116/29
f 40/117/30 37/118/30 33/119/30 36/120/30
f 41/121/31 42/122/31 43/123/31 44/124/31
f 48/125/32 47/126/32 46/127/32 45/128/32
f 45/129/33 46/130/33 42/131/33 41/132/33
f 46/133/34 47/134/34 43/135/34 42/136/34
f 47/137/35 48/138/35 44/139/35 43/140/35
f 48/141/36 45/142/36 41/143/36 44/144/36
f 49/145/37 50/146/37 51/147/37 52/148/37
f 56/149/38 55/150/38 54/151/38 53/152/38
f 53/153/39 54/154/39 50/155/39 49/156/39
f 54/157/40 55/158/40 51/159/40 50/160/40
f 55/161/41 56/162/41 52/163/41 51/164/41
f 56/165/42 53/166/42 49/167/42 52/168/42
f 57/169/43 58/170/43 59/171/43 60/172/43
f 64/173/44 63/174/44 62/175/44 61/176/44
f 61/177/45 62/178/45 58/179/45 57/180/45
f 62/181/46 63/182/46 59/183/46 58/184/46
f 63/185/47 64/186/47 60/187/47 59/188/47
f 64/189/48 61/190/48 57/191/48 60/192/48
f 65/193/49 66/194/49 67/195/49 68/196/49
f 72/197/50 71/198/50 70/199/50 69/200/50
f 69/201/51 70/202/51 66/203/51 65/204/51
f 70/205/52 71/206/52 67/207/52 66/208/52
f 71/209/53 72/210/53 68/211/53 67/212/53
f 72/213/54 69/214/54 65/215/54 68/216/54
f 73/217/55 74/218/55 75/219/55 76/220/55
f 80/221/56 79/222/56 78/223/56 77/224/56
f 77/225/57 78/226/57 74/227/57 73/228/57
f 78/229/58 79/230/58 75/231/58 74/232/58
f 79/233/59 80/234/59 76/235/59 75/236/59
f 80/237/60 77/238/60 73/239/60 76/240/60
f 81/241/61 82/242/61 83/243/61 84/244/61
f 88/245/62 87/246/62 86/247/62 85/248/62
f 85/249/63 86/250/63 82/251/63 81/252/63
f 86/253/64 87/254/64 83/255/64 82/256/64
f 87/257/65 88/258/65 84/259/65 83/260/65
f 88/261/66 85/262/66 81/263/66 84/264/66
f 89/265/67 90/266/67 91/267/67 92/268/67
f 96/269/68 95/270/68 94/271/68 93/272/68
f 93/273/69 94/274/69 90/275/69 89/276/69
f 94/277/70 95/278/70 91/279/70 90/280/70
f 95/281/71 96/282/71 92/283/71 91/284/71
f 96/285/72 93/286/72 89/287/72 92/288/72
f 97/289/73 98/290/73 99/291/73 100/292/73
f 104/293/74 103/294/74 102/295/74 101/296/74
f 101/297/75 102/298/75 98/299/75 97/300/75
f 102/301/76 103/302/76 99/303/76 98/304/76
f 103/305/77 104/306/77 100/307/77 99/308/77
f 104/309/78 101/310/78 97/311/78 100/312/78
f 105/313/79 106/314/79 107/315/79 108/316/79
f 112/317/80 111/318/80 110/319/80 109/320/80
f 109/321/81 110/322/81 106/323/81 105/324/81
f 110/325/82 111/326/82 107/327/82 106/328/82
f 111/329/83 112/330/83 108/331/83 107/332/83
f 112/333/84 109/334/84 105/335/84 108/336/84
f 113/337/85 114/338/85 115/339/85 116/340/85
f 120/341/86 119/342/86 118/343/86 117/344/86
f 117/345/87 118/346/87 114/347/87 113/348/87
f 118/349/88 119/350/88 115/351/88 114/352/88
f 119/353/89 120/354/89 116/355/89 115/356/89
f 120/357/90 117/358/90 113/359/90 116/360/90
f 121/361/91 122/362/91 123/363/91 124/364/91
f 128/365/92 127/366/92 126/367/92 125/368/92
f 125/369/93 126/370/93 122/371/93 121/372/93
f 126/373/94 127/374/94 123/375/94 122/376/94
f 127/377/95 128/378/95 124/379/95 123/380/95
f 128/381/96 125/382/96 121/383/96 124/384/96
f 129/385/97 130/386/97 131/387/97 132/388/97
f 136/389/98 135/390/98 134/391/98 133/392/98
f 133/393/99 134/394/99 130/395/99 129/396/99
f 134/397/100 135/398/100 131/399/100 130/400/100
f 135/401/101 136/402/101 132/403/101 131/404/101
f 136/405/102 133/406/102 129/407/102 132/408/102
f 137/409/103 138/410/103 139/411/103 140/412/103
f 144/413/104 143/414/104 142/415/104 141/416/104
f 141/417/105 142/418/105 138/419/105 137/420/105
f 142/421/106 143/422/106 139/423/106 138/424/106
f 143/425/107 144/426/107 140/427/107 139/428/107
f 144/429/108 141/430/108 137/431/108 140/432/108
f 145/433/109 146/434/109 147/435/109 148/436/109
f 152/437/110 151/438/110 150/439/110 149/440/110
f 149/441/111 150/442/111 146/443/111 145/444/111
f 150/445/112 151/446/112 147/447/112 146/448/112
f 151/449/113 152/450/113 148/451/113 147/452/113
f 152/453/114 149/454/114 145/455/114 148/456/114
f 153/457/115 154/458/115 155/459/115 156/460/115
f 160/461/116 159/462/116 158/463/116 157/464/116
f 157/465/117 158/466/117 154/467/117 153/468/117
f 158/469/118 159/470/118 155/471/118 154/472/118
f 159/473/119 160/474/119 156/475/119 155/476/119
f 160/477/120 157/478/120 153/479/120 156/480/120
f 161/481/121 162/482/121 163/483/121 164/484/121
f 168/485/122 167/486/122 166/487/122 165/488/122
f 165/489/123 166/490/123 162/491/123 161/492/123
f 166/493/124 167/494/124 163/495/124 162/496/124
f 167/497/125 168/498/125 164/499/125 163/500/125
f 168/501/126 165/502/126 161/503/126 164/504/126
f 169/505/127 170/506/127 171/507/127 172/508/127
f 176/509/128 175/510/128 174/511/128 173/512/128
f 173/513/129 174/514/129 170/515/129 169/516/129
f 174/517/130 175/518/130 171/519/130 170/520/130
f 175/521/131 176/522/131 172/523/131 171/524/131
f 176/525/132 173/526/132 169/527/132 172/528/132
f 177/529/133 178/530/133 179/531/133 180/532/133
f 184/533/134 183/534/134 182/535/134 181/536/134
f 181/537/135 182/538/135 178/539/135 177/540/135
f 182/541/136 183/542/136 179/543/136 178/544/136
f 183/545/137 184/546/137 180/547/137 179/548/137
f 184/549/138 181/550/138 177/551/138 180/552/138
f 185/553/139 186/554/139 187/555/139 188/556/139
f 192/557/140 191/558/140 190/559/140 189/560/140
f 189/561/141 190/562/141 186/563/141 185/564/141
f 190/565/142 191/566/142 187/567/142 186/568/142
f 191/569/143 192/570/143 188/571/143 187/572/143
f 192/573/144 189/574/144 185/575/144 188/576/144
f 193/577/145 194/578/145 195/579/145 196/580/145
f 200/581/146 199/582/146 198/583/146 197/584/146
f 197/585/147 198/586/147 194/587/147 193/588/147
f 198/589/148 199/590/148 195/591/148 194/592/148
f 199/593/149 200/594/149 196/595/149 195/596/149
f 200/597/150 197/598/150 193/599/150 196/600/150
f 201/601/151 202/602/151 203/603/151 204/604/151
f 208/605/152 207/606/152 206/607/152 205/608/152
f 205/609/153 206/610/153 202/611/153 201/612/153
f 206/613/154 207/614/154 203/615/154 202/616/154
f 207/617/155 208/618/155 204/619/155 203/620/155
f 208/621/156 205/622/156 201/623/156 204/624/156
f 209/625/157 210/626/157 211/627/157 212/628/157
f 216/629/158 215/630/158 214/631/158 213/632/158
f 213/633/159 214/634/159 210/635/159 209/636/159
f 214/637/160 215/638/160 211/639/160 210/640/160
f 215/641/161 216/642/161 212/643/161 211/644/161
f 216/645/162 213/646/162 209/647/162 212/648/162
f 217/649/163 218/650/163 219/651/163 220/652/163
f 224/653/164 223/654/164 222/655/164 221/656/164
f 221/657/165 222/658/165 218/659/165 217/660/165
f 222/661/166 223/662/166 219/663/166 218/664/166
f 223/665/167 224/666/167 220/667/167 219/668/167
f 224/669/168 221/670/168 217/671/168 220/672/168
f 225/673/169 226/674/169 227/675/169 228/676/169
f 232/677/170 231/678/170 230/679/170 229/680/170
f 229/681/171 230/682/171 226/683/171 225/684/171
f 230/685/172 231/686/172 227/687/172 226/688/172
f 231/689/173 232/690/173 228/691/173 227/692/173
f 232/693/174 229/694/174 225/695/174 228/696/174
f 233/697/175 234/698/175 235/699/175 236/700/175
f 240/701/176 239/702/176 238/703/176 237/704/176
f 237/705/177 238/706/177 234/707/177 233/708/177
f 238/709/178 239/710/178 235/711/178 234/712/178
f 239/713/179 240/714/179 236/715/179 235/716/179
f 240/717/180 237/718/180 233/719/180 236/720/180
f 241/721/181 242/722/181 243/723/181 244/724/181
f 248/725/182 247/726/182 246/727/182 245/728/182
f 245/729/183 246/730/183 242/731/183 241/732/183
f 246/733/184 247/734/184 243/735/184 242/736/184
f 247/737/185 248/738/185 244/739/185 243/740/185
f 248/741/186 245/742/186 241/743/186 244/744/186
f 249/745/187 250/746/187 251/747/187 252/748/187
f 256/749/188 255/750/188 254/751/188 253/752/188
f 253/753/189 254/754/189 250/755/189 249/756/189
f 254/757/190 255/758/190 251/759/190 250/760/190
f 255/761/191 256/762/191 252/763/191 251/764/191
f 256/765/192 253/766/192 249/767/192 252/768/192
f 257/769/193 258/770/193 259/771/193 260/772/193
f 264/773/194 263/774/194 262/775/194 261/776/194
f 261/777/195 262/778/195 258/779/195 257/780/195
f 262/781/196 263/782/196 259/783/196 258/784/196
f 263/785/197 264/786/197 260/787/197 259/788/197
f 264/789/198 261/790/198 257/791/198 260/792/198
f 265/793/199 266/794/199 267/795/199 268/796/199
f 272/797/200 271/798/200 270/799/200 269/800/200
f 269/801/201 270/802/201 266/803/201 265/804/201
f 270/805/202 271/806/202 267/807/202 266/808/202
f 271/809/203 272/810/203 268/811/203 267/812/203
f 272/813/204 269/814/204 265/815/204 268/816/204
f 273/817/205 274/818/205 275/819/205 276/820/205
f 280/821/206 279/822/206 278/823/206 277/824/206
f 277/825/207 278/826/207 274/827/207 273/828/207
f 278/829/208 279/830/208 275/831/208 274/832/208
f 279/833/209 280/834/209 276/835/209 275/836/209
f 280/837/210 277/838/210 273/839/210 276/840/210
f 281/841/211 282/842/211 283/843/211 284/844/211
f 288/845/212 287/846/212 286/847/212 285/848/212
f 285/849/213 286/850/213 282/851/213 281/852/213
f 286/853/214 287/854/214 283/855/214 282/856/214
f 287/857/215 288/858/215 284/859/215 283/860/215
f 288/861/216 285/862/216 281/863/216 284/864/216
f 289/865/217 290/866/217 291/867/217 292/868/217
f 296/869/218 295/870/218 294/871/218 293/872/218
f 293/873/219 294/874/219 290/875/219 289/876/219
f 294/877/220 295/878/220 291/879/220 290/880/220
f 295/881/221 296/882/221 292/883/221 291/884/221
f 296/885/222 293/886/222 289/887/222 292/888/222
f 297/889/223 298/890/223 299/891/223 300/892/223
f 304/893/224 303/894/224 302/895/224 301/896/224
f 301/897/225 302/898/225 298/899/225 297/900/225
f 302/901/226 303/902/226 299/903/226 298/904/226
f 303/905/227 304/906/227 300/907/227 299/908/227
f 304/909/228 301/910/228 297/911/228 300/912/228
f 305/913/229 306/914/229 307/915/229 308/916/229
f 312/917/230 311/918/230 310/919/230 309/920/230
f 309/921/231 310/922/231 306/923/231 305/924/231
f 310/925/232 311/926/232 307/927/232 306/928/232
f 311/929/233 312/930/233 308/931/233 307/932/233
f 312/933/234 309/934/234 305/935/234 308/936/234
f 313/937/235 314/938/235 315/939/235 316/940/235
f 320/941/236 319/942/236 318/943/236 317/944/236
f 317/945/237 318/946/237 314/947/237 313/948/237
f 318/949/238 319/950/238 315/951/238 314/952/238
f 319/953/239 320/954/239 316/955/239 315/956/239
f 320/957/240 317/958/240 313/959/240 316/960/240
f 321/961/241 322/962/241 323/963/241 324/964/241
f 328/965/242 327/966/242 326/967/242 325/968/242
f 325/969/243 326/970/243 322/971/243 321/972/243
f 326/973/244 327/974/244 323/975/244 322/976/244
f 327/977/245 328/978/245 324/979/245 323/980/245
f 328/981/246 325/982/246 321/983/246 324/984/246
f 329/985/247 330/986/247 331/987/247 332/988/247
f 336/989/248 335/990/248 334/991/248 333/992/248
f 333/993/249 334/994/249 330/995/249 329/996/249
f 334/997/250 335/998/250 331/999/250 330/1000/250
f 335/1001/251 336/1002/251 332/1003/251 331/1004/251
f 336/1005/252 333/1006/252 329/1007/252 332/1008/252
f 337/1009/253 338/1010/253 339/1011/253 340/1012/253
f 344/1013/254 343/1014/254 342/1015/254 341/1016/254
f 341/1017/255 342/1018/255 338/1019/255 337/1020/255
f 342/1021/256 343/1022/256 339/1023/256 338/1024/256
f 343/1025/257 344/1026/257 340/1027/257 339/1028/257
f 344/1029/258 341/1030/258 337/1031/258 340/1032/258
f 345/1033/259 346/1034/259 347/1035/259 348/1036/259
f 352/1037/260 351/1038/260 350/1039/260 349/1040/260
f 349/1041/261 350/1042/261 346/1043/261 345/1044/261
f 350/1045/262 351/1046/262 347/1047/262 346/1048/262
f 351/1049/263 352/1050/263 348/1051/263 347/1052/263
f 352/1053/264 349/1054/264 345/1055/264 348/1056/264
f 353/1057/265 354/1058/265 355/1059/265 356/1060/265
f 360/1061/266 359/1062/266 358/1063/266 357/1064/266
f 357/1065/267 358/1066/267 354/1067/267 353/1068/267
f 358/1069/268 359/1070/268 355/1071/268 354/1072/268
f 359/1073/269 360/1074/269 356/1075/269 355/1076/269
f 360/1077/270 357/1078/270 353/1079/270 356/1080/270
f 361/1081/271 362/1082/271 363/1083/271 364/1084/271
f 368/1085/272 367/1086/272 366/1087/272 365/1088/272
f 365/1089/273 366/1090/273 362/1091/273 361/1092/273
f 366/1093/274 367/1094/274 363/1095/274 362/1096/274
f 367/1097/275 368/1098/275 364/1099/275 363/1100/275
f 368/1101/276 365/1102/276 361/1103/276 364/1104/276
f 369/1105/277 370/1106/277 371/1107/277 372/1108/277
f 376/1109/278 375/1110/278 374/1111/278 373/1112/278
f 373/1113/279 374/1114/279 370/1115/279 369/1116/279
f 374/1117/280 375/1118/280 371/1119/280 370/1120/280
f 375/1121/281 376/1122/281 372/1123/281 371/1124/281
f 376/1125/282 373/1126/282 369/1127/282 372/1128/282
f 377/1129/283 378/1130/283 379/1131/283 380/1132/283
f 384/1133/284 383/1134/284 382/1135/284 381/1136/284
f 381/1137/285 382/1138/285 378/1139/285 377/1140/285
f 382/1141/286 383/1142/286 379/1143/286 378/1144/286
f 383/1145/287 384/1146/287 380/1147/287 379/1148/287
f 384/1149/288 381/1150/288 377/1151/288 380/1152/288
f 385/1153/289 386/1154/289 387/1155/289 388/1156/289
f 392/1157/290 391/1158/290 390/1159/290 389/1160/290
f 389/1161/291 390/1162/291 386/1163/291 385/1164/291
f 390/1165/292 391/1166/292 387/1167/292 386/1168/292
f 391/1169/293 392/1170/293 388/1171/293 387/1172/293
f 392/1173/294 389/1174/294 385/1175/294 388/1176/294
f 393/1177/295 394/1178/295 395/1179/295 396/1180/295
f 400/1181/296 399/1182/296 398/1183/296 397/1184/296
f 397/1185/297 398/1186/297 394/1187/297 393/1188/297
f 398/1189/298 399/1190/298 395/1191/298 394/1192/298
f 399/1193/299 400/1194/299 396/1195/299 395/1196/299
f 400/1197/300 397/1198/300 393/1199/300 396/1200/300
f 401/1201/301 402/1202/301 403/1203/301 404/1204/301
f 408/1205/302 407/1206/302 406/1207/302 405/1208/302
f 405/1209/303 406/1210/303 402/1211/303 401/1212/303
f 406/1213/304 407/1214/304 403/1215/304 402/1216/304
f 407/1217/305 408/1218/305 404/1219/305 403/1220/305
f 408/1221/306 405/1222/306 401/1223/306 404/1224/306
f 409/1225/307 410/1226/307 411/1227/307 412/1228/307
f 416/1229/308 415/1230/308 414/1231/308 413/1232/308
f 413/1233/309 414/1234/309 410/1235/309 409/1236/309
f 414/1237/310 415/1238/310 411/1239/310 410/1240/310
f 415/1241/311 416/1242/311 412/1243/311 411/1244/311
f 416/1245/312 413/1246/312 409/1247/312 412/1248/312
f 417/1249/313 418/1250/313 419/1251/313 420/1252/313
f 424/1253/314 423/1254/314 422/1255/314 421/1256/314
f 421/1257/315 422/1258/315 418/1259/315 417/1260/315
f 422/1261/316 423/1262/316 419/1263/316 418/1264/316
f 423/1265/317 424/1266/317 420/1267/317 419/1268/317
f 424/1269/318 421/1270/318 417/1271/318 420/1272/318
f 425/1273/319 426/1274/319 427/1275/319 428/1276/319
f 432/1277/320 431/1278/320 430/1279/320 429/1280/320
f 429/1281/321 430/1282/321 426/1283/321 425/1284/321
f 430/1285/322 431/1286/322 427/1287/322 426/1288/322
f 431/1289/323 432/1290/323 428/1291/323 427/1292/323
f 432/1293/324 429/1294/324 425/1295/324 428/1296/324
f 433/1297/325 434/1298/325 435/1299/325 436/1300/325
f 440/1301/326 439/1302/326 438/1303/326 437/1304/326
f 437/1305/327 438/1306/327 434/1307/327 433/1308/327
f 438/1309/328 439/1310/328 435/1311/328 434/1312/328
f 439/1313/329 440/1314/329 436/1315/329 435/1316/329
f 440/1317/330 437/1318/330 433/1319/330 436/1320/330
f 441/1321/331 442/1322/331 443/1323/331 444/1324/331
f 448/1325/332 447/1326/332 446/1327/332 445/1328/332
f 445/1329/333 446/1330/333 442/1331/333 441/1332/333
f 446/1333/334 447/1334/334 443/1335/334 442/1336/334
f 447/1337/335 448/1338/335 444/1339/335 443/1340/335
f 448/1341/336 445/1342/336 441/1343/336 444/1344/336
f 449/1345/337 450/1346/337 451/1347/337 452/1348/337
f 456/1349/338 455/1350/338 454/1351/338 453/1352/338
f 453/1353/339 454/1354/339 450/1355/339 449/1356/339
f 454/1357/340 455/1358/340 451/1359/340 450/1360/340
f 455/1361/341 456/1362/341 452/1363/341 451/1364/341
f 456/1365/342 453/1366/342 449/1367/342 452/1368/342
f 457/1369/343 458/1370/343 459/1371/343 460/1372/343
f 464/1373/344 463/1374/344 462/1375/344 461/1376/344
f 461/1377/345 462/1378/345 458/1379/345 457/1380/345
f 462/1381/346 463/1382/346 459/1383/346 458/1384/346
f 463/1385/347 464/1386/347 460/1387/347 459/1388/347
f 464/1389/348 461/1390/348 457/1391/348 460/1392/348
f 465/1393/349 466/1394/349 467/1395/349 468/1396/349
f 472/1397/350 471/1398/350 470/1399/350 469/1400/350
f 469/1401/351 470/1402/351 466/1403/351 465/1404/351
f 470/1405/352 471/1406/352 467/1407/352 466/1408/352
f 471/1409/353 472/1410/353 468/1411/353 467/1412/353
f 472/1413/354 469/1414/354 465/1415/354 468/1416/354
f 473/1417/355 474/1418/355 475/1419/355 476/1420/355
f 480/1421/356 479/1422/356 478/1423/356 477/1424/356
f 477/1425/357 478/1426/357 474/1427/357 473/1428/357
f 478/1429/358 479/1430/358 475/1431/358 474/1432/358
f 479/1433/359 480/1434/359 476/1435/359 475/1436/359
f 480/1437/360 477/1438/360 473/1439/360 476/1440/360
f 481/1441/361 482/1442/361 483/1443/361 484/1444/361
f 488/1445/362 487/1446/362 486/1447/362 485/1448/362
f 485/1449/363 486/1450/363 482/1451/363 481/1452/363
f 486/1453/364 487/1454/364 483/1455/364 482/1456/364
f 487/1457/365 488/1458/365 484/1459/365 483/1460/365
f 488/1461/366 485/1462/366 481/1463/366 484/1464/366
f 489/1465/367 490/1466/367 491/1467/367 492/1468/367
f 496/1469/368 495/1470/368 494/1471/368 493/1472/368
f 493/1473/369 494/1474/369 490/1475/369 489/1476/369
f 494/1477/370 495/1478/370 491/1479/370 490/1480/370
f 495/1481/371 496/1482/371 492/1483/371 491/1484/371
f 496/1485/372 493/1486/372 489/1487/372 492/1488/372
f 497/1489/373 498/1490/373 499/1491/373 500/1492/373
f 504/1493/374 503/1494/374 502/1495/374 501/1496/374
f 501/1497/375 502/1498/375 498/1499/375 497/1500/375
f 502/1501/376 503/1502/376 499/1503/376 498/1504/376
f 503/1505/377 504/1506/377 500/1507/377 499/1508/377
f 504/1509/378 501/1510/378 497/1511/378 500/1512/378
f 505/1513/379 506/1514/379 507/1515/379 508/1516/379
f 512/1517/380 511/1518/380 510/1519/380 509/1520/380
f 509/1521/381 510/1522/381 506/1523/381 505/1524/381
f 510/1525/382 511/1526/382 507/1527/382 506/1528/382
f 511/1529/383 512/1530/383 508/1531/383 507/1532/383
f 512/1533/384 509/1534/384 505/1535/384 508/1536/384
