# road_junction_diverge_right_ramp_metal.obj — gray-box hull for Missile Rider.
# GENERATED by tools/gen_road_junctions.py. Do not hand-edit; edit the generator.
o road_junction_diverge_right_ramp_metal
v 620.3376 -84.0000 264.8095
v 474.2038 -84.0000 455.1905
v 474.2038 -75.0000 455.1905
v 620.3376 -75.0000 264.8095
v 655.7964 -84.0000 292.2698
v 520.6742 -84.0000 490.6180
v 520.6742 -75.0000 490.6180
v 655.7964 -75.0000 292.2698
v 655.7964 -84.0000 292.2698
v 520.6742 -84.0000 490.6180
v 520.6742 -75.0000 490.6180
v 655.7964 -75.0000 292.2698
v 705.6897 -84.0000 323.2778
v 588.4280 -84.0000 532.6810
v 588.4280 -75.0000 532.6810
v 705.6897 -75.0000 323.2778
v 705.6897 -84.0000 323.2778
v 588.4280 -84.0000 532.6810
v 588.4280 -75.0000 532.6810
v 705.6897 -75.0000 323.2778
v 754.7228 -84.0000 347.7127
v 657.0419 -84.0000 566.9351
v 657.0419 -75.0000 566.9351
v 754.7228 -75.0000 347.7127
v 754.7228 -84.0000 347.7127
v 657.0419 -84.0000 566.9351
v 657.0419 -75.0000 566.9351
v 754.7228 -75.0000 347.7127
v 803.7679 -84.0000 366.9361
v 725.6439 -84.0000 593.8648
v 725.6439 -75.0000 593.8648
v 803.7679 -75.0000 366.9361
v 803.7679 -84.0000 366.9361
v 725.6439 -84.0000 593.8648
v 725.6439 -75.0000 593.8648
v 803.7679 -75.0000 366.9361
v 852.8205 -84.0000 381.4556
v 794.2383 -84.0000 614.1961
v 794.2383 -75.0000 614.1961
v 852.8205 -75.0000 381.4556
v 852.8205 -84.0000 381.4556
v 794.2383 -84.0000 614.1961
v 794.2383 -75.0000 614.1961
v 852.8205 -75.0000 381.4556
v 901.8780 -84.0000 391.6121
v 862.8279 -84.0000 628.4138
v 862.8279 -75.0000 628.4138
v 901.8780 -75.0000 391.6121
v 901.8780 -84.0000 391.6121
v 862.8279 -84.0000 628.4138
v 862.8279 -75.0000 628.4138
v 901.8780 -75.0000 391.6121
v 950.9383 -84.0000 397.6243
v 931.4146 -84.0000 636.8289
v 931.4146 -75.0000 636.8289
v 950.9383 -75.0000 397.6243
v 950.9383 -84.0000 397.6243
v 931.4146 -84.0000 636.8289
v 931.4146 -75.0000 636.8289
v 950.9383 -75.0000 397.6243
v 1000.5129 -84.0000 399.6163
v 999.4871 -84.0000 639.6141
v 999.4871 -75.0000 639.6141
v 1000.5129 -75.0000 399.6163
v 1000.5129 -84.0000 399.6163
v 999.4871 -84.0000 639.6141
v 999.4871 -75.0000 639.6141
v 1000.5129 -75.0000 399.6163
v 1500.0000 -84.0000 399.6152
v 1500.0000 -84.0000 639.6152
v 1500.0000 -75.0000 639.6152
v 1500.0000 -75.0000 399.6152
vt 1.1620 0.7100
vt 1.6380 0.7100
vt 1.6380 0.6875
vt 1.1620 0.6875
vt 1.2307 0.6875
vt 1.7265 0.6875
vt 1.7265 0.7100
vt 1.2307 0.7100
vt 2.1395 -0.2307
vt 1.8017 -0.7265
vt 1.6855 -0.6380
vt 2.0508 -0.1620
vt 1.8017 0.7100
vt 1.8017 0.6875
vt 1.6855 0.6875
vt 1.6855 0.7100
vt 1.8017 -0.7265
vt 2.1395 -0.2307
vt 2.0508 -0.1620
vt 1.6855 -0.6380
vt 2.1395 0.6875
vt 2.1395 0.7100
vt 2.0508 0.7100
vt 2.0508 0.6875
vt 1.2307 0.7100
vt 1.7265 0.7100
vt 1.7265 0.6875
vt 1.2307 0.6875
vt 1.3082 0.6875
vt 1.8317 0.6875
vt 1.8317 0.7100
vt 1.3082 0.7100
vt 2.2642 -0.3082
vt 1.9711 -0.8317
vt 1.8017 -0.7265
vt 2.1395 -0.2307
vt 1.9711 0.7100
vt 1.9711 0.6875
vt 1.8017 0.6875
vt 1.8017 0.7100
vt 1.9711 -0.8317
vt 2.2642 -0.3082
vt 2.1395 -0.2307
vt 1.8017 -0.7265
vt 2.2642 0.6875
vt 2.2642 0.7100
vt 2.1395 0.7100
vt 2.1395 0.6875
vt 1.3082 0.7100
vt 1.8317 0.7100
vt 1.8317 0.6875
vt 1.3082 0.6875
vt 1.3693 0.6875
vt 1.9173 0.6875
vt 1.9173 0.7100
vt 1.3693 0.7100
vt 2.3868 -0.3693
vt 2.1426 -0.9173
vt 1.9711 -0.8317
vt 2.2642 -0.3082
vt 2.1426 0.7100
vt 2.1426 0.6875
vt 1.9711 0.6875
vt 1.9711 0.7100
vt 2.1426 -0.9173
vt 2.3868 -0.3693
vt 2.2642 -0.3082
vt 1.9711 -0.8317
vt 2.3868 0.6875
vt 2.3868 0.7100
vt 2.2642 0.7100
vt 2.2642 0.6875
vt 1.3693 0.7100
vt 1.9173 0.7100
vt 1.9173 0.6875
vt 1.3693 0.6875
vt 1.4173 0.6875
vt 1.9847 0.6875
vt 1.9847 0.7100
vt 1.4173 0.7100
vt 2.5094 -0.4173
vt 2.3141 -0.9847
vt 2.1426 -0.9173
vt 2.3868 -0.3693
vt 2.3141 0.7100
vt 2.3141 0.6875
vt 2.1426 0.6875
vt 2.1426 0.7100
vt 2.3141 -0.9847
vt 2.5094 -0.4173
vt 2.3868 -0.3693
vt 2.1426 -0.9173
vt 2.5094 0.6875
vt 2.5094 0.7100
vt 2.3868 0.7100
vt 2.3868 0.6875
vt 1.4173 0.7100
vt 1.9847 0.7100
vt 1.9847 0.6875
vt 1.4173 0.6875
vt 1.4536 0.6875
vt 2.0355 0.6875
vt 2.0355 0.7100
vt 1.4536 0.7100
vt 2.6321 -0.4536
vt 2.4856 -1.0355
vt 2.3141 -0.9847
vt 2.5094 -0.4173
vt 2.4856 0.7100
vt 2.4856 0.6875
vt 2.3141 0.6875
vt 2.3141 0.7100
vt 2.4856 -1.0355
vt 2.6321 -0.4536
vt 2.5094 -0.4173
vt 2.3141 -0.9847
vt 2.6321 0.6875
vt 2.6321 0.7100
vt 2.5094 0.7100
vt 2.5094 0.6875
vt 1.4536 0.7100
vt 2.0355 0.7100
vt 2.0355 0.6875
vt 1.4536 0.6875
vt 1.4790 0.6875
vt 2.0710 0.6875
vt 2.0710 0.7100
vt 1.4790 0.7100
vt 2.7547 -0.4790
vt 2.6571 -1.0710
vt 2.4856 -1.0355
vt 2.6321 -0.4536
vt 2.6571 0.7100
vt 2.6571 0.6875
vt 2.4856 0.6875
vt 2.4856 0.7100
vt 2.6571 -1.0710
vt 2.7547 -0.4790
vt 2.6321 -0.4536
vt 2.4856 -1.0355
vt 2.7547 0.6875
vt 2.7547 0.7100
vt 2.6321 0.7100
vt 2.6321 0.6875
vt 1.4790 0.7100
vt 2.0710 0.7100
vt 2.0710 0.6875
vt 1.4790 0.6875
vt 1.4941 0.6875
vt 2.0921 0.6875
vt 2.0921 0.7100
vt 1.4941 0.7100
vt 2.8773 -0.4941
vt 2.8285 -1.0921
vt 2.6571 -1.0710
vt 2.7547 -0.4790
vt 2.8285 0.7100
vt 2.8285 0.6875
vt 2.6571 0.6875
vt 2.6571 0.7100
vt 2.8285 -1.0921
vt 2.8773 -0.4941
vt 2.7547 -0.4790
vt 2.6571 -1.0710
vt 2.8773 0.6875
vt 2.8773 0.7100
vt 2.7547 0.7100
vt 2.7547 0.6875
vt 1.4941 0.7100
vt 2.0921 0.7100
vt 2.0921 0.6875
vt 1.4941 0.6875
vt 1.4990 0.6875
vt 2.0990 0.6875
vt 2.0990 0.7100
vt 1.4990 0.7100
vt 3.0013 -0.4990
vt 2.9987 -1.0990
vt 2.8285 -1.0921
vt 2.8773 -0.4941
vt 2.9987 0.7100
vt 2.9987 0.6875
vt 2.8285 0.6875
vt 2.8285 0.7100
vt 2.9987 -1.0990
vt 3.0013 -0.4990
vt 2.8773 -0.4941
vt 2.8285 -1.0921
vt 3.0013 0.6875
vt 3.0013 0.7100
vt 2.8773 0.7100
vt 2.8773 0.6875
vt 1.4990 0.7100
vt 2.0990 0.7100
vt 2.0990 0.6875
vt 1.4990 0.6875
vt 1.4990 0.6875
vt 2.0990 0.6875
vt 2.0990 0.7100
vt 1.4990 0.7100
vt 4.2500 -0.4990
vt 4.2500 -1.0990
vt 2.9987 -1.0990
vt 3.0013 -0.4990
vt 4.2500 0.7100
vt 4.2500 0.6875
vt 2.9987 0.6875
vt 2.9987 0.7100
vt 4.2500 -1.0990
vt 4.2500 -0.4990
vt 3.0013 -0.4990
vt 2.9987 -1.0990
vt 4.2500 0.6875
vt 4.2500 0.7100
vt 3.0013 0.7100
vt 3.0013 0.6875
vn -0.7933 0.0000 -0.6089
vn 0.8265 0.0000 0.5630
vn 0.0000 -1.0000 0.0000
vn -0.6063 0.0000 0.7953
vn 0.0000 1.0000 0.0000
vn 0.6123 0.0000 -0.7906
vn -0.8265 0.0000 -0.5630
vn 0.8725 0.0000 0.4886
vn -0.0000 -1.0000 -0.0000
vn -0.5274 0.0000 0.8496
vn 0.0000 1.0000 0.0000
vn 0.5279 0.0000 -0.8493
vn -0.8725 0.0000 -0.4886
vn 0.9134 0.0000 0.4070
vn 0.0000 -1.0000 0.0000
vn -0.4467 0.0000 0.8947
vn -0.0000 1.0000 -0.0000
vn 0.4460 0.0000 -0.8950
vn -0.9134 0.0000 -0.4070
vn 0.9455 0.0000 0.3255
vn 0.0000 -1.0000 0.0000
vn -0.3654 0.0000 0.9308
vn 0.0000 1.0000 0.0000
vn 0.3649 0.0000 -0.9310
vn -0.9455 0.0000 -0.3255
vn 0.9698 0.0000 0.2441
vn 0.0000 -1.0000 0.0000
vn -0.2842 0.0000 0.9588
vn 0.0000 1.0000 0.0000
vn 0.2838 0.0000 -0.9589
vn -0.9698 0.0000 -0.2441
vn 0.9867 0.0000 0.1627
vn 0.0000 -1.0000 0.0000
vn -0.2030 0.0000 0.9792
vn 0.0000 1.0000 0.0000
vn 0.2027 0.0000 -0.9792
vn -0.9867 0.0000 -0.1627
vn 0.9967 0.0000 0.0813
vn 0.0000 -1.0000 0.0000
vn -0.1218 0.0000 0.9926
vn 0.0000 1.0000 0.0000
vn 0.1216 0.0000 -0.9926
vn -0.9967 0.0000 -0.0813
vn 1.0000 0.0000 0.0043
vn 0.0000 -1.0000 0.0000
vn -0.0409 0.0000 0.9992
vn -0.0000 1.0000 -0.0000
vn 0.0401 0.0000 -0.9992
vn -1.0000 0.0000 -0.0043
vn 1.0000 0.0000 -0.0000
vn -0.0000 -1.0000 0.0000
vn -0.0000 0.0000 1.0000
vn 0.0000 1.0000 0.0000
vn -0.0000 -0.0000 -1.0000
f 1/1/1 2/2/1 3/3/1 4/4/1
f 8/5/2 7/6/2 6/7/2 5/8/2
f 5/9/3 6/10/3 2/11/3 1/12/3
f 6/13/4 7/14/4 3/15/4 2/16/4
f 7/17/5 8/18/5 4/19/5 3/20/5
f 8/21/6 5/22/6 1/23/6 4/24/6
f 9/25/7 10/26/7 11/27/7 12/28/7
f 16/29/8 15/30/8 14/31/8 13/32/8
f 13/33/9 14/34/9 10/35/9 9/36/9
f 14/37/10 15/38/10 11/39/10 10/40/10
f 15/41/11 16/42/11 12/43/11 11/44/11
f 16/45/12 13/46/12 9/47/12 12/48/12
f 17/49/13 18/50/13 19/51/13 20/52/13
f 24/53/14 23/54/14 22/55/14 21/56/14
f 21/57/15 22/58/15 18/59/15 17/60/15
f 22/61/16 23/62/16 19/63/16 18/64/16
f 23/65/17 24/66/17 20/67/17 19/68/17
f 24/69/18 21/70/18 17/71/18 20/72/18
f 25/73/19 26/74/19 27/75/19 28/76/19
f 32/77/20 31/78/20 30/79/20 29/80/20
f 29/81/21 30/82/21 26/83/21 25/84/21
f 30/85/22 31/86/22 27/87/22 26/88/22
f 31/89/23 32/90/23 28/91/23 27/92/23
f 32/93/24 29/94/24 25/95/24 28/96/24
f 33/97/25 34/98/25 35/99/25 36/100/25
f 40/101/26 39/102/26 38/103/26 37/104/26
f 37/105/27 38/106/27 34/107/27 33/108/27
f 38/109/28 39/110/28 35/111/28 34/112/28
f 39/113/29 40/114/29 36/115/29 35/116/29
f 40/117/30 37/118/30 33/119/30 36/120/30
f 41/121/31 42/122/31 43/123/31 44/124/31
f 48/125/32 47/126/32 46/127/32 45/128/32
f 45/129/33 46/130/33 42/131/33 41/132/33
f 46/133/34 47/134/34 43/135/34 42/136/34
f 47/137/35 48/138/35 44/139/35 43/140/35
f 48/141/36 45/142/36 41/143/36 44/144/36
f 49/145/37 50/146/37 51/147/37 52/148/37
f 56/149/38 55/150/38 54/151/38 53/152/38
f 53/153/39 54/154/39 50/155/39 49/156/39
f 54/157/40 55/158/40 51/159/40 50/160/40
f 55/161/41 56/162/41 52/163/41 51/164/41
f 56/165/42 53/166/42 49/167/42 52/168/42
f 57/169/43 58/170/43 59/171/43 60/172/43
f 64/173/44 63/174/44 62/175/44 61/176/44
f 61/177/45 62/178/45 58/179/45 57/180/45
f 62/181/46 63/182/46 59/183/46 58/184/46
f 63/185/47 64/186/47 60/187/47 59/188/47
f 64/189/48 61/190/48 57/191/48 60/192/48
f 65/193/49 66/194/49 67/195/49 68/196/49
f 72/197/50 71/198/50 70/199/50 69/200/50
f 69/201/51 70/202/51 66/203/51 65/204/51
f 70/205/52 71/206/52 67/207/52 66/208/52
f 71/209/53 72/210/53 68/211/53 67/212/53
f 72/213/54 69/214/54 65/215/54 68/216/54
