# road_junction_diverge_right_ramp_glass.obj — gray-box hull for Missile Rider.
# GENERATED by tools/gen_road_junctions.py. Do not hand-edit; edit the generator.
o road_junction_diverge_right_ramp_glass
v 474.2038 -75.0000 455.1905
v 472.3771 -75.0000 457.5702
v 472.3771 75.0000 457.5702
v 474.2038 75.0000 455.1905
v 520.6742 -75.0000 490.6180
v 518.9852 -75.0000 493.0973
v 518.9852 75.0000 493.0973
v 520.6742 75.0000 490.6180
v 520.6742 -75.0000 490.6180
v 518.9852 -75.0000 493.0973
v 518.9852 75.0000 493.0973
v 520.6742 75.0000 490.6180
v 588.4280 -75.0000 532.6810
v 586.9622 -75.0000 535.2986
v 586.9622 75.0000 535.2986
v 588.4280 75.0000 532.6810
v 588.4280 -75.0000 532.6810
v 586.9622 -75.0000 535.2986
v 586.9622 75.0000 535.2986
v 588.4280 75.0000 532.6810
v 657.0419 -75.0000 566.9351
v 655.8209 -75.0000 569.6754
v 655.8209 75.0000 569.6754
v 657.0419 75.0000 566.9351
v 657.0419 -75.0000 566.9351
v 655.8209 -75.0000 569.6754
v 655.8209 75.0000 569.6754
v 657.0419 75.0000 566.9351
v 725.6439 -75.0000 593.8648
v 724.6674 -75.0000 596.7014
v 724.6674 75.0000 596.7014
v 725.6439 75.0000 593.8648
v 725.6439 -75.0000 593.8648
v 724.6674 -75.0000 596.7014
v 724.6674 75.0000 596.7014
v 725.6439 75.0000 593.8648
v 794.2383 -75.0000 614.1961
v 793.5060 -75.0000 617.1053
v 793.5060 75.0000 617.1053
v 794.2383 75.0000 614.1961
v 794.2383 -75.0000 614.1961
v 793.5060 -75.0000 617.1053
v 793.5060 75.0000 617.1053
v 794.2383 75.0000 614.1961
v 862.8279 -75.0000 628.4138
v 862.3397 -75.0000 631.3739
v 862.3397 75.0000 631.3739
v 862.8279 75.0000 628.4138
v 862.8279 -75.0000 628.4138
v 862.3397 -75.0000 631.3739
v 862.3397 75.0000 631.3739
v 862.8279 75.0000 628.4138
v 931.4146 -75.0000 636.8289
v 931.1705 -75.0000 639.8190
v 931.1705 75.0000 639.8190
v 931.4146 75.0000 636.8289
v 931.4146 -75.0000 636.8289
v 931.1705 -75.0000 639.8190
v 931.1705 75.0000 639.8190
v 931.4146 75.0000 636.8289
v 999.4871 -75.0000 639.6141
v 999.4743 -75.0000 642.6141
v 999.4743 75.0000 642.6141
v 999.4871 75.0000 639.6141
v 999.4871 -75.0000 639.6141
v 999.4743 -75.0000 642.6141
v 999.4743 75.0000 642.6141
v 999.4871 75.0000 639.6141
v 1500.0000 -75.0000 639.6152
v 1500.0000 -75.0000 642.6152
v 1500.0000 75.0000 642.6152
v 1500.0000 75.0000 639.6152
v 622.1642 -75.0000 262.4298
v 620.3376 -75.0000 264.8095
v 620.3376 75.0000 264.8095
v 622.1642 75.0000 262.4298
v 657.4854 -75.0000 289.7904
v 655.7964 -75.0000 292.2698
v 655.7964 75.0000 292.2698
v 657.4854 75.0000 289.7904
v 657.4854 -75.0000 289.7904
v 655.7964 -75.0000 292.2698
v 655.7964 75.0000 292.2698
v 657.4854 75.0000 289.7904
v 707.1554 -75.0000 320.6603
v 705.6897 -75.0000 323.2778
v 705.6897 75.0000 323.2778
v 707.1554 75.0000 320.6603
v 707.1554 -75.0000 320.6603
v 705.6897 -75.0000 323.2778
v 705.6897 75.0000 323.2778
v 707.1554 75.0000 320.6603
v 755.9438 -75.0000 344.9724
v 754.7228 -75.0000 347.7127
v 754.7228 75.0000 347.7127
v 755.9438 75.0000 344.9724
v 755.9438 -75.0000 344.9724
v 754.7228 -75.0000 347.7127
v 754.7228 75.0000 347.7127
v 755.9438 75.0000 344.9724
v 804.7444 -75.0000 364.0995
v 803.7679 -75.0000 366.9361
v 803.7679 75.0000 366.9361
v 804.7444 75.0000 364.0995
v 804.7444 -75.0000 364.0995
v 803.7679 -75.0000 366.9361
v 803.7679 75.0000 366.9361
v 804.7444 75.0000 364.0995
v 853.5528 -75.0000 378.5464
v 852.8205 -75.0000 381.4556
v 852.8205 75.0000 381.4556
v 853.5528 75.0000 378.5464
v 853.5528 -75.0000 378.5464
v 852.8205 -75.0000 381.4556
v 852.8205 75.0000 381.4556
v 853.5528 75.0000 378.5464
v 902.3661 -75.0000 388.6520
v 901.8780 -75.0000 391.6121
v 901.8780 75.0000 391.6121
v 902.3661 75.0000 388.6520
v 902.3661 -75.0000 388.6520
v 901.8780 -75.0000 391.6121
v 901.8780 75.0000 391.6121
v 902.3661 75.0000 388.6520
v 951.1824 -75.0000 394.6343
v 950.9383 -75.0000 397.6243
v 950.9383 75.0000 397.6243
v 951.1824 75.0000 394.6343
v 951.1824 -75.0000 394.6343
v 950.9383 -75.0000 397.6243
v 950.9383 75.0000 397.6243
v 951.1824 75.0000 394.6343
v 1000.5257 -75.0000 396.6164
v 1000.5129 -75.0000 399.6163
v 1000.5129 75.0000 399.6163
v 1000.5257 75.0000 396.6164
v 1000.5257 -75.0000 396.6164
v 1000.5129 -75.0000 399.6163
v 1000.5129 75.0000 399.6163
v 1000.5257 75.0000 396.6164
v 1500.0000 -75.0000 396.6152
v 1500.0000 -75.0000 399.6152
v 1500.0000 75.0000 399.6152
v 1500.0000 75.0000 396.6152
v 620.3376 75.0000 264.8095
v 474.2038 75.0000 455.1905
v 474.2038 78.0000 455.1905
v 620.3376 78.0000 264.8095
v 655.7964 75.0000 292.2698
v 520.6742 75.0000 490.6180
v 520.6742 78.0000 490.6180
v 655.7964 78.0000 292.2698
v 655.7964 75.0000 292.2698
v 520.6742 75.0000 490.6180
v 520.6742 78.0000 490.6180
v 655.7964 78.0000 292.2698
v 705.6897 75.0000 323.2778
v 588.4280 75.0000 532.6810
v 588.4280 78.0000 532.6810
v 705.6897 78.0000 323.2778
v 705.6897 75.0000 323.2778
v 588.4280 75.0000 532.6810
v 588.4280 78.0000 532.6810
v 705.6897 78.0000 323.2778
v 754.7228 75.0000 347.7127
v 657.0419 75.0000 566.9351
v 657.0419 78.0000 566.9351
v 754.7228 78.0000 347.7127
v 754.7228 75.0000 347.7127
v 657.0419 75.0000 566.9351
v 657.0419 78.0000 566.9351
v 754.7228 78.0000 347.7127
v 803.7679 75.0000 366.9361
v 725.6439 75.0000 593.8648
v 725.6439 78.0000 593.8648
v 803.7679 78.0000 366.9361
v 803.7679 75.0000 366.9361
v 725.6439 75.0000 593.8648
v 725.6439 78.0000 593.8648
v 803.7679 78.0000 366.9361
v 852.8205 75.0000 381.4556
v 794.2383 75.0000 614.1961
v 794.2383 78.0000 614.1961
v 852.8205 78.0000 381.4556
v 852.8205 75.0000 381.4556
v 794.2383 75.0000 614.1961
v 794.2383 78.0000 614.1961
v 852.8205 78.0000 381.4556
v 901.8780 75.0000 391.6121
v 862.8279 75.0000 628.4138
v 862.8279 78.0000 628.4138
v 901.8780 78.0000 391.6121
v 901.8780 75.0000 391.6121
v 862.8279 75.0000 628.4138
v 862.8279 78.0000 628.4138
v 901.8780 78.0000 391.6121
v 950.9383 75.0000 397.6243
v 931.4146 75.0000 636.8289
v 931.4146 78.0000 636.8289
v 950.9383 78.0000 397.6243
v 950.9383 75.0000 397.6243
v 931.4146 75.0000 636.8289
v 931.4146 78.0000 636.8289
v 950.9383 78.0000 397.6243
v 1000.5129 75.0000 399.6163
v 999.4871 75.0000 639.6141
v 999.4871 78.0000 639.6141
v 1000.5129 78.0000 399.6163
v 1000.5129 75.0000 399.6163
v 999.4871 75.0000 639.6141
v 999.4871 78.0000 639.6141
v 1000.5129 78.0000 399.6163
v 1500.0000 75.0000 399.6152
v 1500.0000 75.0000 639.6152
v 1500.0000 78.0000 639.6152
v 1500.0000 78.0000 399.6152
vt 1.6380 0.6875
vt 1.6439 0.6875
vt 1.6439 0.3125
vt 1.6380 0.3125
vt 1.7265 0.3125
vt 1.7327 0.3125
vt 1.7327 0.6875
vt 1.7265 0.6875
vt 1.8017 -0.7265
vt 1.7975 -0.7327
vt 1.6809 -0.6439
vt 1.6855 -0.6380
vt 1.7975 0.6875
vt 1.7975 0.3125
vt 1.6809 0.3125
vt 1.6809 0.6875
vt 1.7975 -0.7327
vt 1.8017 -0.7265
vt 1.6855 -0.6380
vt 1.6809 -0.6439
vt 1.8017 0.3125
vt 1.8017 0.6875
vt 1.6855 0.6875
vt 1.6855 0.3125
vt 1.7265 0.6875
vt 1.7327 0.6875
vt 1.7327 0.3125
vt 1.7265 0.3125
vt 1.8317 0.3125
vt 1.8382 0.3125
vt 1.8382 0.6875
vt 1.8317 0.6875
vt 1.9711 -0.8317
vt 1.9674 -0.8382
vt 1.7975 -0.7327
vt 1.8017 -0.7265
vt 1.9674 0.6875
vt 1.9674 0.3125
vt 1.7975 0.3125
vt 1.7975 0.6875
vt 1.9674 -0.8382
vt 1.9711 -0.8317
vt 1.8017 -0.7265
vt 1.7975 -0.7327
vt 1.9711 0.3125
vt 1.9711 0.6875
vt 1.8017 0.6875
vt 1.8017 0.3125
vt 1.8317 0.6875
vt 1.8382 0.6875
vt 1.8382 0.3125
vt 1.8317 0.3125
vt 1.9173 0.3125
vt 1.9242 0.3125
vt 1.9242 0.6875
vt 1.9173 0.6875
vt 2.1426 -0.9173
vt 2.1396 -0.9242
vt 1.9674 -0.8382
vt 1.9711 -0.8317
vt 2.1396 0.6875
vt 2.1396 0.3125
vt 1.9674 0.3125
vt 1.9674 0.6875
vt 2.1396 -0.9242
vt 2.1426 -0.9173
vt 1.9711 -0.8317
vt 1.9674 -0.8382
vt 2.1426 0.3125
vt 2.1426 0.6875
vt 1.9711 0.6875
vt 1.9711 0.3125
vt 1.9173 0.6875
vt 1.9242 0.6875
vt 1.9242 0.3125
vt 1.9173 0.3125
vt 1.9847 0.3125
vt 1.9918 0.3125
vt 1.9918 0.6875
vt 1.9847 0.6875
vt 2.3141 -0.9847
vt 2.3117 -0.9918
vt 2.1396 -0.9242
vt 2.1426 -0.9173
vt 2.3117 0.6875
vt 2.3117 0.3125
vt 2.1396 0.3125
vt 2.1396 0.6875
vt 2.3117 -0.9918
vt 2.3141 -0.9847
vt 2.1426 -0.9173
vt 2.1396 -0.9242
vt 2.3141 0.3125
vt 2.3141 0.6875
vt 2.1426 0.6875
vt 2.1426 0.3125
vt 1.9847 0.6875
vt 1.9918 0.6875
vt 1.9918 0.3125
vt 1.9847 0.3125
vt 2.0355 0.3125
vt 2.0428 0.3125
vt 2.0428 0.6875
vt 2.0355 0.6875
vt 2.4856 -1.0355
vt 2.4838 -1.0428
vt 2.3117 -0.9918
vt 2.3141 -0.9847
vt 2.4838 0.6875
vt 2.4838 0.3125
vt 2.3117 0.3125
vt 2.3117 0.6875
vt 2.4838 -1.0428
vt 2.4856 -1.0355
vt 2.3141 -0.9847
vt 2.3117 -0.9918
vt 2.4856 0.3125
vt 2.4856 0.6875
vt 2.3141 0.6875
vt 2.3141 0.3125
vt 2.0355 0.6875
vt 2.0428 0.6875
vt 2.0428 0.3125
vt 2.0355 0.3125
vt 2.0710 0.3125
vt 2.0784 0.3125
vt 2.0784 0.6875
vt 2.0710 0.6875
vt 2.6571 -1.0710
vt 2.6558 -1.0784
vt 2.4838 -1.0428
vt 2.4856 -1.0355
vt 2.6558 0.6875
vt 2.6558 0.3125
vt 2.4838 0.3125
vt 2.4838 0.6875
vt 2.6558 -1.0784
vt 2.6571 -1.0710
vt 2.4856 -1.0355
vt 2.4838 -1.0428
vt 2.6571 0.3125
vt 2.6571 0.6875
vt 2.4856 0.6875
vt 2.4856 0.3125
vt 2.0710 0.6875
vt 2.0784 0.6875
vt 2.0784 0.3125
vt 2.0710 0.3125
vt 2.0921 0.3125
vt 2.0995 0.3125
vt 2.0995 0.6875
vt 2.0921 0.6875
vt 2.8285 -1.0921
vt 2.8279 -1.0995
vt 2.6558 -1.0784
vt 2.6571 -1.0710
vt 2.8279 0.6875
vt 2.8279 0.3125
vt 2.6558 0.3125
vt 2.6558 0.6875
vt 2.8279 -1.0995
vt 2.8285 -1.0921
vt 2.6571 -1.0710
vt 2.6558 -1.0784
vt 2.8285 0.3125
vt 2.8285 0.6875
vt 2.6571 0.6875
vt 2.6571 0.3125
vt 2.0921 0.6875
vt 2.0995 0.6875
vt 2.0995 0.3125
vt 2.0921 0.3125
vt 2.0990 0.3125
vt 2.1065 0.3125
vt 2.1065 0.6875
vt 2.0990 0.6875
vt 2.9987 -1.0990
vt 2.9987 -1.1065
vt 2.8279 -1.0995
vt 2.8285 -1.0921
vt 2.9987 0.6875
vt 2.9987 0.3125
vt 2.8279 0.3125
vt 2.8279 0.6875
vt 2.9987 -1.1065
vt 2.9987 -1.0990
vt 2.8285 -1.0921
vt 2.8279 -1.0995
vt 2.9987 0.3125
vt 2.9987 0.6875
vt 2.8285 0.6875
vt 2.8285 0.3125
vt 2.0990 0.6875
vt 2.1065 0.6875
vt 2.1065 0.3125
vt 2.0990 0.3125
vt 2.0990 0.3125
vt 2.1065 0.3125
vt 2.1065 0.6875
vt 2.0990 0.6875
vt 4.2500 -1.0990
vt 4.2500 -1.1065
vt 2.9987 -1.1065
vt 2.9987 -1.0990
vt 4.2500 0.6875
vt 4.2500 0.3125
vt 2.9987 0.3125
vt 2.9987 0.6875
vt 4.2500 -1.1065
vt 4.2500 -1.0990
vt 2.9987 -1.0990
vt 2.9987 -1.1065
vt 4.2500 0.3125
vt 4.2500 0.6875
vt 2.9987 0.6875
vt 2.9987 0.3125
vt 1.1561 0.6875
vt 1.1620 0.6875
vt 1.1620 0.3125
vt 1.1561 0.3125
vt 1.2245 0.3125
vt 1.2307 0.3125
vt 1.2307 0.6875
vt 1.2245 0.6875
vt 2.1437 -0.2245
vt 2.1395 -0.2307
vt 2.0508 -0.1620
vt 2.0554 -0.1561
vt 2.1395 0.6875
vt 2.1395 0.3125
vt 2.0508 0.3125
vt 2.0508 0.6875
vt 2.1395 -0.2307
vt 2.1437 -0.2245
vt 2.0554 -0.1561
vt 2.0508 -0.1620
vt 2.1437 0.3125
vt 2.1437 0.6875
vt 2.0554 0.6875
vt 2.0554 0.3125
vt 1.2245 0.6875
vt 1.2307 0.6875
vt 1.2307 0.3125
vt 1.2245 0.3125
vt 1.3017 0.3125
vt 1.3082 0.3125
vt 1.3082 0.6875
vt 1.3017 0.6875
vt 2.2679 -0.3017
vt 2.2642 -0.3082
vt 2.1395 -0.2307
vt 2.1437 -0.2245
vt 2.2642 0.6875
vt 2.2642 0.3125
vt 2.1395 0.3125
vt 2.1395 0.6875
vt 2.2642 -0.3082
vt 2.2679 -0.3017
vt 2.1437 -0.2245
vt 2.1395 -0.2307
vt 2.2679 0.3125
vt 2.2679 0.6875
vt 2.1437 0.6875
vt 2.1437 0.3125
vt 1.3017 0.6875
vt 1.3082 0.6875
vt 1.3082 0.3125
vt 1.3017 0.3125
vt 1.3624 0.3125
vt 1.3693 0.3125
vt 1.3693 0.6875
vt 1.3624 0.6875
vt 2.3899 -0.3624
vt 2.3868 -0.3693
vt 2.2642 -0.3082
vt 2.2679 -0.3017
vt 2.3868 0.6875
vt 2.3868 0.3125
vt 2.2642 0.3125
vt 2.2642 0.6875
vt 2.3868 -0.3693
vt 2.3899 -0.3624
vt 2.2679 -0.3017
vt 2.2642 -0.3082
vt 2.3899 0.3125
vt 2.3899 0.6875
vt 2.2679 0.6875
vt 2.2679 0.3125
vt 1.3624 0.6875
vt 1.3693 0.6875
vt 1.3693 0.3125
vt 1.3624 0.3125
vt 1.4102 0.3125
vt 1.4173 0.3125
vt 1.4173 0.6875
vt 1.4102 0.6875
vt 2.5119 -0.4102
vt 2.5094 -0.4173
vt 2.3868 -0.3693
vt 2.3899 -0.3624
vt 2.5094 0.6875
vt 2.5094 0.3125
vt 2.3868 0.3125
vt 2.3868 0.6875
vt 2.5094 -0.4173
vt 2.5119 -0.4102
vt 2.3899 -0.3624
vt 2.3868 -0.3693
vt 2.5119 0.3125
vt 2.5119 0.6875
vt 2.3899 0.6875
vt 2.3899 0.3125
vt 1.4102 0.6875
vt 1.4173 0.6875
vt 1.4173 0.3125
vt 1.4102 0.3125
vt 1.4464 0.3125
vt 1.4536 0.3125
vt 1.4536 0.6875
vt 1.4464 0.6875
vt 2.6339 -0.4464
vt 2.6321 -0.4536
vt 2.5094 -0.4173
vt 2.5119 -0.4102
vt 2.6321 0.6875
vt 2.6321 0.3125
vt 2.5094 0.3125
vt 2.5094 0.6875
vt 2.6321 -0.4536
vt 2.6339 -0.4464
vt 2.5119 -0.4102
vt 2.5094 -0.4173
vt 2.6339 0.3125
vt 2.6339 0.6875
vt 2.5119 0.6875
vt 2.5119 0.3125
vt 1.4464 0.6875
vt 1.4536 0.6875
vt 1.4536 0.3125
vt 1.4464 0.3125
vt 1.4716 0.3125
vt 1.4790 0.3125
vt 1.4790 0.6875
vt 1.4716 0.6875
vt 2.7559 -0.4716
vt 2.7547 -0.4790
vt 2.6321 -0.4536
vt 2.6339 -0.4464
vt 2.7547 0.6875
vt 2.7547 0.3125
vt 2.6321 0.3125
vt 2.6321 0.6875
vt 2.7547 -0.4790
vt 2.7559 -0.4716
vt 2.6339 -0.4464
vt 2.6321 -0.4536
vt 2.7559 0.3125
vt 2.7559 0.6875
vt 2.6339 0.6875
vt 2.6339 0.3125
vt 1.4716 0.6875
vt 1.4790 0.6875
vt 1.4790 0.3125
vt 1.4716 0.3125
vt 1.4866 0.3125
vt 1.4941 0.3125
vt 1.4941 0.6875
vt 1.4866 0.6875
vt 2.8780 -0.4866
vt 2.8773 -0.4941
vt 2.7547 -0.4790
vt 2.7559 -0.4716
vt 2.8773 0.6875
vt 2.8773 0.3125
vt 2.7547 0.3125
vt 2.7547 0.6875
vt 2.8773 -0.4941
vt 2.8780 -0.4866
vt 2.7559 -0.4716
vt 2.7547 -0.4790
vt 2.8780 0.3125
vt 2.8780 0.6875
vt 2.7559 0.6875
vt 2.7559 0.3125
vt 1.4866 0.6875
vt 1.4941 0.6875
vt 1.4941 0.3125
vt 1.4866 0.3125
vt 1.4915 0.3125
vt 1.4990 0.3125
vt 1.4990 0.6875
vt 1.4915 0.6875
vt 3.0013 -0.4915
vt 3.0013 -0.4990
vt 2.8773 -0.4941
vt 2.8780 -0.4866
vt 3.0013 0.6875
vt 3.0013 0.3125
vt 2.8773 0.3125
vt 2.8773 0.6875
vt 3.0013 -0.4990
vt 3.0013 -0.4915
vt 2.8780 -0.4866
vt 2.8773 -0.4941
vt 3.0013 0.3125
vt 3.0013 0.6875
vt 2.8780 0.6875
vt 2.8780 0.3125
vt 1.4915 0.6875
vt 1.4990 0.6875
vt 1.4990 0.3125
vt 1.4915 0.3125
vt 1.4915 0.3125
vt 1.4990 0.3125
vt 1.4990 0.6875
vt 1.4915 0.6875
vt 4.2500 -0.4915
vt 4.2500 -0.4990
vt 3.0013 -0.4990
vt 3.0013 -0.4915
vt 4.2500 0.6875
vt 4.2500 0.3125
vt 3.0013 0.3125
vt 3.0013 0.6875
vt 4.2500 -0.4990
vt 4.2500 -0.4915
vt 3.0013 -0.4915
vt 3.0013 -0.4990
vt 4.2500 0.3125
vt 4.2500 0.6875
vt 3.0013 0.6875
vt 3.0013 0.3125
vt 1.1620 0.3125
vt 1.6380 0.3125
vt 1.6380 0.3050
vt 1.1620 0.3050
vt 1.2307 0.3050
vt 1.7265 0.3050
vt 1.7265 0.3125
vt 1.2307 0.3125
vt 2.1395 -0.2307
vt 1.8017 -0.7265
vt 1.6855 -0.6380
vt 2.0508 -0.1620
vt 1.8017 0.3125
vt 1.8017 0.3050
vt 1.6855 0.3050
vt 1.6855 0.3125
vt 1.8017 -0.7265
vt 2.1395 -0.2307
vt 2.0508 -0.1620
vt 1.6855 -0.6380
vt 2.1395 0.3050
vt 2.1395 0.3125
vt 2.0508 0.3125
vt 2.0508 0.3050
vt 1.2307 0.3125
vt 1.7265 0.3125
vt 1.7265 0.3050
vt 1.2307 0.3050
vt 1.3082 0.3050
vt 1.8317 0.3050
vt 1.8317 0.3125
vt 1.3082 0.3125
vt 2.2642 -0.3082
vt 1.9711 -0.8317
vt 1.8017 -0.7265
vt 2.1395 -0.2307
vt 1.9711 0.3125
vt 1.9711 0.3050
vt 1.8017 0.3050
vt 1.8017 0.3125
vt 1.9711 -0.8317
vt 2.2642 -0.3082
vt 2.1395 -0.2307
vt 1.8017 -0.7265
vt 2.2642 0.3050
vt 2.2642 0.3125
vt 2.1395 0.3125
vt 2.1395 0.3050
vt 1.3082 0.3125
vt 1.8317 0.3125
vt 1.8317 0.3050
vt 1.3082 0.3050
vt 1.3693 0.3050
vt 1.9173 0.3050
vt 1.9173 0.3125
vt 1.3693 0.3125
vt 2.3868 -0.3693
vt 2.1426 -0.9173
vt 1.9711 -0.8317
vt 2.2642 -0.3082
vt 2.1426 0.3125
vt 2.1426 0.3050
vt 1.9711 0.3050
vt 1.9711 0.3125
vt 2.1426 -0.9173
vt 2.3868 -0.3693
vt 2.2642 -0.3082
vt 1.9711 -0.8317
vt 2.3868 0.3050
vt 2.3868 0.3125
vt 2.2642 0.3125
vt 2.2642 0.3050
vt 1.3693 0.3125
vt 1.9173 0.3125
vt 1.9173 0.3050
vt 1.3693 0.3050
vt 1.4173 0.3050
vt 1.9847 0.3050
vt 1.9847 0.3125
vt 1.4173 0.3125
vt 2.5094 -0.4173
vt 2.3141 -0.9847
vt 2.1426 -0.9173
vt 2.3868 -0.3693
vt 2.3141 0.3125
vt 2.3141 0.3050
vt 2.1426 0.3050
vt 2.1426 0.3125
vt 2.3141 -0.9847
vt 2.5094 -0.4173
vt 2.3868 -0.3693
vt 2.1426 -0.9173
vt 2.5094 0.3050
vt 2.5094 0.3125
vt 2.3868 0.3125
vt 2.3868 0.3050
vt 1.4173 0.3125
vt 1.9847 0.3125
vt 1.9847 0.3050
vt 1.4173 0.3050
vt 1.4536 0.3050
vt 2.0355 0.3050
vt 2.0355 0.3125
vt 1.4536 0.3125
vt 2.6321 -0.4536
vt 2.4856 -1.0355
vt 2.3141 -0.9847
vt 2.5094 -0.4173
vt 2.4856 0.3125
vt 2.4856 0.3050
vt 2.3141 0.3050
vt 2.3141 0.3125
vt 2.4856 -1.0355
vt 2.6321 -0.4536
vt 2.5094 -0.4173
vt 2.3141 -0.9847
vt 2.6321 0.3050
vt 2.6321 0.3125
vt 2.5094 0.3125
vt 2.5094 0.3050
vt 1.4536 0.3125
vt 2.0355 0.3125
vt 2.0355 0.3050
vt 1.4536 0.3050
vt 1.4790 0.3050
vt 2.0710 0.3050
vt 2.0710 0.3125
vt 1.4790 0.3125
vt 2.7547 -0.4790
vt 2.6571 -1.0710
vt 2.4856 -1.0355
vt 2.6321 -0.4536
vt 2.6571 0.3125
vt 2.6571 0.3050
vt 2.4856 0.3050
vt 2.4856 0.3125
vt 2.6571 -1.0710
vt 2.7547 -0.4790
vt 2.6321 -0.4536
vt 2.4856 -1.0355
vt 2.7547 0.3050
vt 2.7547 0.3125
vt 2.6321 0.3125
vt 2.6321 0.3050
vt 1.4790 0.3125
vt 2.0710 0.3125
vt 2.0710 0.3050
vt 1.4790 0.3050
vt 1.4941 0.3050
vt 2.0921 0.3050
vt 2.0921 0.3125
vt 1.4941 0.3125
vt 2.8773 -0.4941
vt 2.8285 -1.0921
vt 2.6571 -1.0710
vt 2.7547 -0.4790
vt 2.8285 0.3125
vt 2.8285 0.3050
vt 2.6571 0.3050
vt 2.6571 0.3125
vt 2.8285 -1.0921
vt 2.8773 -0.4941
vt 2.7547 -0.4790
vt 2.6571 -1.0710
vt 2.8773 0.3050
vt 2.8773 0.3125
vt 2.7547 0.3125
vt 2.7547 0.3050
vt 1.4941 0.3125
vt 2.0921 0.3125
vt 2.0921 0.3050
vt 1.4941 0.3050
vt 1.4990 0.3050
vt 2.0990 0.3050
vt 2.0990 0.3125
vt 1.4990 0.3125
vt 3.0013 -0.4990
vt 2.9987 -1.0990
vt 2.8285 -1.0921
vt 2.8773 -0.4941
vt 2.9987 0.3125
vt 2.9987 0.3050
vt 2.8285 0.3050
vt 2.8285 0.3125
vt 2.9987 -1.0990
vt 3.0013 -0.4990
vt 2.8773 -0.4941
vt 2.8285 -1.0921
vt 3.0013 0.3050
vt 3.0013 0.3125
vt 2.8773 0.3125
vt 2.8773 0.3050
vt 1.4990 0.3125
vt 2.0990 0.3125
vt 2.0990 0.3050
vt 1.4990 0.3050
vt 1.4990 0.3050
vt 2.0990 0.3050
vt 2.0990 0.3125
vt 1.4990 0.3125
vt 4.2500 -0.4990
vt 4.2500 -1.0990
vt 2.9987 -1.0990
vt 3.0013 -0.4990
vt 4.2500 0.3125
vt 4.2500 0.3050
vt 2.9987 0.3050
vt 2.9987 0.3125
vt 4.2500 -1.0990
vt 4.2500 -0.4990
vt 3.0013 -0.4990
vt 2.9987 -1.0990
vt 4.2500 0.3050
vt 4.2500 0.3125
vt 3.0013 0.3125
vt 3.0013 0.3050
vn -0.7933 0.0000 -0.6089
vn 0.8265 0.0000 0.5630
vn -0.0000 -1.0000 0.0000
vn -0.6062 0.0000 0.7953
vn 0.0000 1.0000 0.0000
vn 0.6063 0.0000 -0.7953
vn -0.8265 0.0000 -0.5630
vn 0.8725 0.0000 0.4886
vn -0.0000 -1.0000 -0.0000
vn -0.5274 0.0000 0.8496
vn -0.0000 1.0000 -0.0000
vn 0.5274 0.0000 -0.8496
vn -0.8725 0.0000 -0.4886
vn 0.9134 0.0000 0.4070
vn 0.0000 -1.0000 0.0000
vn -0.4467 0.0000 0.8947
vn 0.0000 1.0000 0.0000
vn 0.4467 0.0000 -0.8947
vn -0.9134 0.0000 -0.4070
vn 0.9455 0.0000 0.3255
vn -0.0000 -1.0000 0.0000
vn -0.3654 0.0000 0.9308
vn 0.0000 1.0000 0.0000
vn 0.3654 0.0000 -0.9308
vn -0.9455 0.0000 -0.3255
vn 0.9698 0.0000 0.2441
vn -0.0000 -1.0000 0.0000
vn -0.2842 0.0000 0.9588
vn 0.0000 1.0000 0.0000
vn 0.2842 0.0000 -0.9588
vn -0.9698 0.0000 -0.2441
vn 0.9867 0.0000 0.1627
vn -0.0000 -1.0000 0.0000
vn -0.2030 0.0000 0.9792
vn 0.0000 1.0000 0.0000
vn 0.2030 0.0000 -0.9792
vn -0.9867 0.0000 -0.1627
vn 0.9967 0.0000 0.0813
vn -0.0000 -1.0000 0.0000
vn -0.1218 0.0000 0.9926
vn 0.0000 1.0000 0.0000
vn 0.1218 0.0000 -0.9926
vn -0.9967 0.0000 -0.0813
vn 1.0000 0.0000 0.0043
vn 0.0000 -1.0000 0.0000
vn -0.0409 0.0000 0.9992
vn 0.0000 1.0000 0.0000
vn 0.0409 0.0000 -0.9992
vn -1.0000 0.0000 -0.0043
vn 1.0000 0.0000 -0.0000
vn -0.0000 -1.0000 0.0000
vn -0.0000 0.0000 1.0000
vn -0.0000 1.0000 0.0000
vn 0.0000 0.0000 -1.0000
vn -0.7933 0.0000 -0.6089
vn 0.8265 0.0000 0.5630
vn -0.0000 -1.0000 0.0000
vn -0.6123 0.0000 0.7906
vn 0.0000 1.0000 0.0000
vn 0.6124 0.0000 -0.7906
vn -0.8265 0.0000 -0.5630
vn 0.8725 0.0000 0.4886
vn -0.0000 -1.0000 -0.0000
vn -0.5279 0.0000 0.8493
vn -0.0000 1.0000 -0.0000
vn 0.5279 0.0000 -0.8493
vn -0.8725 0.0000 -0.4886
vn 0.9134 0.0000 0.4070
vn 0.0000 -1.0000 0.0000
vn -0.4460 0.0000 0.8950
vn 0.0000 1.0000 0.0000
vn 0.4460 0.0000 -0.8950
vn -0.9134 0.0000 -0.4070
vn 0.9455 0.0000 0.3255
vn -0.0000 -1.0000 0.0000
vn -0.3649 0.0000 0.9310
vn 0.0000 1.0000 0.0000
vn 0.3649 0.0000 -0.9310
vn -0.9455 0.0000 -0.3255
vn 0.9698 0.0000 0.2441
vn -0.0000 -1.0000 0.0000
vn -0.2838 0.0000 0.9589
vn 0.0000 1.0000 0.0000
vn 0.2838 0.0000 -0.9589
vn -0.9698 0.0000 -0.2441
vn 0.9867 0.0000 0.1627
vn -0.0000 -1.0000 0.0000
vn -0.2027 0.0000 0.9792
vn 0.0000 1.0000 0.0000
vn 0.2027 0.0000 -0.9792
vn -0.9867 0.0000 -0.1627
vn 0.9967 0.0000 0.0813
vn -0.0000 -1.0000 0.0000
vn -0.1216 0.0000 0.9926
vn 0.0000 1.0000 0.0000
vn 0.1216 0.0000 -0.9926
vn -0.9967 0.0000 -0.0813
vn 1.0000 0.0000 0.0043
vn 0.0000 -1.0000 0.0000
vn -0.0401 0.0000 0.9992
vn 0.0000 1.0000 0.0000
vn 0.0401 0.0000 -0.9992
vn -1.0000 0.0000 -0.0043
vn 1.0000 0.0000 -0.0000
vn -0.0000 -1.0000 0.0000
vn 0.0000 -0.0000 1.0000
vn -0.0000 1.0000 0.0000
vn -0.0000 -0.0000 -1.0000
vn -0.7933 0.0000 -0.6089
vn 0.8265 0.0000 0.5630
vn 0.0000 -1.0000 0.0000
vn -0.6063 0.0000 0.7953
vn 0.0000 1.0000 0.0000
vn 0.6123 0.0000 -0.7906
vn -0.8265 0.0000 -0.5630
vn 0.8725 0.0000 0.4886
vn 0.0000 -1.0000 0.0000
vn -0.5274 0.0000 0.8496
vn -0.0000 1.0000 -0.0000
vn 0.5279 0.0000 -0.8493
vn -0.8725 0.0000 -0.4886
vn 0.9134 0.0000 0.4070
vn -0.0000 -1.0000 -0.0000
vn -0.4467 0.0000 0.8947
vn 0.0000 1.0000 0.0000
vn 0.4460 0.0000 -0.8950
vn -0.9134 0.0000 -0.4070
vn 0.9455 0.0000 0.3255
vn 0.0000 -1.0000 0.0000
vn -0.3654 0.0000 0.9308
vn 0.0000 1.0000 0.0000
vn 0.3649 0.0000 -0.9310
vn -0.9455 0.0000 -0.3255
vn 0.9698 0.0000 0.2441
vn 0.0000 -1.0000 0.0000
vn -0.2842 0.0000 0.9588
vn 0.0000 1.0000 0.0000
vn 0.2838 0.0000 -0.9589
vn -0.9698 0.0000 -0.2441
vn 0.9867 0.0000 0.1627
vn 0.0000 -1.0000 0.0000
vn -0.2030 0.0000 0.9792
vn 0.0000 1.0000 0.0000
vn 0.2027 0.0000 -0.9792
vn -0.9867 0.0000 -0.1627
vn 0.9967 0.0000 0.0813
vn 0.0000 -1.0000 0.0000
vn -0.1218 0.0000 0.9926
vn 0.0000 1.0000 0.0000
vn 0.1216 0.0000 -0.9926
vn -0.9967 0.0000 -0.0813
vn 1.0000 0.0000 0.0043
vn -0.0000 -1.0000 -0.0000
vn -0.0409 0.0000 0.9992
vn 0.0000 1.0000 0.0000
vn 0.0401 0.0000 -0.9992
vn -1.0000 0.0000 -0.0043
vn 1.0000 0.0000 -0.0000
vn 0.0000 -1.0000 0.0000
vn -0.0000 0.0000 1.0000
vn -0.0000 1.0000 0.0000
vn -0.0000 -0.0000 -1.0000
f 1/1/1 2/2/1 3/3/1 4/4/1
f 8/5/2 7/6/2 6/7/2 5/8/2
f 5/9/3 6/10/3 2/11/3 1/12/3
f 6/13/4 7/14/4 3/15/4 2/16/4
f 7/17/5 8/18/5 4/19/5 3/20/5
f 8/21/6 5/22/6 1/23/6 4/24/6
f 9/25/7 10/26/7 11/27/7 12/28/7
f 16/29/8 15/30/8 14/31/8 13/32/8
f 13/33/9 14/34/9 10/35/9 9/36/9
f 14/37/10 15/38/10 11/39/10 10/40/10
f 15/41/11 16/42/11 12/43/11 11/44/11
f 16/45/12 13/46/12 9/47/12 12/48/12
f 17/49/13 18/50/13 19/51/13 20/52/13
f 24/53/14 23/54/14 22/55/14 21/56/14
f 21/57/15 22/58/15 18/59/15 17/60/15
f 22/61/16 23/62/16 19/63/16 18/64/16
f 23/65/17 24/66/17 20/67/17 19/68/17
f 24/69/18 21/70/18 17/71/18 20/72/18
f 25/73/19 26/74/19 27/75/19 28/76/19
f 32/77/20 31/78/20 30/79/20 29/80/20
f 29/81/21 30/82/21 26/83/21 25/84/21
f 30/85/22 31/86/22 27/87/22 26/88/22
f 31/89/23 32/90/23 28/91/23 27/92/23
f 32/93/24 29/94/24 25/95/24 28/96/24
f 33/97/25 34/98/25 35/99/25 36/100/25
f 40/101/26 39/102/26 38/103/26 37/104/26
f 37/105/27 38/106/27 34/107/27 33/108/27
f 38/109/28 39/110/28 35/111/28 34/112/28
f 39/113/29 40/114/29 36/115/29 35/116/29
f 40/117/30 37/118/30 33/119/30 36/120/30
f 41/121/31 42/122/31 43/123/31 44/124/31
f 48/125/32 47/126/32 46/127/32 45/128/32
f 45/129/33 46/130/33 42/131/33 41/132/33
f 46/133/34 47/134/34 43/135/34 42/136/34
f 47/137/35 48/138/35 44/139/35 43/140/35
f 48/141/36 45/142/36 41/143/36 44/144/36
f 49/145/37 50/146/37 51/147/37 52/148/37
f 56/149/38 55/150/38 54/151/38 53/152/38
f 53/153/39 54/154/39 50/155/39 49/156/39
f 54/157/40 55/158/40 51/159/40 50/160/40
f 55/161/41 56/162/41 52/163/41 51/164/41
f 56/165/42 53/166/42 49/167/42 52/168/42
f 57/169/43 58/170/43 59/171/43 60/172/43
f 64/173/44 63/174/44 62/175/44 61/176/44
f 61/177/45 62/178/45 58/179/45 57/180/45
f 62/181/46 63/182/46 59/183/46 58/184/46
f 63/185/47 64/186/47 60/187/47 59/188/47
f 64/189/48 61/190/48 57/191/48 60/192/48
f 65/193/49 66/194/49 67/195/49 68/196/49
f 72/197/50 71/198/50 70/199/50 69/200/50
f 69/201/51 70/202/51 66/203/51 65/204/51
f 70/205/52 71/206/52 67/207/52 66/208/52
f 71/209/53 72/210/53 68/211/53 67/212/53
f 72/213/54 69/214/54 65/215/54 68/216/54
f 73/217/55 74/218/55 75/219/55 76/220/55
f 80/221/56 79/222/56 78/223/56 77/224/56
f 77/225/57 78/226/57 74/227/57 73/228/57
f 78/229/58 79/230/58 75/231/58 74/232/58
f 79/233/59 80/234/59 76/235/59 75/236/59
f 80/237/60 77/238/60 73/239/60 76/240/60
f 81/241/61 82/242/61 83/243/61 84/244/61
f 88/245/62 87/246/62 86/247/62 85/248/62
f 85/249/63 86/250/63 82/251/63 81/252/63
f 86/253/64 87/254/64 83/255/64 82/256/64
f 87/257/65 88/258/65 84/259/65 83/260/65
f 88/261/66 85/262/66 81/263/66 84/264/66
f 89/265/67 90/266/67 91/267/67 92/268/67
f 96/269/68 95/270/68 94/271/68 93/272/68
f 93/273/69 94/274/69 90/275/69 89/276/69
f 94/277/70 95/278/70 91/279/70 90/280/70
f 95/281/71 96/282/71 92/283/71 91/284/71
f 96/285/72 93/286/72 89/287/72 92/288/72
f 97/289/73 98/290/73 99/291/73 100/292/73
f 104/293/74 103/294/74 102/295/74 101/296/74
f 101/297/75 102/298/75 98/299/75 97/300/75
f 102/301/76 103/302/76 99/303/76 98/304/76
f 103/305/77 104/306/77 100/307/77 99/308/77
f 104/309/78 101/310/78 97/311/78 100/312/78
f 105/313/79 106/314/79 107/315/79 108/316/79
f 112/317/80 111/318/80 110/319/80 109/320/80
f 109/321/81 110/322/81 106/323/81 105/324/81
f 110/325/82 111/326/82 107/327/82 106/328/82
f 111/329/83 112/330/83 108/331/83 107/332/83
f 112/333/84 109/334/84 105/335/84 108/336/84
f 113/337/85 114/338/85 115/339/85 116/340/85
f 120/341/86 119/342/86 118/343/86 117/344/86
f 117/345/87 118/346/87 114/347/87 113/348/87
f 118/349/88 119/350/88 115/351/88 114/352/88
f 119/353/89 120/354/89 116/355/89 115/356/89
f 120/357/90 117/358/90 113/359/90 116/360/90
f 121/361/91 122/362/91 123/363/91 124/364/91
f 128/365/92 127/366/92 126/367/92 125/368/92
f 125/369/93 126/370/93 122/371/93 121/372/93
f 126/373/94 127/374/94 123/375/94 122/376/94
f 127/377/95 128/378/95 124/379/95 123/380/95
f 128/381/96 125/382/96 121/383/96 124/384/96
f 129/385/97 130/386/97 131/387/97 132/388/97
f 136/389/98 135/390/98 134/391/98 133/392/98
f 133/393/99 134/394/99 130/395/99 129/396/99
f 134/397/100 135/398/100 131/399/100 130/400/100
f 135/401/101 136/402/101 132/403/101 131/404/101
f 136/405/102 133/406/102 129/407/102 132/408/102
f 137/409/103 138/410/103 139/411/103 140/412/103
f 144/413/104 143/414/104 142/415/104 141/416/104
f 141/417/105 142/418/105 138/419/105 137/420/105
f 142/421/106 143/422/106 139/423/106 138/424/106
f 143/425/107 144/426/107 140/427/107 139/428/107
f 144/429/108 141/430/108 137/431/108 140/432/108
f 145/433/109 146/434/109 147/435/109 148/436/109
f 152/437/110 151/438/110 150/439/110 149/440/110
f 149/441/111 150/442/111 146/443/111 145/444/111
f 150/445/112 151/446/112 147/447/112 146/448/112
f 151/449/113 152/450/113 148/451/113 147/452/113
f 152/453/114 149/454/114 145/455/114 148/456/114
f 153/457/115 154/458/115 155/459/115 156/460/115
f 160/461/116 159/462/116 158/463/116 157/464/116
f 157/465/117 158/466/117 154/467/117 153/468/117
f 158/469/118 159/470/118 155/471/118 154/472/118
f 159/473/119 160/474/119 156/475/119 155/476/119
f 160/477/120 157/478/120 153/479/120 156/480/120
f 161/481/121 162/482/121 163/483/121 164/484/121
f 168/485/122 167/486/122 166/487/122 165/488/122
f 165/489/123 166/490/123 162/491/123 161/492/123
f 166/493/124 167/494/124 163/495/124 162/496/124
f 167/497/125 168/498/125 164/499/125 163/500/125
f 168/501/126 165/502/126 161/503/126 164/504/126
f 169/505/127 170/506/127 171/507/127 172/508/127
f 176/509/128 175/510/128 174/511/128 173/512/128
f 173/513/129 174/514/129 170/515/129 169/516/129
f 174/517/130 175/518/130 171/519/130 170/520/130
f 175/521/131 176/522/131 172/523/131 171/524/131
f 176/525/132 173/526/132 169/527/132 172/528/132
f 177/529/133 178/530/133 179/531/133 180/532/133
f 184/533/134 183/534/134 182/535/134 181/536/134
f 181/537/135 182/538/135 178/539/135 177/540/135
f 182/541/136 183/542/136 179/543/136 178/544/136
f 183/545/137 184/546/137 180/547/137 179/548/137
f 184/549/138 181/550/138 177/551/138 180/552/138
f 185/553/139 186/554/139 187/555/139 188/556/139
f 192/557/140 191/558/140 190/559/140 189/560/140
f 189/561/141 190/562/141 186/563/141 185/564/141
f 190/565/142 191/566/142 187/567/142 186/568/142
f 191/569/143 192/570/143 188/571/143 187/572/143
f 192/573/144 189/574/144 185/575/144 188/576/144
f 193/577/145 194/578/145 195/579/145 196/580/145
f 200/581/146 199/582/146 198/583/146 197/584/146
f 197/585/147 198/586/147 194/587/147 193/588/147
f 198/589/148 199/590/148 195/591/148 194/592/148
f 199/593/149 200/594/149 196/595/149 195/596/149
f 200/597/150 197/598/150 193/599/150 196/600/150
f 201/601/151 202/602/151 203/603/151 204/604/151
f 208/605/152 207/606/152 206/607/152 205/608/152
f 205/609/153 206/610/153 202/611/153 201/612/153
f 206/613/154 207/614/154 203/615/154 202/616/154
f 207/617/155 208/618/155 204/619/155 203/620/155
f 208/621/156 205/622/156 201/623/156 204/624/156
f 209/625/157 210/626/157 211/627/157 212/628/157
f 216/629/158 215/630/158 214/631/158 213/632/158
f 213/633/159 214/634/159 210/635/159 209/636/159
f 214/637/160 215/638/160 211/639/160 210/640/160
f 215/641/161 216/642/161 212/643/161 211/644/161
f 216/645/162 213/646/162 209/647/162 212/648/162
