# road_station.obj — gray-box hull for Missile Rider.
# GENERATED by tools/gen_road_modules.py. Do not hand-edit; edit the generator.
o road_station
v -0.6680 -0.6680 -0.5000
v -0.6680 -0.6680 0.5000
v -0.6680 0.6680 -0.5000
v -0.6680 0.6680 0.5000
v -0.5000 -0.6680 -0.5000
v -0.5000 -0.6680 0.5000
v -0.5000 0.6680 -0.5000
v -0.5000 0.6680 0.5000
v 0.5000 -0.6680 -0.5000
v 0.5000 -0.6680 0.5000
v 0.5000 0.6680 -0.5000
v 0.5000 0.6680 0.5000
v 0.6680 -0.6680 -0.5000
v 0.6680 -0.6680 0.5000
v 0.6680 0.6680 -0.5000
v 0.6680 0.6680 0.5000
v -0.6680 0.5000 -0.5000
v -0.6680 0.5000 0.5000
v -0.6680 0.6680 -0.5000
v -0.6680 0.6680 0.5000
v 0.6680 0.5000 -0.5000
v 0.6680 0.5000 0.5000
v 0.6680 0.6680 -0.5000
v 0.6680 0.6680 0.5000
v -0.6680 -0.6680 -0.5000
v -0.6680 -0.6680 0.5000
v -0.6680 -0.5000 -0.5000
v -0.6680 -0.5000 0.5000
v 0.6680 -0.6680 -0.5000
v 0.6680 -0.6680 0.5000
v 0.6680 -0.5000 -0.5000
v 0.6680 -0.5000 0.5000
v 0.6680 0.3800 -0.4400
v 0.6680 0.3800 -0.0400
v 0.6680 0.7200 -0.4400
v 0.6680 0.7200 -0.0400
v 0.9680 0.3800 -0.4400
v 0.9680 0.3800 -0.0400
v 0.9680 0.7200 -0.4400
v 0.9680 0.7200 -0.0400
v -0.8880 0.1700 0.0300
v -0.8880 0.1700 0.3300
v -0.8880 0.4300 0.0300
v -0.8880 0.4300 0.3300
v -0.6680 0.1700 0.0300
v -0.6680 0.1700 0.3300
v -0.6680 0.4300 0.0300
v -0.6680 0.4300 0.3300
v 0.6680 -0.7300 0.1300
v 0.6680 -0.7300 0.3900
v 0.6680 -0.5100 0.1300
v 0.6680 -0.5100 0.3900
v 0.9080 -0.7300 0.1300
v 0.9080 -0.7300 0.3900
v 0.9080 -0.5100 0.1300
v 0.9080 -0.5100 0.3900
v -0.8480 -0.5000 -0.4100
v -0.8480 -0.5000 -0.1900
v -0.8480 -0.3000 -0.4100
v -0.8480 -0.3000 -0.1900
v -0.6680 -0.5000 -0.4100
v -0.6680 -0.5000 -0.1900
v -0.6680 -0.3000 -0.4100
v -0.6680 -0.3000 -0.1900
v 0.0950 0.6680 -0.0250
v 0.0950 0.6680 0.0250
v 0.0950 1.3480 -0.0250
v 0.0950 1.3480 0.0250
v 0.1450 0.6680 -0.0250
v 0.1450 0.6680 0.0250
v 0.1450 1.3480 -0.0250
v 0.1450 1.3480 0.0250
vt 0.0000 1.1680
vt 1.0000 1.1680
vt 1.0000 -0.1680
vt 0.0000 -0.1680
vt 0.0000 -0.1680
vt 1.0000 -0.1680
vt 1.0000 1.1680
vt 0.0000 1.1680
vt 0.0000 1.0000
vt 0.0000 0.0000
vt -0.1680 0.0000
vt -0.1680 1.0000
vt -0.1680 1.0000
vt -0.1680 0.0000
vt 0.0000 0.0000
vt 0.0000 1.0000
vt -0.1680 1.1680
vt -0.1680 -0.1680
vt 0.0000 -0.1680
vt 0.0000 1.1680
vt 0.0000 1.1680
vt 0.0000 -0.1680
vt -0.1680 -0.1680
vt -0.1680 1.1680
vt 0.0000 1.1680
vt 1.0000 1.1680
vt 1.0000 -0.1680
vt 0.0000 -0.1680
vt 0.0000 -0.1680
vt 1.0000 -0.1680
vt 1.0000 1.1680
vt 0.0000 1.1680
vt 1.1680 1.0000
vt 1.1680 0.0000
vt 1.0000 0.0000
vt 1.0000 1.0000
vt 1.0000 1.0000
vt 1.0000 0.0000
vt 1.1680 0.0000
vt 1.1680 1.0000
vt 1.0000 1.1680
vt 1.0000 -0.1680
vt 1.1680 -0.1680
vt 1.1680 1.1680
vt 1.1680 1.1680
vt 1.1680 -0.1680
vt 1.0000 -0.1680
vt 1.0000 1.1680
vt 0.0000 0.0000
vt 1.0000 0.0000
vt 1.0000 -0.1680
vt 0.0000 -0.1680
vt 0.0000 -0.1680
vt 1.0000 -0.1680
vt 1.0000 0.0000
vt 0.0000 0.0000
vt 1.1680 1.0000
vt 1.1680 0.0000
vt -0.1680 0.0000
vt -0.1680 1.0000
vt -0.1680 1.0000
vt -0.1680 0.0000
vt 1.1680 0.0000
vt 1.1680 1.0000
vt -0.1680 0.0000
vt -0.1680 -0.1680
vt 1.1680 -0.1680
vt 1.1680 0.0000
vt 1.1680 0.0000
vt 1.1680 -0.1680
vt -0.1680 -0.1680
vt -0.1680 0.0000
vt 0.0000 1.1680
vt 1.0000 1.1680
vt 1.0000 1.0000
vt 0.0000 1.0000
vt 0.0000 1.0000
vt 1.0000 1.0000
vt 1.0000 1.1680
vt 0.0000 1.1680
vt 1.1680 1.0000
vt 1.1680 0.0000
vt -0.1680 0.0000
vt -0.1680 1.0000
vt -0.1680 1.0000
vt -0.1680 0.0000
vt 1.1680 0.0000
vt 1.1680 1.0000
vt -0.1680 1.1680
vt -0.1680 1.0000
vt 1.1680 1.0000
vt 1.1680 1.1680
vt 1.1680 1.1680
vt 1.1680 1.0000
vt -0.1680 1.0000
vt -0.1680 1.1680
vt 0.0600 0.1200
vt 0.4600 0.1200
vt 0.4600 -0.2200
vt 0.0600 -0.2200
vt 0.0600 -0.2200
vt 0.4600 -0.2200
vt 0.4600 0.1200
vt 0.0600 0.1200
vt 1.4680 0.9400
vt 1.4680 0.5400
vt 1.1680 0.5400
vt 1.1680 0.9400
vt 1.1680 0.9400
vt 1.1680 0.5400
vt 1.4680 0.5400
vt 1.4680 0.9400
vt 1.1680 0.1200
vt 1.1680 -0.2200
vt 1.4680 -0.2200
vt 1.4680 0.1200
vt 1.4680 0.1200
vt 1.4680 -0.2200
vt 1.1680 -0.2200
vt 1.1680 0.1200
vt 0.5300 0.3300
vt 0.8300 0.3300
vt 0.8300 0.0700
vt 0.5300 0.0700
vt 0.5300 0.0700
vt 0.8300 0.0700
vt 0.8300 0.3300
vt 0.5300 0.3300
vt -0.1680 0.4700
vt -0.1680 0.1700
vt -0.3880 0.1700
vt -0.3880 0.4700
vt -0.3880 0.4700
vt -0.3880 0.1700
vt -0.1680 0.1700
vt -0.1680 0.4700
vt -0.3880 0.3300
vt -0.3880 0.0700
vt -0.1680 0.0700
vt -0.1680 0.3300
vt -0.1680 0.3300
vt -0.1680 0.0700
vt -0.3880 0.0700
vt -0.3880 0.3300
vt 0.6300 1.2300
vt 0.8900 1.2300
vt 0.8900 1.0100
vt 0.6300 1.0100
vt 0.6300 1.0100
vt 0.8900 1.0100
vt 0.8900 1.2300
vt 0.6300 1.2300
vt 1.4080 0.3700
vt 1.4080 0.1100
vt 1.1680 0.1100
vt 1.1680 0.3700
vt 1.1680 0.3700
vt 1.1680 0.1100
vt 1.4080 0.1100
vt 1.4080 0.3700
vt 1.1680 1.2300
vt 1.1680 1.0100
vt 1.4080 1.0100
vt 1.4080 1.2300
vt 1.4080 1.2300
vt 1.4080 1.0100
vt 1.1680 1.0100
vt 1.1680 1.2300
vt 0.0900 1.0000
vt 0.3100 1.0000
vt 0.3100 0.8000
vt 0.0900 0.8000
vt 0.0900 0.8000
vt 0.3100 0.8000
vt 0.3100 1.0000
vt 0.0900 1.0000
vt -0.1680 0.9100
vt -0.1680 0.6900
vt -0.3480 0.6900
vt -0.3480 0.9100
vt -0.3480 0.9100
vt -0.3480 0.6900
vt -0.1680 0.6900
vt -0.1680 0.9100
vt -0.3480 1.0000
vt -0.3480 0.8000
vt -0.1680 0.8000
vt -0.1680 1.0000
vt -0.1680 1.0000
vt -0.1680 0.8000
vt -0.3480 0.8000
vt -0.3480 1.0000
vt 0.4750 -0.1680
vt 0.5250 -0.1680
vt 0.5250 -0.8480
vt 0.4750 -0.8480
vt 0.4750 -0.8480
vt 0.5250 -0.8480
vt 0.5250 -0.1680
vt 0.4750 -0.1680
vt 0.6450 0.5250
vt 0.6450 0.4750
vt 0.5950 0.4750
vt 0.5950 0.5250
vt 0.5950 0.5250
vt 0.5950 0.4750
vt 0.6450 0.4750
vt 0.6450 0.5250
vt 0.5950 -0.1680
vt 0.5950 -0.8480
vt 0.6450 -0.8480
vt 0.6450 -0.1680
vt 0.6450 -0.1680
vt 0.6450 -0.8480
vt 0.5950 -0.8480
vt 0.5950 -0.1680
vn -1.0000 0.0000 0.0000
vn 1.0000 0.0000 -0.0000
vn 0.0000 -1.0000 0.0000
vn 0.0000 1.0000 0.0000
vn 0.0000 0.0000 -1.0000
vn 0.0000 -0.0000 1.0000
vn -1.0000 0.0000 0.0000
vn 1.0000 0.0000 -0.0000
vn 0.0000 -1.0000 0.0000
vn 0.0000 1.0000 0.0000
vn 0.0000 0.0000 -1.0000
vn 0.0000 -0.0000 1.0000
vn -1.0000 0.0000 0.0000
vn 1.0000 0.0000 -0.0000
vn 0.0000 -1.0000 0.0000
vn 0.0000 1.0000 0.0000
vn 0.0000 0.0000 -1.0000
vn 0.0000 -0.0000 1.0000
vn -1.0000 0.0000 0.0000
vn 1.0000 0.0000 -0.0000
vn 0.0000 -1.0000 0.0000
vn 0.0000 1.0000 0.0000
vn 0.0000 0.0000 -1.0000
vn 0.0000 -0.0000 1.0000
vn -1.0000 0.0000 0.0000
vn 1.0000 0.0000 -0.0000
vn 0.0000 -1.0000 0.0000
vn 0.0000 1.0000 0.0000
vn 0.0000 0.0000 -1.0000
vn 0.0000 -0.0000 1.0000
vn -1.0000 0.0000 0.0000
vn 1.0000 0.0000 -0.0000
vn 0.0000 -1.0000 0.0000
vn 0.0000 1.0000 0.0000
vn 0.0000 0.0000 -1.0000
vn 0.0000 -0.0000 1.0000
vn -1.0000 0.0000 0.0000
vn 1.0000 0.0000 -0.0000
vn 0.0000 -1.0000 0.0000
vn 0.0000 1.0000 0.0000
vn 0.0000 0.0000 -1.0000
vn 0.0000 -0.0000 1.0000
vn -1.0000 0.0000 0.0000
vn 1.0000 0.0000 -0.0000
vn 0.0000 -1.0000 0.0000
vn 0.0000 1.0000 0.0000
vn 0.0000 0.0000 -1.0000
vn 0.0000 -0.0000 1.0000
vn -1.0000 0.0000 0.0000
vn 1.0000 0.0000 -0.0000
vn 0.0000 -1.0000 0.0000
vn 0.0000 1.0000 0.0000
vn 0.0000 0.0000 -1.0000
vn 0.0000 -0.0000 1.0000
f 1/1/1 2/2/1 4/3/1 3/4/1
f 7/5/2 8/6/2 6/7/2 5/8/2
f 5/9/3 6/10/3 2/11/3 1/12/3
f 3/13/4 4/14/4 8/15/4 7/16/4
f 1/17/5 3/18/5 7/19/5 5/20/5
f 6/21/6 8/22/6 4/23/6 2/24/6
f 9/25/7 10/26/7 12/27/7 11/28/7
f 15/29/8 16/30/8 14/31/8 13/32/8
f 13/33/9 14/34/9 10/35/9 9/36/9
f 11/37/10 12/38/10 16/39/10 15/40/10
f 9/41/11 11/42/11 15/43/11 13/44/11
f 14/45/12 16/46/12 12/47/12 10/48/12
f 17/49/13 18/50/13 20/51/13 19/52/13
f 23/53/14 24/54/14 22/55/14 21/56/14
f 21/57/15 22/58/15 18/59/15 17/60/15
f 19/61/16 20/62/16 24/63/16 23/64/16
f 17/65/17 19/66/17 23/67/17 21/68/17
f 22/69/18 24/70/18 20/71/18 18/72/18
f 25/73/19 26/74/19 28/75/19 27/76/19
f 31/77/20 32/78/20 30/79/20 29/80/20
f 29/81/21 30/82/21 26/83/21 25/84/21
f 27/85/22 28/86/22 32/87/22 31/88/22
f 25/89/23 27/90/23 31/91/23 29/92/23
f 30/93/24 32/94/24 28/95/24 26/96/24
f 33/97/25 34/98/25 36/99/25 35/100/25
f 39/101/26 40/102/26 38/103/26 37/104/26
f 37/105/27 38/106/27 34/107/27 33/108/27
f 35/109/28 36/110/28 40/111/28 39/112/28
f 33/113/29 35/114/29 39/115/29 37/116/29
f 38/117/30 40/118/30 36/119/30 34/120/30
f 41/121/31 42/122/31 44/123/31 43/124/31
f 47/125/32 48/126/32 46/127/32 45/128/32
f 45/129/33 46/130/33 42/131/33 41/132/33
f 43/133/34 44/134/34 48/135/34 47/136/34
f 41/137/35 43/138/35 47/139/35 45/140/35
f 46/141/36 48/142/36 44/143/36 42/144/36
f 49/145/37 50/146/37 52/147/37 51/148/37
f 55/149/38 56/150/38 54/151/38 53/152/38
f 53/153/39 54/154/39 50/155/39 49/156/39
f 51/157/40 52/158/40 56/159/40 55/160/40
f 49/161/41 51/162/41 55/163/41 53/164/41
f 54/165/42 56/166/42 52/167/42 50/168/42
f 57/169/43 58/170/43 60/171/43 59/172/43
f 63/173/44 64/174/44 62/175/44 61/176/44
f 61/177/45 62/178/45 58/179/45 57/180/45
f 59/181/46 60/182/46 64/183/46 63/184/46
f 57/185/47 59/186/47 63/187/47 61/188/47
f 62/189/48 64/190/48 60/191/48 58/192/48
f 65/193/49 66/194/49 68/195/49 67/196/49
f 71/197/50 72/198/50 70/199/50 69/200/50
f 69/201/51 70/202/51 66/203/51 65/204/51
f 67/205/52 68/206/52 72/207/52 71/208/52
f 65/209/53 67/210/53 71/211/53 69/212/53
f 70/213/54 72/214/54 68/215/54 66/216/54
