# road_junction_diverge_right_metal.obj — gray-box hull for Missile Rider.
# GENERATED by tools/gen_road_junctions.py. Do not hand-edit; edit the generator.
o road_junction_diverge_right_metal
v 0.0000 -84.0000 -240.0000
v 0.0000 -84.0000 240.0000
v 0.0000 -75.0000 240.0000
v 0.0000 -75.0000 -240.0000
v 1800.0000 -84.0000 -240.0000
v 1800.0000 -84.0000 240.0000
v 1800.0000 -75.0000 240.0000
v 1800.0000 -75.0000 -240.0000
v 1770.0000 -80.2500 -256.8000
v 1770.0000 -80.2500 256.8000
v 1770.0000 80.2500 256.8000
v 1770.0000 80.2500 -256.8000
v 1830.0000 -80.2500 -256.8000
v 1830.0000 -80.2500 256.8000
v 1830.0000 80.2500 256.8000
v 1830.0000 80.2500 -256.8000
v 1770.0000 -80.2500 -256.8000
v 1770.0000 -80.2500 256.8000
v 1770.0000 80.2500 256.8000
v 1770.0000 80.2500 -256.8000
v 1830.0000 -80.2500 -256.8000
v 1830.0000 -80.2500 256.8000
v 1830.0000 80.2500 256.8000
v 1830.0000 80.2500 -256.8000
v 1057.0560 -84.0000 260.7918
v 922.0341 -84.0000 459.2082
v 922.0341 -75.0000 459.2082
v 1057.0560 -75.0000 260.7918
v 1086.4384 -84.0000 280.9583
v 961.2300 -84.0000 485.7090
v 961.2300 -75.0000 485.7090
v 1086.4384 -75.0000 280.9583
v 1086.4384 -84.0000 280.9583
v 961.2300 -84.0000 485.7090
v 961.2300 -75.0000 485.7090
v 1086.4384 -75.0000 280.9583
v 1139.0632 -84.0000 311.0808
v 1027.6467 -84.0000 523.6517
v 1027.6467 -75.0000 523.6517
v 1139.0632 -75.0000 311.0808
v 1139.0632 -84.0000 311.0808
v 1027.6467 -84.0000 523.6517
v 1027.6467 -75.0000 523.6517
v 1139.0632 -75.0000 311.0808
v 1190.6165 -84.0000 335.6333
v 1095.1348 -84.0000 555.8224
v 1095.1348 -75.0000 555.8224
v 1190.6165 -75.0000 335.6333
v 1190.6165 -84.0000 335.6333
v 1095.1348 -84.0000 555.8224
v 1095.1348 -75.0000 555.8224
v 1190.6165 -75.0000 335.6333
v 1242.1748 -84.0000 355.7716
v 1162.6180 -84.0000 582.2020
v 1162.6180 -75.0000 582.2020
v 1242.1748 -75.0000 355.7716
v 1242.1748 -84.0000 355.7716
v 1162.6180 -84.0000 582.2020
v 1162.6180 -75.0000 582.2020
v 1242.1748 -75.0000 355.7716
v 1293.7365 -84.0000 371.8488
v 1230.0977 -84.0000 603.2578
v 1230.0977 -75.0000 603.2578
v 1293.7365 -75.0000 371.8488
v 1293.7365 -84.0000 371.8488
v 1230.0977 -84.0000 603.2578
v 1230.0977 -75.0000 603.2578
v 1293.7365 -75.0000 371.8488
v 1345.3005 -84.0000 384.1204
v 1297.5751 -84.0000 619.3272
v 1297.5751 -75.0000 619.3272
v 1345.3005 -75.0000 384.1204
v 1345.3005 -84.0000 384.1204
v 1297.5751 -84.0000 619.3272
v 1297.5751 -75.0000 619.3272
v 1345.3005 -75.0000 384.1204
v 1396.8662 -84.0000 392.7669
v 1365.0509 -84.0000 630.6487
v 1365.0509 -75.0000 630.6487
v 1396.8662 -75.0000 392.7669
v 1396.8662 -84.0000 392.7669
v 1365.0509 -84.0000 630.6487
v 1365.0509 -75.0000 630.6487
v 1396.8662 -75.0000 392.7669
v 1448.4329 -84.0000 397.9088
v 1432.5257 -84.0000 637.3810
v 1432.5257 -75.0000 637.3810
v 1448.4329 -75.0000 397.9088
v 1448.4329 -84.0000 397.9088
v 1432.5257 -84.0000 637.3810
v 1432.5257 -75.0000 637.3810
v 1448.4329 -75.0000 397.9088
v 1503.9702 -84.0000 399.6809
v 1496.0298 -84.0000 639.5495
v 1496.0298 -75.0000 639.5495
v 1503.9702 -75.0000 399.6809
vt -0.1000 0.7100
vt 1.1000 0.7100
vt 1.1000 0.6875
vt -0.1000 0.6875
vt -0.1000 0.6875
vt 1.1000 0.6875
vt 1.1000 0.7100
vt -0.1000 0.7100
vt 5.0000 1.1000
vt 5.0000 -0.1000
vt 0.5000 -0.1000
vt 0.5000 1.1000
vt 5.0000 0.7100
vt 5.0000 0.6875
vt 0.5000 0.6875
vt 0.5000 0.7100
vt 5.0000 -0.1000
vt 5.0000 1.1000
vt 0.5000 1.1000
vt 0.5000 -0.1000
vt 5.0000 0.6875
vt 5.0000 0.7100
vt 0.5000 0.7100
vt 0.5000 0.6875
vt -0.1420 0.7006
vt 1.1420 0.7006
vt 1.1420 0.2994
vt -0.1420 0.2994
vt -0.1420 0.2994
vt 1.1420 0.2994
vt 1.1420 0.7006
vt -0.1420 0.7006
vt 5.0750 1.1420
vt 5.0750 -0.1420
vt 4.9250 -0.1420
vt 4.9250 1.1420
vt 5.0750 0.7006
vt 5.0750 0.2994
vt 4.9250 0.2994
vt 4.9250 0.7006
vt 5.0750 -0.1420
vt 5.0750 1.1420
vt 4.9250 1.1420
vt 4.9250 -0.1420
vt 5.0750 0.2994
vt 5.0750 0.7006
vt 4.9250 0.7006
vt 4.9250 0.2994
vt -0.1420 0.7006
vt 1.1420 0.7006
vt 1.1420 0.2994
vt -0.1420 0.2994
vt -0.1420 0.2994
vt 1.1420 0.2994
vt 1.1420 0.7006
vt -0.1420 0.7006
vt 5.0750 1.1420
vt 5.0750 -0.1420
vt 4.9250 -0.1420
vt 4.9250 1.1420
vt 5.0750 0.7006
vt 5.0750 0.2994
vt 4.9250 0.2994
vt 4.9250 0.7006
vt 5.0750 -0.1420
vt 5.0750 1.1420
vt 4.9250 1.1420
vt 4.9250 -0.1420
vt 5.0750 0.2994
vt 5.0750 0.7006
vt 4.9250 0.7006
vt 4.9250 0.2994
vt 1.1520 0.7100
vt 1.6480 0.7100
vt 1.6480 0.6875
vt 1.1520 0.6875
vt 1.2024 0.6875
vt 1.7143 0.6875
vt 1.7143 0.7100
vt 1.2024 0.7100
vt 3.2161 -0.2024
vt 2.9031 -0.7143
vt 2.8051 -0.6480
vt 3.1426 -0.1520
vt 2.9031 0.7100
vt 2.9031 0.6875
vt 2.8051 0.6875
vt 2.8051 0.7100
vt 2.9031 -0.7143
vt 3.2161 -0.2024
vt 3.1426 -0.1520
vt 2.8051 -0.6480
vt 3.2161 0.6875
vt 3.2161 0.7100
vt 3.1426 0.7100
vt 3.1426 0.6875
vt 1.2024 0.7100
vt 1.7143 0.7100
vt 1.7143 0.6875
vt 1.2024 0.6875
vt 1.2777 0.6875
vt 1.8091 0.6875
vt 1.8091 0.7100
vt 1.2777 0.7100
vt 3.3477 -0.2777
vt 3.0691 -0.8091
vt 2.9031 -0.7143
vt 3.2161 -0.2024
vt 3.0691 0.7100
vt 3.0691 0.6875
vt 2.9031 0.6875
vt 2.9031 0.7100
vt 3.0691 -0.8091
vt 3.3477 -0.2777
vt 3.2161 -0.2024
vt 2.9031 -0.7143
vt 3.3477 0.6875
vt 3.3477 0.7100
vt 3.2161 0.7100
vt 3.2161 0.6875
vt 1.2777 0.7100
vt 1.8091 0.7100
vt 1.8091 0.6875
vt 1.2777 0.6875
vt 1.3391 0.6875
vt 1.8896 0.6875
vt 1.8896 0.7100
vt 1.3391 0.7100
vt 3.4765 -0.3391
vt 3.2378 -0.8896
vt 3.0691 -0.8091
vt 3.3477 -0.2777
vt 3.2378 0.7100
vt 3.2378 0.6875
vt 3.0691 0.6875
vt 3.0691 0.7100
vt 3.2378 -0.8896
vt 3.4765 -0.3391
vt 3.3477 -0.2777
vt 3.0691 -0.8091
vt 3.4765 0.6875
vt 3.4765 0.7100
vt 3.3477 0.7100
vt 3.3477 0.6875
vt 1.3391 0.7100
vt 1.8896 0.7100
vt 1.8896 0.6875
vt 1.3391 0.6875
vt 1.3894 0.6875
vt 1.9555 0.6875
vt 1.9555 0.7100
vt 1.3894 0.7100
vt 3.6054 -0.3894
vt 3.4065 -0.9555
vt 3.2378 -0.8896
vt 3.4765 -0.3391
vt 3.4065 0.7100
vt 3.4065 0.6875
vt 3.2378 0.6875
vt 3.2378 0.7100
vt 3.4065 -0.9555
vt 3.6054 -0.3894
vt 3.4765 -0.3391
vt 3.2378 -0.8896
vt 3.6054 0.6875
vt 3.6054 0.7100
vt 3.4765 0.7100
vt 3.4765 0.6875
vt 1.3894 0.7100
vt 1.9555 0.7100
vt 1.9555 0.6875
vt 1.3894 0.6875
vt 1.4296 0.6875
vt 2.0081 0.6875
vt 2.0081 0.7100
vt 1.4296 0.7100
vt 3.7343 -0.4296
vt 3.5752 -1.0081
vt 3.4065 -0.9555
vt 3.6054 -0.3894
vt 3.5752 0.7100
vt 3.5752 0.6875
vt 3.4065 0.6875
vt 3.4065 0.7100
vt 3.5752 -1.0081
vt 3.7343 -0.4296
vt 3.6054 -0.3894
vt 3.4065 -0.9555
vt 3.7343 0.6875
vt 3.7343 0.7100
vt 3.6054 0.7100
vt 3.6054 0.6875
vt 1.4296 0.7100
vt 2.0081 0.7100
vt 2.0081 0.6875
vt 1.4296 0.6875
vt 1.4603 0.6875
vt 2.0483 0.6875
vt 2.0483 0.7100
vt 1.4603 0.7100
vt 3.8633 -0.4603
vt 3.7439 -1.0483
vt 3.5752 -1.0081
vt 3.7343 -0.4296
vt 3.7439 0.7100
vt 3.7439 0.6875
vt 3.5752 0.6875
vt 3.5752 0.7100
vt 3.7439 -1.0483
vt 3.8633 -0.4603
vt 3.7343 -0.4296
vt 3.5752 -1.0081
vt 3.8633 0.6875
vt 3.8633 0.7100
vt 3.7343 0.7100
vt 3.7343 0.6875
vt 1.4603 0.7100
vt 2.0483 0.7100
vt 2.0483 0.6875
vt 1.4603 0.6875
vt 1.4819 0.6875
vt 2.0766 0.6875
vt 2.0766 0.7100
vt 1.4819 0.7100
vt 3.9922 -0.4819
vt 3.9126 -1.0766
vt 3.7439 -1.0483
vt 3.8633 -0.4603
vt 3.9126 0.7100
vt 3.9126 0.6875
vt 3.7439 0.6875
vt 3.7439 0.7100
vt 3.9126 -1.0766
vt 3.9922 -0.4819
vt 3.8633 -0.4603
vt 3.7439 -1.0483
vt 3.9922 0.6875
vt 3.9922 0.7100
vt 3.8633 0.7100
vt 3.8633 0.6875
vt 1.4819 0.7100
vt 2.0766 0.7100
vt 2.0766 0.6875
vt 1.4819 0.6875
vt 1.4948 0.6875
vt 2.0935 0.6875
vt 2.0935 0.7100
vt 1.4948 0.7100
vt 4.1211 -0.4948
vt 4.0813 -1.0935
vt 3.9126 -1.0766
vt 3.9922 -0.4819
vt 4.0813 0.7100
vt 4.0813 0.6875
vt 3.9126 0.6875
vt 3.9126 0.7100
vt 4.0813 -1.0935
vt 4.1211 -0.4948
vt 3.9922 -0.4819
vt 3.9126 -1.0766
vt 4.1211 0.6875
vt 4.1211 0.7100
vt 3.9922 0.7100
vt 3.9922 0.6875
vt 1.4948 0.7100
vt 2.0935 0.7100
vt 2.0935 0.6875
vt 1.4948 0.6875
vt 1.4992 0.6875
vt 2.0989 0.6875
vt 2.0989 0.7100
vt 1.4992 0.7100
vt 4.2599 -0.4992
vt 4.2401 -1.0989
vt 4.0813 -1.0935
vt 4.1211 -0.4948
vt 4.2401 0.7100
vt 4.2401 0.6875
vt 4.0813 0.6875
vt 4.0813 0.7100
vt 4.2401 -1.0989
vt 4.2599 -0.4992
vt 4.1211 -0.4948
vt 4.0813 -1.0935
vt 4.2599 0.6875
vt 4.2599 0.7100
vt 4.1211 0.7100
vt 4.1211 0.6875
vn -1.0000 0.0000 0.0000
vn 1.0000 0.0000 -0.0000
vn 0.0000 -1.0000 0.0000
vn 0.0000 -0.0000 1.0000
vn 0.0000 1.0000 0.0000
vn 0.0000 -0.0000 -1.0000
vn -1.0000 0.0000 0.0000
vn 1.0000 0.0000 -0.0000
vn 0.0000 -1.0000 0.0000
vn 0.0000 -0.0000 1.0000
vn 0.0000 1.0000 0.0000
vn 0.0000 -0.0000 -1.0000
vn -1.0000 0.0000 0.0000
vn 1.0000 0.0000 -0.0000
vn 0.0000 -1.0000 0.0000
vn 0.0000 -0.0000 1.0000
vn 0.0000 1.0000 0.0000
vn 0.0000 -0.0000 -1.0000
vn -0.8267 0.0000 -0.5626
vn 0.8531 0.0000 0.5217
vn -0.0000 -1.0000 -0.0000
vn -0.5601 0.0000 0.8284
vn 0.0000 1.0000 0.0000
vn 0.5659 0.0000 -0.8245
vn -0.8531 0.0000 -0.5217
vn 0.8857 0.0000 0.4642
vn 0.0000 -1.0000 0.0000
vn -0.4960 0.0000 0.8683
vn -0.0000 1.0000 -0.0000
vn 0.4968 0.0000 -0.8679
vn -0.8857 0.0000 -0.4642
vn 0.9175 0.0000 0.3978
vn 0.0000 -1.0000 0.0000
vn -0.4303 0.0000 0.9027
vn 0.0000 1.0000 0.0000
vn 0.4300 0.0000 -0.9028
vn -0.9175 0.0000 -0.3978
vn 0.9435 0.0000 0.3315
vn 0.0000 -1.0000 0.0000
vn -0.3641 0.0000 0.9314
vn -0.0000 1.0000 -0.0000
vn 0.3638 0.0000 -0.9315
vn -0.9435 0.0000 -0.3315
vn 0.9642 0.0000 0.2652
vn 0.0000 -1.0000 0.0000
vn -0.2979 0.0000 0.9546
vn 0.0000 1.0000 0.0000
vn 0.2977 0.0000 -0.9547
vn -0.9642 0.0000 -0.2652
vn 0.9800 0.0000 0.1989
vn 0.0000 -1.0000 0.0000
vn -0.2317 0.0000 0.9728
vn 0.0000 1.0000 0.0000
vn 0.2315 0.0000 -0.9728
vn -0.9800 0.0000 -0.1989
vn 0.9912 0.0000 0.1326
vn 0.0000 -1.0000 0.0000
vn -0.1655 0.0000 0.9862
vn 0.0000 1.0000 0.0000
vn 0.1654 0.0000 -0.9862
vn -0.9912 0.0000 -0.1326
vn 0.9978 0.0000 0.0663
vn -0.0000 -1.0000 -0.0000
vn -0.0993 0.0000 0.9951
vn 0.0000 1.0000 0.0000
vn 0.0992 0.0000 -0.9951
vn -0.9978 0.0000 -0.0663
vn 0.9995 0.0000 0.0331
vn 0.0000 -1.0000 0.0000
vn -0.0341 0.0000 0.9994
vn 0.0000 1.0000 0.0000
vn 0.0319 0.0000 -0.9995
f 1/1/1 2/2/1 3/3/1 4/4/1
f 8/5/2 7/6/2 6/7/2 5/8/2
f 5/9/3 6/10/3 2/11/3 1/12/3
f 6/13/4 7/14/4 3/15/4 2/16/4
f 7/17/5 8/18/5 4/19/5 3/20/5
f 8/21/6 5/22/6 1/23/6 4/24/6
f 9/25/7 10/26/7 11/27/7 12/28/7
f 16/29/8 15/30/8 14/31/8 13/32/8
f 13/33/9 14/34/9 10/35/9 9/36/9
f 14/37/10 15/38/10 11/39/10 10/40/10
f 15/41/11 16/42/11 12/43/11 11/44/11
f 16/45/12 13/46/12 9/47/12 12/48/12
f 17/49/13 18/50/13 19/51/13 20/52/13
f 24/53/14 23/54/14 22/55/14 21/56/14
f 21/57/15 22/58/15 18/59/15 17/60/15
f 22/61/16 23/62/16 19/63/16 18/64/16
f 23/65/17 24/66/17 20/67/17 19/68/17
f 24/69/18 21/70/18 17/71/18 20/72/18
f 25/73/19 26/74/19 27/75/19 28/76/19
f 32/77/20 31/78/20 30/79/20 29/80/20
f 29/81/21 30/82/21 26/83/21 25/84/21
f 30/85/22 31/86/22 27/87/22 26/88/22
f 31/89/23 32/90/23 28/91/23 27/92/23
f 32/93/24 29/94/24 25/95/24 28/96/24
f 33/97/25 34/98/25 35/99/25 36/100/25
f 40/101/26 39/102/26 38/103/26 37/104/26
f 37/105/27 38/106/27 34/107/27 33/108/27
f 38/109/28 39/110/28 35/111/28 34/112/28
f 39/113/29 40/114/29 36/115/29 35/116/29
f 40/117/30 37/118/30 33/119/30 36/120/30
f 41/121/31 42/122/31 43/123/31 44/124/31
f 48/125/32 47/126/32 46/127/32 45/128/32
f 45/129/33 46/130/33 42/131/33 41/132/33
f 46/133/34 47/134/34 43/135/34 42/136/34
f 47/137/35 48/138/35 44/139/35 43/140/35
f 48/141/36 45/142/36 41/143/36 44/144/36
f 49/145/37 50/146/37 51/147/37 52/148/37
f 56/149/38 55/150/38 54/151/38 53/152/38
f 53/153/39 54/154/39 50/155/39 49/156/39
f 54/157/40 55/158/40 51/159/40 50/160/40
f 55/161/41 56/162/41 52/163/41 51/164/41
f 56/165/42 53/166/42 49/167/42 52/168/42
f 57/169/43 58/170/43 59/171/43 60/172/43
f 64/173/44 63/174/44 62/175/44 61/176/44
f 61/177/45 62/178/45 58/179/45 57/180/45
f 62/181/46 63/182/46 59/183/46 58/184/46
f 63/185/47 64/186/47 60/187/47 59/188/47
f 64/189/48 61/190/48 57/191/48 60/192/48
f 65/193/49 66/194/49 67/195/49 68/196/49
f 72/197/50 71/198/50 70/199/50 69/200/50
f 69/201/51 70/202/51 66/203/51 65/204/51
f 70/205/52 71/206/52 67/207/52 66/208/52
f 71/209/53 72/210/53 68/211/53 67/212/53
f 72/213/54 69/214/54 65/215/54 68/216/54
f 73/217/55 74/218/55 75/219/55 76/220/55
f 80/221/56 79/222/56 78/223/56 77/224/56
f 77/225/57 78/226/57 74/227/57 73/228/57
f 78/229/58 79/230/58 75/231/58 74/232/58
f 79/233/59 80/234/59 76/235/59 75/236/59
f 80/237/60 77/238/60 73/239/60 76/240/60
f 81/241/61 82/242/61 83/243/61 84/244/61
f 88/245/62 87/246/62 86/247/62 85/248/62
f 85/249/63 86/250/63 82/251/63 81/252/63
f 86/253/64 87/254/64 83/255/64 82/256/64
f 87/257/65 88/258/65 84/259/65 83/260/65
f 88/261/66 85/262/66 81/263/66 84/264/66
f 89/265/67 90/266/67 91/267/67 92/268/67
f 96/269/68 95/270/68 94/271/68 93/272/68
f 93/273/69 94/274/69 90/275/69 89/276/69
f 94/277/70 95/278/70 91/279/70 90/280/70
f 95/281/71 96/282/71 92/283/71 91/284/71
f 96/285/72 93/286/72 89/287/72 92/288/72
